<svg width="391" height="602" viewBox="0 0 391 602" fill="none" xmlns="http://www.w3.org/2000/svg">
<path d="M69.0474 390.011C80.1106 390.011 89.0791 384.849 89.0791 378.482C89.0791 372.115 80.1106 366.953 69.0474 366.953C57.9842 366.953 49.0156 372.115 49.0156 378.482C49.0156 384.849 57.9842 390.011 69.0474 390.011Z" fill="#D7E9FF"/>
<path d="M78.2739 214.667H60.2754V377.445H78.2739V214.667Z" fill="#ECF4FF"/>
<path d="M69.0558 214.667H60.2754V377.445H69.0558V214.667Z" fill="#C9E0FF"/>
<path d="M69.049 294.752C107.184 294.752 138.098 261.27 138.098 219.968C138.098 178.666 107.184 145.185 69.049 145.185C30.9143 145.185 0 178.666 0 219.968C0 261.27 30.9143 294.752 69.049 294.752Z" fill="#ECF4FF"/>
<path d="M95.3908 272.867C57.2603 272.867 26.3419 239.389 26.3419 198.083C26.3419 180.426 32.0041 164.205 41.4592 151.413C17.0691 162.951 0.00976562 189.291 0.00976562 219.959C0.00976562 261.256 30.9282 294.742 69.0587 294.742C90.8867 294.742 110.344 283.759 122.999 266.629C114.538 270.63 105.202 272.867 95.3908 272.867Z" fill="#C4DCFF"/>
<path d="M220.887 414.396C235.037 414.396 246.508 407.793 246.508 399.649C246.508 391.504 235.037 384.901 220.887 384.901C206.736 384.901 195.266 391.504 195.266 399.649C195.266 407.793 206.736 414.396 220.887 414.396Z" fill="#D7E9FF"/>
<path d="M230.069 237.389H212.135V399.658H230.069V237.389Z" fill="#ECF4FF"/>
<path d="M220.888 237.389H212.135V399.658H220.888V237.389Z" fill="#C9E0FF"/>
<path d="M289.719 242.671C289.719 283.841 258.901 317.219 220.889 317.219C182.877 317.219 152.059 283.841 152.059 242.671C152.059 201.502 183.095 0 221.108 0C259.12 0 289.719 201.502 289.719 242.671Z" fill="#ECF4FF"/>
<path d="M245.935 296.406C207.923 296.406 177.105 263.029 177.105 221.859C177.105 188.927 196.964 53.4259 224.363 0.509162C223.287 0.181842 222.202 0 221.108 0C183.095 0 152.059 201.502 152.059 242.671C152.059 283.841 182.877 317.219 220.889 317.219C242.379 317.219 261.572 306.544 274.191 289.833C265.566 294.042 256.01 296.406 245.935 296.406Z" fill="#C4DCFF"/>
<path d="M329.907 482.142C340.97 482.142 349.939 476.981 349.939 470.613C349.939 464.246 340.97 459.084 329.907 459.084C318.843 459.084 309.875 464.246 309.875 470.613C309.875 476.981 318.843 482.142 329.907 482.142Z" fill="#D7E9FF"/>
<path d="M336.617 372.254H322.594V470.604H336.617V372.254Z" fill="#ECF4FF"/>
<path d="M329.432 372.254H322.594V470.604H329.432V372.254Z" fill="#C9E0FF"/>
<path d="M328.749 434.672C362.579 434.672 390.003 408.579 390.003 376.391C390.003 344.203 362.579 318.11 328.749 318.11C294.92 318.11 267.496 344.203 267.496 376.391C267.496 408.579 294.92 434.672 328.749 434.672Z" fill="#ECF4FF"/>
<path d="M352.11 417.615C318.283 417.615 290.857 391.52 290.857 359.334C290.857 345.568 295.881 332.93 304.26 322.965C282.624 331.957 267.488 352.487 267.488 376.391C267.488 408.577 294.915 434.672 328.742 434.672C348.108 434.672 365.368 426.107 376.592 412.76C369.097 415.878 360.818 417.615 352.11 417.615Z" fill="#C4DCFF"/>
<path d="M331.692 376.182C360.849 376.182 384.484 353.695 384.484 325.956C384.484 298.217 360.849 275.731 331.692 275.731C302.536 275.731 278.9 298.217 278.9 325.956C278.9 353.695 302.536 376.182 331.692 376.182Z" fill="#ECF4FF"/>
<path d="M351.824 361.489C322.666 361.489 299.032 339.004 299.032 311.263C299.032 299.407 303.363 288.514 310.585 279.922C291.939 287.669 278.9 305.362 278.9 325.965C278.9 353.706 302.534 376.191 331.692 376.191C348.378 376.191 363.249 368.817 372.923 357.306C366.468 359.988 359.328 361.489 351.824 361.489Z" fill="#C4DCFF"/>
<path d="M330.392 316.018C352.639 316.018 370.674 298.856 370.674 277.686C370.674 256.515 352.639 239.353 330.392 239.353C308.144 239.353 290.109 256.515 290.109 277.686C290.109 298.856 308.144 316.018 330.392 316.018Z" fill="#ECF4FF"/>
<path d="M345.763 304.808C323.516 304.808 305.481 287.642 305.481 266.475C305.481 257.428 308.781 249.109 314.298 242.553C300.065 248.463 290.117 261.974 290.117 277.695C290.117 298.861 308.152 316.027 330.4 316.027C343.137 316.027 354.489 310.399 361.865 301.616C356.932 303.662 351.489 304.808 345.763 304.808Z" fill="#C4DCFF"/>
<path d="M154.983 392.662C159.4 383.53 150.124 369.942 134.263 362.312C118.402 354.682 101.963 355.9 97.5455 365.031C93.128 374.163 102.405 387.751 118.266 395.381C134.126 403.011 150.565 401.793 154.983 392.662Z" fill="#D7E9FF"/>
<path d="M115.531 318.737C115.531 307.963 116.78 300.134 119.279 295.243C121.777 290.351 126.345 286.796 132.992 284.587C139.639 282.368 144.061 279.977 146.258 277.413C148.455 274.849 149.559 271.403 149.559 267.084C149.559 254.073 143.833 244.135 132.381 237.271C126.947 234.016 122.597 233.161 119.333 234.707C116.069 236.261 114.355 240.071 114.209 246.145L82.2695 227.005C82.4154 212.394 86.9469 203.602 95.8732 200.638C104.79 197.674 116.963 200.802 132.381 210.039C147.945 219.368 160.017 230.542 168.615 243.581C177.204 256.619 181.498 270.33 181.498 284.723C181.498 291.26 180.103 296.606 177.313 300.743C174.523 304.88 169.645 308.399 162.67 311.299L153.753 314.845C148.173 317.119 144.982 321.783 144.17 328.847L143.732 335.63L115.531 318.737ZM112.34 352.178C112.34 347.041 114.009 343.813 117.355 342.477C120.692 341.149 124.968 342.04 130.183 345.168C135.399 348.287 139.675 352.515 143.012 357.852C146.349 363.189 148.027 368.426 148.027 373.554C148.027 378.609 146.395 381.81 143.131 383.146C139.867 384.483 135.545 383.546 130.193 380.337C124.831 377.127 120.519 372.89 117.254 367.644C113.972 362.389 112.34 357.233 112.34 352.178Z" fill="#0D1883"/>
<path d="M143.122 383.146L138.089 375.654L131.889 379.4L131.506 390.22L143.122 383.146Z" fill="#0D1883"/>
<path d="M104.637 350.114L115.861 343.268L117.465 352.796L104.637 350.114Z" fill="#0D1883"/>
<path d="M131.004 343.268L143.724 335.63C143.724 335.63 134.788 323.719 134.578 324.029C134.369 324.338 128.068 333.639 128.068 333.639L131.004 343.268Z" fill="#0D1883"/>
<path d="M101.499 253.782L114.218 246.145C114.218 246.145 107.307 234.188 106.897 234.388C106.486 234.598 98.7363 240.671 98.7363 240.671L101.499 253.782Z" fill="#0D1883"/>
<path d="M81.916 208.748C81.916 208.748 92.1552 202.356 92.0276 202.456C91.9 202.556 92.9394 209.876 92.9394 209.876L81.916 208.748Z" fill="#0D1883"/>
<path d="M102.822 326.374C102.822 315.6 104.071 307.772 106.57 302.88C109.068 297.988 113.636 294.433 120.283 292.224C126.93 290.005 131.352 287.614 133.549 285.05C135.746 282.486 136.85 279.04 136.85 274.721C136.85 261.71 131.124 251.773 119.672 244.908C114.238 241.653 109.888 240.798 106.624 242.344C103.36 243.899 101.646 247.708 101.5 253.782L69.5605 234.643C69.7064 220.032 74.238 211.24 83.1643 208.275C92.0814 205.311 104.254 208.439 119.672 217.677C135.236 227.005 147.308 238.18 155.906 251.218C164.495 264.256 168.789 277.967 168.789 292.36C168.789 298.898 167.394 304.244 164.604 308.381C161.814 312.518 156.936 316.036 149.961 318.937L141.044 322.483C135.464 324.756 132.273 329.42 131.461 336.485L131.023 343.268L102.822 326.374ZM99.6218 359.816C99.6218 354.678 101.29 351.451 104.637 350.114C107.974 348.787 112.25 349.678 117.465 352.805C122.681 355.924 126.957 360.152 130.294 365.489C133.631 370.826 135.309 376.063 135.309 381.191C135.309 386.247 133.677 389.447 130.413 390.784C127.148 392.12 122.827 391.184 117.474 387.974C112.113 384.765 107.8 380.528 104.536 375.281C101.254 370.026 99.6218 364.871 99.6218 359.816Z" fill="#6E79BA"/>
<path d="M303.466 485.709C307.882 476.577 298.605 462.986 282.745 455.354C266.886 447.722 250.449 448.937 246.033 458.07C241.617 467.202 250.894 480.793 266.754 488.425C282.613 496.058 299.05 494.842 303.466 485.709Z" fill="#D7E9FF"/>
<path d="M282.059 436.554C287.603 439.872 292.07 444.264 295.453 449.71C298.836 455.156 300.523 460.548 300.523 465.885C300.523 471.141 298.827 474.459 295.453 475.859C292.07 477.251 287.603 476.287 282.059 472.968C276.589 469.686 272.157 465.322 268.775 459.875C265.392 454.429 263.705 449.074 263.705 443.819C263.705 438.563 265.392 435.217 268.775 433.79C272.157 432.353 276.589 433.281 282.059 436.554ZM295.736 425.889L268.373 409.495L264.498 286.705L299.611 307.744L295.736 425.889Z" fill="#0D1883"/>
<path d="M282.881 483.324L296.056 475.587L292.992 468.995L283.829 471.886L282.881 483.324Z" fill="#0D1883"/>
<path d="M281.566 434.253L295.735 425.889L292.572 408.141L282.369 409.677L281.566 434.253Z" fill="#0D1883"/>
<path d="M254.877 442.045L268.061 434.135L275.492 439.045L269.247 445.773L254.877 442.045Z" fill="#0D1883"/>
<path d="M267.881 444.919C273.425 448.237 277.893 452.629 281.275 458.075C284.658 463.521 286.345 468.913 286.345 474.25C286.345 479.506 284.649 482.824 281.275 484.224C277.893 485.615 273.425 484.652 267.881 481.333C262.411 478.051 257.98 473.686 254.597 468.24C251.214 462.794 249.527 457.439 249.527 452.183C249.527 446.928 251.214 443.582 254.597 442.155C257.98 440.718 262.411 441.636 267.881 444.919ZM281.567 434.253L254.205 417.86L250.33 295.07L285.442 316.109L281.567 434.253Z" fill="#6E79BA"/>
<path d="M250.33 295.07L264.499 286.705L299.612 307.744L285.443 316.109L250.33 295.07Z" fill="#7B89C6"/>
<path d="M180.959 592.629C195.162 587.453 204.249 576.627 201.254 568.448C198.259 560.268 184.317 557.834 170.114 563.009C155.911 568.185 146.824 579.011 149.819 587.19C152.814 595.369 166.756 597.804 180.959 592.629Z" fill="#D7E9FF"/>
<path d="M202.749 492.944C202.439 492.517 202.093 492.153 201.901 491.653C201.299 490.08 200.707 488.507 200.105 486.934C200.105 486.58 200.087 486.198 200.059 485.734C199.895 482.079 199.859 478.451 199.585 474.814C199.467 472.996 199.275 471.177 199.129 469.368L198.646 463.922L198.637 463.84L198.546 463.422L196.932 456.248C196.385 453.857 195.874 451.465 195.291 449.083C194.169 444.31 193.039 439.546 191.808 434.809C191.799 434.79 191.789 434.736 191.78 434.718C190.905 431.563 187.641 429.717 184.477 430.581C181.313 431.453 179.462 434.708 180.328 437.863C181.632 442.582 183.036 447.274 184.459 451.966C185.152 454.311 185.908 456.648 186.629 458.994L188.817 466.013L188.708 465.513L189.948 470.841C190.367 472.614 190.759 474.396 191.215 476.16C192.09 479.706 193.95 483.388 194.935 486.916C195.437 489.444 194.871 491.289 195.108 493.853C195.163 494.417 195.655 499.563 196.111 499.218C196.576 498.863 196.494 494.799 196.467 494.217C196.485 494.617 197.798 496.045 197.999 496.417C198.828 497.945 200.324 500.491 200.944 500.209C200.962 500.2 202.74 499.982 202.758 499.972C203.287 499.718 202.877 493.117 202.749 492.944Z" fill="#FFB486"/>
<path d="M202.247 499.772C201.627 500.054 200.123 497.499 199.302 495.981C199.102 495.608 197.725 494.171 197.771 493.78C197.752 493.935 197.369 493.926 196.467 494.217C196.467 494.571 197.962 496.353 197.999 496.417C198.828 497.944 200.324 500.49 200.944 500.208C200.962 500.199 202.74 499.981 202.758 499.972C202.813 499.945 202.858 499.836 202.895 499.69C202.548 499.727 202.257 499.763 202.247 499.772Z" fill="#DB895D"/>
<path d="M195.811 493.145C195.574 490.58 196.732 488.998 196.23 486.471C195.246 482.943 193.386 479.261 192.51 475.715C192.055 473.951 191.662 472.169 191.243 470.396L190.003 465.068L190.112 465.568L187.924 458.549C187.204 456.203 186.447 453.875 185.754 451.52C184.341 446.829 182.937 442.137 181.624 437.418C180.849 434.609 182.244 431.727 184.788 430.508C184.678 430.535 184.569 430.535 184.459 430.563C181.296 431.436 179.445 434.691 180.311 437.846C181.615 442.564 183.019 447.256 184.441 451.948C185.134 454.293 185.891 456.63 186.611 458.976L188.799 465.995L188.69 465.495L189.93 470.823C190.349 472.596 190.742 474.378 191.197 476.142C192.073 479.688 193.933 483.37 194.918 486.898C195.419 489.426 194.854 491.272 195.091 493.836C195.145 494.399 195.948 499.745 196.094 499.2C196.24 498.682 195.82 493.272 195.811 493.145Z" fill="#DB895D"/>
<path d="M197.699 453.065C197.699 453.065 193.769 458.866 192.037 458.402C190.305 457.93 186.375 432.453 186.375 432.453L187.442 430.189C187.442 430.189 193.615 429.389 197.699 453.065Z" fill="#435DDD"/>
<path d="M197.699 453.065C197.699 453.065 193.769 458.866 192.037 458.402C190.305 457.93 186.375 432.453 186.375 432.453L187.442 430.189C187.442 430.189 193.615 429.389 197.699 453.065Z" fill="#2948AA"/>
<path d="M183.494 565.836C183.494 565.836 181.251 563.154 178.388 564.418C175.48 565.7 181.005 572.564 186.804 575.037C192.603 577.511 191.81 571.755 191.627 570.628C191.445 569.5 191.162 566.454 191.162 566.454L183.494 565.836Z" fill="#262528"/>
<path d="M173.794 576.074C173.903 576.238 174.213 581.929 174.104 583.057C173.994 584.184 168.268 583.875 166.964 583.339C165.66 582.802 163.281 582.948 161.612 582.72C159.944 582.493 155.576 580.711 155.576 578.683C155.576 576.647 159.369 576.456 160.956 576.456C162.542 576.456 167.502 576.71 167.502 576.71H168.642L173.794 576.074Z" fill="#262528"/>
<path d="M191.638 567.073L194.593 497.744C194.638 496.744 194.638 495.735 194.593 494.735L194.273 487.761C184.162 494.944 163.583 490.48 163.583 490.48C163.583 490.48 163.027 499.354 162.881 505.127L165.78 576.538C165.78 576.538 170.914 579.329 174.26 576.529L177.369 533.431L179.785 504.136L180.989 503.864L182.22 532.768L183.022 567.109C183.013 567.109 186.523 569.391 191.638 567.073Z" fill="#F4CBE0"/>
<path d="M194.31 488.798L194.264 487.761C189.951 490.825 183.742 491.771 178.025 491.844C183.496 491.925 189.669 491.298 194.31 488.798Z" fill="#C9A6B9"/>
<path d="M167.513 576.538L164.613 505.127C164.741 499.99 165.197 492.407 165.297 490.807C164.212 490.625 163.583 490.489 163.583 490.489C163.583 490.489 163.027 499.363 162.881 505.136L165.78 576.547C165.78 576.547 168.598 578.074 171.415 577.729C169.272 577.483 167.513 576.538 167.513 576.538Z" fill="#C9A6B9"/>
<path d="M184.755 567.109L183.953 532.768L182.722 503.864L181.518 504.136L181.172 508.337L182.211 532.768L183.014 567.109C183.014 567.109 184.919 568.346 187.965 568.073C185.959 567.882 184.755 567.109 184.755 567.109Z" fill="#C9A6B9"/>
<path d="M162.772 442.5C163.793 439.072 167.933 434.699 175.774 433.172C183.615 431.644 191.219 429.035 192.915 441.673C194.693 454.947 193.462 467.54 193.462 467.54L194.429 491.698C190.444 494.944 185.548 497.535 180.597 498.208C175.756 498.872 170.978 498.663 166.2 497.29L163.729 496.399L163.948 468.84C163.948 468.849 162.179 444.51 162.772 442.5Z" fill="#C9A6B9"/>
<path d="M162.772 440.336C163.793 436.908 167.933 432.535 175.774 431.008C183.615 429.48 191.219 426.871 192.915 439.509C194.693 452.783 193.462 465.376 193.462 465.376L194.62 489.38C190.636 492.626 185.539 495.371 180.597 496.044C175.756 496.708 170.978 496.499 166.2 495.126L162.872 494.171L163.939 466.676C163.948 466.685 162.179 442.346 162.772 440.336Z" fill="#435DDD"/>
<path d="M182.767 494.317C177.926 494.98 173.148 494.771 168.37 493.398L165.042 492.444L166.109 464.949C166.109 464.949 164.34 440.609 164.933 438.6C165.352 437.181 166.328 435.599 167.86 434.117C165.024 436.008 163.356 438.327 162.763 440.327C162.161 442.337 163.939 466.676 163.939 466.676L162.872 494.171L166.2 495.126C170.978 496.49 175.756 496.699 180.597 496.044C185.539 495.371 190.636 492.626 194.621 489.38L194.611 489.271C191.037 491.771 186.861 493.753 182.767 494.317Z" fill="#2948AA"/>
<path d="M179.784 428.925L179.702 427.343L174.587 425.789L169.554 429.298C169.554 429.371 169.262 431.362 169.016 433.026C168.842 434.217 168.688 435.235 168.688 435.235C168.688 435.235 168.715 435.245 168.724 435.254C168.733 435.263 168.742 435.263 168.76 435.272C168.779 435.281 168.815 435.299 168.842 435.317C168.87 435.335 168.888 435.345 168.934 435.363C170.21 436.008 176.602 438.9 180.048 433.553L179.784 428.925Z" fill="#DB895D"/>
<path d="M183.111 419.069C186.202 400.894 155.548 403.795 163.025 427.898C166.106 437.799 182.382 423.388 183.111 419.069Z" fill="#FFAA6D"/>
<path d="M184.214 416.778C184.214 414.205 183.312 411.368 181.342 409.586C180.303 408.65 178.963 408.077 177.595 407.795C176.218 407.513 174.805 407.504 173.401 407.577C171.331 407.686 169.225 407.995 167.365 408.913C165.714 409.723 160.162 413.25 161.848 413.905C168.03 416.296 167.62 423.106 168.687 423.352C170.665 418.015 172.453 420.242 173.054 421.943C173.51 423.234 171.942 424.616 172.225 425.234C172.516 425.87 174.431 430.062 175.37 430.016C178.051 429.889 178.735 426.498 179.072 424.698C179.409 422.879 184.214 421.897 184.214 416.778Z" fill="#DB895D"/>
<path d="M184.214 415.914C184.214 413.341 183.312 410.505 181.342 408.723C180.303 407.786 178.963 407.213 177.595 406.931C176.218 406.649 174.805 406.64 173.401 406.713C171.331 406.822 169.225 407.131 167.365 408.05C165.714 408.859 160.162 412.387 161.848 413.041C168.03 415.433 167.62 422.243 168.687 422.488C170.665 417.151 172.453 419.379 173.054 421.079C173.51 422.37 171.942 423.752 172.225 424.37C172.516 425.007 174.431 429.198 175.37 429.153C178.051 429.025 179.774 427.98 180.111 426.189C180.449 424.37 184.214 421.033 184.214 415.914Z" fill="#1D1D1B"/>
<path d="M179.848 430.189C179.146 431.744 178.18 432.199 176.603 432.871C175.034 433.544 173.348 433.817 171.615 433.881C170.567 433.917 169.892 433.908 168.953 433.435C168.242 433.917 168.333 434.208 168.178 434.672C168.023 435.135 167.932 435.681 168.214 436.081C168.415 436.363 168.752 436.508 169.08 436.627C172.253 437.754 175.873 437.554 178.9 436.081C179.42 435.826 179.949 435.517 180.231 435.017C180.496 434.544 180.505 433.99 180.505 433.453C180.523 432.117 180.934 430.862 179.848 430.189Z" fill="#435DDD"/>
<path d="M176.001 405.468C175.235 404.995 173.858 403.932 168.688 405.704C165.151 406.923 164.914 409.796 164.914 409.796C164.914 409.796 157.1 413.542 151.857 418.47C146.614 423.398 163.701 453.639 163.701 453.639L169.628 455.112C169.628 455.112 174.314 455.148 166.236 438.082C166.236 438.082 158.759 423.543 158.65 423.207C158.549 422.88 168.123 413.142 168.132 413.142C168.223 413.115 168.306 413.096 168.369 413.096C168.88 413.106 169.746 412.778 172.208 411.869C176.794 410.169 171.032 410.705 171.615 410.032C172.892 408.559 177.241 409.26 177.478 408.414C177.706 407.577 176.366 405.695 176.001 405.468Z" fill="#FFAA6D"/>
<path d="M153.151 418.897C158.394 413.969 166.208 410.223 166.208 410.223C166.208 410.223 166.445 407.35 169.982 406.131C172.8 405.168 174.487 405.04 175.563 405.204C174.687 404.722 173.028 404.204 168.679 405.695C165.141 406.913 164.904 409.786 164.904 409.786C164.904 409.786 157.09 413.532 151.847 418.46C146.605 423.388 163.691 453.629 163.691 453.629L164.922 453.938C163.782 451.911 148.1 423.652 153.151 418.897Z" fill="#DB895D"/>
<path d="M172.901 410.486C172.737 410.714 173.329 410.796 173.967 410.887C173.976 410.669 173.466 410.568 172.901 410.486Z" fill="#DB895D"/>
<path d="M164.988 433.772C164.35 434.408 157.174 437.772 155.396 439.109C154.448 439.818 163.192 455.111 163.192 455.111C163.192 455.111 170.358 457.466 170.978 456.993C171.598 456.52 175.154 448.674 174.325 448.21C173.486 447.737 164.988 433.772 164.988 433.772Z" fill="#435DDD"/>
<path d="M164.924 455.111C164.924 455.111 156.189 439.818 157.129 439.109C158.514 438.072 163.165 435.799 165.462 434.544C165.17 434.063 164.988 433.772 164.988 433.772C164.35 434.408 157.174 437.772 155.396 439.109C154.448 439.818 163.192 455.111 163.192 455.111C163.192 455.111 170.368 457.466 170.978 456.993C171.006 456.975 171.051 456.92 171.088 456.866C168.79 456.375 164.924 455.111 164.924 455.111Z" fill="#2948AA"/>
<path d="M50.9264 469.28C64.8034 464.223 73.6813 453.646 70.7556 445.656C67.8299 437.665 54.2086 435.287 40.3316 440.344C26.4546 445.401 17.5768 455.978 20.5025 463.968C23.4282 471.958 37.0494 474.337 50.9264 469.28Z" fill="#D7E9FF"/>
<path d="M27.9268 448.392C27.7171 449.028 27.7171 459.266 27.9268 460.766C28.1365 462.257 31.9934 466.949 35.2028 466.313C38.4123 465.676 41.1932 465.031 38.622 456.284C36.0508 447.537 35.4125 445.619 35.4125 445.619L27.9268 448.392Z" fill="#0863EF"/>
<path d="M38.6201 456.284C36.0489 447.537 35.4107 445.619 35.4107 445.619L34.4533 445.973C34.7268 446.837 35.5565 449.501 37.5442 456.284C40.1154 465.031 37.3345 465.667 34.125 466.313C34.0886 466.322 34.0521 466.322 34.0156 466.322C34.4168 466.385 34.8089 466.385 35.1919 466.313C38.4013 465.676 41.1822 465.031 38.6201 456.284Z" fill="#99BCE6"/>
<path d="M43.5358 440.5C43.5358 441.136 41.3932 448.601 48.4594 448.392C55.5166 448.183 57.869 453.938 61.7167 453.302C65.5644 452.665 65.9929 449.465 65.1358 448.392C64.2788 447.328 58.1699 445.364 56.8843 443.437C55.5987 441.509 52.7266 438.791 52.7266 438.791L43.5358 440.5Z" fill="#0863EF"/>
<path d="M52.199 439.863C52.199 439.863 55.0711 442.591 56.3567 444.51C57.6423 446.428 63.7513 448.392 64.6083 449.465C64.9639 449.91 65.0733 450.738 64.8272 451.592C65.6933 450.429 65.6569 449.037 65.1463 448.401C64.2892 447.337 58.1803 445.373 56.8947 443.446C55.6091 441.527 52.737 438.8 52.737 438.8L43.5371 440.509C43.5371 440.627 43.8562 440.482 43.7742 440.991L52.199 439.863Z" fill="#99BCE6"/>
<path d="M48.2492 372.89C48.8874 372.681 56.5919 366.353 57.2393 365.071C57.8775 363.789 54.4493 440.291 54.4493 440.291C54.4493 440.291 45.4683 444.773 42.8971 440.291C40.3258 435.808 43.3256 393.793 42.8971 388.674C42.4685 383.555 41.8485 376.3 41.8485 376.3L48.2492 372.89Z" fill="#4E87EE"/>
<path d="M46.5539 439.936C43.9827 435.454 46.5175 393.438 47.5204 388.392C48.5781 383.064 49.2346 377.573 49.2346 377.573L52.3346 372.49C52.7176 372.363 55.0517 370.272 57.3403 368.262C57.3676 366.116 57.3221 364.898 57.24 365.071C56.6018 366.353 49.3258 372.326 48.6875 372.535L41.1289 376.3C41.1289 376.3 42.4783 383.555 42.9068 388.674C43.3354 393.793 40.4724 435.735 42.9068 440.291C44.0101 442.355 46.6087 442.782 49.3714 442C48.2499 441.764 47.1557 440.991 46.5539 439.936Z" fill="#0552DE"/>
<path d="M26.996 370.399C26.1389 370.681 25.5736 390.311 26.996 403.958C28.4184 417.606 24.6983 439.791 26.5583 446.337C28.4183 452.874 36.9708 450.601 37.8279 448.328C38.685 446.055 40.4903 403.958 40.4903 403.958C40.4903 403.958 41.3929 384.119 44.8121 380.991C48.2313 377.864 51.3678 372.954 52.2978 368.69C53.2369 364.425 26.996 370.399 26.996 370.399Z" fill="#4E87EE"/>
<path d="M28.7108 446.337C26.8507 439.8 30.5708 417.615 29.1484 403.958C27.726 390.302 28.2913 370.681 29.1484 370.399C29.1484 370.399 41.968 367.48 49.3716 367.18C42.6883 366.826 27.0057 370.399 27.0057 370.399C26.1486 370.681 25.5833 390.311 27.0057 403.958C28.4281 417.606 24.708 439.791 26.5681 446.337C27.6257 450.056 30.8443 450.919 33.5796 450.565C31.4825 450.283 29.4949 449.101 28.7108 446.337Z" fill="#0552DE"/>
<path d="M49.4252 313.909C46.1064 315.936 45.2401 313.345 45.2401 313.345C45.2401 313.345 48.2034 318.655 48.7323 319.082C49.2702 319.51 45.7325 322.437 43.4257 322.328C38.7939 322.11 33.1774 318.419 32.7488 316.927C32.3203 315.436 33.7974 315.5 34.3262 314.227C34.8641 312.945 34.6453 309.799 34.6453 309.799L33.15 300.361C33.1683 300.371 52.735 311.89 49.4252 313.909Z" fill="#E4A178"/>
<path d="M26.8332 372.035C26.0308 376.1 35.8416 382.246 45.8255 376.554C55.8095 370.863 57.1863 366.698 57.1863 366.698C57.1863 366.698 27.1797 370.271 26.8332 372.035Z" fill="#0552DE"/>
<path d="M27.5691 342.249C27.5691 343.386 26.7119 369.553 26.1466 371.254C25.5722 372.963 35.8388 380.637 45.8228 374.954C55.8068 369.262 57.2383 365.071 57.2383 365.071C57.2383 365.071 57.4753 318.455 57.2292 316.655C56.9921 314.9 56.9921 306.044 50.1903 308.454C45.8593 309.99 44.5007 313.918 44.5007 313.918C44.5007 313.918 50.0991 319.219 45.8228 320.355C41.5466 321.492 35.2735 320.355 34.1338 318.082C32.9941 315.809 32.137 316.027 32.137 316.027L23.8672 320.919L27.5691 342.249Z" fill="#F8FBFF"/>
<path d="M46.1888 320.21C47.8938 320.328 47.8938 320.328 49.3617 319.782C51.0029 319.164 49.8723 313.381 49.8723 313.381C49.8723 313.381 50.9482 310.299 54.2124 308.526C53.2459 307.963 51.9512 307.826 50.1915 308.453C45.8605 309.99 44.502 313.918 44.502 313.918C44.502 313.918 49.7082 318.855 46.1888 320.21Z" fill="#B6D1FE"/>
<path d="M31.5085 370.717C32.0829 369.008 32.9309 342.849 32.9309 341.713L29.22 320.382L33.87 317.627C32.858 315.854 32.1194 316.018 32.1194 316.018L23.8496 320.91L27.5606 342.24C27.5606 343.377 26.7035 369.544 26.1382 371.244C25.6367 372.744 33.56 378.882 42.2766 376.418C35.9489 375.963 31.1073 371.908 31.5085 370.717Z" fill="#B6D1FE"/>
<path d="M38.9773 306.744C38.3391 306.744 37.2997 303.153 35.4852 303.262C34.7832 303.307 34.6829 304.489 34.7467 305.853C34.7923 304.998 34.9838 304.362 35.4852 304.326C37.2997 304.217 38.3391 307.808 38.9773 307.808C39.4241 307.808 40.2629 307.608 40.1262 304.862C40.0167 306.59 39.3603 306.744 38.9773 306.744Z" fill="#DB895D"/>
<path d="M49.7712 296.515C45.9144 300.034 40.6352 299.761 39.5046 299.652C39.4316 299.298 39.3495 298.943 39.2584 298.561C39.2584 298.561 45.3399 299.37 49.6891 295.47L49.6162 294.506L37.6719 297.234L38.3193 308.726C38.839 309.335 42.3949 313.672 45.8597 314.718C49.3244 315.764 50.9565 312.109 51.1297 311.49C51.303 310.881 52.5612 305.562 50.0721 300.161L49.7712 296.515Z" fill="#FCB892"/>
<path d="M39.2578 298.552C39.349 298.943 39.422 299.298 39.504 299.643C40.6346 299.752 45.9138 300.025 49.7706 296.506L49.6886 295.461C45.3485 299.37 39.2578 298.552 39.2578 298.552Z" fill="#DB895D"/>
<path d="M39.2608 298.552C39.2608 298.552 48.4606 299.834 52.3083 292.042C52.3083 292.042 45.8894 283.941 36.5893 287.669C27.2891 291.406 28.5657 297.27 28.9942 299.716C29.4227 302.171 33.4892 308.353 34.6654 309.799C35.8416 311.236 33.6625 303.353 35.486 303.244C37.3096 303.135 38.3399 306.726 38.9781 306.726C39.6164 306.744 41.0843 306.344 39.2608 298.552Z" fill="#42250E"/>
<path d="M36.5877 289.278C44.2922 286.187 50.0091 291.206 51.7414 293.024C51.9329 292.706 52.1335 292.397 52.3067 292.042C52.3067 292.042 45.8878 283.941 36.5877 287.669C29.2114 290.633 28.4911 294.924 28.7282 297.797C28.947 295.088 30.4879 291.733 36.5877 289.278Z" fill="#5E3F2A"/>
<path d="M59.748 338.512C59.748 338.512 66.3129 337.203 66.8873 337.858C67.4617 338.512 70.0511 344.868 68.6288 347.159C67.2155 349.441 64.4346 347.35 63.6961 346.195C62.9575 345.041 60.8331 345.368 60.8331 345.368L59.748 338.512Z" fill="#FCB892"/>
<path d="M64.234 344.595C63.5775 343.395 61.371 343.768 61.371 343.768L60.5139 338.376C60.0489 338.458 59.748 338.521 59.748 338.521L60.8331 345.377C60.8331 345.377 62.9575 345.05 63.6961 346.204C64.4346 347.359 67.2155 349.45 68.6288 347.168C68.8658 346.786 66.1214 348.041 64.234 344.595Z" fill="#E4A178"/>
<path d="M20.4577 324.656C20.0201 329.22 20.6766 336.403 26.3478 342.713C32.0191 349.023 36.1585 354.897 39.213 354.897C42.2674 354.897 60.5668 347.505 61.7795 347.068C62.9922 346.632 61.0318 336.194 59.8283 335.321C58.6247 334.448 43.5075 341.849 41.2463 340.976C38.9851 340.103 33.9703 332.057 33.9703 330.32C33.9703 328.584 20.8954 320.091 20.4577 324.656Z" fill="#B6D1FE"/>
<path d="M29.1834 318.237C29.1834 318.237 20.8954 320.628 20.4577 325.201C20.0201 329.766 20.6766 336.949 26.3478 343.259C32.0191 349.569 36.1585 355.442 39.213 355.442C42.2674 355.442 60.5668 348.05 61.7795 347.614C62.9922 347.177 61.0318 336.739 59.8283 335.867C58.6247 334.994 43.5075 342.395 41.2463 341.522C38.9851 340.649 33.9703 332.603 33.9703 330.866C33.9794 329.111 29.1834 318.237 29.1834 318.237Z" fill="#F8FBFF"/>
<path d="M40.2889 353.287C37.2344 353.287 33.095 347.414 27.4237 341.104C21.7525 334.794 21.096 327.62 21.5336 323.047C21.5518 322.901 21.5883 322.765 21.6157 322.628C20.9866 323.392 20.5489 324.238 20.4577 325.192C20.0201 329.757 20.6766 336.939 26.3478 343.249C32.0191 349.559 36.1585 355.433 39.213 355.433C42.2674 355.433 60.5668 348.041 61.7795 347.605C62.0804 347.495 62.1807 346.768 62.1534 345.732C58.5974 347.114 43.0789 353.287 40.2889 353.287Z" fill="#B6D1FE"/>
<path d="M51.6773 309.481C51.6773 309.481 55.1147 309.481 56.0903 310.217C57.0659 310.954 71.8732 332.648 71.3079 335.339C70.7335 338.031 50.9388 315.6 50.9388 315.6C50.9388 315.6 49.7079 314.291 50.0361 313.482C50.3644 312.672 51.6773 309.481 51.6773 309.481Z" fill="#F8FBFF"/>
<path d="M57.186 321.701C57.186 321.701 53.8945 313.1 54.8792 313.836C55.8639 314.573 70.9903 333.857 69.6956 336.412C68.4555 338.867 57.186 321.701 57.186 321.701Z" fill="#B6D1FE"/>
<path d="M54.4596 316.327C54.4596 316.327 52.6634 311.927 49.308 313.391C45.9527 314.854 43.5821 315.591 43.6641 317.146C43.7462 318.691 42.6794 323.347 43.6641 323.756C44.6488 324.165 45.8706 323.674 46.1168 323.265C46.363 322.856 47.5119 321.955 47.5119 321.955C47.5119 321.955 48.8065 322.283 48.8521 322.201C48.8977 322.119 53.8031 317.473 54.4596 317.473C55.1161 317.473 54.4596 316.327 54.4596 316.327Z" fill="#FCB892"/>
<path d="M48.8403 320.601C48.7947 320.682 47.3906 319.91 47.3906 319.91C47.3906 319.91 45.7403 321.346 45.4941 321.746C45.2479 322.155 45.175 324.31 46.105 323.265C46.4241 322.91 47.5 321.955 47.5 321.955C47.5 321.955 48.7947 322.283 48.8403 322.201C48.895 322.119 48.8859 320.519 48.8403 320.601Z" fill="#E4A178"/>
<path d="M47.9944 322.856C47.9215 323.192 61.817 340.967 62.6376 341.449C63.4582 341.94 71.3086 342.84 70.9804 335.821C70.9804 335.821 56.9937 317.228 56.0089 317.064C55.0242 316.9 49.3803 316.655 47.9944 322.856Z" fill="#F8FBFF"/>
<path d="M64.2423 340.385C63.4217 339.894 49.5262 322.128 49.5992 321.792C50.0186 319.901 50.8392 318.619 51.8057 317.746C50.21 318.5 48.6418 319.973 47.9944 322.865C47.9215 323.201 61.817 340.967 62.6376 341.458C63.2211 341.804 67.3241 342.34 69.5489 340.14C67.3515 341.058 64.6982 340.658 64.2423 340.385Z" fill="#B6D1FE"/>
<path d="M348.927 561.317C363.702 561.317 375.679 554.422 375.679 545.915C375.679 537.409 363.702 530.513 348.927 530.513C334.153 530.513 322.176 537.409 322.176 545.915C322.176 554.422 334.153 561.317 348.927 561.317Z" fill="#D7E9FF"/>
<path d="M356.784 537.141C356.784 537.141 358.589 541.596 357.732 543.106C356.875 544.624 352.225 550.779 351.085 552.862C349.946 554.944 346.435 555.416 345.861 554.562C345.296 553.707 343.964 552.48 347.858 544.715C347.858 544.715 350.329 539.887 350.52 537.996C350.712 536.105 356.784 537.141 356.784 537.141Z" fill="#0863EF"/>
<path d="M347.858 544.715C347.858 544.715 350.329 539.887 350.52 537.996C350.62 537.005 352.335 536.823 353.948 536.868C352.645 536.914 351.478 537.187 351.395 537.996C351.204 539.887 348.733 544.715 348.733 544.715C344.84 552.48 346.171 553.707 346.736 554.562C346.873 554.762 347.174 554.88 347.557 554.935C346.754 555.026 346.08 554.898 345.861 554.562C345.296 553.716 343.964 552.48 347.858 544.715Z" fill="#99BCE6"/>
<path d="M349.045 533.55C349.045 533.55 350.522 538.569 349.474 539.223C348.425 539.878 344.058 540.169 343.109 541.115C342.161 542.06 336.08 544.806 332.952 543.86C329.816 542.915 333.809 539.332 335.706 538.805C337.602 538.278 343.62 535.641 344.358 533.55C345.106 531.459 349.045 533.55 349.045 533.55Z" fill="#0863EF"/>
<path d="M344.366 534.423C343.619 536.514 337.61 539.151 335.714 539.678C334.464 540.023 332.313 541.705 331.884 543.078C331.273 541.669 334.173 539.232 335.714 538.805C337.61 538.278 343.628 535.641 344.366 533.55C345.105 531.459 345.105 532.331 344.366 534.423Z" fill="#99BCE6"/>
<path d="M339.406 454.411C339.233 454.102 338.312 456.866 338.248 457.211C337.555 460.939 335.413 473.505 337.501 483.352C339.698 493.708 343.391 504.373 343.765 512.892C344.148 521.412 343.108 533.632 343.108 533.632C343.108 533.632 346.427 535.432 349.655 533.159C349.655 533.159 351.296 521.666 351.67 519.584C352.053 517.502 349.281 500.163 348.643 495.562C348.068 491.425 346.236 472.177 346.81 471.614C347.302 471.132 341.193 457.602 339.406 454.411Z" fill="#F2F4F7"/>
<path d="M345.736 533.168C345.736 533.168 347.377 521.675 347.751 519.593C348.134 517.511 345.362 500.172 344.724 495.572C344.149 491.435 343.265 475.032 342.298 472.523C339.982 466.504 342.116 466.222 345.909 471.232C346.392 471.877 348.088 491.435 348.663 495.572C349.301 500.172 352.073 517.511 351.69 519.593C351.307 521.675 349.675 533.168 349.675 533.168C347.495 534.704 345.28 534.377 344.067 534.004C344.605 533.822 345.17 533.559 345.736 533.168Z" fill="#B6D1FE"/>
<path d="M339.408 455.329C339.325 454.193 343.21 462.903 358.4 458.739C358.4 458.739 365.995 463.63 362.576 482.57C359.157 501.509 358.309 503.145 360.205 507.028C362.102 510.91 361.436 515.556 357.26 537.523C357.26 537.523 352.656 540.678 349.92 538.405C349.92 538.405 351.771 524.267 349.793 511.01C347.814 497.754 346.246 489.043 345.872 475.405C345.863 475.405 340.547 470.477 339.408 455.329Z" fill="#F2F4F7"/>
<path d="M338.716 455.775C338.679 455.366 338.998 453.856 339.217 453.447C339.855 452.247 341.761 459.612 350.177 459.839C344.414 460.03 340.357 457.211 338.716 455.775Z" fill="#B6D1FE"/>
<path d="M355.948 536.396C360.124 514.429 360.799 509.783 358.893 505.9C356.997 502.018 358.383 500.791 361.802 481.851C364.829 465.104 358.82 459.03 357.389 457.848C357.726 457.766 358.045 457.712 358.392 457.612C358.392 457.612 365.859 462.803 363.106 481.851C360.379 500.691 358.301 502.018 360.197 505.9C362.094 509.783 361.428 515.556 357.252 537.523C357.252 537.523 354.252 539.532 351.672 539.178C353.86 538.914 355.948 536.396 355.948 536.396Z" fill="#B6D1FE"/>
<path d="M364.282 426.989C364.282 426.989 367.318 427.489 368.486 429.607C369.653 431.726 369.78 439.3 368.139 448.619C368.139 448.619 372.023 469.213 371.312 472.395C370.601 475.569 369.808 479.778 368.403 481.806C367.893 482.542 366.398 484.624 365.659 484.106C365.659 484.106 367.227 476.969 366.853 476.405C366.48 475.841 366.288 472.15 367.018 470.404C367.747 468.668 361.893 457.666 362.595 450.601C363.288 443.546 359.65 431.189 359.65 431.189L364.282 426.989Z" fill="#FCB892"/>
<path d="M367.999 476.396C367.625 475.832 367.434 472.141 368.163 470.395C368.893 468.659 363.039 457.657 363.741 450.592C364.434 443.537 360.796 431.18 360.796 431.18H359.656C359.656 431.18 363.303 443.537 362.601 450.592C361.908 457.648 367.753 468.649 367.023 470.395C366.294 472.132 366.485 475.823 366.859 476.396C367.233 476.96 365.665 484.097 365.665 484.097C365.984 484.324 366.449 484.043 366.914 483.606C367.251 482.006 368.318 476.878 367.999 476.396Z" fill="#DB895D"/>
<path d="M346.218 419.879L344.586 426.971L350.622 429.607L356.257 424.434L357.314 418.36L352.91 415.633L346.218 419.879Z" fill="#DB895D"/>
<path d="M312.118 425.889C312.638 425.652 314.717 426.48 317.917 429.607C319.722 431.371 318.008 427.543 319.029 426.871C319.704 426.425 321.181 431.253 321.591 432.49C323.971 435.135 333.919 438.363 333.919 438.363C333.919 438.363 337.311 428.407 338.623 423.997C339.936 419.597 342.909 419.46 344.468 420.224C349.319 422.615 340.329 444.319 336.964 446.692C333.846 448.901 320.315 437.336 318.884 435.254L318.045 434.999C318.045 434.999 314.972 434.781 313.221 431.153C311.471 427.525 311.261 426.271 312.118 425.889Z" fill="#FCB892"/>
<path d="M345.433 421.297C346.117 427.734 339.397 443.2 336.58 445.182C333.461 447.392 319.931 435.826 318.499 433.744L317.66 433.49C317.66 433.49 314.588 433.272 312.837 429.644C312.281 428.498 311.898 427.607 311.643 426.889C311.688 427.68 312.171 428.998 313.22 431.162C314.971 434.79 318.043 435.008 318.043 435.008L318.882 435.263C320.314 437.336 333.844 448.901 336.963 446.701C340.026 444.537 347.758 426.316 345.433 421.297Z" fill="#DB895D"/>
<path d="M342.223 419.416L341.904 419.288C341.904 419.288 342.214 418.914 342.223 419.416Z" fill="#4E87EE"/>
<path d="M358.594 456.911C360.7 463.758 340.477 460.203 339.218 455.184C338.945 454.075 339.291 452.993 339.383 453.365C340.395 457.921 356.87 461.294 358.594 456.911Z" fill="#B6D1FE"/>
<path d="M339.691 429.654C338.752 432.281 338.305 434.072 338.16 435.391C337.95 434.063 338.251 431.936 339.691 427.917C341.788 422.052 342.235 420.043 342.226 419.416L346.676 421.243C346.676 421.243 346.457 421.907 346.256 422.807L342.226 421.152C342.244 421.789 341.798 423.789 339.691 429.654Z" fill="#4E87EE"/>
<path d="M346.877 429.28C345.911 428.989 345.801 427.616 345.956 426.225C346.066 426.88 346.33 427.389 346.877 427.553C350.625 428.68 350.78 429.189 357.581 421.897L366.727 427.898C366.727 427.898 365.313 427.134 363.809 427.771L357.581 423.634C350.789 430.917 350.625 430.408 346.877 429.28Z" fill="#4E87EE"/>
<path d="M358.364 454.066C358.41 454.438 358.483 454.811 358.601 455.175C358.811 455.857 358.793 456.43 358.601 456.911C358.31 456.002 358.273 455.038 358.364 454.066Z" fill="#4E87EE"/>
<path d="M349.649 447.256C348.181 445.546 340.796 442.737 340.796 442.737L340.786 442.7C341.042 445.828 339.282 448.71 338.99 452.038C338.625 447.946 341.078 444.628 340.786 440.973L340.796 441.009C340.796 441.009 348.19 443.828 349.649 445.528C349.777 445.673 349.868 445.655 349.941 445.583C350.214 446.61 350.087 447.765 349.649 447.256Z" fill="#4E87EE"/>
<path d="M349.412 442.755C348.545 441.809 340.221 438.827 340.221 438.827L340.23 438.854C339.537 437.49 338.434 437.081 338.16 435.399C338.306 434.081 338.753 432.281 339.692 429.662C341.789 423.798 342.236 421.788 342.227 421.161L346.257 422.816C346.02 423.861 345.801 425.225 345.965 426.225C345.81 427.616 345.919 428.989 346.886 429.28C350.633 430.408 350.788 430.917 357.59 423.625L363.818 427.762C363.261 427.998 362.678 428.426 362.131 429.18C361.301 430.317 361.1 431.817 361.246 433.372C361 435.599 361.101 438.918 361.848 440.936C362.049 441.482 362.067 442.082 361.821 442.619C360.49 445.501 357.845 449.801 358.374 454.066C358.283 455.048 358.329 456.002 358.611 456.912C356.879 461.294 340.367 457.975 339.236 453.447C339.118 452.965 339.045 452.493 339.008 452.029C339.3 448.701 341.06 445.819 340.804 442.691L340.813 442.728C340.813 442.728 348.208 445.546 349.667 447.246C350.104 447.756 350.232 446.61 349.959 445.564C350.223 445.255 350.104 443.5 349.412 442.755Z" fill="#4E87EE"/>
<path d="M349.41 442.755C350.276 443.701 350.258 446.237 349.647 445.519C348.179 443.81 340.794 441 340.794 441L340.785 440.964C340.766 440.746 340.748 440.527 340.712 440.309C340.611 439.709 340.438 439.245 340.238 438.863L340.229 438.836C340.219 438.827 348.544 441.809 349.41 442.755Z" fill="#0552DE"/>
<path d="M346.174 426.762C345.445 426.716 344.661 426.443 343.576 426.116C341.634 425.525 343.147 420.524 343.357 419.888L346.776 421.297C346.776 421.297 345.536 425.016 346.174 426.762Z" fill="#0552DE"/>
<path d="M355.475 453.82C353.633 447.846 360.927 439.782 360.143 437.972C359.386 436.217 358.62 431.726 360.635 428.962C362.65 426.198 363.544 426.571 363.544 426.571L357.417 422.497C357.572 422.334 357.709 422.188 357.873 422.015L366.735 427.88C366.744 427.889 366.863 427.962 366.863 427.962C366.37 427.725 364.182 426.88 362.413 429.298C360.398 432.062 361.885 439.509 361.994 442.236C362.076 444.264 357.043 449.319 358.885 455.293C360.581 460.803 347.834 459.584 342.117 456.275C348.317 458.321 356.888 458.393 355.475 453.82Z" fill="#0552DE"/>
<path d="M341.222 406.804C340.794 412.605 339.372 414.523 339.472 417.051C339.572 419.579 341.87 421.688 341.87 421.688C341.87 421.688 342.481 419.106 343.274 418.797C344.149 418.451 345.936 409.995 345.936 409.995L343.046 406.813C343.046 406.804 341.104 405.413 341.222 406.804Z" fill="#F9339C"/>
<path d="M350.978 422.597C350.605 423.097 350.277 423.497 350.085 423.625C350.167 422.697 350.122 421.515 349.994 420.224C350.295 420.042 350.577 419.861 350.842 419.67C350.942 420.752 351.006 421.752 350.978 422.597Z" fill="#C6724E"/>
<path d="M341.596 407.632C341.551 406.704 341.596 405.522 341.596 405.522L343.575 404.004L349.51 401.803L353.385 408.441L353.203 417.66C353.203 417.66 352.255 418.67 350.832 419.679C350.304 414.487 348.416 407.441 347.45 406.622C346.237 405.586 344.797 404.713 343.274 404.958C343.091 404.986 342.909 405.149 342.727 405.368C344.131 405.286 345.444 406.095 346.574 407.059C347.55 407.886 349.456 415.033 349.975 420.243C348.289 421.27 346.173 422.088 344.149 421.506C341.815 420.806 341.259 413.478 341.596 407.632Z" fill="#FCB892"/>
<path d="M342.738 405.359C342.912 405.14 343.103 404.977 343.285 404.949C344.808 404.704 346.249 405.577 347.461 406.613C348.428 407.432 350.315 414.478 350.844 419.67C350.58 419.861 350.288 420.042 349.996 420.224C349.476 415.024 347.571 407.868 346.595 407.041C345.455 406.086 344.133 405.277 342.738 405.359Z" fill="#DB895D"/>
<path d="M351.207 431.435C350.532 432.044 350.076 432.426 350.076 432.426C350.076 432.426 350.86 430.835 351.672 428.644C352.684 425.925 353.742 422.297 353.432 419.661C353.76 419.042 354.015 418.479 354.079 418.115C355.337 421.97 352.155 429.38 351.207 431.435Z" fill="#C6724E"/>
<path d="M359.648 425.07C359.293 425.789 359.047 426.225 359.047 426.225C359.047 426.225 358.582 424.816 358.117 424.107C358.272 423.816 358.4 423.534 358.5 423.27C358.855 423.207 359.348 424.307 359.648 425.07Z" fill="#0552DE"/>
<path d="M341.595 407.632C341.595 407.632 342.461 405.077 343.272 404.949C344.795 404.704 346.236 405.577 347.448 406.613C348.67 407.65 351.351 418.551 350.95 423.197C351.606 422.743 353.876 419.324 354.077 418.115C355.554 422.616 350.95 431.999 350.95 431.999C350.95 431.999 357.277 426.716 358.49 423.279C359.046 423.179 359.912 425.807 359.912 425.807C359.912 425.807 363.277 419.824 363.35 415.642C363.432 410.614 362.228 394.939 349.874 397.685C347.12 398.294 342.643 401.94 341.449 404.968C340.865 406.441 341.595 407.632 341.595 407.632Z" fill="#F9339C"/>
<path d="M363.341 415.724C363.204 409.795 361.362 396.421 349.865 398.976C347.111 399.585 342.635 403.231 341.44 406.259C341.367 406.44 341.322 406.604 341.285 406.777C341.185 406.304 341.157 405.668 341.44 404.958C342.635 401.931 347.111 398.285 349.865 397.676C362.229 394.93 363.432 410.605 363.341 415.633C363.35 415.66 363.341 415.696 363.341 415.724Z" fill="#F969C2"/>
<path d="M351.89 431.171C351.316 431.68 350.951 431.99 350.951 431.99C350.951 431.99 354.033 425.716 354.343 420.961C354.534 424.179 352.966 428.589 351.89 431.171Z" fill="#F969C2"/>
<path d="M352.746 427.671L351.68 428.644L350.084 432.426C350.084 432.426 351.151 431.544 351.215 431.435C351.689 430.571 352.746 427.671 352.746 427.671Z" fill="#0552DE"/>
</svg>
