<svg width="132" height="205" viewBox="0 0 132 205" fill="none" xmlns="http://www.w3.org/2000/svg">
<path d="M92.3922 166.005C99.6838 166.005 105.595 162.569 105.595 158.331C105.595 154.093 99.6838 150.658 92.3922 150.658C85.1007 150.658 79.1897 154.093 79.1897 158.331C79.1897 162.569 85.1007 166.005 92.3922 166.005Z" fill="#D7E9FF"/>
<path d="M96.8112 92.8875H87.5654V158.334H96.8112V92.8875Z" fill="#ECF4FF"/>
<path d="M92.0756 92.8875H87.5654V158.334H92.0756V92.8875Z" fill="#C9E0FF"/>
<path d="M91.625 134.42C113.924 134.42 132 117.056 132 95.6358C132 74.2157 113.924 56.8513 91.625 56.8513C69.3265 56.8513 51.25 74.2157 51.25 95.6358C51.25 117.056 69.3265 134.42 91.625 134.42Z" fill="#ECF4FF"/>
<path d="M107.024 123.071C84.7239 123.071 66.6489 105.707 66.6489 84.2863C66.6489 75.1279 69.961 66.7191 75.4867 60.0851C61.223 66.0672 51.2498 79.7315 51.2498 95.6359C51.2498 117.054 69.3276 134.42 91.6248 134.42C104.391 134.42 115.765 128.723 123.165 119.84C118.218 121.913 112.764 123.071 107.024 123.071Z" fill="#C4DCFF"/>
<path d="M93.5678 95.5009C112.785 95.5009 128.363 80.537 128.363 62.0781C128.363 43.6193 112.785 28.6554 93.5678 28.6554C74.3511 28.6554 58.7728 43.6193 58.7728 62.0781C58.7728 80.537 74.3511 95.5009 93.5678 95.5009Z" fill="#ECF4FF"/>
<path d="M106.838 85.7192C87.6223 85.7192 72.0434 70.7568 72.0434 52.2965C72.0434 44.4046 74.8962 37.1589 79.6603 31.441C67.3678 36.596 58.7753 48.3707 58.7753 62.0781C58.7753 80.5355 74.3542 95.5008 93.5703 95.5008C104.571 95.5008 114.373 90.5928 120.748 82.9364C116.486 84.7198 111.785 85.7192 106.838 85.7192Z" fill="#C4DCFF"/>
<path d="M92.7116 55.467C107.377 55.467 119.265 44.0468 119.265 29.9592C119.265 15.8716 107.377 4.45129 92.7116 4.45129C78.0466 4.45129 66.1582 15.8716 66.1582 29.9592C66.1582 44.0468 78.0466 55.467 92.7116 55.467Z" fill="#ECF4FF"/>
<path d="M102.839 48.0031C88.1728 48.0031 76.2854 36.5846 76.2854 22.4952C76.2854 16.4729 78.462 10.9417 82.0964 6.57935C72.7166 10.5138 66.1581 19.4999 66.1581 29.9592C66.1581 44.0457 78.0455 55.4671 92.7115 55.4671C101.107 55.4671 108.587 51.7193 113.454 45.8779C110.202 47.242 106.613 48.0031 102.839 48.0031Z" fill="#C4DCFF"/>
<path d="M18.3175 111.342C22.083 111.342 25.1355 109.568 25.1355 107.379C25.1355 105.19 22.083 103.416 18.3175 103.416C14.552 103.416 11.4994 105.19 11.4994 107.379C11.4994 109.568 14.552 111.342 18.3175 111.342Z" fill="#D7E9FF"/>
<path d="M20.7653 63.7811H15.9897V107.379H20.7653V63.7811Z" fill="#ECF4FF"/>
<path d="M18.3179 63.7811H15.9897V107.379H18.3179V63.7811Z" fill="#C9E0FF"/>
<path d="M36.635 65.1999C36.635 76.2623 28.4334 85.2282 18.3175 85.2282C8.20167 85.2282 0 76.2623 0 65.1999C0 54.1375 8.25871 0 18.3774 0C28.4961 0 36.635 54.1403 36.635 65.1999Z" fill="#ECF4FF"/>
<path d="M24.9844 79.6367C14.8686 79.6367 6.66688 70.6708 6.66688 59.6084C6.66688 50.7602 11.953 14.3564 19.2447 0.137853C18.9565 0.0516967 18.6684 0 18.3774 0C8.26157 0 0 54.1375 0 65.1999C0 76.2623 8.20167 85.2282 18.3175 85.2282C24.0373 85.2282 29.1437 82.3593 32.5043 77.8705C30.2078 79.002 27.666 79.6367 24.9844 79.6367Z" fill="#C4DCFF"/>
<path d="M56.9442 183.423L39.2657 172.745C32.944 168.929 32.944 162.679 39.2657 158.863C45.5874 155.046 55.9286 155.046 62.2503 158.863L79.9288 169.54C86.2505 173.357 86.2505 179.606 79.9288 183.423C73.6071 187.243 63.2659 187.243 56.9442 183.423Z" fill="#D7E9FF"/>
<path d="M69.3026 182.725L69.3396 179.463L64.2589 179.405L64.2218 182.714H64.2361C64.2674 183.546 65.3686 184.23 66.7436 184.247C68.1187 184.264 69.2341 183.607 69.2854 182.774H69.2997L69.3026 182.725Z" fill="#88A3BC"/>
<path d="M69.3399 179.463C69.3314 180.318 68.1846 180.999 66.7839 180.982C65.3803 180.965 64.2506 180.261 64.262 179.405C64.2706 178.549 65.4174 177.869 66.8181 177.886C68.2217 177.9 69.3485 178.607 69.3399 179.463Z" fill="#C4DCFF"/>
<path d="M81.0013 175.479L81.0384 172.214L75.9576 172.156L75.9205 175.468H75.9348C75.9662 176.303 77.0645 176.987 78.4424 177.001C79.8202 177.019 80.9328 176.358 80.9842 175.525H80.9984L81.0013 175.479Z" fill="#88A3BC"/>
<path d="M81.0389 172.211C81.0303 173.067 79.8835 173.748 78.4828 173.73C77.0793 173.713 75.9524 173.007 75.961 172.151C75.9695 171.295 77.1163 170.614 78.517 170.632C79.9206 170.649 81.0503 171.358 81.0389 172.211Z" fill="#C4DCFF"/>
<path d="M81.4777 172.521L42.3293 148.84V55.671L81.4777 79.3524V172.521Z" fill="#A9C2E0"/>
<path d="M64.2217 183.4L25.0734 159.718V66.5496L64.2217 90.2309V183.4Z" fill="#A9C2E0"/>
<path d="M25.0735 66.5496L42.3298 55.671L81.4781 79.3524L64.2218 90.231L25.0735 66.5496Z" fill="#D9E9F4"/>
<path d="M64.2219 183.4L81.4782 172.521V79.3524L64.2219 90.231V183.4Z" fill="#BED6ED"/>
<path d="M27.2101 93.9126L58.8614 112.815C58.9641 112.875 59.0497 112.812 59.0525 112.674L59.1238 106.618C59.1267 106.477 59.044 106.316 58.9384 106.253L27.2871 87.3504C27.1844 87.2901 27.0988 87.3532 27.096 87.4911L27.0247 93.5479C27.0247 93.6857 27.1045 93.8494 27.2101 93.9126Z" fill="#BED4EA"/>
<path d="M28.1408 92.1034L57.9863 109.926C58.0576 109.969 58.1146 109.926 58.1175 109.829L58.1346 108.306C58.1346 108.212 58.0804 108.1 58.0091 108.057L28.1636 90.2367C28.0923 90.1936 28.0352 90.2367 28.0324 90.3343L28.0152 91.8564C28.0124 91.9512 28.0694 92.0603 28.1408 92.1034Z" fill="#7D9DB5"/>
<path d="M28.1636 90.2367L28.7713 90.5985L28.7627 91.4199C28.7627 91.5146 28.8169 91.6267 28.8883 91.6697L58.129 109.131L58.1204 109.831C58.1204 109.926 58.0605 109.969 57.9892 109.929L28.1437 92.1062C28.0724 92.0632 28.0153 91.9512 28.0182 91.8564L28.0353 90.3343C28.0324 90.2367 28.0923 90.1936 28.1636 90.2367Z" fill="#9DB8D1"/>
<path d="M59.1238 106.417L61.82 104.966L61.7572 111.529L58.9755 112.83L59.1238 106.417Z" fill="#A9C2E0"/>
<path d="M27.2875 87.3504L59.1242 106.615L61.82 104.966L29.8606 85.8972L27.2875 87.3504Z" fill="#D9E9F4"/>
<path d="M80.8587 190.082L87.5687 186.031C89.9668 184.583 89.9668 182.213 87.5687 180.762C85.1706 179.315 81.2454 179.315 78.8445 180.762L72.1344 184.814C69.7363 186.261 69.7363 188.631 72.1344 190.082C74.5354 191.532 78.4606 191.532 80.8587 190.082Z" fill="#D7E9FF"/>
<path d="M75.3177 181.876L77.1801 180.656C77.8304 180.232 78.3376 179.145 78.3376 178.182V153.879C78.3376 153.308 78.1513 152.858 77.8276 152.645C77.5411 152.458 77.1915 152.478 76.8477 152.703L74.9854 153.923C74.335 154.346 73.8279 155.433 73.8279 156.397V180.699C73.8279 181.27 74.0141 181.72 74.3379 181.933C74.4668 182.017 74.6101 182.06 74.759 182.06C74.9395 182.063 75.1315 182 75.3177 181.876ZM77.501 153.294C77.5869 153.352 77.6815 153.536 77.6815 153.879V178.182C77.6815 178.868 77.2947 179.722 76.8534 180.01L74.9911 181.23C74.9138 181.279 74.7734 181.351 74.6731 181.287C74.5871 181.23 74.4926 181.048 74.4926 180.702V156.399C74.4926 155.716 74.8794 154.86 75.3206 154.571L77.1829 153.352C77.2374 153.317 77.3262 153.268 77.4093 153.268C77.4408 153.268 77.4723 153.277 77.501 153.294Z" fill="#CCDFF2"/>
<path d="M74.5142 185.385C74.2219 185.093 73.9067 185.001 73.6975 185.116L73.0614 185.486L74.1933 187.409C74.1933 187.409 74.8093 187.051 74.8265 187.037H74.8294C74.8924 186.988 74.9469 186.922 74.9841 186.829C75.1331 186.44 74.9239 185.794 74.5142 185.385Z" fill="#30397A"/>
<path d="M74.3723 187.184C74.2233 187.573 73.7734 187.556 73.3665 187.147C72.9567 186.737 72.7476 186.091 72.8937 185.705C73.0427 185.316 73.4926 185.333 73.8995 185.742C74.3092 186.152 74.5184 186.798 74.3723 187.184Z" fill="#222949"/>
<path d="M73.9828 186.87C73.8911 187.015 73.6847 186.992 73.4956 186.801C73.2893 186.593 73.1804 186.265 73.2549 186.068C73.2893 185.976 73.3581 185.927 73.4412 185.924C73.4326 185.939 73.4269 185.956 73.4183 185.973C73.3409 186.175 73.4498 186.501 73.6561 186.712C73.7678 186.821 73.8853 186.879 73.9828 186.87Z" fill="#30397A"/>
<path d="M74.0092 186.821C74.0035 186.839 73.992 186.856 73.9834 186.87C73.8859 186.876 73.7683 186.821 73.6536 186.709C73.4472 186.501 73.3382 186.172 73.4156 185.97C73.4242 185.956 73.4299 185.939 73.4386 185.921C73.536 185.916 73.6565 185.97 73.7683 186.083C73.9777 186.293 74.0866 186.625 74.0092 186.821Z" fill="#99BCE6"/>
<path d="M78.9177 188.04C78.6255 187.749 78.3103 187.657 78.1011 187.772L77.465 188.141L78.5968 190.065C78.5968 190.065 79.2129 189.707 79.2301 189.693H79.233C79.296 189.644 79.3504 189.577 79.3877 189.485C79.5338 189.096 79.3246 188.45 78.9177 188.04Z" fill="#30397A"/>
<path d="M78.773 189.84C78.624 190.229 78.1741 190.212 77.7672 189.802C77.3575 189.393 77.1483 188.747 77.2944 188.361C77.4435 187.971 77.8933 187.989 78.3002 188.398C78.71 188.808 78.9192 189.453 78.773 189.84Z" fill="#222949"/>
<path d="M78.3835 189.529C78.2918 189.673 78.0855 189.65 77.8964 189.46C77.6901 189.252 77.5812 188.923 77.6557 188.727C77.6901 188.635 77.7588 188.586 77.8419 188.583C77.8333 188.597 77.8276 188.615 77.819 188.632C77.7416 188.834 77.8505 189.16 78.0568 189.37C78.1686 189.48 78.2861 189.535 78.3835 189.529Z" fill="#30397A"/>
<path d="M78.4102 189.48C78.4045 189.497 78.393 189.515 78.3844 189.529C78.2869 189.535 78.1693 189.48 78.0546 189.367C77.8481 189.16 77.7392 188.831 77.8166 188.629C77.8252 188.614 77.8309 188.597 77.8395 188.58C77.937 188.574 78.0575 188.629 78.1693 188.741C78.3786 188.952 78.4876 189.281 78.4102 189.48Z" fill="#99BCE6"/>
<path d="M86.0003 183.753C85.708 183.461 85.3928 183.369 85.1836 183.484L84.5475 183.854L85.6793 185.777C85.6793 185.777 86.2954 185.419 86.3126 185.405H86.3155C86.3785 185.356 86.4329 185.289 86.4702 185.197C86.6192 184.808 86.41 184.162 86.0003 183.753Z" fill="#30397A"/>
<path d="M85.8555 185.552C85.7065 185.941 85.2567 185.924 84.8498 185.515C84.44 185.105 84.2308 184.459 84.377 184.073C84.526 183.683 84.9758 183.701 85.3827 184.11C85.7925 184.52 86.0046 185.166 85.8555 185.552Z" fill="#222949"/>
<path d="M85.4689 185.241C85.3773 185.385 85.1709 185.362 84.9818 185.172C84.7755 184.964 84.6666 184.635 84.7411 184.439C84.7755 184.347 84.8443 184.298 84.9274 184.295C84.9188 184.309 84.9131 184.327 84.9045 184.344C84.8271 184.546 84.936 184.872 85.1423 185.083C85.2541 185.192 85.3715 185.247 85.4689 185.241Z" fill="#30397A"/>
<path d="M85.4953 185.192C85.4895 185.209 85.4781 185.227 85.4695 185.241C85.372 185.247 85.2544 185.192 85.1397 185.08C84.9332 184.872 84.8243 184.543 84.9017 184.341C84.9103 184.327 84.916 184.309 84.9246 184.292C85.0221 184.286 85.1426 184.341 85.2544 184.454C85.4637 184.661 85.5698 184.993 85.4953 185.192Z" fill="#99BCE6"/>
<path d="M72.9395 168.092L79.4977 163.969C79.9991 163.651 80.5578 163.663 81.0191 163.897V163.885L85.9528 166.959L81.9817 170.252V180.356C81.9817 181.007 81.6637 181.607 81.148 181.93L77.9018 183.969L77.8474 188.871L73.1658 186.166C72.5641 185.909 72.1057 185.281 72.1057 184.473V169.667C72.1057 169.018 72.4237 168.415 72.9395 168.092Z" fill="#C12B9E"/>
<path d="M86.9217 168.591V183.239C86.9217 183.882 86.6037 184.476 86.0879 184.796L79.5297 188.868C78.4238 189.554 77.0457 188.689 77.0457 187.311V172.668C77.0457 172.025 77.3637 171.431 77.8794 171.111L84.4376 167.034C85.5407 166.347 86.9217 167.21 86.9217 168.591Z" fill="#F63598"/>
<path d="M73.9108 185.46V170.707C73.9108 170.059 74.2288 169.462 74.7445 169.139L81.3028 165.033C81.7182 164.773 82.1709 164.733 82.5749 164.857C82.0706 164.366 81.3085 164.208 80.6438 164.626L74.0856 168.732C73.5699 169.055 73.2518 169.655 73.2518 170.301V185.053C73.2518 185.924 73.8248 186.734 74.501 186.945C74.1687 186.622 73.9108 186.01 73.9108 185.46Z" fill="#0D1884"/>
<path d="M74.4898 154.413C74.4898 154.413 75.1145 154.724 75.0199 154.862C74.9254 154.998 74.7592 155.295 74.7592 155.295C74.7592 155.295 75.1088 155.606 75.6389 155.041C76.2979 154.34 77.467 154.107 77.6418 153.501C77.8023 152.945 77.553 152.175 76.9598 152.175C76.3667 152.175 74.7735 152.876 74.1976 153.795C73.9081 154.257 74.3122 154.681 74.3122 154.681L74.4898 154.413Z" fill="#0D1884"/>
<path d="M81.7812 167.677L79.3802 169.179C79.0335 169.395 78.4233 169.369 78.0221 169.119C77.621 168.868 77.5781 168.487 77.9247 168.271L80.3257 166.768C80.6724 166.552 81.2826 166.578 81.6838 166.829C82.0849 167.077 82.1278 167.458 81.7812 167.677Z" fill="#0D1884"/>
<path d="M78.7355 170.578V189.11C78.5005 189.116 78.2684 189.067 78.0564 188.969V171.002L78.7355 170.578Z" fill="#C12B9E"/>
<path d="M79.9218 188.153V169.842L80.6009 169.421V188.156C80.6009 188.179 80.5923 188.199 80.5894 188.219L80.171 188.479C80.0278 188.433 79.9218 188.306 79.9218 188.153Z" fill="#C12B9E"/>
<path d="M86.1962 167.112V184.707C86.1589 184.736 86.1274 184.773 86.0873 184.799L85.5199 185.151V166.815C85.7635 166.858 85.9927 166.962 86.1962 167.112Z" fill="#C12B9E"/>
<path d="M82.4665 168.259V187.048L81.7874 187.469V168.68L82.4665 168.259Z" fill="#C12B9E"/>
<path d="M84.3311 167.097V185.889L83.652 186.31V167.521L84.3311 167.097Z" fill="#C12B9E"/>
<path d="M44.4932 186.94C48.0275 186.94 50.8926 185.274 50.8926 183.218C50.8926 181.163 48.0275 179.497 44.4932 179.497C40.959 179.497 38.0939 181.163 38.0939 183.218C38.0939 185.274 40.959 186.94 44.4932 186.94Z" fill="#D7E9FF"/>
<path d="M40.5048 165.4L40.4383 181.476C40.4288 183.668 42.1866 185.451 44.3625 185.458L44.4432 185.456C46.6167 185.47 48.3864 183.699 48.3959 181.51L48.4624 165.434L40.5048 165.4Z" fill="#88A3BC"/>
<path d="M47.2873 167.066C45.7314 167.966 43.2134 167.954 41.6623 167.045C40.1112 166.133 40.1207 164.668 41.6766 163.771C43.2348 162.873 45.7551 162.883 47.3015 163.795C48.8527 164.704 48.8479 166.169 47.2873 167.066Z" fill="#D7E9FF"/>
<path d="M40.5173 162.502L40.5101 164.567C40.5078 165.159 40.8926 165.755 41.667 166.207C43.2181 167.119 45.7337 167.128 47.2943 166.231C48.0735 165.781 48.4654 165.192 48.4654 164.601L48.4773 162.536L40.5173 162.502Z" fill="#88A3BC"/>
<path d="M47.3014 164.168C45.7432 165.065 43.2276 165.053 41.6765 164.144C40.1277 163.235 40.1324 161.77 41.6907 160.875C43.249 159.975 45.7645 159.987 47.3181 160.894C48.8645 161.806 48.8573 163.27 47.3014 164.168Z" fill="#D7E9FF"/>
<path d="M43.4837 132.486L44.4742 129.279L45.3816 128.757L44.6547 128.326L43.745 128.853L42.7592 132.057L43.6642 134.173L43.5478 162.521L44.277 162.947L44.3911 134.601L43.4837 132.486Z" fill="#88A3BC"/>
<path d="M43.4838 132.486L44.3912 134.601L44.2772 162.947L45.3081 162.351L45.4197 134.008L46.3485 130.834L45.3817 128.757L44.4743 129.279L43.4838 132.486Z" fill="#BED6ED"/>
<path d="M30.0182 197.262C37.3399 197.262 43.2753 193.809 43.2753 189.551C43.2753 185.292 37.3399 181.84 30.0182 181.84C22.6964 181.84 16.761 185.292 16.761 189.551C16.761 193.809 22.6964 197.262 30.0182 197.262Z" fill="#D7E9FF"/>
<path d="M23.2855 186.181C23.2855 186.181 24.8296 185.693 25.06 186.686C25.2928 187.679 24.1146 188.828 23.5065 189.477C22.9981 190.018 22.7938 191.449 21.8817 191.889C21.3828 192.131 20.4683 191.935 20.1619 191.102C19.8792 190.336 20.4897 187.395 20.4897 187.395L23.2855 186.181Z" fill="#0863EF"/>
<path d="M23.0699 186.516C23.0699 186.516 24.6139 186.028 24.8443 187.021C24.937 187.418 24.8039 187.84 24.5711 188.244C24.9251 187.742 25.1769 187.193 25.0581 186.684C24.8277 185.69 23.2837 186.179 23.2837 186.179L20.4878 187.394C20.4878 187.394 20.4664 187.495 20.4355 187.66L23.0699 186.516Z" fill="#99BCE6"/>
<path d="M23.2363 189.881C22.9534 190.231 22.7609 190.851 22.4613 191.384C22.7989 190.929 23.001 190.326 23.2363 189.881Z" fill="#99BCE6"/>
<path d="M21.1764 155.38C20.9008 156.28 20.8676 168.796 20.1359 172.913C19.3402 177.407 19.3283 184.393 19.3212 187.347C19.3425 189.345 23.7442 188.945 24.1504 185.899C23.9841 182.802 24.5542 179.817 24.9153 175.959C25.3927 171.814 27.8323 162.275 27.8323 162.275C27.8323 162.275 21.4495 154.482 21.1764 155.38Z" fill="#4E87EE"/>
<path d="M19.9673 186.899C19.9745 183.948 19.984 176.962 20.7821 172.465C21.4353 168.772 21.5327 158.323 21.7442 155.561C21.4306 155.32 21.2239 155.234 21.1788 155.38C20.9033 156.279 20.87 168.796 20.1384 172.913C19.3426 177.407 19.3307 184.393 19.3236 187.347C19.3402 188.835 21.7798 188.993 23.1955 187.72C21.7869 188.474 19.9792 188.179 19.9673 186.899Z" fill="#0552DE"/>
<path d="M36.7114 187.473C37.4763 187.921 40.0203 187.373 40.8589 187.796C41.695 188.22 41.9824 189.745 40.8114 190.494C39.6403 191.243 34.0937 192.798 32.6613 192.255C31.229 191.712 32.0889 188.687 32.0889 188.687C32.0889 188.687 35.9465 187.021 36.7114 187.473Z" fill="#0863EF"/>
<path d="M40.8596 187.796C40.0234 187.373 37.477 187.921 36.7121 187.473C35.9472 187.023 32.0896 188.689 32.0896 188.689C32.0896 188.689 32.0848 188.711 32.0753 188.739C33.092 188.325 35.6717 187.337 36.2822 187.696C37.047 188.143 39.5911 187.595 40.4296 188.019C41.2658 188.443 41.5532 189.967 40.3821 190.716C40.3797 190.719 40.375 190.721 40.3702 190.723C40.5508 190.642 40.7004 190.563 40.8097 190.494C41.9831 189.745 41.6957 188.22 40.8596 187.796Z" fill="#99BCE6"/>
<path d="M29.0938 155.176C31.6854 155.337 34.2389 153.834 34.2389 153.834C34.2389 153.834 36.3554 162.074 36.2462 173.502C36.2628 180.014 36.3412 183.814 37.1132 187.222C36.897 189.513 31.8778 190.64 31.5191 188.579C31.1675 182.364 30.6853 178.69 30.4692 175.045C30.2815 171.874 27.9964 163.574 27.8562 163.16C24.9345 161.274 23.9201 161.265 22.4759 158.565C20.8084 155.447 24.8632 154.915 29.0938 155.176Z" fill="#4E87EE"/>
<path d="M32.1636 188.019C31.812 181.804 31.3298 178.13 31.1136 174.485C30.926 171.314 28.6408 163.014 28.5007 162.6C25.4578 160.882 23.8924 160.844 23.1346 159.496L23.0372 159.582C23.7546 160.968 24.9352 161.274 27.8569 163.16C27.9971 163.572 30.2822 171.874 30.4699 175.045C30.686 178.69 31.1683 182.364 31.5198 188.579C31.8167 190.286 35.311 189.805 36.6246 188.287C35.0615 189.335 32.4201 189.493 32.1636 188.019Z" fill="#0552DE"/>
<path d="M19.4615 146.34C19.5066 146.041 20.6967 142.844 21.6944 141.305C23.8537 137.976 25.773 135.255 22.2859 133.685C19.5969 132.928 18.3023 134.86 17.1574 138.143C16.193 140.335 16.0504 141.575 14.9981 144.639C14.8366 145.352 15.2095 147.08 15.6799 147.814C17.117 150.844 19.7228 152.098 22.1624 153.704C22.1624 153.704 24.0864 153.151 23.7349 151.584C22.5567 150.571 21.3476 148.202 19.4615 146.34Z" fill="#F8FBFF"/>
<path d="M16.3474 148.039C15.877 147.305 15.5041 145.574 15.6656 144.864C16.7179 141.798 16.8604 140.56 17.8249 138.368C18.9128 135.245 22.3856 133.73 22.2859 133.685C19.5969 132.928 18.3023 134.86 17.1574 138.143C16.193 140.335 16.0504 141.575 14.9981 144.639C14.8366 145.352 15.2095 147.08 15.6799 147.814C17.117 150.844 19.7228 152.098 22.1624 153.704C22.1624 153.704 22.2455 153.68 22.369 153.63C20.0696 152.158 17.6942 150.878 16.3474 148.039Z" fill="#B6D1FE"/>
<path d="M28.5556 139.596C28.5556 139.596 35.9074 157.579 35.1877 158.405C34.4703 159.228 32.2849 159.738 28.0567 159.319C23.6622 158.883 21.2512 158.371 21.0065 156.863C20.8331 155.803 23.895 151.605 23.5814 149.779C22.9187 145.883 28.5556 139.596 28.5556 139.596Z" fill="#0552DE"/>
<path d="M23.5834 133.867C25.3697 135.41 29.4602 135.906 29.4602 135.906L32.3273 138.127L33.2418 138.852C33.2418 138.852 36.337 156.588 35.6196 157.412C34.9022 158.235 32.2869 158.953 28.0587 158.534C23.6642 158.098 20.8897 157.419 20.645 155.909C20.4716 154.848 22.4812 149.866 22.17 148.04C21.5073 144.143 18.9062 141.104 19.4692 137.227C20.1842 132.282 22.6356 133.845 23.5834 133.867Z" fill="#F8FBFF"/>
<path d="M29.0579 158.084C24.6633 157.649 21.8889 156.969 21.6442 155.459C21.4708 154.398 23.4804 149.416 23.1692 147.59C22.5065 143.693 19.9054 140.654 20.4684 136.777C20.7202 135.042 21.1857 134.108 21.725 133.63C20.8081 133.735 19.8674 134.467 19.4659 137.227C18.9053 141.106 21.504 144.146 22.1668 148.04C22.478 149.863 20.4684 154.848 20.6418 155.909C20.8864 157.416 23.6609 158.096 28.0554 158.534C31.7397 158.9 34.2006 158.4 35.2458 157.72C33.9441 158.139 31.8561 158.362 29.0579 158.084Z" fill="#B6D1FE"/>
<path d="M46.3748 147.298C46.8048 146.793 46.0684 144.663 45.389 144.423C44.8926 144.246 44.0327 143.748 43.2393 144.423C42.4103 145.127 42.0207 145.483 41.0159 146.907C40.4505 147.465 41.5789 148.755 42.6977 148.612C43.5623 148.647 44.016 147.925 44.9615 147.599C45.6337 147.365 45.8546 147.728 46.3748 147.298Z" fill="#FCB892"/>
<path d="M46.3748 146.96C45.8545 147.391 45.6336 147.027 44.959 147.259C44.016 147.585 43.5599 148.307 42.6952 148.272C41.8686 148.379 41.0372 147.702 40.8899 147.116C40.7023 147.733 41.7023 148.738 42.6952 148.609C43.5599 148.645 44.0136 147.922 44.959 147.597C45.6336 147.365 45.8569 147.728 46.3748 147.298C46.4888 147.164 46.5197 146.917 46.4912 146.62C46.4769 146.761 46.4413 146.881 46.3748 146.96Z" fill="#DB895D"/>
<path d="M40.978 146.817C40.3153 147.453 38.6668 148.085 37.7166 148.702C37.6762 148.705 37.4007 148.355 37.1726 148.063C36.8852 147.501 36.2652 145.895 35.7355 143.916C34.7164 140.101 33.5929 137.33 30.3196 139.053C29.291 140.003 29.443 142.552 30.6735 145.361C31.7068 147.489 32.3529 148.054 33.9753 150.801C33.9801 150.808 33.9872 150.813 33.992 150.818C34.4575 151.541 35.0466 152.11 35.3697 152.582C38.3461 155.447 41.5149 149.286 42.6978 148.707C42.6955 148.702 42.3962 146.927 40.978 146.817Z" fill="#F8FBFF"/>
<path d="M35.5831 151.907C35.2624 151.435 34.671 150.866 34.2054 150.143C34.2006 150.136 34.1935 150.131 34.1888 150.126C32.564 147.379 31.9203 146.814 30.887 144.686C30.0176 142.702 29.6897 140.85 29.932 139.598C29.3643 140.79 29.628 142.98 30.6708 145.359C31.7041 147.487 32.3502 148.051 33.9726 150.799C33.9774 150.806 33.9845 150.811 33.9892 150.816C34.4548 151.538 35.0439 152.108 35.367 152.579C38.3434 155.444 41.5122 149.284 42.6951 148.705C42.6951 148.705 42.6642 148.528 42.5787 148.281C41.2081 149.561 38.3148 154.537 35.5831 151.907Z" fill="#B6D1FE"/>
<path d="M31.2978 124.164C31.2978 124.164 32.9344 125.502 32.3501 128.573C31.8132 131.387 31.2788 132.845 30.7871 133.043C30.4925 133.163 29.578 133.105 29.4093 133.254C29.2407 133.402 29.4331 135.578 29.4568 135.903C28.395 136.171 25.2452 135.752 23.5801 133.864C23.7891 133.527 24.725 132.206 24.9626 129.982C25.2025 127.761 31.2978 124.164 31.2978 124.164Z" fill="#FCB892"/>
<path d="M27.1287 134.963C25.5158 134.707 24.5039 133.57 24.0858 132.998C23.8625 133.438 23.663 133.73 23.5798 133.864C25.245 135.75 28.3948 136.169 29.4566 135.903C29.4471 135.788 29.4186 135.441 29.3925 135.037C28.9174 135.106 28.1858 135.13 27.1287 134.963Z" fill="#DB895D"/>
<path d="M31.4998 124.655L32.0485 125.229C31.7112 124.504 31.2979 124.167 31.2979 124.167C31.2979 124.167 30.685 124.528 29.8394 125.093L31.4998 124.655Z" fill="#DB895D"/>
<path d="M31.9632 124.794C33.0179 127.038 31.5879 126.672 31.6806 127.496C31.7756 128.321 31.2007 130.176 30.9751 130.214C30.766 130.25 30.8706 128.424 30.1413 128.735C29.4121 129.049 29.4406 132.586 27.9227 132.663C26.5829 132.727 24.9202 131.897 24.7563 131.224C24.5567 130.401 31.7875 124.415 31.9632 124.794Z" fill="#DB895D"/>
<path d="M32.4761 123.841C33.6543 125.16 31.6803 126.337 31.7753 127.161C31.8703 127.986 31.4 129.858 31.172 129.896C30.9629 129.932 30.7586 127.974 30.0318 128.285C29.3025 128.599 29.331 132.136 27.8131 132.213C26.4734 132.277 24.9056 131.483 24.5992 130.861C24.2073 130.068 22.3164 126.897 24.7916 124.164C28.2336 121.019 32.1981 123.532 32.4761 123.841Z" fill="#412424"/>
<path d="M74.8298 205C80.6087 205 85.2935 202.275 85.2935 198.914C85.2935 195.553 80.6087 192.828 74.8298 192.828C69.0508 192.828 64.3661 195.553 64.3661 198.914C64.3661 202.275 69.0508 205 74.8298 205Z" fill="#D7E9FF"/>
<path d="M80.3146 198.482C80.0628 197.748 78.9843 197.106 78.5045 196.458C78.2385 196.099 78.0365 195.716 77.837 195.314C77.4807 194.601 77.1767 194.024 77.3548 193.212C77.4617 192.727 77.6375 192.25 77.78 191.774C77.3738 191.681 76.0056 191.781 75.7063 191.985C75.4949 192.128 75.2146 192.363 75.1267 192.609C74.9295 193.15 74.6587 193.481 74.4473 194.086C74.0554 195.216 74.3357 195.646 75.2526 196.329C76.0555 196.924 76.084 197.602 76.5828 198.389C77.0983 199.2 78.2099 199.507 79.1174 199.437C79.6233 199.399 80.5569 199.198 80.3146 198.482Z" fill="#0863EF"/>
<path d="M80.3158 198.481C80.064 197.746 78.9856 197.105 78.5057 196.456C78.2397 196.097 78.0378 195.714 77.8382 195.312C77.4819 194.599 77.1779 194.022 77.356 193.211C77.4629 192.725 77.6387 192.249 77.7812 191.773C77.3822 191.679 76.0543 191.777 75.7241 191.974C76.2515 191.856 77.1327 191.813 77.4463 191.885C77.3061 192.361 77.1304 192.84 77.0211 193.324C76.8429 194.135 77.147 194.712 77.5033 195.425C77.7028 195.827 77.9047 196.207 78.1708 196.569C78.6506 197.217 79.7291 197.859 79.9809 198.594C80.1139 198.986 79.893 199.223 79.5842 199.364C80.0379 199.252 80.494 199.005 80.3158 198.481Z" fill="#99BCE6"/>
<path d="M75.6704 202.315C75.2547 201.089 73.8057 200.443 73.0978 199.404C72.4731 198.488 72.0764 197.487 72.0645 196.375C72.0526 195.506 72.2854 195.341 71.4089 195.341C70.9433 195.341 69.9504 195.161 69.7675 195.506C69.6487 195.731 69.7675 196.42 69.7675 196.686C69.7675 197.138 69.701 197.114 69.5751 197.483C69.4017 197.99 69.1095 198.742 69.2758 199.278C69.4539 199.85 70.1761 200.268 70.511 200.769C71.3257 201.98 72.0597 203.004 73.6204 203.229C74.1097 203.296 75.972 203.21 75.6704 202.315Z" fill="#0863EF"/>
<path d="M71.8393 196.037C71.8535 197.15 72.2482 198.15 72.8734 199.067C72.8901 199.091 72.9067 199.112 72.9234 199.134C72.4003 198.292 72.0747 197.38 72.0604 196.375C72.0533 195.712 72.184 195.458 71.8559 195.377C71.8607 195.53 71.8369 195.743 71.8393 196.037Z" fill="#99BCE6"/>
<path d="M75.6712 202.315C75.5809 202.051 75.4431 201.814 75.2745 201.594C75.3434 201.716 75.4027 201.843 75.4479 201.977C75.7519 202.872 73.8872 202.958 73.3955 202.889C71.8349 202.664 71.0985 201.64 70.2861 200.429C70.0509 200.079 69.6305 199.768 69.3359 199.419C69.5782 199.919 70.203 200.312 70.5094 200.766C71.3242 201.98 72.0582 203.002 73.6188 203.227C74.1105 203.296 75.9728 203.21 75.6712 202.315Z" fill="#99BCE6"/>
<path d="M70.4161 160.121C66.9694 163.352 70.2855 179.318 70.2855 179.318C70.2308 179.954 69.5111 181.206 69.2403 184.006C68.922 187.314 69.5016 196.214 69.5016 196.214C69.5016 196.214 71.0076 196.808 72.2666 196.2C72.2666 196.2 74.2524 183.204 74.6633 179.914C75.022 177.044 75.9793 169.357 75.9793 169.357L77.9129 179.658C77.9129 179.658 77.0008 181.06 76.6278 182.233C76.1646 183.685 74.851 192.548 74.851 192.548C74.851 192.548 76.0648 193.304 77.5708 193.081C77.5708 193.081 82.2077 181.321 82.3003 178.985C82.7231 168.27 79.1529 159.011 79.1529 159.011L70.4161 160.121Z" fill="#F2F4F7"/>
<path d="M70.1691 195.877C70.1691 195.877 69.5895 186.976 69.9078 183.669C70.1762 180.869 70.8983 179.617 70.953 178.98C70.953 178.98 67.8103 163.85 70.8247 160.069L70.4161 160.121C66.9694 163.352 70.2855 179.318 70.2855 179.318C70.2308 179.954 69.5111 181.206 69.2403 184.006C68.922 187.314 69.5016 196.214 69.5016 196.214C69.5016 196.214 71.0076 196.808 72.2666 196.2C72.2666 196.2 72.2737 196.152 72.2856 196.075C71.2119 196.286 70.1691 195.877 70.1691 195.877Z" fill="#B6D1FE"/>
<path d="M75.5184 192.21C75.5184 192.21 76.8344 183.348 77.2952 181.895C77.6681 180.722 78.5803 179.32 78.5803 179.32L76.2571 167.086C76.2571 167.086 76.136 168.052 75.965 169.426L77.9104 179.657C77.9104 179.657 76.9983 181.06 76.6253 182.233C76.1621 183.685 74.8485 192.548 74.8485 192.548C74.8485 192.548 76.0623 193.304 77.5684 193.081C77.5684 193.081 77.6087 192.976 77.6848 192.787C76.4472 192.787 75.5184 192.21 75.5184 192.21Z" fill="#B6D1FE"/>
<path d="M78.754 146.951C79.0913 147.037 83.9015 150.096 85.4194 150.182C86.9373 150.268 87.5857 149.218 87.0798 147.944C86.5738 146.669 81.2006 141.001 80.526 140.066C80.526 140.066 79.0461 138.029 78.3692 137.859C77.6945 137.689 77.9083 140.461 79.2029 141.368C80.4975 142.275 82.3527 144.711 82.2957 145.561C82.2957 145.561 78.7302 142.67 78.2338 142.445C77.7373 142.217 77.2313 142.445 77.2313 142.445L78.754 146.951Z" fill="#FCB892"/>
<path d="M79.2067 141.368C80.2139 142.074 81.9741 144.804 82.4943 145.893C82.6297 146.001 83.0549 146.774 83.0549 146.774C83.1119 145.924 80.4989 141.688 79.2043 140.781C78.4798 140.274 78.095 139.185 78.0142 138.35C77.9169 139.159 78.2922 140.729 79.2067 141.368Z" fill="#DB895D"/>
<path d="M85.4195 149.593C83.9016 149.507 79.0914 146.449 78.7541 146.362L77.4144 142.387C77.3051 142.414 77.2362 142.445 77.2362 142.445L78.7541 146.951C79.0914 147.037 83.9016 150.096 85.4195 150.182C86.7402 150.256 87.4006 149.471 87.2153 148.425C87.0989 149.158 86.4766 149.653 85.4195 149.593Z" fill="#DB895D"/>
<path d="M67.9202 146.587C67.9202 146.587 66.5639 146.812 66.0437 147.767C65.5234 148.722 65.4664 152.137 66.198 156.342C66.198 156.342 64.4616 165.633 64.7799 167.067C65.0982 168.498 65.4498 170.398 66.0769 171.31C66.305 171.642 66.9724 172.581 67.3002 172.349C67.3002 172.349 66.5995 169.13 66.7682 168.876C66.9368 168.622 67.0199 166.954 66.6945 166.169C66.3715 165.384 68.982 160.423 68.6709 157.237C68.3597 154.052 69.9868 148.478 69.9868 148.478L67.9202 146.587Z" fill="#FCB892"/>
<path d="M66.5211 171.31C65.8964 170.396 65.5424 168.498 65.2241 167.067C64.9058 165.635 66.6423 156.342 66.6423 156.342C65.9106 152.137 65.9676 148.722 66.4879 147.767C66.8394 147.121 67.5758 146.807 68.0152 146.676L67.9202 146.587C67.9202 146.587 66.5639 146.812 66.0437 147.767C65.5234 148.722 65.4664 152.137 66.198 156.342C66.198 156.342 64.4616 165.633 64.7799 167.067C65.0982 168.498 65.4498 170.398 66.0769 171.31C66.305 171.642 66.9724 172.581 67.3002 172.349C67.3002 172.349 67.2884 172.296 67.2694 172.205C66.9748 171.958 66.6636 171.518 66.5211 171.31Z" fill="#DB895D"/>
<path d="M75.9845 143.38L76.7138 146.578L74.0153 147.767L71.4997 145.436L71.0294 142.696L72.9963 141.463L75.9845 143.38Z" fill="#DB895D"/>
<path d="M65.8254 148.435C65.8254 148.435 66.6236 147.356 67.4336 147.43C68.2436 147.504 68.7472 148.753 68.9135 149.392C69.0798 150.031 69.1391 151.656 69.1391 151.656L69.7021 148.842L68.6759 146.774L67.3837 146.635C67.3837 146.635 66.6378 147.085 66.4145 147.269C66.196 147.449 65.9822 147.588 65.8254 148.435Z" fill="#DB895D"/>
<path d="M77.7655 143.172L77.9091 143.112C77.9091 143.112 77.7703 142.945 77.7655 143.172Z" fill="#4E87EE"/>
<path d="M70.4566 160.085C69.5159 163.173 78.5472 161.572 79.1102 159.305C79.2337 158.805 79.0769 158.317 79.0389 158.487C78.5828 160.54 71.2286 162.065 70.4566 160.085Z" fill="#B6D1FE"/>
<path d="M78.8963 147.791C79.3168 148.973 79.5163 149.787 79.5804 150.381C79.6755 149.78 79.5401 148.823 78.8963 147.009C77.958 144.364 77.7585 143.457 77.7656 143.172L75.7798 143.998C75.7798 143.998 75.8772 144.299 75.9698 144.701L77.768 143.955C77.7585 144.24 77.958 145.144 78.8963 147.791Z" fill="#4E87EE"/>
<path d="M75.6901 147.621C76.1201 147.49 76.1699 146.87 76.0987 146.24C76.0512 146.535 75.93 146.765 75.6901 146.839C74.0178 147.348 73.9466 147.576 70.9084 144.287L66.8251 146.994C66.8251 146.994 67.4569 146.65 68.1292 146.937L70.9084 145.07C73.9466 148.356 74.0178 148.131 75.6901 147.621Z" fill="#4E87EE"/>
<path d="M70.5627 158.8C70.5411 158.97 70.5076 159.138 70.4574 159.303C70.364 159.609 70.3712 159.868 70.4574 160.088C70.4574 160.088 70.4574 160.088 70.4574 160.085C70.5842 159.676 70.6033 159.241 70.5627 158.8Z" fill="#4E87EE"/>
<path d="M74.4521 155.727C75.1054 154.957 78.4072 153.688 78.4072 153.688L78.412 153.671C78.2979 155.081 79.0842 156.381 79.2149 157.881C79.3764 156.034 78.2813 154.538 78.412 152.889L78.4072 152.906C78.4072 152.906 75.1078 154.174 74.4521 154.945C74.3975 155.009 74.3571 155.004 74.3239 154.969C74.2004 155.44 74.2574 155.959 74.4521 155.727Z" fill="#4E87EE"/>
<path d="M74.5593 153.698C74.9465 153.272 78.6616 151.927 78.6616 151.927L78.6592 151.939C78.9704 151.324 79.4621 151.137 79.5809 150.378C79.5168 149.785 79.3172 148.973 78.8968 147.789C77.9585 145.144 77.7589 144.237 77.7661 143.952L75.9679 144.699C76.0748 145.171 76.1722 145.786 76.0985 146.238C76.1674 146.865 76.1199 147.487 75.69 147.619C74.0177 148.129 73.9464 148.356 70.9083 145.068L68.129 146.934C68.3784 147.042 68.6398 147.234 68.882 147.573C69.2502 148.086 69.3429 148.765 69.2787 149.464C69.3904 150.469 69.3429 151.965 69.0103 152.877C68.92 153.126 68.9129 153.396 69.0222 153.636C69.616 154.935 70.7966 156.876 70.5615 158.8C70.6018 159.243 70.5828 159.676 70.4569 160.085C71.229 162.065 78.6022 160.564 79.1106 158.523C79.1652 158.302 79.1961 158.092 79.2127 157.881C79.0821 156.381 78.2982 155.081 78.4098 153.671L78.4051 153.688C78.4051 153.688 75.1056 154.957 74.45 155.727C74.2528 155.959 74.1982 155.438 74.3217 154.969C74.1958 154.825 74.2505 154.038 74.5593 153.698Z" fill="#4E87EE"/>
<path d="M74.5588 153.698C74.1717 154.124 74.1788 155.27 74.4543 154.947C75.1076 154.176 78.4094 152.908 78.4094 152.908L78.4142 152.891C78.4213 152.793 78.4308 152.695 78.4474 152.595C78.4949 152.324 78.5709 152.116 78.6588 151.941L78.6612 151.929C78.6588 151.927 74.9437 153.272 74.5588 153.698Z" fill="#0552DE"/>
<path d="M76.0003 146.487C76.3281 146.465 76.6773 146.346 77.1619 146.197C78.0313 145.932 77.3519 143.677 77.2616 143.387L75.7343 144.022C75.7366 144.019 76.2853 145.697 76.0003 146.487Z" fill="#0552DE"/>
<path d="M71.8506 158.69C72.6725 155.998 69.4158 152.36 69.7673 151.541C70.107 150.749 70.4467 148.722 69.5464 147.475C68.6461 146.228 68.2495 146.396 68.2495 146.396L70.9859 144.558C70.917 144.484 70.8553 144.417 70.784 144.34L66.829 146.987C66.8266 146.989 66.7696 147.025 66.7743 147.023C66.9929 146.918 67.9715 146.537 68.7602 147.626C69.6605 148.873 68.9953 152.233 68.9478 153.463C68.9122 154.377 71.1593 156.661 70.3374 159.353C69.5797 161.837 75.2735 161.287 77.8224 159.798C75.0431 160.722 71.2211 160.755 71.8506 158.69Z" fill="#0552DE"/>
<path d="M78.0578 137.852C78.167 138.137 80.8156 140.616 80.6921 141.174C80.5448 141.837 79.3714 142.705 78.8274 142.308C78.1765 141.834 76.2833 139.613 76.2833 139.613L78.0578 137.852Z" fill="#0D1884"/>
<path d="M78.0589 137.852L77.9425 137.967C78.3891 138.532 80.6125 140.659 80.4984 141.174C80.3821 141.7 79.6243 142.344 79.0423 142.394C79.6338 142.502 80.5626 141.758 80.6932 141.174C80.8168 140.616 78.1682 138.137 78.0589 137.852Z" fill="#374AAA"/>
<path d="M78.2146 137.481C78.407 140.097 79.0412 140.963 78.9961 142.102C78.9533 143.244 77.9272 144.196 77.9272 144.196C77.9272 144.196 77.654 143.033 77.3001 142.892C76.9105 142.736 76.11 138.919 76.11 138.919L77.4022 137.483C77.3975 137.481 78.2692 136.856 78.2146 137.481Z" fill="#F9339C"/>
<path d="M73.8612 144.608C74.0277 144.835 74.1752 145.015 74.2609 145.072C74.2252 144.653 74.2466 144.122 74.3037 143.538C74.1705 143.457 74.042 143.373 73.923 143.287C73.8731 143.772 73.8469 144.225 73.8612 144.608Z" fill="#C6724E"/>
<path d="M78.0459 137.854C78.0673 137.438 78.0459 136.902 78.0459 136.902L77.1599 136.217L74.5113 135.224L72.7797 138.218L72.8628 142.377C72.8628 142.377 73.2856 142.832 73.9222 143.287C74.1598 140.944 75.0007 137.768 75.433 137.397C75.977 136.93 76.6183 136.535 77.2977 136.645C77.3785 136.657 77.4616 136.732 77.54 136.83C76.9152 136.794 76.3261 137.158 75.8202 137.593C75.3831 137.967 74.5327 141.19 74.2999 143.538C75.0506 144.002 75.9984 144.373 76.901 144.108C77.9486 143.797 78.1956 140.491 78.0459 137.854Z" fill="#FCB892"/>
<path d="M77.5408 136.83C77.4625 136.731 77.3793 136.657 77.2986 136.645C76.6192 136.538 75.9778 136.93 75.4339 137.397C75.0015 137.768 74.1606 140.946 73.9231 143.287C74.0419 143.373 74.1701 143.457 74.3032 143.538C74.5336 141.19 75.3863 137.964 75.8234 137.593C76.3246 137.157 76.9161 136.794 77.5408 136.83Z" fill="#DB895D"/>
<path d="M73.7535 148.593C74.0551 148.868 74.2594 149.04 74.2594 149.04C74.2594 149.04 73.9102 148.322 73.5468 147.334C73.0954 146.108 72.6204 144.471 72.7605 143.28C72.6132 143.002 72.4992 142.746 72.4731 142.583C71.9101 144.321 73.333 147.664 73.7535 148.593Z" fill="#C6724E"/>
<path d="M69.986 145.723C70.1452 146.046 70.257 146.245 70.257 146.245C70.257 146.245 70.4638 145.611 70.673 145.288C70.6041 145.158 70.5447 145.032 70.5019 144.909C70.3402 144.878 70.1191 145.376 69.986 145.723Z" fill="#0552DE"/>
<path d="M78.0463 137.854C78.0463 137.854 77.6567 136.701 77.298 136.643C76.6187 136.535 75.9773 136.928 75.4333 137.395C74.8894 137.861 73.6922 142.78 73.8727 144.876C73.5782 144.67 72.5662 143.129 72.476 142.581C71.818 144.613 73.8727 148.842 73.8727 148.842C73.8727 148.842 71.0483 146.46 70.5044 144.907C70.2549 144.859 69.8701 146.046 69.8701 146.046C69.8701 146.046 68.3665 143.349 68.3356 141.461C68.2976 139.192 68.8345 132.122 74.3549 133.362C75.583 133.637 77.5831 135.284 78.1152 136.648C78.3717 137.318 78.0463 137.854 78.0463 137.854Z" fill="#F9339C"/>
<path d="M68.3381 141.506C68.3975 138.831 69.2218 132.8 74.355 133.953C75.5831 134.228 77.5832 135.875 78.1153 137.239C78.1462 137.318 78.1676 137.397 78.1842 137.471C78.2293 137.256 78.2388 136.969 78.1153 136.65C77.5832 135.286 75.5831 133.642 74.355 133.364C68.8346 132.125 68.2977 139.194 68.3357 141.463C68.3357 141.478 68.3381 141.492 68.3381 141.506Z" fill="#F969C2"/>
<path d="M73.4507 148.473C73.7051 148.703 73.8715 148.844 73.8715 148.844C73.8715 148.844 72.495 146.013 72.3571 143.871C72.2692 145.319 72.9705 147.307 73.4507 148.473Z" fill="#F969C2"/>
<path d="M73.0693 146.896L73.5472 147.334L74.2604 149.04C74.2604 149.04 73.7825 148.643 73.754 148.593C73.5401 148.203 73.0693 146.896 73.0693 146.896Z" fill="#0552DE"/>
</svg>
