<svg width="205" height="205" viewBox="0 0 205 205" fill="none" xmlns="http://www.w3.org/2000/svg">
<path d="M71.4864 94.898C74.7097 94.898 77.3227 93.3861 77.3227 91.521C77.3227 89.656 74.7097 88.144 71.4864 88.144C68.2631 88.144 65.65 89.656 65.65 91.521C65.65 93.3861 68.2631 94.898 71.4864 94.898Z" fill="#D7E9FF"/>
<path d="M73.5827 54.3616H69.4954V91.5147H73.5827V54.3616Z" fill="#ECF4FF"/>
<path d="M71.4863 54.3616H69.4954V91.5147H71.4863V54.3616Z" fill="#C9E0FF"/>
<path d="M87.159 55.5741C87.159 65.0024 80.1442 72.6457 71.4859 72.6457C62.8275 72.6457 55.8127 65.0024 55.8127 55.5741C55.8127 46.1459 62.8771 0.00610352 71.5355 0.00610352C80.1938 0.00610352 87.159 46.1459 87.159 55.5741Z" fill="#ECF4FF"/>
<path d="M77.1919 67.8757C68.5336 67.8757 61.5188 60.2324 61.5188 50.8041C61.5188 43.2666 66.0403 12.2393 72.2797 0.118165C72.0316 0.0435355 71.7898 0 71.5355 0C62.8771 0 55.8127 46.1398 55.8127 55.568C55.8127 64.9962 62.8275 72.6395 71.4859 72.6395C76.3795 72.6395 80.752 70.1954 83.6237 66.3706C81.6575 67.3346 79.4806 67.8757 77.1919 67.8757Z" fill="#C4DCFF"/>
<path d="M88.6474 101.583C91.8707 101.583 94.4837 100.071 94.4837 98.2061C94.4837 96.341 91.8707 94.8291 88.6474 94.8291C85.4241 94.8291 82.811 96.341 82.811 98.2061C82.811 100.071 85.4241 101.583 88.6474 101.583Z" fill="#D7E9FF"/>
<path d="M90.7442 61.0532H86.6569V98.2064H90.7442V61.0532Z" fill="#ECF4FF"/>
<path d="M88.6478 61.0532H86.6569V98.2064H88.6478V61.0532Z" fill="#C9E0FF"/>
<path d="M88.6475 79.3313C97.3035 79.3313 104.321 71.6881 104.321 62.2598C104.321 52.8314 97.3035 45.1882 88.6475 45.1882C79.9915 45.1882 72.9744 52.8314 72.9744 62.2598C72.9744 71.6881 79.9915 79.3313 88.6475 79.3313Z" fill="#ECF4FF"/>
<path d="M94.6271 74.3375C85.9687 74.3375 78.954 66.6942 78.954 57.2659C78.954 53.2359 80.2378 49.5355 82.3838 46.6125C76.8452 49.2432 72.975 55.2572 72.975 62.2599C72.975 71.6881 79.9897 79.3315 88.6481 79.3315C93.6037 79.3315 98.0197 76.8252 100.891 72.9133C98.9749 73.8275 96.8537 74.3375 94.6271 74.3375Z" fill="#C4DCFF"/>
<path d="M42.0498 119.768L8.81811 99.7054C8.11725 99.2825 8.01802 98.6544 8.60723 98.3061L24.361 89.0645C24.9502 88.7224 26.0046 88.7846 26.7054 89.2137L59.9372 109.277C60.638 109.7 60.7372 110.328 60.148 110.676L44.3943 119.918C43.8113 120.26 42.7569 120.191 42.0498 119.768Z" fill="#D7E9FF"/>
<path d="M8.32815 118.102L0.147365 113.201C-0.0262985 113.095 -0.0511181 112.94 0.0977361 112.853L4.01757 110.527C4.16642 110.44 4.42691 110.452 4.59437 110.558L12.7752 115.458C12.9488 115.564 12.9736 115.72 12.8248 115.807L8.90495 118.133C8.7623 118.22 8.50181 118.201 8.32815 118.102Z" fill="#D7E9FF"/>
<path d="M167.546 194.889L134.315 174.826C133.614 174.403 133.514 173.775 134.104 173.427L149.857 164.185C150.447 163.843 151.501 163.905 152.202 164.335L185.434 184.398C186.134 184.82 186.234 185.449 185.644 185.797L169.891 195.038C169.308 195.381 168.253 195.312 167.546 194.889Z" fill="#D7E9FF"/>
<path d="M131.449 134.483C112.526 145.87 93.0263 150.03 76.6337 138.531C61.8351 128.152 63.3174 110.806 79.1146 99.9664C97.3306 87.4721 119.231 85.9484 135.716 93.3367C154.627 101.813 150.372 123.095 131.449 134.483Z" fill="#D7E9FF"/>
<path d="M152.939 121.715C155.981 121.715 158.447 120.286 158.447 118.524C158.447 116.762 155.981 115.334 152.939 115.334C149.898 115.334 147.432 116.762 147.432 118.524C147.432 120.286 149.898 121.715 152.939 121.715Z" fill="#D7E9FF"/>
<path d="M154.781 91.3218H150.923V118.518H154.781V91.3218Z" fill="#ECF4FF"/>
<path d="M152.803 91.3218H150.923V118.518H152.803V91.3218Z" fill="#C9E0FF"/>
<path d="M152.617 108.586C161.921 108.586 169.462 101.369 169.462 92.4662C169.462 83.5634 161.921 76.3462 152.617 76.3462C143.314 76.3462 135.772 83.5634 135.772 92.4662C135.772 101.369 143.314 108.586 152.617 108.586Z" fill="#ECF4FF"/>
<path d="M159.043 103.866C149.739 103.866 142.197 96.6518 142.197 87.746C142.197 83.9399 143.58 80.4448 145.881 77.6897C139.927 80.1774 135.772 85.8554 135.772 92.4664C135.772 101.366 143.314 108.586 152.617 108.586C157.945 108.586 162.69 106.217 165.778 102.529C163.713 103.387 161.437 103.866 159.043 103.866Z" fill="#C4DCFF"/>
<path d="M153.429 92.4038C161.448 92.4038 167.948 86.1863 167.948 78.5165C167.948 70.8467 161.448 64.6292 153.429 64.6292C145.41 64.6292 138.909 70.8467 138.909 78.5165C138.909 86.1863 145.41 92.4038 153.429 92.4038Z" fill="#ECF4FF"/>
<path d="M158.961 88.3427C150.942 88.3427 144.442 82.1236 144.442 74.4554C144.442 71.1779 145.633 68.1616 147.618 65.7859C142.488 67.9315 138.903 72.8198 138.903 78.5165C138.903 86.1847 145.403 92.4038 153.423 92.4038C158.013 92.4038 162.1 90.3639 164.761 87.1797C162.993 87.9323 161.027 88.3427 158.961 88.3427Z" fill="#C4DCFF"/>
<path d="M153.07 75.7678C159.188 75.7678 164.147 71.0232 164.147 65.1704C164.147 59.3176 159.188 54.573 153.07 54.573C146.952 54.573 141.993 59.3176 141.993 65.1704C141.993 71.0232 146.952 75.7678 153.07 75.7678Z" fill="#ECF4FF"/>
<path d="M157.294 72.6704C151.172 72.6704 146.217 67.9252 146.217 62.073C146.217 59.5729 147.128 57.2718 148.642 55.4558C144.728 57.0914 141.993 60.8229 141.993 65.1701C141.993 71.0223 146.955 75.7675 153.07 75.7675C156.574 75.7675 159.694 74.2127 161.722 71.7811C160.37 72.3532 158.869 72.6704 157.294 72.6704Z" fill="#C4DCFF"/>
<path d="M52.1282 89.1266L59.112 93.3369V103.723L52.1282 99.5125V113.555L39.8974 106.186V92.1429L14.6232 76.9184L14.0712 68.4728L39.7671 41.2019L52.1282 48.6524V89.1266ZM26.2648 73.5414L39.8974 81.7569V58.8456L39.0911 59.8344L26.2648 73.5414Z" fill="#0D1883"/>
<path d="M43.5757 115.701L52.1286 113.555V99.5125L43.5757 101.658V115.701Z" fill="#0D1883"/>
<path d="M43.5757 91.2723L52.1286 89.1267L59.1124 93.337L50.5594 95.4827L43.5757 91.2723Z" fill="#3E51AF"/>
<path d="M31.2147 43.3475L43.5758 50.7918L52.1287 48.6524L39.7676 41.2019L31.2147 43.3475Z" fill="#3E51AF"/>
<path d="M50.5593 95.4828V105.869L59.1122 103.723V93.3372L50.5593 95.4828Z" fill="#0D1883"/>
<path d="M17.7123 75.6869L26.2652 73.5413L31.3386 68.1182V60.9849L17.7123 75.6869Z" fill="#384FA0"/>
<path d="M43.5757 91.2723L50.5595 95.4827V105.869L43.5757 101.658V115.701L31.3449 108.331V94.2887L6.07067 79.0642L5.51868 70.6186L31.2146 43.3477L43.5757 50.792V91.2723ZM17.7123 75.6872L31.3449 83.9027V60.9852L30.5386 61.974L17.7123 75.6872Z" fill="#6E79BA"/>
<path d="M121.345 133.264C113.673 137.879 106.038 140.348 98.4464 140.671C90.8549 140.994 83.654 139.11 76.8564 135.018C70.1393 130.975 66.9948 126.684 67.4289 122.144C67.8631 117.604 71.7581 113.07 79.114 108.543L89.3229 102.398C97.0695 97.7403 104.736 95.2713 112.321 95.0039C119.906 94.7364 127.057 96.6271 133.774 100.663C140.492 104.706 143.642 108.991 143.221 113.524C142.799 118.058 138.91 122.586 131.554 127.113L121.345 133.264ZM120.334 119.147C124.936 116.379 127.591 113.941 128.292 111.839C128.993 109.737 127.864 107.797 124.899 106.012C122.021 104.277 118.895 103.605 115.534 103.978C112.166 104.357 108.32 105.794 103.991 108.3L90.4889 116.423C85.9613 119.147 83.2819 121.578 82.4508 123.73C81.6197 125.876 82.7175 127.86 85.738 129.676C88.7275 131.473 91.9464 132.138 95.3825 131.666C98.8186 131.193 102.738 129.669 107.148 127.082L120.334 119.147Z" fill="#0D1883"/>
<path d="M143.221 113.53V104.954L139.078 111.478L141.695 115.321L143.221 113.53Z" fill="#0D1883"/>
<path d="M67.4296 113.568V122.144L70.326 125.857L67.4296 113.568Z" fill="#0D1883"/>
<path d="M121.345 124.688C113.673 129.302 106.038 131.771 98.4467 132.095C90.8551 132.418 83.6543 130.534 76.8566 126.442C70.1395 122.399 66.995 118.108 67.4292 113.568C67.8633 109.028 71.7583 104.494 79.1142 99.9668L89.3231 93.8223C97.0697 89.1641 104.736 86.6951 112.321 86.4277C119.906 86.1603 127.058 88.0509 133.775 92.0871C140.492 96.1295 143.643 100.415 143.221 104.948C142.799 109.482 138.91 114.01 131.554 118.537L121.345 124.688ZM120.334 110.57C124.936 107.803 127.591 105.365 128.292 103.263C128.993 101.161 127.864 99.2205 124.899 97.4356C122.021 95.7004 118.896 95.0288 115.534 95.4019C112.166 95.7813 108.321 97.2179 103.991 99.7242L90.4891 107.846C85.9615 110.57 83.2821 113.002 82.451 115.154C81.6199 117.3 82.7177 119.283 85.7382 121.099C88.7277 122.897 91.9467 123.562 95.3827 123.09C98.8188 122.617 102.739 121.093 107.148 118.506L120.334 110.57Z" fill="#6E79BA"/>
<path d="M177.978 159.011L182.865 165.242L178.964 175.168L174.077 168.632L168.798 181.642L160.233 170.193L165.511 157.182L147.822 133.531L150.483 125.502L184.348 110.141L193.186 121.522L177.978 159.011ZM159.88 134.806L169.419 147.561L178.027 126.335L176.911 126.945L159.88 134.806Z" fill="#0D1883"/>
<path d="M161.4 186.083L168.799 181.636L169.277 176.549L166.678 173.073L161.4 186.083Z" fill="#0D1883"/>
<path d="M175.466 169.988L182.872 165.237L178.964 175.169L171.565 179.609L175.466 169.988Z" fill="#0D1883"/>
<path d="M170.579 163.451L178.059 158.812L182.872 165.236L175.467 169.988L170.579 163.451Z" fill="#3E51AF"/>
<path d="M143.085 129.943L150.49 125.502L184.355 110.135L177.135 114.389L143.085 129.943Z" fill="#0D1883"/>
<path d="M177.135 114.389L184.355 110.135L193.193 121.516L185.787 125.956L177.135 114.389Z" fill="#3E51AF"/>
<path d="M170.579 163.451L175.467 169.988L171.565 179.609L166.678 173.072L161.4 186.083L152.835 174.633L158.113 161.623L140.424 137.972L143.085 129.943L177.135 114.389L185.787 125.956L170.579 163.451ZM152.475 139.247L162.014 152.002L170.623 130.776L169.506 131.386L152.475 139.247Z" fill="#6E79BA"/>
<path d="M66.2324 150.833L58.2687 146.044C55.4218 144.334 55.4218 141.529 58.2687 139.812C61.1155 138.102 65.7734 138.102 68.6202 139.812L76.5839 144.601C79.4308 146.311 79.4308 149.116 76.5839 150.833C73.7371 152.549 69.0792 152.549 66.2324 150.833Z" fill="#D7E9FF"/>
<path d="M87.1035 120.956C87.1035 120.956 88.8463 123.599 86.7809 125.328C84.7156 127.063 81.7943 127.909 80.2252 128.344C75.6169 129.625 77.6388 135.353 77.6388 135.353C77.6388 135.353 75.1021 134.706 75.0091 134.246C74.916 133.786 72.5778 128.668 72.5778 128.668L87.1035 120.956Z" fill="#BCC4C9"/>
<path d="M77.0242 140.484C77.0242 140.484 78.4135 141.821 78.3329 142.512C78.2088 143.538 77.0304 143.781 77.3343 146.847C77.4274 147.792 76.2117 148.837 75.8644 148.619C75.5171 148.401 74.8348 148.165 74.9961 144.695C74.9961 144.695 75.2442 142.12 75.0023 141.399C74.7604 140.677 77.0242 140.484 77.0242 140.484Z" fill="#0863EF"/>
<path d="M75.3062 144.695C75.3062 144.695 75.5543 142.12 75.3124 141.399C75.1263 140.833 76.4598 140.59 77.049 140.516C77.0366 140.503 77.018 140.484 77.018 140.484C77.018 140.484 74.7666 140.677 75.0023 141.399C75.238 142.12 74.9961 144.695 74.9961 144.695C74.8348 148.165 75.5171 148.401 75.8644 148.619C75.9326 148.663 76.0318 148.644 76.1497 148.607C75.7962 148.389 75.1511 148.09 75.3062 144.695Z" fill="#99BCE6"/>
<path d="M65.1223 140.136C65.1223 140.136 65.2277 142.051 64.9114 142.431C64.5392 142.872 62.7406 142.679 62.3436 143.034C61.9467 143.388 59.4658 144.34 58.2501 143.886C57.0283 143.432 58.6967 142.101 59.4658 141.933C60.2349 141.771 62.6786 140.863 63.0259 140.049C63.3608 139.222 65.1223 140.136 65.1223 140.136Z" fill="#0863EF"/>
<path d="M62.9949 140.385C62.6475 141.2 60.1976 142.108 59.4347 142.269C58.9323 142.375 58.033 142.997 57.8346 143.532C57.6237 142.954 58.8393 142.052 59.4596 141.921C60.2286 141.759 62.6723 140.851 63.0197 140.037C63.3608 139.222 63.3422 139.57 62.9949 140.385Z" fill="#99BCE6"/>
<path d="M79.5486 120.092C79.5486 120.092 77.6879 125.216 73.9231 126.541C73.3091 126.759 72.7137 126.927 72.1431 127.064C69.2342 127.766 67.0696 127.561 67.0696 127.561C67.4046 131.348 65.7175 138.451 65.302 140.124C65.2399 140.372 65.0415 140.559 64.7934 140.615C64.75 140.627 64.7004 140.634 64.6569 140.64C64.1856 140.714 63.7452 140.646 63.4227 140.565C63.1126 140.484 62.8893 140.205 62.8769 139.881C62.7777 137.313 62.3125 125.123 63.6956 124.153C67.1317 121.759 75.5481 118.916 77.2599 118.27C77.4584 118.195 77.6197 118.04 77.7003 117.841L78.2647 116.466L79.5486 120.092Z" fill="#F2F4F7"/>
<path d="M73.1541 124.153L72.1493 127.064C69.2404 127.766 67.0758 127.561 67.0758 127.561C67.4108 131.349 65.7238 138.451 65.3082 140.124C65.2462 140.373 65.0477 140.559 64.7996 140.615C64.7562 140.628 64.7066 140.634 64.6632 140.64H64.657C66.2696 134.987 66.0029 126.181 66.0029 126.181C69.4575 126.392 73.0486 124.215 73.1541 124.153Z" fill="#B6D1FE"/>
<path d="M87.7171 120.869C87.5682 122.455 87.0906 124.221 84.9508 125.428C83.0654 126.491 79.0959 128.419 74.314 129.645C74.4877 130.061 74.6861 130.534 74.897 131.075C75.7405 133.177 76.7204 138.575 77.074 140.348C77.1298 140.628 77.0616 140.914 76.8879 141.131C76.8507 141.181 76.8073 141.225 76.7639 141.268C76.4662 141.529 76.032 141.815 75.5606 141.815C75.2381 141.815 74.9528 141.61 74.8102 141.33C73.8364 139.396 69.1413 130.198 68.7443 128.233C68.7009 128.003 68.6389 127.636 68.7381 127.362C68.7629 127.256 68.8002 127.176 68.8374 127.126C70.9586 124.881 78.1594 121.634 78.1594 121.634L78.271 116.472L86.1727 117.356L87.0968 117.225C87.0968 117.225 87.8411 119.551 87.7171 120.869Z" fill="#F2F4F7"/>
<path d="M87.829 120.957C87.5561 122.524 87.0847 124.222 84.9512 125.428C83.0657 126.492 79.0962 128.42 74.3143 129.645C74.488 130.062 74.6864 130.534 74.8973 131.075C75.7408 133.177 76.7207 138.576 77.0743 140.348C77.1301 140.628 77.0619 140.914 76.8882 141.132C76.392 139.39 75.2942 135.777 74.9159 133.787C74.4755 131.479 72.5776 128.731 72.5776 128.731C72.5776 128.731 74.8973 128.109 78.2093 127.008C81.5213 125.907 85.0876 124.259 86.1296 122.281C87.1716 120.304 86.1296 117.393 86.1296 117.393C86.1296 117.393 86.142 117.374 86.173 117.343L86.9607 116.759C86.9669 116.765 88.0833 119.514 87.829 120.957Z" fill="#B6D1FE"/>
<path d="M72.3603 127.405L65.0913 123.295C65.0913 123.295 70.1834 119.401 71.1633 119.967L77.533 123.649C78.5068 124.215 78.5254 125.16 77.5703 125.757L75.232 127.219C73.5698 130.372 72.3603 127.405 72.3603 127.405Z" fill="#B6D1FE"/>
<path d="M84.6591 122.505L83.0837 122.324L72.8252 116.603C72.4965 116.422 71.9259 116.453 71.5537 116.677L64.4211 120.962L63.4659 120.85L63.4784 121.802C63.4722 121.926 63.5466 122.044 63.7016 122.131L75.3247 128.612C75.6534 128.792 76.224 128.761 76.5962 128.537L84.3676 123.873C84.5784 123.748 84.6777 123.587 84.6715 123.438L84.6591 122.505Z" fill="#B5CBE5"/>
<path d="M64.4216 120.956L63.4851 121.796C63.4789 121.92 63.5533 122.038 63.7084 122.125L75.3314 128.606C75.5051 128.705 75.747 128.736 75.9888 128.718L64.4216 120.956Z" fill="#A9C2E0"/>
<path d="M75.4492 128.662C75.7593 128.774 76.1997 128.743 76.5285 128.575L76.5036 126.958L75.4244 126.976L75.4492 128.662Z" fill="#B5CBE5"/>
<path d="M75.3186 127.66L63.6956 121.18C63.3668 121 63.404 120.664 63.7762 120.44L71.5476 115.776C71.9197 115.552 72.4903 115.521 72.8191 115.701L84.4421 122.181C84.7708 122.362 84.7336 122.698 84.3615 122.922L76.5901 127.586C76.2117 127.81 75.6473 127.841 75.3186 127.66Z" fill="#E0EBFC"/>
<path d="M75.1084 126.653L65.4452 121.261C65.1723 121.106 65.2034 120.832 65.5135 120.645L69.6752 118.207C69.9853 118.021 70.4567 117.996 70.7296 118.145L80.3927 123.537C80.6656 123.693 80.6346 123.966 80.3245 124.153L76.1628 126.591C75.8527 126.777 75.3813 126.802 75.1084 126.653Z" fill="#A9C2E0"/>
<path d="M74.9348 128.307L73.9486 127.057L62.3752 111.111L62.921 110.782C63.0265 110.713 63.1629 110.713 63.318 110.801L74.9348 117.293C75.2635 117.48 75.5364 117.977 75.5426 118.413L75.6791 127.493C75.6853 127.735 75.6047 127.909 75.4744 127.978L74.9348 128.307Z" fill="#B5CBE5"/>
<path d="M79.741 104.905C79.741 104.905 78.7549 107.896 77.9424 109.911C77.7191 110.471 77.5082 110.956 77.3345 111.279C77.2787 111.385 77.2167 111.497 77.1423 111.609C75.7964 113.823 72.2611 117.063 70.8842 118.369C70.8842 118.369 70.8842 118.375 70.878 118.375C70.7539 118.493 70.5989 118.556 70.4376 118.574C70.1461 118.605 69.836 118.475 69.6685 118.214C69.6127 118.127 69.5879 118.039 69.5817 117.965C69.5631 117.822 69.6127 117.71 69.6375 117.66L69.6437 117.654C69.6499 117.641 69.6561 117.635 69.6561 117.635C70.1337 116.914 72.8131 112.847 73.8737 111.279C74.3761 110.539 74.7544 110.048 75.0149 109.731C75.1203 108.58 75.4614 105.048 75.9948 102.989C76.001 102.958 76.0073 102.933 76.0197 102.902C76.243 102.094 76.5903 101.497 76.9624 101.067C77.1298 100.875 77.2973 100.713 77.4586 100.582C77.4896 100.557 77.5206 100.539 77.5578 100.52C77.8865 100.334 78.3207 100.191 78.8107 100.091C79.1022 100.104 79.3813 100.191 79.6356 100.352C80.0511 100.632 80.3426 101.086 80.4357 101.783C80.5163 102.423 80.1318 103.655 79.741 104.905Z" fill="#FCB892"/>
<path d="M79.6297 100.359C79.4746 100.259 79.3071 100.197 79.1335 100.154C79.4808 100.433 79.7289 100.863 79.8095 101.484C79.8902 102.119 79.5118 103.344 79.1211 104.594C79.1211 104.594 78.1349 107.585 77.3224 109.6C77.0991 110.16 76.8883 110.645 76.7146 110.969C76.6588 111.074 76.5968 111.186 76.5223 111.298C75.1764 113.512 71.6411 116.752 70.2642 118.058C70.2642 118.058 70.2642 118.065 70.258 118.065C70.134 118.183 69.9789 118.245 69.8177 118.264C69.7805 118.27 69.7433 118.264 69.7061 118.264C69.8797 118.488 70.1588 118.606 70.4317 118.575C70.5868 118.556 70.748 118.494 70.872 118.376L70.8783 118.369C72.249 117.063 75.7843 113.817 77.1364 111.609C77.2046 111.497 77.2728 111.385 77.3286 111.28C77.5023 110.956 77.7131 110.471 77.9364 109.911C78.7489 107.896 79.7351 104.905 79.7351 104.905C80.132 103.655 80.5104 102.424 80.4235 101.795C80.3429 101.099 80.0514 100.639 79.6297 100.359Z" fill="#DB895D"/>
<path d="M63.5226 117.797L62.9706 111.864L62.3752 111.111L62.921 110.782C63.0265 110.713 63.1629 110.713 63.318 110.801L74.9348 117.293C75.1085 117.393 75.2635 117.579 75.3752 117.797H63.5226Z" fill="#C3D7F4"/>
<path d="M62.6356 111.447L62.3689 111.111L62.9147 110.782C63.0201 110.713 63.1566 110.713 63.3116 110.801L63.5163 110.912L62.6356 111.447Z" fill="#C3D7F4"/>
<path d="M75.0395 117.368C75.3 117.573 75.5047 117.965 75.5357 118.332L74.4193 119.004L73.8673 118.071L75.0395 117.368Z" fill="#C3D7F4"/>
<path d="M74.3885 117.623L62.7716 111.13C62.4429 110.944 62.1824 111.149 62.1886 111.584L62.3251 120.664C62.3313 121.1 62.6041 121.603 62.9329 121.784L74.5497 128.276C74.8784 128.463 75.1389 128.258 75.1327 127.822L74.9963 118.742C74.9901 118.313 74.7172 117.81 74.3885 117.623Z" fill="#E0EBFC"/>
<path d="M77.3038 100.402L77.1483 100.365C77.1483 100.358 77.2665 100.172 77.3038 100.402Z" fill="#4E87EE"/>
<path d="M86.9664 116.068C88.3557 119.04 79.1206 119.04 78.2337 116.833C78.0352 116.347 78.1282 115.831 78.1902 115.999C78.9407 118.008 86.464 118.17 86.9664 116.068Z" fill="#B6D1FE"/>
<path d="M76.8138 105.215C76.5595 106.466 76.4727 107.311 76.4913 107.921C76.3114 107.33 76.3114 106.347 76.7022 104.426C77.279 101.627 77.3472 100.688 77.3038 100.402L79.4312 100.949C79.4312 100.949 79.3753 101.266 79.3381 101.683L77.4154 101.192C77.4588 101.472 77.3906 102.417 76.8138 105.215Z" fill="#4E87EE"/>
<path d="M80.0321 104.581C79.5794 104.513 79.4429 103.891 79.4243 103.25C79.5174 103.543 79.6662 103.754 79.9205 103.791C81.6819 104.065 81.7874 104.283 84.3985 100.539L88.9138 102.759C88.9138 102.759 88.2253 102.423 87.5865 102.809L84.5102 101.329C81.9052 105.073 81.7998 104.855 80.0321 104.581Z" fill="#4E87EE"/>
<path d="M86.8049 115.104C86.8484 115.272 86.9105 115.434 86.9788 115.595C87.1154 115.894 87.1464 116.155 87.0905 116.385C86.9105 115.987 86.8298 115.552 86.8049 115.104Z" fill="#4E87EE"/>
<path d="M86.7799 105.52C87.0156 106.521 87.6606 107.448 88.0762 108.101C88.163 108.238 88.1692 108.462 88.0948 108.773C87.4932 108.008 86.8171 106.695 86.7799 105.52Z" fill="#4E87EE"/>
<path d="M82.4323 112.567C81.6632 111.883 78.1403 111.08 78.1403 111.08L78.1341 111.062C78.4504 112.467 77.8364 113.885 77.9171 115.415C77.4891 113.581 78.3884 111.914 78.0225 110.272L78.0287 110.291C78.0287 110.291 81.5454 111.099 82.3207 111.777C82.3827 111.833 82.4261 111.821 82.4571 111.783C82.6494 112.243 82.668 112.772 82.4323 112.567Z" fill="#4E87EE"/>
<path d="M82.0425 110.539C81.5897 110.166 77.6389 109.345 77.6389 109.345L77.6451 109.357C77.2419 108.785 76.7209 108.667 76.4914 107.921C76.4728 107.311 76.5597 106.466 76.814 105.215C77.3908 102.417 77.459 101.478 77.4156 101.192L79.3383 101.683C79.2949 102.174 79.2825 102.802 79.4251 103.25C79.4437 103.891 79.5802 104.513 80.0329 104.581C81.7944 104.855 81.8998 105.072 84.511 101.328L87.5873 102.809C87.3516 102.952 87.1159 103.182 86.9175 103.561C86.6198 104.127 86.6197 104.824 86.7872 105.52C86.8244 106.696 87.5005 108.008 88.1021 108.773C87.792 110.129 86.2476 112.989 86.812 115.104C86.8306 115.552 86.9175 115.987 87.0973 116.379C86.5949 118.481 78.9227 118.027 78.1226 116.043C78.0358 115.832 77.9738 115.62 77.9304 115.415C77.8497 113.885 78.4576 112.467 78.1475 111.061L78.1537 111.08C78.1537 111.08 81.6703 111.889 82.4456 112.566C82.6751 112.772 82.6627 112.237 82.4704 111.783C82.5697 111.621 82.4022 110.838 82.0425 110.539Z" fill="#4E87EE"/>
<path d="M82.0416 110.539C82.4943 110.912 82.6494 112.069 82.3269 111.783C81.5578 111.099 78.0349 110.297 78.0349 110.297L78.0287 110.278C78.0039 110.179 77.9853 110.085 77.9543 109.986C77.8675 109.718 77.762 109.519 77.6504 109.358L77.6442 109.345C77.638 109.345 81.5888 110.166 82.0416 110.539Z" fill="#0552DE"/>
<path d="M79.5549 103.486C79.22 103.511 78.8479 103.443 78.3393 103.362C77.4214 103.219 77.7873 100.849 77.8431 100.545L79.4805 100.961C79.4743 100.961 79.158 102.734 79.5549 103.486Z" fill="#0552DE"/>
<path d="M85.4837 115.178C84.2681 112.585 87.1583 108.375 86.5753 107.684C85.7442 106.689 84.6774 104.531 85.4093 103.144C86.1412 101.757 87.3754 102.286 87.3754 102.286L84.3487 100.831C84.4046 100.744 84.4604 100.669 84.5224 100.582C84.5224 100.582 87.7352 102.075 88.8019 102.585C88.8082 102.585 88.9756 102.821 88.9694 102.821C88.6593 102.74 87.6421 102.466 87.0405 103.605C86.3086 104.991 87.3568 107.081 88.0701 108.107C88.5849 108.847 85.8931 113.045 87.1087 115.639C88.2314 118.033 82.3888 118.294 79.5978 117.156C82.5439 117.685 86.4141 117.168 85.4837 115.178Z" fill="#0552DE"/>
<path d="M79.1329 100.358L78.8477 103.679L81.7503 104.488L83.9645 101.782L84.0513 98.9589L81.8867 97.9949L79.1329 100.358Z" fill="#DB895D"/>
<path d="M76.0381 94.7362C76.2118 97.3979 75.697 98.3619 75.9017 99.5C76.1064 100.644 77.2786 101.453 77.2786 101.453C77.2786 101.453 77.3902 100.24 77.7313 100.047C78.1035 99.8359 78.3702 95.8743 78.3702 95.8743L76.8631 94.6118C76.8693 94.618 75.8955 94.1142 76.0381 94.7362Z" fill="#F9339C"/>
<path d="M81.4592 101.285C81.3227 101.54 81.1985 101.739 81.1178 101.813C81.093 101.384 80.9998 100.856 80.8571 100.271C80.9812 100.172 81.0992 100.066 81.2047 99.9663C81.3289 100.445 81.4158 100.899 81.4592 101.285Z" fill="#C67754"/>
<path d="M76.268 95.0845C76.1874 94.6678 76.1316 94.1268 76.1316 94.1268L76.9317 93.3121L79.4684 91.9314L81.6454 94.6989L82.154 98.8968C82.154 98.8968 81.7881 99.413 81.2112 99.9666C80.6406 97.6406 79.3382 94.5621 78.8482 94.2512C78.2342 93.8594 77.5271 93.5546 76.8572 93.7598C76.7766 93.7847 76.7022 93.8718 76.6402 93.9837C77.2666 93.8594 77.9178 94.1392 78.4884 94.5061C78.9846 94.8171 80.2995 97.9453 80.8701 100.278C80.1755 100.85 79.2699 101.36 78.321 101.223C77.2046 101.055 76.4851 97.765 76.268 95.0845Z" fill="#FCB892"/>
<path d="M76.6334 93.9837C76.7016 93.8717 76.7699 93.7846 76.8505 93.7598C77.5203 93.5545 78.2274 93.8593 78.8414 94.2511C79.3314 94.562 80.6339 97.6405 81.2045 99.9665C81.099 100.072 80.9812 100.172 80.8572 100.271C80.2928 97.939 78.9717 94.817 78.4755 94.4998C77.9049 94.1391 77.2599 93.8593 76.6334 93.9837Z" fill="#DB895D"/>
<path d="M82.1286 105.284C81.8619 105.607 81.682 105.806 81.682 105.806C81.682 105.806 81.9301 105.035 82.1596 103.984C82.4449 102.684 82.6868 100.968 82.3767 99.7923C82.4883 99.4938 82.5627 99.2202 82.5689 99.0522C83.3876 100.719 82.4263 104.289 82.1286 105.284Z" fill="#DB895D"/>
<path d="M85.5344 101.857C85.4164 102.205 85.3357 102.423 85.3357 102.423C85.3357 102.423 85.0377 101.814 84.777 101.521C84.8266 101.378 84.8701 101.241 84.8949 101.117C85.0564 101.055 85.3481 101.521 85.5344 101.857Z" fill="#0552DE"/>
<path d="M76.268 95.0844C76.268 95.0844 76.4975 93.8655 76.851 93.7598C77.5208 93.5545 78.2279 93.8593 78.8419 94.2511C79.4622 94.6429 81.3663 99.4254 81.4841 101.559C81.7508 101.31 82.5571 99.612 82.5695 99.046C83.5247 100.999 82.0423 105.551 82.0423 105.551C82.0423 105.551 84.5604 102.746 84.8954 101.111C85.1372 101.03 85.6954 102.168 85.6954 102.168C85.6954 102.168 86.8367 99.2388 86.5948 97.3296C86.3095 95.0409 84.7651 88.0008 79.3567 90.0345C78.1535 90.4885 76.361 92.4289 76.0199 93.8841C75.8587 94.5931 76.268 95.0844 76.268 95.0844Z" fill="#F9339C"/>
<path d="M86.6072 97.373C86.1668 94.6864 84.4798 88.7347 79.4497 90.6315C78.2465 91.0855 76.454 93.0259 76.1129 94.4811C76.0943 94.5682 76.0819 94.6491 76.0757 94.7237C76.0013 94.5123 75.9516 94.2262 76.0261 93.8903C76.3734 92.4413 78.1597 90.4947 79.3629 90.0407C84.7713 88.0008 86.3157 95.0408 86.601 97.3357C86.601 97.3419 86.601 97.3606 86.6072 97.373Z" fill="#F969C2"/>
<path d="M82.4205 105.122C82.1972 105.389 82.0483 105.557 82.0483 105.557C82.0483 105.557 83.0345 102.51 82.8733 100.333C83.1648 101.776 82.743 103.878 82.4205 105.122Z" fill="#F969C2"/>
<path d="M82.5815 103.474L82.1598 103.984L81.6823 105.806C81.6823 105.806 82.1102 105.34 82.1288 105.284C82.2901 104.861 82.5815 103.474 82.5815 103.474Z" fill="#0552DE"/>
<path d="M89.1062 102.945C89.1062 102.939 89.1062 102.939 89.1062 102.945C89.0069 102.833 88.9015 102.74 88.7836 102.665C88.1634 102.255 87.3447 102.342 86.7431 102.783C86.1787 103.2 85.4902 103.959 85.1491 105.296C85.1119 105.439 85.0747 105.594 85.0375 105.756C85.0375 105.756 85.0375 105.762 85.0375 105.769C84.5723 107.858 84.2684 110.968 84.1691 112.037C83.9086 112.355 83.5303 112.846 83.0279 113.586C81.9674 115.153 79.288 119.214 78.8104 119.942C78.8104 119.942 78.8042 119.948 78.798 119.961C78.798 119.961 78.798 119.967 78.7918 119.967C78.4879 120.477 76.8691 120.794 76.8009 120.881C76.7326 120.974 75.7899 123.232 75.7899 123.232C75.7899 123.232 76.8009 122.765 77.7622 122.237C78.6616 121.739 78.4011 122.635 79.1515 121.826C79.902 121.018 80.0322 120.682 80.0322 120.682C80.0322 120.682 80.0385 120.682 80.0385 120.676C81.4836 119.301 85.3104 115.788 86.4826 113.586C87.2827 112.081 88.8953 107.211 88.8953 107.205C89.2922 105.955 89.6706 104.724 89.5837 104.096C89.5217 103.598 89.348 103.219 89.1062 102.945Z" fill="#FCB892"/>
<path d="M77.1424 122.237C76.7206 122.473 76.2926 122.691 75.9391 122.865C75.8461 123.089 75.7841 123.232 75.7841 123.232C75.7841 123.232 76.795 122.765 77.7564 122.237C77.8246 122.199 77.8742 122.181 77.93 122.162C77.7812 122.106 77.6323 121.969 77.1424 122.237Z" fill="#DB895D"/>
<path d="M89.1069 102.945C89.1069 102.939 89.1069 102.939 89.1069 102.945C89.0076 102.833 88.9022 102.74 88.7844 102.665C88.4246 102.429 87.9657 102.336 87.5253 102.435C87.73 102.472 87.9905 102.547 88.1703 102.665C88.2882 102.74 88.3936 102.833 88.4867 102.945C88.7347 103.219 88.9022 103.598 88.9642 104.096C89.0449 104.73 88.6665 105.955 88.2758 107.205C88.2758 107.205 86.6694 112.081 85.8631 113.586C84.6909 115.788 80.8579 119.301 79.419 120.676L79.4127 120.682C79.4127 120.682 79.2825 121.018 78.532 121.826C78.4142 121.951 78.3336 122.025 78.2529 122.081C78.5816 122.094 78.5879 122.43 79.1461 121.826C79.8965 121.018 80.0268 120.682 80.0268 120.682C80.0268 120.682 80.033 120.682 80.033 120.676C81.4781 119.301 85.3049 115.788 86.4771 113.586C87.2772 112.081 88.8898 107.211 88.8898 107.205C89.2868 105.955 89.6651 104.724 89.5783 104.096C89.5224 103.598 89.3488 103.219 89.1069 102.945Z" fill="#DB895D"/>
<path d="M3.05007 113.536C2.98185 113.536 2.91362 113.518 2.8516 113.486C2.63452 113.374 2.5477 113.107 2.65314 112.889L19.269 80.0461C19.3806 79.8284 19.6473 79.7414 19.8644 79.8533C20.0815 79.9653 20.1683 80.2327 20.0567 80.4504L3.44082 113.294C3.36639 113.449 3.21133 113.536 3.05007 113.536Z" fill="#B5CEE5"/>
<path d="M10.6784 112.255C10.604 112.255 10.5296 112.237 10.4552 112.193L7.75099 110.632C6.85166 110.11 5.95233 109.587 5.053 109.065C4.84212 108.941 4.76769 108.667 4.89173 108.455C5.01578 108.244 5.28869 108.169 5.49956 108.294C6.39889 108.816 7.2982 109.339 8.19753 109.861L10.9017 111.422C11.1126 111.546 11.187 111.82 11.063 112.031C10.9824 112.175 10.8335 112.255 10.6784 112.255Z" fill="#B5CEE5"/>
<path d="M13.1534 107.373C13.079 107.373 13.0046 107.354 12.9301 107.311L10.226 105.75C9.32663 105.227 8.4273 104.705 7.52797 104.183C7.3171 104.058 7.24266 103.785 7.36671 103.573C7.49076 103.362 7.76366 103.287 7.97454 103.411C8.87387 103.934 9.7732 104.456 10.6725 104.979L13.3767 106.54C13.5876 106.664 13.662 106.931 13.538 107.149C13.4573 107.292 13.3085 107.373 13.1534 107.373Z" fill="#B5CEE5"/>
<path d="M15.6217 102.485C15.5472 102.485 15.4728 102.466 15.3984 102.423L12.6942 100.862C11.7949 100.339 10.8956 99.8171 9.99624 99.2947C9.78536 99.1703 9.71093 98.8966 9.83497 98.6852C9.95902 98.4737 10.2319 98.3991 10.4428 98.5235C11.3421 99.0459 12.2414 99.5683 13.1408 100.091L15.845 101.652C16.0558 101.776 16.1303 102.044 16.0062 102.261C15.9256 102.404 15.7767 102.485 15.6217 102.485Z" fill="#B5CEE5"/>
<path d="M18.0965 97.603C18.0221 97.603 17.9477 97.5844 17.8733 97.5408L15.1691 95.9798C14.2697 95.4574 13.3704 94.935 12.4711 94.4126C12.2602 94.2882 12.1858 94.0146 12.3098 93.8031C12.4339 93.5917 12.7068 93.517 12.9177 93.6414C13.817 94.1638 14.7163 94.6862 15.6156 95.2086L18.3198 96.7697C18.5307 96.894 18.6051 97.1614 18.4811 97.3791C18.3943 97.5222 18.2454 97.603 18.0965 97.603Z" fill="#B5CEE5"/>
<path d="M20.5713 92.7146C20.4968 92.7146 20.4224 92.6959 20.348 92.6524L17.6438 91.0914C16.7445 90.569 15.8389 90.0466 14.9458 89.5241C14.7349 89.3998 14.6605 89.1261 14.7846 88.9147C14.9086 88.7032 15.1815 88.6286 15.3924 88.753C16.2917 89.2754 17.191 89.7978 18.0904 90.3202L20.7883 91.8812C20.9992 92.0056 21.0737 92.273 20.9496 92.4907C20.8752 92.6337 20.7201 92.7146 20.5713 92.7146Z" fill="#B5CEE5"/>
<path d="M22.5993 88.7155C22.5249 88.7155 22.4505 88.6969 22.3761 88.6534L19.6719 87.0924C18.7725 86.57 17.867 86.0475 16.9739 85.5251C16.763 85.4007 16.6886 85.1271 16.8126 84.9157C16.9367 84.7042 17.2096 84.6296 17.4205 84.754C18.3198 85.2764 19.2191 85.7988 20.1184 86.3212L22.8164 87.8822C23.0273 88.0066 23.1017 88.274 22.9777 88.4917C22.8971 88.6347 22.7482 88.7155 22.5993 88.7155Z" fill="#B5CEE5"/>
<path d="M8.47696 116.609C8.40873 116.609 8.34051 116.59 8.27848 116.559C8.0614 116.447 7.97457 116.18 8.08621 115.962L24.7083 83.125C24.8199 82.9073 25.0866 82.8202 25.3037 82.9322C25.5208 83.0441 25.6076 83.3116 25.496 83.5292L8.87391 116.366C8.79328 116.522 8.63822 116.609 8.47696 116.609Z" fill="#B5CEE5"/>
<path d="M192.672 193.055L185.217 197.725C182.55 199.398 182.717 202.116 185.589 203.77C188.461 205.425 192.988 205.406 195.649 203.739L203.104 199.069C205.771 197.396 205.604 194.678 202.732 193.024C199.86 191.369 195.333 191.388 192.672 193.055Z" fill="#D7E9FF"/>
<path d="M202.539 197.16C202.539 197.16 203.91 199.143 201.435 199.168C199.884 199.187 199.022 200.338 197.131 200.182C196.672 200.145 196.113 198.901 197.379 198.652C199.171 198.304 199.568 198.702 199.841 197.781C200.12 196.855 202.539 197.16 202.539 197.16Z" fill="#0863EF"/>
<path d="M197.379 198.963C199.171 198.615 199.568 199.013 199.841 198.093C200.12 197.172 202.533 197.16 202.533 197.16C202.533 197.16 202.837 197.912 202.899 198.379C202.986 197.819 202.533 197.16 202.533 197.16C202.533 197.16 200.114 196.861 199.841 197.782C199.562 198.702 199.171 198.31 197.379 198.652C196.709 198.783 196.554 199.187 196.622 199.554C196.684 199.293 196.901 199.057 197.379 198.963Z" fill="#99BCE6"/>
<path d="M192.392 198.198C192.392 198.198 193.297 200.039 192.832 200.188C191.66 200.549 190.872 199.964 190.24 200.132C189.223 200.4 185.656 200.362 185.371 200.188C184.98 199.946 185.557 198.969 186.177 198.727C186.798 198.484 189.353 199.075 190.041 198.204C190.438 197.694 192.392 198.198 192.392 198.198Z" fill="#0863EF"/>
<path d="M186.178 199.025C186.798 198.783 189.353 199.374 190.042 198.503C190.438 198.005 192.386 198.503 192.386 198.503C192.386 198.503 192.857 199.467 192.944 200.052C193.081 199.604 192.386 198.192 192.386 198.192C192.386 198.192 190.438 197.695 190.042 198.192C189.353 199.063 186.798 198.472 186.178 198.714C185.632 198.932 185.123 199.716 185.272 200.058C185.371 199.685 185.756 199.193 186.178 199.025Z" fill="#99BCE6"/>
<path d="M191.721 166.076C191.721 166.076 193.88 165.349 194.066 165.199C194.252 165.05 194.742 181.444 195.778 182.762C196.813 184.075 200.541 186.295 202.544 197.16C202.544 197.16 201.44 197.85 199.853 197.782C199.853 197.782 193.985 187.396 192.67 185.947C191.362 184.491 189.563 179.025 189.699 175.007C189.836 170.99 189.979 166.176 189.979 166.176L191.721 166.076Z" fill="#4E87EE"/>
<path d="M194.203 185.94C192.894 184.485 191.096 179.019 191.232 175.001C191.369 170.983 191.511 166.17 191.511 166.17L193.254 166.07C193.254 166.07 193.663 165.933 194.141 165.766C194.11 165.392 194.085 165.181 194.067 165.193C193.881 165.343 191.722 166.07 191.722 166.07L189.979 166.17C189.979 166.17 189.843 170.983 189.7 175.001C189.564 179.019 191.356 184.485 192.671 185.94C193.98 187.396 199.853 197.775 199.853 197.775C200.405 197.8 200.895 197.732 201.305 197.632C200.591 196.389 195.425 187.296 194.203 185.94Z" fill="#0552DE"/>
<path d="M192.665 170.461C191.375 171.63 189.359 178.981 189.198 180.735C189.198 180.735 189.328 181.064 189.545 181.767C189.837 179.416 191.902 173.06 192.981 171.848C194.557 170.081 193.905 168.054 193.8 165.765C193.763 164.776 193.831 169.404 192.665 170.461Z" fill="#0552DE"/>
<path d="M183.691 164.192C183.691 164.192 187.983 167.264 191.009 166.238C194.036 165.212 193.937 162.923 194.036 165.212C194.135 167.501 193.955 170.523 192.665 171.686C191.375 172.855 189.998 180.859 189.837 182.613C189.837 182.613 193.217 192.651 192.665 198.771C192.61 199.417 188.876 198.771 188.876 198.771C188.876 198.771 183.66 183.708 183.691 180.934C183.728 177.706 183.002 176.935 183.691 164.192Z" fill="#4E87EE"/>
<path d="M191.964 167.196C193.006 166.786 193.719 166.332 194.153 165.927C194.067 164 193.006 166.63 190.823 166.587C190.32 166.574 184.571 165.909 184.248 165.934C185.123 167.949 191.17 167.507 191.964 167.196Z" fill="#0552DE"/>
<path d="M189.799 198.777C189.799 198.777 184.583 183.714 184.614 180.94C184.645 177.756 183.944 176.954 184.583 164.758C184.037 164.435 183.69 164.192 183.69 164.192C183.001 176.935 183.721 177.706 183.69 180.94C183.659 183.714 188.875 198.777 188.875 198.777C188.875 198.777 190.996 199.144 192.063 199.05C191.009 198.988 189.799 198.777 189.799 198.777Z" fill="#0552DE"/>
<path d="M180.881 146.617C180.881 146.617 180.683 145.628 180.931 144.764C181.148 144.011 181.005 142.848 180.683 142.531C180.36 142.214 180.18 144.285 180.18 144.285C180.18 144.285 179.399 142.655 179.399 140.559C179.399 138.464 176.174 143.862 179.393 147.201L180.881 146.617Z" fill="#FCB892"/>
<path d="M180.329 144.136C180.329 144.136 180.509 143.103 180.776 142.662C180.745 142.612 180.664 142.494 180.608 142.475C180.329 142.388 180.18 143.688 180.18 144.285C180.298 144.216 180.329 144.136 180.329 144.136Z" fill="#DB895D"/>
<path d="M179.318 140.186C178.865 139.421 176.458 144.154 179.386 147.202L179.615 147.108C177.246 144.521 178.58 140.796 179.318 140.186Z" fill="#DB895D"/>
<path d="M189.043 146.529C189.043 146.529 188.553 145.646 189.03 144.888C189.514 144.129 188.696 141.797 188.683 142.251C188.658 143.526 188.199 143.849 188.199 143.849C188.199 143.849 187.616 142.475 187.616 140.379C187.616 138.283 184.273 144.129 187.492 147.469L189.043 146.529Z" fill="#FCB892"/>
<path d="M188.379 143.912C188.379 143.912 188.833 143.613 188.951 142.767C188.82 142.338 188.69 142.071 188.684 142.251C188.671 142.935 188.398 143.644 188.199 143.849C188.199 143.943 188.379 143.912 188.379 143.912Z" fill="#DB895D"/>
<path d="M187.554 140.037C187.126 139.197 184.527 144.384 187.492 147.463L187.697 147.338C185.334 144.714 186.797 140.69 187.554 140.037Z" fill="#DB895D"/>
<path d="M202.161 148.395C202.012 147.947 200.139 146.902 199.177 148.19C198.21 149.477 192.584 154.036 192.101 154.173C191.617 154.309 189.775 147.052 189.452 146.455C189.13 145.858 187.275 147.325 186.953 147.114C186.63 146.902 188.075 159.956 190.01 160.28C191.939 160.603 200.164 155.895 200.97 154.421C201.776 152.947 202.539 149.527 202.161 148.395Z" fill="#F8FBFF"/>
<path d="M187.604 146.934C187.641 146.878 187.293 147.158 186.952 147.108C186.568 147.052 188.075 159.95 190.01 160.274C190.159 160.299 190.351 160.286 190.568 160.255C188.664 159.708 187.393 147.257 187.604 146.934Z" fill="#B6D1FE"/>
<path d="M193.676 148.059C193.676 148.059 198.11 150.696 200.821 148.986L201.633 149.602C201.633 149.602 201.497 156.175 199.01 157.91C196.107 159.932 194.848 163.24 194.463 164.845C194.104 166.368 189.595 168.514 183.839 165.759C183.256 165.479 182.933 164.832 183.082 164.204C183.733 161.449 185.848 153.955 190.308 150.217C190.32 150.211 192.212 147.381 193.676 148.059Z" fill="#F8FBFF"/>
<path d="M185.389 164.521C184.806 164.242 184.484 163.595 184.633 162.967C185.284 160.212 187.399 152.718 191.858 148.98C191.858 148.98 192.131 148.576 192.547 148.109C191.393 148.619 190.32 150.211 190.32 150.211C185.861 153.943 183.746 161.443 183.094 164.198C182.946 164.832 183.268 165.473 183.851 165.753C189.241 168.334 193.539 166.617 194.358 165.137C192.485 166.014 189.216 166.356 185.389 164.521Z" fill="#B6D1FE"/>
<path d="M193.676 148.159C193.676 148.159 191.828 147.438 190.867 148.725C189.899 150.013 184.54 154.005 184.056 154.142C183.573 154.279 181.321 147.096 180.999 146.499C180.676 145.902 179.231 147.295 178.909 147.083C178.586 146.866 180.031 159.926 181.966 160.249C183.895 160.573 191.617 155.616 192.417 154.142C193.223 152.668 193.676 148.159 193.676 148.159Z" fill="#F8FBFF"/>
<path d="M192.727 153.216C191.92 154.689 184.205 159.64 182.276 159.323C180.67 159.055 179.398 149.957 179.206 147.046C179.082 147.096 178.976 147.121 178.914 147.083C178.592 146.866 180.037 159.926 181.972 160.249C183.901 160.573 191.623 155.616 192.423 154.142C192.584 153.844 192.733 153.415 192.869 152.923C192.82 153.029 192.776 153.128 192.727 153.216Z" fill="#B6D1FE"/>
<path d="M197.242 139.297C198.88 137.686 202.347 138.389 203.513 140.821C203.947 141.729 203.941 143.868 202.837 145.155C202.372 145.696 201.776 146.169 201.125 146.548C201.119 146.58 201.125 146.611 201.119 146.642C200.802 148.041 200.374 149.192 199.947 149.521C199.283 150.031 195.524 149.776 195.741 149.005C195.94 148.638 196.014 148.52 196.238 148.141C196.374 147.898 196.541 147.68 196.709 147.463C196.256 147.357 195.853 147.17 195.524 146.884C194.73 146.194 195.605 140.908 197.242 139.297Z" fill="#FCB892"/>
<path d="M200.145 149.092C200.269 148.999 200.387 148.837 200.511 148.619C200.325 149.049 200.133 149.366 199.941 149.515C199.277 150.025 195.518 149.77 195.735 148.999C195.816 148.856 195.878 148.744 195.934 148.644C195.959 149.359 199.5 149.59 200.145 149.092Z" fill="#DB895D"/>
<path d="M201.317 146.213C201.324 146.181 201.324 146.15 201.324 146.119C201.975 145.74 202.57 145.267 203.035 144.726C203.178 144.564 203.302 144.384 203.408 144.198C203.265 144.54 203.073 144.869 202.831 145.155C202.397 145.659 201.857 146.094 201.262 146.461C201.28 146.374 201.299 146.293 201.317 146.213Z" fill="#DB895D"/>
<path d="M195.642 146.822C196.014 147.04 196.455 146.928 196.908 147.034C196.833 147.183 196.796 147.32 196.703 147.456C196.287 147.351 195.748 147.114 195.518 146.878C195.376 146.735 195.357 146.66 195.642 146.822Z" fill="#DB895D"/>
<path d="M196.151 140.74C196.71 141.753 197.212 141.467 197.528 142.114C197.566 142.189 197.485 144.477 197.566 144.465C198.111 144.366 198.074 143.383 198.949 143.445C199.823 143.507 199.166 145.485 198.849 146.256C198.533 147.027 199.042 147.512 199.724 147.599C200.406 147.68 202.242 147.152 203.315 145.528C204.388 143.905 204.754 140.783 201.733 138.7C200.09 137.568 196.48 137.574 196.083 138.296C195.761 138.874 195.761 140.025 196.151 140.74Z" fill="#DB895D"/>
<path d="M196.263 140.292C196.822 141.306 197.324 141.02 197.64 141.666C197.677 141.741 197.597 144.03 197.677 144.017C198.223 143.918 198.186 142.935 199.061 142.997C199.935 143.06 199.278 145.037 198.961 145.808C198.645 146.58 199.154 147.065 199.836 147.152C200.518 147.233 202.354 146.704 203.427 145.081C204.5 143.458 204.866 140.336 201.845 138.252C200.202 137.12 196.592 137.126 196.195 137.848C195.873 138.426 195.873 139.577 196.263 140.292Z" fill="#412424"/>
</svg>
