<svg width="698" height="511" viewBox="0 0 698 511" fill="none" xmlns="http://www.w3.org/2000/svg">
<path d="M101.536 380.266C119.53 380.266 134.116 372.179 134.116 362.204C134.116 352.228 119.53 344.142 101.536 344.142C83.5426 344.142 68.9561 352.228 68.9561 362.204C68.9561 372.179 83.5426 380.266 101.536 380.266Z" fill="#D7E9FF"/>
<path d="M112.446 208.161H89.6299V362.204H112.446V208.161Z" fill="#ECF4FF"/>
<path d="M100.759 208.161H89.6299V362.204H100.759V208.161Z" fill="#C9E0FF"/>
<path d="M99.6431 305.913C154.675 305.913 199.286 265.044 199.286 214.628C199.286 164.213 154.675 123.343 99.6431 123.343C44.6118 123.343 0 164.213 0 214.628C0 265.044 44.6118 305.913 99.6431 305.913Z" fill="#ECF4FF"/>
<path d="M137.643 279.203C82.6158 279.203 38.0001 238.334 38.0001 187.918C38.0001 166.364 46.17 146.571 59.8098 130.949C24.6094 145.031 0 177.194 0 214.628C0 265.045 44.6157 305.913 99.6431 305.913C131.147 305.913 159.214 292.501 177.477 271.588C165.271 276.477 151.811 279.203 137.643 279.203Z" fill="#C4DCFF"/>
<path d="M104.445 214.303C151.866 214.303 190.309 179.083 190.309 135.636C190.309 92.1898 151.866 56.9695 104.445 56.9695C57.0236 56.9695 18.5811 92.1898 18.5811 135.636C18.5811 179.083 57.0236 214.303 104.445 214.303Z" fill="#ECF4FF"/>
<path d="M137.185 191.286C89.7592 191.286 51.3207 156.061 51.3207 112.619C51.3207 94.0404 58.3648 76.983 70.1115 63.5227C39.7732 75.6628 18.5713 103.368 18.5713 135.636C18.5713 179.088 57.0197 214.303 104.435 214.303C131.585 214.303 155.776 202.746 171.508 184.723C160.997 188.942 149.4 191.286 137.185 191.286Z" fill="#C4DCFF"/>
<path d="M102.323 120.081C138.513 120.081 167.851 93.1998 167.851 60.0404C167.851 26.881 138.513 0 102.323 0C66.1321 0 36.7939 26.881 36.7939 60.0404C36.7939 93.1998 66.1321 120.081 102.323 120.081Z" fill="#ECF4FF"/>
<path d="M127.311 102.507C91.1239 102.507 61.782 75.6245 61.782 42.4664C61.782 28.2886 67.1522 15.2684 76.1291 5.00337C52.9843 14.2639 36.7939 35.4158 36.7939 60.0404C36.7939 93.1985 66.1359 120.081 102.323 120.081C123.046 120.081 141.498 111.26 153.514 97.513C145.484 100.718 136.626 102.507 127.311 102.507Z" fill="#C4DCFF"/>
<path d="M579.296 352.283C590.94 352.283 600.379 347.049 600.379 340.593C600.379 334.136 590.94 328.902 579.296 328.902C567.653 328.902 558.214 334.136 558.214 340.593C558.214 347.049 567.653 352.283 579.296 352.283Z" fill="#D7E9FF"/>
<path d="M586.859 211.988H572.094V340.593H586.859V211.988Z" fill="#ECF4FF"/>
<path d="M579.297 211.988H572.094V340.593H579.297V211.988Z" fill="#C9E0FF"/>
<path d="M635.958 216.178C635.958 248.81 610.592 275.262 579.297 275.262C548.002 275.262 522.636 248.81 522.636 216.178C522.636 183.546 548.182 23.8401 579.476 23.8401C610.771 23.8401 635.958 183.546 635.958 216.178Z" fill="#ECF4FF"/>
<path d="M599.911 258.759C568.617 258.759 543.25 232.307 543.25 199.676C543.25 173.578 559.6 66.1822 582.147 24.242C581.26 23.9837 580.363 23.8401 579.467 23.8401C548.172 23.8401 522.626 183.546 522.626 216.178C522.626 248.81 547.993 275.262 579.287 275.262C596.982 275.262 612.774 266.805 623.166 253.555C616.072 256.884 608.211 258.759 599.911 258.759Z" fill="#C4DCFF"/>
<path d="M641.338 375.434C652.982 375.434 662.421 370.2 662.421 363.744C662.421 357.287 652.982 352.053 641.338 352.053C629.695 352.053 620.256 357.287 620.256 363.744C620.256 370.2 629.695 375.434 641.338 375.434Z" fill="#D7E9FF"/>
<path d="M648.9 235.139H634.135V363.744H648.9V235.139Z" fill="#ECF4FF"/>
<path d="M641.338 235.139H634.135V363.744H641.338V235.139Z" fill="#C9E0FF"/>
<path d="M641.339 298.413C672.632 298.413 698 271.96 698 239.329C698 206.698 672.632 180.246 641.339 180.246C610.046 180.246 584.678 206.698 584.678 239.329C584.678 271.96 610.046 298.413 641.339 298.413Z" fill="#ECF4FF"/>
<path d="M662.94 281.117C631.645 281.117 606.278 254.665 606.278 222.033C606.278 208.085 610.921 195.275 618.683 185.163C598.666 194.28 584.678 215.087 584.678 239.32C584.678 271.952 610.044 298.404 641.339 298.404C659.253 298.404 675.214 289.727 685.596 276.19C678.652 279.356 671 281.117 662.94 281.117Z" fill="#C4DCFF"/>
<path d="M445.729 470.001L414.703 452.121C410.578 449.739 410.578 445.855 414.703 443.472L529.251 377.482C533.376 375.1 540.131 375.1 544.266 377.482L575.292 395.362C579.417 397.744 579.417 401.628 575.292 404.01L460.743 470.001C456.609 472.383 449.854 472.383 445.729 470.001Z" fill="#D7E9FF"/>
<path d="M230.203 466.997L199.178 449.117C195.053 446.735 195.053 442.851 199.178 440.469L313.726 374.478C317.851 372.096 324.606 372.096 328.741 374.478L359.766 392.358C363.891 394.74 363.891 398.624 359.766 401.006L245.218 466.997C241.083 469.369 234.328 469.369 230.203 466.997Z" fill="#D7E9FF"/>
<path d="M457.676 468.001L488.702 450.121C492.827 447.739 492.827 443.855 488.702 441.473L374.154 375.482C370.029 373.1 363.274 373.1 359.139 375.482L328.113 393.362C323.988 395.744 323.988 399.628 328.113 402.011L442.661 468.001C446.796 470.374 453.551 470.374 457.676 468.001Z" fill="#D7E9FF"/>
<path d="M245.337 466.997L276.363 449.117C280.488 446.735 280.488 442.851 276.363 440.469L161.825 374.478C157.7 372.096 150.945 372.096 146.81 374.478L115.784 392.358C111.659 394.74 111.659 398.624 115.784 401.006L230.332 466.997C234.457 469.369 241.212 469.369 245.337 466.997Z" fill="#D7E9FF"/>
<path d="M344.133 398.662L235.971 464.605V226.558L344.133 160.605V398.662Z" fill="#E0EBFC"/>
<path d="M235.971 464.605L127.819 398.662V160.605L235.971 226.558V464.605Z" fill="#B8D3F2"/>
<path d="M560.457 398.662L452.295 464.605V226.558L560.457 160.605V398.662Z" fill="#E0EBFC"/>
<path d="M452.296 464.605L344.134 398.662V160.605L452.296 226.558V464.605Z" fill="#B8D3F2"/>
<path d="M351.675 156.061L344.442 151.163L228.708 222.128L235.971 226.558L351.675 156.061Z" fill="#F0F5FC"/>
<path d="M560.457 160.605L553.472 155.717L445.012 222.128L452.285 226.558L560.457 160.605Z" fill="#F0F5FC"/>
<path d="M127.819 160.605L134.794 155.717L243.194 222.157L235.971 226.558L127.819 160.605Z" fill="#E0EBFC"/>
<path d="M344.134 160.605L351.118 155.717L459.509 222.157L452.296 226.558L344.134 160.605Z" fill="#E0EBFC"/>
<path opacity="0.41" d="M206.172 426.138C205.444 426.138 204.747 425.832 204.259 425.286L140.603 352.36C140.135 351.824 139.935 351.116 140.055 350.427L154.601 267.36L119.989 209.041C119.311 207.893 119.72 206.43 120.915 205.779C122.111 205.129 123.635 205.521 124.313 206.669L159.374 265.724C159.663 266.202 159.762 266.757 159.663 267.302L145.156 350.121L204.079 417.623L213.146 283.719C213.186 283.078 213.495 282.485 213.993 282.073L250.997 251.192C251.684 250.618 252.631 250.455 253.487 250.752C254.344 251.049 254.952 251.776 255.091 252.637L265.443 317.642L305.097 355.88L323.888 257.879C324.018 257.2 324.446 256.607 325.074 256.253C325.692 255.899 326.439 255.822 327.126 256.042L350.132 263.351L375.737 213.107C376.216 212.179 377.252 211.643 378.328 211.787C379.394 211.93 380.251 212.724 380.43 213.748L400.576 326.271L452.933 407.483L499.541 372.048L483.959 344.467C483.461 343.587 483.59 342.506 484.268 341.75L537.9 282.772L560.238 171.215C560.497 169.914 561.812 169.072 563.157 169.32C564.512 169.569 565.389 170.822 565.13 172.123L542.663 284.321C542.583 284.733 542.384 285.125 542.095 285.441L489.15 343.654L504.912 371.541C505.49 372.564 505.221 373.837 504.264 374.554L453.83 412.897C453.272 413.318 452.554 413.5 451.857 413.376C451.16 413.261 450.542 412.859 450.173 412.276L396.092 328.385C395.923 328.127 395.813 327.831 395.754 327.534L376.833 221.841L353.659 267.312C353.111 268.383 351.825 268.909 350.64 268.527L328.282 261.419L309.152 361.209C308.983 362.079 308.325 362.797 307.439 363.065C306.552 363.333 305.586 363.093 304.938 362.472L261.348 320.445C260.98 320.082 260.731 319.622 260.651 319.115L250.857 257.621L218.048 285.001L208.642 423.861C208.573 424.837 207.895 425.678 206.929 425.975C206.69 426.09 206.431 426.138 206.172 426.138ZM159.105 268.46L211.631 209.405C212.528 208.4 212.399 206.889 211.353 206.037C210.306 205.176 208.732 205.301 207.845 206.305L155.319 265.36C154.422 266.365 154.552 267.876 155.598 268.728C156.066 269.11 156.644 269.302 157.212 269.302C157.919 269.302 158.617 269.015 159.105 268.46ZM175.734 249.594C176.899 248.896 177.258 247.423 176.541 246.303L126.764 169.282C126.037 168.163 124.502 167.819 123.337 168.507C122.171 169.206 121.812 170.679 122.53 171.798L172.306 248.82C172.775 249.547 173.592 249.948 174.428 249.948C174.877 249.958 175.325 249.834 175.734 249.594ZM199.118 394.587L206.71 283.336C207.367 279.815 204.797 274.678 201.26 272.44L181.662 261.074C179.948 259.993 178.284 259.792 177.119 260.52L164.356 271.052C163.21 271.76 162.642 273.301 162.811 275.271L151.254 347.557C151.154 348.198 151.164 348.849 151.294 349.49C151.931 352.627 153.904 354.436 157.451 357.86L193.907 396.864C196.497 398.117 198.639 397.179 199.118 394.587ZM327.495 441.148C327.684 439.837 326.738 438.632 325.373 438.45L264.736 430.251L265.613 318.8C265.623 317.479 264.517 316.398 263.142 316.389C263.132 316.389 263.132 316.389 263.122 316.389C261.757 316.389 260.641 317.451 260.631 318.761L259.734 432.308C259.724 433.504 260.641 434.528 261.876 434.69L324.675 443.176C324.795 443.195 324.914 443.195 325.024 443.195C326.249 443.205 327.316 442.344 327.495 441.148ZM257.413 270.172L301.092 189.238C301.73 188.062 301.252 186.627 300.026 186.014C298.801 185.412 297.306 185.861 296.668 187.038L252.989 267.972C252.352 269.149 252.83 270.584 254.055 271.196C254.424 271.378 254.813 271.464 255.201 271.464C256.108 271.464 256.975 270.995 257.413 270.172ZM264.437 299.762L338.943 161.715C339.58 160.538 339.102 159.103 337.877 158.491C336.661 157.888 335.157 158.338 334.519 159.515L260.013 297.562C259.376 298.738 259.854 300.173 261.079 300.786C261.448 300.967 261.837 301.053 262.225 301.053C263.132 301.053 263.999 300.585 264.437 299.762ZM330.504 259.572C331.122 258.396 330.633 256.951 329.408 256.358L294.755 239.521C293.53 238.928 292.025 239.396 291.408 240.573C290.79 241.75 291.278 243.194 292.504 243.787L327.156 260.625C327.515 260.797 327.903 260.883 328.282 260.883C329.189 260.883 330.065 260.405 330.504 259.572ZM269.09 314.686L302.846 345.433L317.99 263.571L293.62 251.517L266.489 303.311L269.09 314.686ZM341.972 434.623C343.297 434.269 344.074 432.949 343.705 431.677L328.76 380.074C328.481 379.108 327.605 378.41 326.558 378.333L262.424 373.311C261.06 373.196 259.854 374.181 259.744 375.501C259.635 376.822 260.651 377.97 262.026 378.075L324.426 382.954L338.903 432.949C339.212 434.011 340.208 434.7 341.304 434.7C341.523 434.719 341.752 434.69 341.972 434.623ZM279.541 434.327V376.86C279.541 375.54 278.426 374.468 277.051 374.468C275.676 374.468 274.56 375.54 274.56 376.86V434.327C274.56 435.647 275.676 436.718 277.051 436.718C278.426 436.718 279.541 435.647 279.541 434.327ZM301.381 436.69V379.223C301.381 377.903 300.265 376.831 298.89 376.831C297.515 376.831 296.399 377.903 296.399 379.223V436.69C296.399 438.01 297.515 439.081 298.89 439.081C300.265 439.081 301.381 438.01 301.381 436.69ZM323.221 439.053V381.586C323.221 381.126 323.081 380.667 322.822 380.285L308.804 359.515C308.056 358.406 306.512 358.09 305.356 358.807C304.201 359.525 303.872 361.008 304.619 362.118L318.239 382.294V439.053C318.239 440.373 319.355 441.444 320.73 441.444C322.105 441.444 323.221 440.373 323.221 439.053ZM498.306 225.726C492.438 238.095 510.132 250.781 521.74 250.044C533.347 249.307 519.169 230.585 534.453 222.626C549.737 214.657 554.37 188.033 542.912 181.556C531.454 175.08 526.572 188.798 526.273 190.138C524.559 197.82 504.174 213.346 498.306 225.726ZM547.804 258.491C547.804 257.171 546.688 256.1 545.313 256.1H459.509C458.134 256.1 457.018 257.171 457.018 258.491C457.018 259.812 458.134 260.883 459.509 260.883H545.313C546.688 260.883 547.804 259.812 547.804 258.491ZM485.922 256.722V197.887C485.922 196.566 484.806 195.495 483.431 195.495C482.056 195.495 480.94 196.566 480.94 197.887V256.722C480.94 258.042 482.056 259.113 483.431 259.113C484.806 259.113 485.922 258.042 485.922 256.722ZM374.771 434.882C398.254 340.573 435.178 197.915 440.997 189.956C441.914 189.2 442.143 187.899 441.495 186.885C440.778 185.756 439.243 185.412 438.068 186.1C436.175 187.22 433.016 189.085 400.934 312.132C385.192 372.497 370.078 433.16 369.929 433.762C369.61 435.044 370.437 436.336 371.772 436.642C371.971 436.69 372.16 436.709 372.35 436.709C373.476 436.718 374.492 435.982 374.771 434.882ZM234.916 270.957C236.002 270.144 236.191 268.642 235.344 267.599L198.042 221.736C197.195 220.694 195.63 220.512 194.544 221.325C193.458 222.138 193.269 223.64 194.116 224.683L231.419 270.545C231.907 271.148 232.644 271.464 233.381 271.464C233.919 271.464 234.457 271.301 234.916 270.957ZM114.2 374.592L144.03 352.713C145.126 351.91 145.336 350.408 144.499 349.365C143.662 348.313 142.097 348.112 141.011 348.916L111.181 370.795C110.085 371.598 109.876 373.1 110.713 374.143C111.201 374.755 111.948 375.08 112.696 375.08C113.214 375.09 113.752 374.927 114.2 374.592ZM394.299 357.401C394.299 356.081 393.183 355.01 391.808 355.01H343.695L316.426 319.221C315.609 318.149 314.054 317.92 312.948 318.704C311.843 319.488 311.593 320.981 312.41 322.043L340.427 358.807C340.896 359.42 341.643 359.783 342.44 359.783H391.818C393.183 359.793 394.299 358.721 394.299 357.401ZM379.643 215.948L410.071 189.918C411.097 189.037 411.187 187.526 410.27 186.54C409.353 185.555 407.779 185.469 406.753 186.349L376.325 212.38C375.299 213.26 375.209 214.772 376.126 215.757C376.614 216.283 377.302 216.561 377.989 216.561C378.577 216.561 379.175 216.36 379.643 215.948ZM408.417 366.997C398.902 367.063 390.015 387.201 398.215 405.588C406.424 423.976 412.342 419.106 424.677 434.327C437.012 449.538 439.752 450.294 441.774 434.327C443.797 418.36 442.422 405.512 427.497 399.935C412.562 394.348 423.013 366.891 408.417 366.997ZM149.739 191.113C151.682 198.958 157.531 202.488 163.369 215.374C169.208 228.251 188.686 225.639 182.847 214.169C177.009 202.699 162.074 195.313 160.779 193.4C159.483 191.486 145.455 174.41 143.702 179.825C141.948 185.239 149.739 191.113 149.739 191.113ZM487.894 345.06C488.881 344.132 488.891 342.621 487.924 341.674L454.069 308.544C453.401 307.894 452.425 307.664 451.518 307.941L398.314 324.597L320.082 293.754C318.807 293.257 317.352 293.84 316.834 295.055C316.316 296.28 316.924 297.676 318.189 298.174L397.268 329.352C397.816 329.572 398.424 329.591 398.982 329.409L451.588 312.935L484.357 345.003C484.846 345.481 485.493 345.72 486.131 345.72C486.778 345.739 487.406 345.51 487.894 345.06ZM468.506 267.522L468.496 284.781H482.056V267.522H468.506ZM488.223 267.522L488.213 284.781H501.773V267.522H488.223ZM507.941 267.522L507.931 284.781H521.491V267.522H507.941ZM485.922 240.41C485.922 239.09 484.806 238.019 483.431 238.019H457.138C455.763 238.019 454.647 239.09 454.647 240.41C454.647 241.731 455.763 242.802 457.138 242.802H483.431C484.806 242.802 485.922 241.731 485.922 240.41ZM540.77 364.528L563.237 359.726C564.582 359.439 565.429 358.157 565.13 356.875C564.831 355.584 563.496 354.77 562.161 355.057L541.686 359.429L518.561 309.243C518.003 308.037 516.529 307.492 515.274 308.028C514.018 308.563 513.45 309.979 514.008 311.185L537.96 363.16C538.369 364.04 539.265 364.586 540.242 364.586C540.401 364.586 540.59 364.567 540.77 364.528ZM563.645 338.421C564.921 337.914 565.519 336.517 565 335.302L542.533 282.973C542.005 281.748 540.55 281.164 539.285 281.671C538.01 282.178 537.412 283.575 537.93 284.79L560.397 337.12C560.796 338.038 561.723 338.603 562.699 338.603C563.008 338.603 563.337 338.545 563.645 338.421ZM463.255 336.402L459.509 389.076L486.151 372.698L482.056 354.168L463.255 336.402ZM531.992 422.99C532.859 422.694 533.477 421.967 533.606 421.096L542.683 362.558C542.882 361.247 541.945 360.032 540.59 359.841C539.215 359.64 537.96 360.549 537.761 361.85L529.362 415.997L489.867 381.968C488.841 381.088 487.267 381.165 486.35 382.15C485.433 383.136 485.513 384.647 486.539 385.527L529.471 422.531C529.94 422.933 530.527 423.143 531.135 423.143C531.434 423.124 531.713 423.086 531.992 422.99ZM206.62 464.931L208.642 424.253L237.187 354.407L260.89 369.015C262.046 369.723 263.59 369.407 264.327 368.298C265.075 367.188 264.736 365.705 263.58 364.997L237.327 348.82C236.699 348.437 235.922 348.342 235.215 348.562C234.507 348.782 233.939 349.298 233.66 349.968L203.85 422.895C203.75 423.134 203.691 423.392 203.681 423.65L201.638 464.73C201.569 466.05 202.635 467.169 204.01 467.236C204.049 467.236 204.089 467.236 204.129 467.236C205.454 467.207 206.55 466.212 206.62 464.931ZM525.586 329.218L552.397 310.792C553.513 310.027 553.772 308.535 552.975 307.454C552.178 306.382 550.613 306.133 549.498 306.899L522.686 325.324C521.57 326.089 521.311 327.582 522.108 328.663C522.597 329.313 523.364 329.658 524.141 329.658C524.639 329.667 525.147 329.524 525.586 329.218ZM533.357 345.299L560.168 326.874C561.284 326.109 561.543 324.607 560.746 323.535C559.949 322.464 558.385 322.215 557.269 322.98L530.458 341.406C529.342 342.171 529.083 343.673 529.88 344.744C530.368 345.395 531.135 345.739 531.912 345.739C532.41 345.739 532.919 345.596 533.357 345.299ZM388.431 261.189L425.275 192.233C425.903 191.056 425.424 189.611 424.199 189.009C422.973 188.406 421.479 188.865 420.841 190.042L383.997 258.998C383.369 260.175 383.847 261.62 385.073 262.222C385.442 262.404 385.82 262.49 386.209 262.49C387.115 262.49 387.982 262.012 388.431 261.189ZM470.558 463.113C471.923 462.969 472.91 461.783 472.76 460.472C472.76 460.472 471.076 445.998 469.363 431.505C468.506 424.253 467.629 417.002 466.961 411.549C465.666 401.083 465.666 401.083 464.212 400.509C463.375 400.174 462.418 400.298 461.701 400.843C460.874 401.475 460.575 402.508 460.864 403.417C461.382 406.287 465.278 439.225 467.798 461.008C467.938 462.233 469.014 463.132 470.269 463.132C470.379 463.122 470.468 463.122 470.558 463.113ZM487.227 453.135C488.592 452.991 489.578 451.805 489.429 450.494C489.429 450.494 487.745 436.02 486.031 421.527C485.174 414.275 484.298 407.023 483.63 401.57C482.335 391.105 482.335 391.105 480.89 390.531C480.053 390.196 479.097 390.32 478.379 390.865C477.552 391.497 477.254 392.53 477.542 393.448C478.061 396.318 481.956 429.256 484.477 451.03C484.616 452.255 485.692 453.154 486.948 453.154C487.037 453.144 487.127 453.144 487.227 453.135Z" fill="white"/>
<path d="M205.883 424.846C205.455 424.846 205.036 424.674 204.737 424.33L198.978 417.729C198.45 417.126 198.53 416.217 199.168 415.71C199.805 415.203 200.742 415.28 201.27 415.892L207.029 422.493C207.557 423.095 207.477 424.004 206.839 424.511C206.56 424.731 206.222 424.846 205.883 424.846ZM452.296 412.476C452.206 412.476 452.126 412.467 452.037 412.457C451.618 412.39 451.25 412.151 451.02 411.797L447.992 407.09C447.553 406.421 447.772 405.531 448.48 405.12C449.177 404.699 450.104 404.909 450.532 405.588L452.684 408.927L453.88 408.018C454.527 407.53 455.464 407.636 455.982 408.248C456.49 408.87 456.391 409.769 455.743 410.267L453.232 412.18C452.953 412.371 452.624 412.476 452.296 412.476ZM207.178 410.333C207.148 410.333 207.108 410.333 207.078 410.333C206.252 410.286 205.634 409.597 205.684 408.812L206.262 400.222C206.311 399.428 207.009 398.834 207.846 398.882C208.673 398.93 209.29 399.619 209.241 400.403L208.663 408.994C208.613 409.75 207.955 410.333 207.178 410.333ZM189.882 406.516C189.453 406.516 189.035 406.344 188.736 406L182.977 399.399C182.449 398.796 182.529 397.887 183.167 397.38C183.804 396.873 184.741 396.95 185.269 397.562L191.028 404.163C191.556 404.766 191.476 405.675 190.838 406.182C190.559 406.402 190.221 406.516 189.882 406.516ZM467.3 401.063C466.862 401.063 466.424 400.882 466.125 400.518C465.617 399.896 465.716 398.997 466.364 398.5L473.398 393.152C474.046 392.664 474.982 392.769 475.5 393.381C476.018 393.994 475.909 394.902 475.251 395.4L468.227 400.748C467.958 400.968 467.629 401.063 467.3 401.063ZM440.868 394.759C440.37 394.759 439.881 394.52 439.592 394.08L434.87 386.761C434.431 386.092 434.651 385.202 435.358 384.791C436.055 384.37 436.982 384.58 437.411 385.259L442.133 392.578C442.571 393.247 442.352 394.137 441.645 394.548C441.416 394.692 441.137 394.759 440.868 394.759ZM173.881 388.187C173.452 388.187 173.034 388.015 172.735 387.67L166.976 381.069C166.448 380.466 166.528 379.558 167.165 379.051C167.803 378.544 168.74 378.62 169.268 379.232L175.027 385.833C175.555 386.436 175.475 387.345 174.837 387.852C174.558 388.072 174.22 388.187 173.881 388.187ZM208.792 386.474C208.762 386.474 208.722 386.474 208.693 386.474C207.866 386.426 207.248 385.738 207.298 384.953L207.876 376.362C207.925 375.568 208.643 374.975 209.46 375.023C210.287 375.071 210.904 375.76 210.855 376.544L210.277 385.135C210.237 385.891 209.579 386.474 208.792 386.474ZM486.829 386.216C486.39 386.216 485.952 386.034 485.653 385.671C485.145 385.049 485.254 384.15 485.902 383.652L492.936 378.304C493.584 377.816 494.52 377.922 495.038 378.543C495.556 379.165 495.437 380.065 494.789 380.562L487.755 385.91C487.486 386.12 487.157 386.216 486.829 386.216ZM427.766 374.42C427.268 374.42 426.78 374.181 426.491 373.741L421.768 366.423C421.33 365.753 421.549 364.863 422.256 364.452C422.954 364.031 423.88 364.241 424.309 364.921L429.031 372.239C429.47 372.909 429.251 373.798 428.543 374.21C428.304 374.353 428.035 374.42 427.766 374.42ZM500.528 370.23C500 370.23 499.482 369.962 499.213 369.474L494.939 361.907C494.54 361.209 494.819 360.338 495.536 359.965C496.264 359.582 497.17 359.841 497.559 360.539L501.833 368.106C502.232 368.805 501.953 369.675 501.236 370.048C501.016 370.173 500.767 370.23 500.528 370.23ZM157.88 369.857C157.451 369.857 157.033 369.685 156.734 369.34L150.975 362.739C150.447 362.137 150.527 361.228 151.164 360.721C151.802 360.214 152.739 360.29 153.267 360.903L159.025 367.504C159.553 368.106 159.474 369.015 158.836 369.522C158.557 369.742 158.218 369.857 157.88 369.857ZM210.406 362.605C210.376 362.605 210.337 362.605 210.307 362.605C209.48 362.558 208.862 361.869 208.912 361.084L209.49 352.493C209.539 351.699 210.257 351.106 211.074 351.154C211.901 351.202 212.518 351.891 212.469 352.675L211.891 361.266C211.851 362.022 211.193 362.605 210.406 362.605ZM304.789 360.396C304.41 360.396 304.022 360.252 303.733 359.975L297.406 353.871C296.828 353.307 296.828 352.398 297.406 351.843C297.994 351.288 298.94 351.288 299.518 351.843L305.845 357.946C306.423 358.511 306.423 359.42 305.845 359.975C305.556 360.262 305.177 360.396 304.789 360.396ZM414.654 354.081C414.156 354.081 413.668 353.842 413.379 353.402L408.656 346.084C408.218 345.414 408.437 344.524 409.145 344.113C409.842 343.692 410.769 343.903 411.197 344.582L415.92 351.9C416.358 352.57 416.139 353.46 415.431 353.871C415.192 354.015 414.923 354.081 414.654 354.081ZM142.686 351.317C142.606 351.317 142.516 351.307 142.437 351.298C141.62 351.164 141.072 350.427 141.211 349.643L142.696 341.147C142.835 340.363 143.612 339.837 144.419 339.971C145.236 340.105 145.784 340.841 145.645 341.626L144.16 350.121C144.031 350.819 143.403 351.317 142.686 351.317ZM309.103 349.757C309.013 349.757 308.924 349.748 308.834 349.729C308.027 349.585 307.489 348.839 307.638 348.055L309.262 339.588C309.412 338.804 310.199 338.287 311.006 338.44C311.813 338.584 312.351 339.33 312.201 340.114L310.577 348.581C310.438 349.279 309.81 349.757 309.103 349.757ZM488.642 349.203C488.114 349.203 487.596 348.935 487.327 348.447L484.826 344.027C484.527 343.501 484.607 342.85 485.015 342.401L487.466 339.703C488.014 339.11 488.951 339.043 489.578 339.569C490.196 340.085 490.266 340.994 489.718 341.597L487.944 343.539L489.947 347.079C490.346 347.777 490.067 348.648 489.349 349.021C489.13 349.145 488.891 349.203 488.642 349.203ZM212.03 338.737C212 338.737 211.961 338.737 211.931 338.737C211.104 338.689 210.486 338 210.536 337.215L211.114 328.625C211.163 327.831 211.891 327.228 212.698 327.285C213.525 327.333 214.143 328.022 214.093 328.806L213.515 337.397C213.465 338.153 212.807 338.737 212.03 338.737ZM401.543 333.752C401.044 333.752 400.556 333.513 400.267 333.073L396.94 327.907C396.84 327.754 396.77 327.572 396.74 327.391L396.292 324.894C396.152 324.109 396.7 323.372 397.507 323.239C398.324 323.105 399.092 323.631 399.231 324.406L399.63 326.635L402.808 331.562C403.246 332.231 403.027 333.121 402.32 333.532C402.081 333.676 401.812 333.752 401.543 333.752ZM499.083 330.557C498.735 330.557 498.386 330.442 498.097 330.203C497.479 329.687 497.41 328.778 497.958 328.175L503.856 321.689C504.394 321.096 505.34 321.029 505.968 321.555C506.586 322.071 506.656 322.98 506.108 323.583L500.209 330.069C499.91 330.394 499.502 330.557 499.083 330.557ZM146.81 327.725C146.731 327.725 146.641 327.716 146.561 327.706C145.744 327.572 145.196 326.836 145.336 326.051L146.82 317.556C146.96 316.771 147.737 316.245 148.544 316.379C149.361 316.513 149.909 317.25 149.77 318.034L148.285 326.53C148.165 327.237 147.528 327.725 146.81 327.725ZM269.638 326.501C269.26 326.501 268.871 326.357 268.582 326.08L262.255 319.976C261.677 319.412 261.677 318.503 262.255 317.948C262.843 317.393 263.79 317.393 264.368 317.948L270.694 324.052C271.272 324.616 271.272 325.525 270.694 326.08C270.405 326.367 270.027 326.501 269.638 326.501ZM313.616 326.233C313.527 326.233 313.437 326.223 313.347 326.204C312.54 326.061 312.002 325.315 312.152 324.53L313.776 316.064C313.925 315.279 314.712 314.772 315.519 314.916C316.326 315.059 316.864 315.805 316.715 316.59L315.091 325.056C314.951 325.755 314.324 326.233 313.616 326.233ZM213.644 314.868C213.614 314.868 213.575 314.868 213.545 314.868C212.718 314.82 212.1 314.131 212.15 313.347L212.728 304.756C212.778 303.962 213.505 303.369 214.312 303.416C215.139 303.464 215.757 304.153 215.707 304.938L215.129 313.528C215.079 314.284 214.421 314.868 213.644 314.868ZM515.463 312.543C515.114 312.543 514.766 312.428 514.477 312.189C513.859 311.672 513.789 310.764 514.337 310.161L520.236 303.675C520.784 303.082 521.72 303.015 522.348 303.541C522.966 304.057 523.035 304.966 522.487 305.569L516.589 312.055C516.3 312.38 515.882 312.543 515.463 312.543ZM395.066 311.003C394.349 311.003 393.721 310.505 393.592 309.807L392.077 301.321C391.938 300.537 392.486 299.8 393.293 299.666C394.1 299.532 394.877 300.059 395.017 300.833L396.531 309.319C396.67 310.104 396.123 310.84 395.315 310.974C395.236 310.993 395.146 311.003 395.066 311.003ZM260.751 305.339C260.024 305.339 259.386 304.832 259.276 304.124L257.921 295.61C257.792 294.826 258.36 294.099 259.177 293.974C259.994 293.859 260.751 294.395 260.88 295.18L262.235 303.694C262.365 304.478 261.797 305.205 260.98 305.33C260.9 305.339 260.831 305.339 260.751 305.339ZM150.945 304.143C150.865 304.143 150.776 304.134 150.696 304.124C149.879 303.99 149.331 303.254 149.471 302.469L150.955 293.974C151.095 293.19 151.852 292.663 152.679 292.797C153.496 292.931 154.044 293.668 153.904 294.452L152.42 302.948C152.3 303.646 151.663 304.143 150.945 304.143ZM318.12 302.718C318.03 302.718 317.94 302.709 317.851 302.699C317.044 302.555 316.506 301.809 316.655 301.025L318.279 292.558C318.429 291.774 319.216 291.267 320.023 291.41C320.83 291.554 321.368 292.3 321.218 293.084L319.594 301.551C319.455 302.23 318.827 302.718 318.12 302.718ZM531.853 294.529C531.504 294.529 531.155 294.414 530.866 294.175C530.249 293.658 530.179 292.75 530.727 292.147L536.625 285.661C537.163 285.068 538.11 285.001 538.737 285.527C539.355 286.043 539.425 286.952 538.877 287.555L532.979 294.041C532.68 294.357 532.271 294.529 531.853 294.529ZM215.258 291.008C215.229 291.008 215.189 291.008 215.159 291.008C214.332 290.961 213.714 290.272 213.764 289.487L214.152 283.795C214.182 283.413 214.362 283.059 214.661 282.8L216.952 280.887C217.58 280.37 218.516 280.428 219.064 281.03C219.602 281.624 219.543 282.532 218.915 283.059L217.102 284.57L216.753 289.66C216.693 290.425 216.036 291.008 215.258 291.008ZM390.842 287.431C390.125 287.431 389.497 286.933 389.367 286.235L387.853 277.749C387.713 276.965 388.261 276.228 389.068 276.094C389.885 275.96 390.653 276.486 390.792 277.261L392.307 285.747C392.446 286.531 391.898 287.268 391.091 287.402C391.011 287.421 390.932 287.431 390.842 287.431ZM256.985 281.7C256.257 281.7 255.62 281.193 255.51 280.485L254.155 271.971C254.026 271.186 254.594 270.459 255.411 270.335C256.228 270.22 256.985 270.756 257.114 271.54L258.469 280.055C258.599 280.839 258.031 281.566 257.214 281.691C257.134 281.7 257.064 281.7 256.985 281.7ZM155.08 280.562C155 280.562 154.911 280.552 154.831 280.543C154.014 280.409 153.466 279.672 153.605 278.888L155.09 270.392C155.229 269.608 156.007 269.082 156.814 269.216C157.631 269.35 158.179 270.086 158.039 270.871L156.555 279.366C156.425 280.064 155.797 280.562 155.08 280.562ZM322.633 279.194C322.543 279.194 322.454 279.184 322.364 279.165C321.557 279.021 321.019 278.275 321.168 277.491L322.792 269.024C322.942 268.24 323.729 267.723 324.536 267.876C325.343 268.02 325.881 268.766 325.732 269.55L324.108 278.017C323.968 278.706 323.34 279.194 322.633 279.194ZM542.523 273.836C542.434 273.836 542.334 273.827 542.235 273.808C541.427 273.655 540.889 272.908 541.049 272.124L542.743 263.667C542.902 262.892 543.689 262.385 544.496 262.528C545.303 262.682 545.841 263.428 545.682 264.212L543.988 272.669C543.859 273.358 543.231 273.836 542.523 273.836ZM229.964 273.368C229.546 273.368 229.127 273.205 228.838 272.87C228.3 272.277 228.36 271.368 228.988 270.842L235.753 265.198C236.381 264.681 237.317 264.738 237.865 265.341C238.403 265.934 238.343 266.843 237.716 267.369L230.951 273.014C230.662 273.253 230.313 273.368 229.964 273.368ZM352.672 265.284C352.453 265.284 352.224 265.236 352.015 265.14C351.278 264.796 350.969 263.935 351.327 263.217L355.273 255.487C355.632 254.77 356.528 254.483 357.275 254.827C358.013 255.172 358.322 256.033 357.963 256.75L354.018 264.48C353.749 264.987 353.22 265.284 352.672 265.284ZM386.627 263.858C385.91 263.858 385.282 263.361 385.153 262.662L383.638 254.177C383.499 253.392 384.047 252.656 384.854 252.522C385.661 252.388 386.438 252.914 386.578 253.689L388.092 262.175C388.232 262.959 387.684 263.696 386.877 263.83C386.797 263.849 386.707 263.858 386.627 263.858ZM338.973 263.763C338.813 263.763 338.664 263.743 338.505 263.686L329.996 260.979C329.209 260.73 328.79 259.917 329.049 259.161C329.309 258.405 330.155 258.003 330.942 258.252L339.451 260.96C340.238 261.208 340.657 262.021 340.398 262.777C340.188 263.38 339.601 263.763 338.973 263.763ZM151.264 258.329C150.746 258.329 150.238 258.07 149.969 257.602L145.525 250.121C145.117 249.432 145.366 248.552 146.083 248.159C146.8 247.767 147.707 248.006 148.116 248.695L152.559 256.176C152.968 256.865 152.719 257.745 152.001 258.137C151.772 258.271 151.523 258.329 151.264 258.329ZM253.219 258.061C252.491 258.061 251.854 257.554 251.744 256.846L251.575 255.794L249.741 257.324C249.114 257.841 248.167 257.783 247.629 257.181C247.091 256.578 247.151 255.679 247.779 255.153L251.664 251.909C252.073 251.565 252.651 251.469 253.159 251.642C253.667 251.823 254.036 252.254 254.125 252.771L254.703 256.396C254.833 257.181 254.265 257.908 253.448 258.032C253.378 258.051 253.298 258.061 253.219 258.061ZM547.226 250.35C547.136 250.35 547.037 250.341 546.937 250.321C546.13 250.168 545.592 249.422 545.752 248.638L547.445 240.181C547.605 239.406 548.392 238.899 549.199 239.042C550.006 239.195 550.544 239.942 550.385 240.726L548.691 249.183C548.561 249.872 547.934 250.35 547.226 250.35ZM363.612 243.797C363.393 243.797 363.164 243.749 362.955 243.653C362.217 243.309 361.908 242.448 362.267 241.731L366.213 234.001C366.571 233.293 367.468 232.996 368.215 233.341C368.953 233.685 369.261 234.546 368.903 235.263L364.957 242.993C364.698 243.51 364.17 243.797 363.612 243.797ZM382.403 240.286C381.686 240.286 381.058 239.788 380.928 239.09L379.404 230.605C379.265 229.82 379.813 229.083 380.62 228.949C381.427 228.825 382.204 229.342 382.343 230.117L383.868 238.602C384.007 239.387 383.459 240.123 382.652 240.257C382.572 240.276 382.493 240.286 382.403 240.286ZM138.929 237.55C138.411 237.55 137.903 237.292 137.634 236.823L133.191 229.342C132.782 228.653 133.031 227.773 133.748 227.381C134.466 226.988 135.382 227.227 135.791 227.916L140.235 235.397C140.643 236.086 140.394 236.966 139.677 237.359C139.438 237.492 139.188 237.55 138.929 237.55ZM551.939 226.864C551.849 226.864 551.75 226.854 551.65 226.835C550.843 226.682 550.305 225.936 550.464 225.152L552.158 216.695C552.317 215.92 553.105 215.403 553.912 215.556C554.719 215.709 555.257 216.455 555.097 217.24L553.403 225.697C553.264 226.386 552.636 226.864 551.939 226.864ZM374.562 222.32C374.343 222.32 374.114 222.272 373.904 222.176C373.167 221.832 372.858 220.971 373.217 220.253L376.644 213.538C376.933 212.983 377.571 212.667 378.198 212.744C378.836 212.83 379.354 213.308 379.464 213.92L379.663 215.04C379.803 215.824 379.255 216.561 378.448 216.695C378.418 216.695 378.388 216.704 378.368 216.704L375.917 221.516C375.648 222.023 375.12 222.32 374.562 222.32ZM556.642 203.378C556.552 203.378 556.452 203.368 556.353 203.349C555.546 203.196 555.008 202.45 555.167 201.665L556.861 193.208C557.02 192.434 557.807 191.917 558.614 192.07C559.421 192.223 559.959 192.969 559.8 193.754L558.106 202.211C557.967 202.899 557.339 203.378 556.642 203.378Z" fill="#6180A3"/>
<path d="M289.778 341.928C291.682 338.695 291.68 335.234 289.774 334.199C287.868 333.164 284.778 334.946 282.874 338.179C280.97 341.413 280.971 344.873 282.878 345.908C284.784 346.943 287.873 345.161 289.778 341.928Z" fill="#6180A3"/>
<path d="M284.253 293.859C277.279 297.887 271.61 307.358 271.371 315.241L271.351 315.25C271.351 315.25 269.687 324.607 284.204 331.896C290.71 321.124 293.958 313.691 295.572 308.764C296.588 306.114 297.166 303.397 297.166 300.872C297.166 292.893 291.387 289.746 284.253 293.859ZM284.253 314.428C281.244 316.159 278.813 314.839 278.813 311.472C278.813 308.104 281.254 303.962 284.253 302.23C287.262 300.499 289.703 301.819 289.703 305.186C289.703 308.554 287.262 312.687 284.253 314.428Z" fill="#6180A3"/>
<path d="M538.801 291.106C541.071 287.252 541.071 283.128 538.8 281.895C536.53 280.662 532.849 282.787 530.579 286.642C528.309 290.496 528.309 294.62 530.58 295.853C532.85 297.086 536.531 294.961 538.801 291.106Z" fill="#6180A3"/>
<path d="M531.194 247.691C525.316 251.077 520.544 259.056 520.344 265.705L520.324 265.714C520.324 265.714 518.92 273.597 531.145 279.729C536.624 270.651 539.364 264.394 540.719 260.242C541.576 258.004 542.064 255.727 542.064 253.593C542.074 246.877 537.202 244.228 531.194 247.691ZM531.194 265.016C528.664 266.48 526.611 265.36 526.611 262.519C526.611 259.678 528.664 256.195 531.194 254.732C533.725 253.268 535.778 254.387 535.778 257.229C535.788 260.07 533.735 263.552 531.194 265.016Z" fill="#6180A3"/>
<path d="M160.47 274.344C162.506 273.239 162.505 269.539 160.468 266.08C158.431 262.621 155.129 260.714 153.093 261.819C151.058 262.924 151.059 266.624 153.096 270.083C155.133 273.542 158.435 275.449 160.47 274.344Z" fill="#6180A3"/>
<path d="M146.192 234.24C146.192 236.44 146.701 238.803 147.587 241.109C148.992 245.395 151.822 251.871 157.481 261.247C170.114 254.904 168.67 246.753 168.67 246.753L168.65 246.744C168.441 239.875 163.509 231.628 157.431 228.127C151.224 224.549 146.192 227.285 146.192 234.24ZM152.688 237.99C152.688 235.053 154.811 233.905 157.431 235.417C160.051 236.928 162.174 240.525 162.174 243.462C162.174 246.399 160.051 247.547 157.431 246.036C154.811 244.524 152.688 240.927 152.688 237.99Z" fill="#6180A3"/>
<path d="M416.894 356.059C419.778 354.494 419.779 349.257 416.897 344.363C414.014 339.47 409.34 336.772 406.457 338.338C403.573 339.904 403.572 345.14 406.454 350.034C409.336 354.928 414.011 357.625 416.894 356.059Z" fill="#6180A3"/>
<path d="M395.663 290.607C395.663 293.716 396.38 297.055 397.636 300.326C399.619 306.392 403.624 315.547 411.634 328.816C429.509 319.842 427.456 308.315 427.456 308.315L427.426 308.295C427.127 298.576 420.153 286.914 411.555 281.958C402.787 276.898 395.663 280.763 395.663 290.607ZM404.859 295.907C404.859 291.755 407.858 290.128 411.565 292.262C415.271 294.395 418.27 299.494 418.27 303.646C418.27 307.798 415.271 309.424 411.565 307.291C407.858 305.158 404.859 300.059 404.859 295.907Z" fill="#6180A3"/>
<path opacity="0.72" d="M274.769 193.897C273.992 194.347 263.182 200.986 263.182 200.986L271.929 203.808C271.929 203.808 294.476 211.863 298.86 211.146C303.244 210.428 289.036 234.316 289.923 237.301C290.81 240.286 283.019 243.156 285.549 249.126C288.08 255.095 288.488 267.235 292.245 267.044C296.011 266.843 296.32 258.204 296.051 254.148C295.782 250.092 304.49 226.443 305.735 220.464C306.98 214.494 313.447 212.562 311.703 223.315C309.959 234.068 308.315 238.612 312.002 239.569C315.688 240.525 324.755 249.604 327.316 247.93C329.876 246.256 329.986 240.047 327.316 238.612C324.645 237.177 317.442 228.634 317.87 222.425C318.299 216.216 323.41 197.58 321.577 194.318C319.743 191.046 322.404 186.78 311.464 184.388C300.524 181.996 293.271 181.279 288.06 184.388C282.849 187.497 273.653 194.318 273.653 194.318" fill="#C3D7F4"/>
<path d="M158.915 474.842L134.854 460.979C126.245 456.024 126.245 447.911 134.854 442.956C143.462 438 157.54 438 166.138 442.956L190.2 456.818C198.808 461.774 198.808 469.886 190.2 474.842C181.592 479.797 167.513 479.797 158.915 474.842Z" fill="#D7E9FF"/>
<path d="M180.784 447.127C181.282 447.127 181.75 446.993 182.179 446.725C183.255 446.055 183.872 444.63 183.872 442.822V365.839C183.872 362.787 182.189 359.343 180.026 358.004L173.839 354.139C172.703 353.421 171.548 353.364 170.591 353.957C169.515 354.627 168.897 356.052 168.897 357.86V434.843C168.897 437.895 170.591 441.339 172.743 442.678L178.93 446.543C179.558 446.936 180.186 447.127 180.784 447.127ZM171.996 355.928C172.275 355.928 172.564 356.081 172.743 356.196L178.93 360.061C180.395 360.979 181.68 363.677 181.68 365.849V442.832C181.68 443.922 181.372 444.506 181.083 444.687C180.754 444.888 180.276 444.659 180.026 444.506L173.839 440.641C172.375 439.732 171.089 437.025 171.089 434.853V357.87C171.089 356.779 171.398 356.196 171.687 356.014C171.777 355.957 171.886 355.928 171.996 355.928Z" fill="#F2F4F7"/>
<path d="M181.601 457.65C182.577 456.722 183.613 456.435 184.311 456.799L186.423 457.966L182.657 464.06C182.657 464.06 180.604 462.922 180.555 462.883H180.545C180.335 462.73 180.156 462.52 180.037 462.223C179.548 460.999 180.246 458.951 181.601 457.65Z" fill="#30397A"/>
<path d="M182.079 463.352C182.577 464.586 184.061 464.529 185.426 463.228C186.781 461.936 187.479 459.879 186.99 458.664C186.492 457.43 185.008 457.488 183.643 458.789C182.288 460.08 181.59 462.127 182.079 463.352Z" fill="#222949"/>
<path d="M183.364 462.367C183.673 462.826 184.351 462.749 184.988 462.147C185.676 461.487 186.034 460.444 185.785 459.822C185.676 459.535 185.447 459.382 185.168 459.363C185.198 459.411 185.217 459.468 185.247 459.516C185.496 460.147 185.148 461.19 184.45 461.85C184.082 462.204 183.693 462.386 183.364 462.367Z" fill="#30397A"/>
<path d="M183.284 462.204C183.304 462.261 183.334 462.309 183.374 462.357C183.693 462.376 184.091 462.204 184.46 461.84C185.148 461.18 185.506 460.138 185.257 459.506C185.227 459.458 185.207 459.401 185.177 459.353C184.859 459.334 184.45 459.506 184.081 459.86C183.384 460.53 183.025 461.582 183.284 462.204Z" fill="#99BCE6"/>
<path d="M166.995 466.069C167.972 465.141 169.008 464.854 169.705 465.218L171.818 466.385L168.051 472.479C168.051 472.479 165.999 471.34 165.949 471.302H165.939C165.73 471.149 165.551 470.938 165.431 470.642C164.943 469.417 165.64 467.37 166.995 466.069Z" fill="#30397A"/>
<path d="M167.463 471.771C167.962 473.005 169.446 472.947 170.811 471.646C172.166 470.355 172.863 468.298 172.375 467.083C171.877 465.849 170.393 465.906 169.028 467.207C167.673 468.499 166.975 470.546 167.463 471.771Z" fill="#222949"/>
<path d="M168.759 470.776C169.068 471.235 169.745 471.158 170.383 470.556C171.07 469.896 171.429 468.853 171.18 468.231C171.07 467.944 170.841 467.791 170.562 467.772C170.592 467.82 170.612 467.877 170.642 467.925C170.891 468.556 170.542 469.599 169.845 470.259C169.476 470.623 169.078 470.804 168.759 470.776Z" fill="#30397A"/>
<path d="M168.669 470.623C168.689 470.68 168.719 470.728 168.759 470.776C169.078 470.795 169.476 470.623 169.845 470.259C170.532 469.599 170.891 468.556 170.642 467.925C170.612 467.877 170.592 467.82 170.562 467.772C170.243 467.753 169.835 467.925 169.466 468.279C168.779 468.948 168.42 470.001 168.669 470.623Z" fill="#99BCE6"/>
<path d="M143.472 452.484C144.448 451.556 145.485 451.269 146.182 451.633L148.294 452.8L144.528 458.894C144.528 458.894 142.476 457.756 142.426 457.717H142.416C142.207 457.564 142.027 457.354 141.908 457.057C141.419 455.833 142.117 453.785 143.472 452.484Z" fill="#30397A"/>
<path d="M143.95 458.186C144.448 459.42 145.932 459.363 147.297 458.062C148.652 456.77 149.35 454.713 148.862 453.498C148.363 452.264 146.879 452.322 145.514 453.623C144.159 454.914 143.461 456.961 143.95 458.186Z" fill="#222949"/>
<path d="M145.234 457.201C145.543 457.66 146.221 457.583 146.858 456.981C147.546 456.321 147.905 455.278 147.655 454.656C147.546 454.369 147.317 454.216 147.038 454.197C147.068 454.245 147.088 454.302 147.117 454.35C147.367 454.981 147.018 456.024 146.32 456.684C145.952 457.038 145.563 457.22 145.234 457.201Z" fill="#30397A"/>
<path d="M145.146 457.038C145.165 457.095 145.195 457.143 145.235 457.191C145.554 457.21 145.953 457.038 146.321 456.674C147.009 456.014 147.367 454.972 147.118 454.34C147.088 454.292 147.068 454.235 147.039 454.187C146.72 454.168 146.311 454.34 145.943 454.694C145.255 455.364 144.896 456.416 145.146 457.038Z" fill="#99BCE6"/>
<path d="M186.832 402.881L165.062 389.823C163.398 388.818 161.545 388.856 160.011 389.593V389.555L143.631 399.294L156.812 409.721V441.731C156.812 443.788 157.868 445.692 159.582 446.725L170.352 453.183L170.532 468.709L186.075 460.147C188.067 459.334 189.592 457.344 189.592 454.79V407.875C189.602 405.809 188.546 403.914 186.832 402.881Z" fill="#C12B9E"/>
<path d="M140.413 404.469V450.868C140.413 452.905 141.469 454.79 143.183 455.804L164.953 468.7C168.629 470.871 173.202 468.135 173.202 463.763V417.384C173.202 415.347 172.146 413.462 170.433 412.448L148.663 399.533C144.996 397.352 140.413 400.097 140.413 404.469Z" fill="#F63598"/>
<path d="M183.604 457.889V411.166C183.604 409.109 182.548 407.215 180.834 406.191L159.064 393.18C157.689 392.358 156.185 392.233 154.84 392.626C156.514 391.076 159.044 390.578 161.256 391.899L183.026 404.909C184.74 405.933 185.796 407.827 185.796 409.884V456.608C185.796 459.363 183.893 461.936 181.651 462.596C182.747 461.573 183.604 459.64 183.604 457.889Z" fill="#0D1884"/>
<path d="M181.681 359.554C181.681 359.554 179.608 360.539 179.927 360.979C180.246 361.41 180.784 362.347 180.784 362.347C180.784 362.347 179.628 363.332 177.865 361.544C175.673 359.324 171.797 358.587 171.219 356.674C170.691 354.914 171.518 352.474 173.491 352.474C175.464 352.474 180.744 354.694 182.657 357.602C183.624 359.066 182.279 360.405 182.279 360.405L181.681 359.554Z" fill="#0D1884"/>
<path d="M157.479 401.561L165.45 406.316C166.606 407.004 168.628 406.918 169.963 406.124C171.289 405.33 171.438 404.125 170.292 403.436L162.322 398.681C161.166 397.993 159.143 398.079 157.808 398.873C156.473 399.667 156.324 400.882 157.479 401.561Z" fill="#0D1884"/>
<path d="M167.593 410.754V469.446C168.37 469.456 169.137 469.312 169.844 468.996V412.084L167.593 410.754Z" fill="#C12B9E"/>
<path d="M163.647 466.423V408.42L161.396 407.081V466.413C161.396 466.48 161.425 466.547 161.435 466.614L162.82 467.437C163.298 467.313 163.647 466.911 163.647 466.423Z" fill="#C12B9E"/>
<path d="M142.814 399.782V455.517C142.944 455.603 143.044 455.727 143.183 455.804L145.066 456.923V398.844C144.259 398.978 143.492 399.303 142.814 399.782Z" fill="#C12B9E"/>
<path d="M155.209 403.407V462.931L157.461 464.261V404.747L155.209 403.407Z" fill="#C12B9E"/>
<path d="M149.011 399.734V459.257L151.262 460.587V401.073L149.011 399.734Z" fill="#C12B9E"/>
<path d="M291.537 241.358C291.537 241.358 287.581 246.236 288.129 248.418C288.677 250.599 292.404 259.859 293.111 262.835C293.818 265.81 298.162 267.637 299.208 266.786C300.255 265.934 302.417 264.872 300.255 253.88C300.255 253.88 298.85 247.031 299.298 244.61C299.737 242.209 291.537 241.358 291.537 241.358Z" fill="#0863EF"/>
<path d="M300.245 253.88C300.245 253.88 298.84 247.031 299.288 244.61C299.527 243.347 297.385 242.515 295.293 242.008C296.957 242.525 298.362 243.271 298.162 244.304C297.714 246.715 299.119 253.574 299.119 253.574C301.281 264.566 299.119 265.619 298.073 266.48C297.834 266.68 297.395 266.719 296.877 266.652C297.873 267.044 298.79 267.121 299.199 266.786C300.245 265.934 302.407 264.872 300.245 253.88Z" fill="#99BCE6"/>
<path d="M313.516 223.984C313.516 223.984 311.175 229.753 311.802 231.226C312.54 232.958 318.488 234.173 319.394 235.656C320.301 237.148 327.235 242.553 331.609 242.391C335.983 242.228 332.048 236.459 329.766 235.187C327.484 233.915 320.6 228.663 320.351 225.812C320.102 222.97 313.516 223.984 313.516 223.984Z" fill="#0863EF"/>
<path d="M320.052 226.902C320.301 229.753 327.186 234.996 329.467 236.278C330.972 237.119 333.184 239.913 333.263 241.759C334.539 240.2 331.609 236.22 329.756 235.187C327.475 233.915 320.59 228.663 320.341 225.812C320.102 222.97 319.803 224.051 320.052 226.902Z" fill="#99BCE6"/>
<path d="M294.017 188.999L314.562 191.63C314.562 191.63 312.948 221.028 312.689 223.009C312.43 224.989 321.705 227.955 321.705 227.955C321.705 227.955 327.913 190.951 324.824 185.507C321.735 180.064 299.039 170.842 296.986 171.329C294.924 171.827 286.794 174.152 286.794 174.152L294.017 188.999Z" fill="#F2F4F7"/>
<path d="M316.255 220.617C316.514 218.637 318.128 189.238 318.128 189.238C318.128 189.238 310.437 188.75 308.025 187.947C300.473 185.421 291.656 181.968 288.876 176.247L294.027 188.999L314.571 191.63C314.571 191.63 312.957 221.028 312.698 223.009C312.439 224.989 321.715 227.955 321.715 227.955C321.715 227.955 321.934 226.644 322.273 224.482C319.583 223.449 316.096 221.841 316.255 220.617Z" fill="#B6D1FE"/>
<path d="M274.21 175.921C274.21 175.921 267.634 187.363 274.21 194.787C280.785 202.211 301.4 205.588 301.38 206.697C301.27 210.754 292.751 237.024 291.566 239.329C290.569 241.271 295.332 245.146 298.859 245.146C302.386 245.146 313.495 205.301 313.107 202.699C312.718 200.096 293.309 178.189 289.683 177.452C286.066 176.706 274.21 175.921 274.21 175.921Z" fill="#F2F4F7"/>
<path d="M296.189 236.928C297.374 234.623 305.893 208.362 306.003 204.296C306.033 203.186 285.408 199.809 278.833 192.386C274.399 187.382 275.943 180.552 277.428 176.629C275.525 176.208 274.21 175.912 274.21 175.912C274.21 175.912 267.634 187.354 274.21 194.777C280.785 202.201 301.4 205.578 301.38 206.688C301.27 210.744 292.751 237.014 291.566 239.32C290.569 241.262 295.332 245.136 298.859 245.136C299.437 245.136 300.214 244.055 301.121 242.257C298.181 241.166 295.402 238.459 296.189 236.928Z" fill="#B6D1FE"/>
<path d="M307.198 147.997C307.198 147.997 321.954 156.253 324.026 157.382C324.494 157.64 324.903 157.88 325.242 158.119C326.547 158.214 330.891 158.788 333.013 162.232C335.514 166.308 336.959 169.293 336.959 169.293L334.697 168.403C334.697 168.403 331.499 164.729 329.187 163.696C326.876 162.663 330.104 166.844 329.526 166.853C328.948 166.853 322.103 161.611 322.103 161.611C321.725 161.017 309.091 157.047 304.936 154.063C300.323 150.743 299.317 150.025 297.892 146.935C296.478 143.855 294.017 128.615 294.017 128.615C294.306 128.711 300.094 129.361 307.198 147.997Z" fill="#FCB892"/>
<path d="M328.56 163.523C328.231 162.758 328.181 162.203 329.188 162.662C331.499 163.695 334.697 167.369 334.697 167.369L336.301 168C336.72 168.804 336.949 169.282 336.949 169.282L334.687 168.393C334.687 168.393 331.489 164.719 329.178 163.686C328.889 163.552 328.69 163.504 328.56 163.523Z" fill="#DB895D"/>
<path d="M297.902 145.901C299.317 148.982 300.323 149.709 304.946 153.028C309.101 156.013 321.735 159.993 322.113 160.577C322.113 160.577 327.473 164.681 329.097 165.618C329.446 166.278 329.735 166.833 329.526 166.833C328.948 166.833 322.103 161.591 322.103 161.591C321.725 160.997 309.091 157.027 304.936 154.043C300.323 150.723 299.317 150.005 297.892 146.915C296.478 143.835 294.017 128.595 294.017 128.595C294.037 128.605 294.096 128.614 294.196 128.643C294.784 132.125 296.707 143.309 297.902 145.901Z" fill="#DB895D"/>
<path d="M255.738 165.762C255.778 165.159 257.631 147.738 262.733 138.707C262.972 138.286 265.104 137.808 266.08 138.277C266.24 138.353 268.84 139.138 271.002 139.913C272.636 140.496 273.343 142.333 272.516 143.806L267.346 152.895L265.024 162.241L257.98 168.775C255.748 168.354 255.688 166.412 255.738 165.762Z" fill="#FCB892"/>
<path d="M257.113 165.762C257.153 165.159 259.006 147.738 264.107 138.707C264.237 138.478 264.904 138.248 265.652 138.143C264.586 137.932 262.942 138.344 262.733 138.707C257.621 147.738 255.778 165.159 255.738 165.762C255.688 166.412 255.748 168.354 257.98 168.775L258.379 168.412C257.123 167.694 257.073 166.297 257.113 165.762Z" fill="#DB895D"/>
<path d="M262.812 139.606C263.27 138.468 267.634 138.353 268.102 142.113C268.57 145.873 267.823 150.302 267.933 151.67C268.032 153.038 267.544 154.712 267.544 154.712C267.544 154.712 270.055 152.32 270.523 149.364C270.991 146.408 270.025 138.879 270.025 138.879L266.05 137.176L262.812 139.606Z" fill="#DB895D"/>
<path d="M294.645 128.012L295.063 127.849C295.063 127.849 294.664 127.38 294.645 128.012Z" fill="#4E87EE"/>
<path d="M274.389 174.037C271.659 182.589 296.916 178.992 298.56 172.717C298.918 171.33 298.46 169.981 298.351 170.449C297.025 176.132 276.631 179.519 274.389 174.037Z" fill="#B6D1FE"/>
<path d="M297.933 140.802C299.148 144.084 299.736 146.332 299.925 147.977C300.204 146.313 299.806 143.663 297.933 138.64C295.203 131.312 294.625 128.796 294.645 128.012L288.866 130.298C288.866 130.298 289.145 131.13 289.414 132.25L294.645 130.183C294.625 130.968 295.203 133.474 297.933 140.802Z" fill="#4E87EE"/>
<path d="M288.607 140.333C289.862 139.97 290.002 138.248 289.803 136.507C289.663 137.33 289.314 137.961 288.607 138.162C283.745 139.578 283.536 140.2 274.708 131.092L262.842 138.592C262.842 138.592 264.675 137.636 266.638 138.43L274.718 133.254C283.546 142.381 283.755 141.749 288.607 140.333Z" fill="#4E87EE"/>
<path d="M273.702 171.31C273.643 171.779 273.543 172.248 273.403 172.698C273.134 173.549 273.154 174.266 273.403 174.869C273.762 173.74 273.822 172.535 273.702 171.31Z" fill="#4E87EE"/>
<path d="M269.975 145.442C269.706 148.226 268.272 150.981 267.345 152.895C267.156 153.287 267.225 153.899 267.554 154.722C268.949 152.435 270.344 148.628 269.975 145.442Z" fill="#4E87EE"/>
<path d="M285.02 162.806C286.923 160.672 296.518 157.152 296.518 157.152L296.528 157.104C296.199 161.017 298.481 164.614 298.859 168.775C299.328 163.657 296.139 159.515 296.528 154.942L296.518 154.99C296.518 154.99 286.923 158.51 285.02 160.643C284.861 160.825 284.741 160.806 284.642 160.71C284.283 162.002 284.443 163.447 285.02 162.806Z" fill="#4E87EE"/>
<path d="M285.32 157.18C286.445 156.004 297.246 152.273 297.246 152.273L297.236 152.301C298.142 150.599 299.567 150.082 299.916 147.977C299.727 146.332 299.149 144.084 297.923 140.802C295.193 133.474 294.615 130.958 294.635 130.174L289.404 132.24C289.713 133.551 290.002 135.244 289.783 136.507C289.982 138.248 289.843 139.97 288.588 140.333C283.725 141.749 283.516 142.371 274.689 133.264L266.608 138.439C267.336 138.736 268.093 139.272 268.8 140.209C269.876 141.625 270.135 143.51 269.946 145.442C270.315 148.628 268.92 152.426 267.525 154.722C268.94 158.252 274.43 165.398 273.672 171.31C273.792 172.535 273.732 173.731 273.374 174.869C275.615 180.351 297.056 176.199 298.531 170.535C298.69 169.933 298.78 169.34 298.83 168.756C298.451 164.595 296.17 160.997 296.498 157.085L296.488 157.133C296.488 157.133 286.894 160.653 284.991 162.786C284.423 163.427 284.253 161.983 284.612 160.682C284.263 160.299 284.423 158.118 285.32 157.18Z" fill="#4E87EE"/>
<path d="M285.319 157.18C284.193 158.357 284.213 161.533 285.01 160.644C286.913 158.51 296.508 154.99 296.508 154.99L296.518 154.942C296.538 154.674 296.568 154.397 296.617 154.119C296.757 153.373 296.976 152.799 297.235 152.311L297.245 152.282C297.245 152.273 286.445 155.994 285.319 157.18Z" fill="#0552DE"/>
<path d="M289.524 137.196C290.481 137.138 291.497 136.803 292.902 136.392C295.422 135.655 293.45 129.408 293.191 128.605L288.747 130.365C288.747 130.355 290.351 135.005 289.524 137.196Z" fill="#0552DE"/>
<path d="M277.448 171.004C279.84 163.542 270.036 153.287 271.391 151.201C273.334 148.197 275.486 141.969 272.865 138.516C270.245 135.062 266.977 136.947 266.977 136.947L274.928 131.857C274.728 131.657 274.549 131.465 274.34 131.255L262.812 138.602C262.802 138.611 262.802 138.631 262.822 138.621C263.669 138.277 266.299 137.521 268.451 140.353C271.072 143.806 268.94 149.852 267.336 152.894C266.17 155.095 275.426 165.389 273.035 172.851C270.833 179.739 287.382 178.208 294.794 174.085C286.734 176.639 275.625 176.725 277.448 171.004Z" fill="#0552DE"/>
<path d="M296.359 159.323C297.524 157.247 297.813 157.152 298.501 156.702C299.188 156.243 303.433 155.64 305.196 155.497C307.268 155.334 308.006 155.698 307.428 157.4C306.192 161.064 302.456 168.833 301.619 169.904C301.071 170.602 300.962 171.262 298.63 171.483C296.458 171.683 293.728 171.798 292.921 171.846C292.114 171.894 291.008 172.085 291.726 169.818C292.443 167.551 294.147 163.867 294.904 162.279C295.811 160.414 296.359 159.323 296.359 159.323Z" fill="#0D1884"/>
<path d="M265.025 162.241C265.025 162.241 283.835 164.154 286.266 163.427C288.697 162.7 291.975 160.366 293.739 159.4C295.502 158.434 296.758 158.348 296.758 158.759C296.758 159.161 293.52 162.203 293.171 163.112C292.832 164.021 296.529 163.198 299.109 162.624C301.69 162.05 303.702 159.275 304.37 160.127C305.037 160.969 301.959 166.412 297.684 167.943C293.4 169.474 290.232 168.459 286.695 168.603C283.158 168.746 262.892 170.268 257.98 168.775C257.98 168.775 257.413 166.565 259.674 164.757C261.946 162.959 265.025 162.241 265.025 162.241Z" fill="#FCB892"/>
<path d="M293.17 163.112C294.116 161.868 296.757 159.094 296.757 158.759C296.757 158.596 296.557 158.52 296.209 158.539C295.272 159.61 293.429 161.447 293.18 162.126C293.09 162.337 292.861 163.064 293.17 163.112Z" fill="#DB895D"/>
<path d="M304.349 160.108C303.781 161.973 301.121 165.723 297.684 166.958C293.399 168.488 290.231 167.474 286.694 167.618C283.157 167.761 262.682 169.407 257.771 167.924L257.98 168.785C262.892 170.268 283.157 168.746 286.694 168.613C290.231 168.469 293.399 169.483 297.684 167.952C301.968 166.422 305.046 160.978 304.369 160.136C304.359 160.117 304.349 160.108 304.349 160.108Z" fill="#DB895D"/>
<path d="M289.474 128.586L291.587 137.444L283.745 140.745L276.432 134.287L275.067 126.691L280.776 123.276L289.474 128.586Z" fill="#DB895D"/>
<path d="M295.949 112.246C296.507 119.488 298.351 121.899 298.221 125.046C298.092 128.213 295.113 130.843 295.113 130.843C295.113 130.843 294.315 127.619 293.289 127.227C292.153 126.797 289.832 116.225 289.832 116.225L293.588 112.246C293.578 112.246 296.109 110.505 295.949 112.246Z" fill="#F9339C"/>
<path d="M283.297 131.991C283.785 132.623 284.214 133.12 284.463 133.283C284.363 132.125 284.423 130.652 284.582 129.026C284.194 128.796 283.825 128.566 283.477 128.327C283.327 129.676 283.257 130.929 283.297 131.991Z" fill="#C67754"/>
<path d="M295.463 113.279C295.523 112.121 295.463 110.639 295.463 110.639L292.892 108.744L285.191 105.989L280.159 114.283L280.398 125.811C280.398 125.811 281.624 127.074 283.477 128.327C284.164 121.841 286.605 113.03 287.871 112.007C289.445 110.715 291.318 109.624 293.291 109.921C293.53 109.959 293.769 110.16 293.998 110.438C292.175 110.342 290.461 111.346 288.997 112.552C287.731 113.585 285.25 122.52 284.583 129.026C286.765 130.308 289.515 131.341 292.145 130.604C295.184 129.743 295.901 120.588 295.463 113.279Z" fill="#FCB892"/>
<path d="M293.998 110.438C293.769 110.16 293.53 109.959 293.29 109.921C291.318 109.624 289.445 110.705 287.87 112.007C286.615 113.03 284.164 121.841 283.477 128.327C283.825 128.566 284.194 128.796 284.582 129.026C285.25 122.52 287.731 113.585 288.996 112.552C290.461 111.346 292.175 110.332 293.998 110.438Z" fill="#DB895D"/>
<path d="M282.989 143.031C283.866 143.797 284.453 144.265 284.453 144.265C284.453 144.265 283.437 142.275 282.381 139.539C281.066 136.143 279.691 131.609 280.1 128.308C279.671 127.533 279.342 126.835 279.263 126.376C277.629 131.197 281.763 140.458 282.989 143.031Z" fill="#DB895D"/>
<path d="M272.038 135.081C272.506 135.971 272.825 136.526 272.825 136.526C272.825 136.526 273.423 134.766 274.031 133.876C273.831 133.512 273.662 133.168 273.533 132.824C273.054 132.738 272.417 134.115 272.038 135.081Z" fill="#0552DE"/>
<path d="M295.463 113.279C295.463 113.279 294.337 110.084 293.291 109.922C291.318 109.625 289.445 110.706 287.871 112.007C286.286 113.299 282.809 126.921 283.327 132.738C282.471 132.174 279.521 127.897 279.262 126.376C277.349 132.001 283.327 143.73 283.327 143.73C283.327 143.73 275.108 137.129 273.533 132.834C272.816 132.7 271.69 135.991 271.69 135.991C271.69 135.991 267.316 128.519 267.227 123.286C267.117 117.001 268.681 97.4083 284.722 100.843C288.299 101.608 294.108 106.162 295.652 109.95C296.419 111.787 295.463 113.279 295.463 113.279Z" fill="#F9339C"/>
<path d="M267.235 123.391C267.415 115.977 269.806 99.2638 284.731 102.459C288.308 103.224 294.117 107.778 295.661 111.567C295.751 111.787 295.81 112.007 295.86 112.217C295.99 111.624 296.02 110.83 295.661 109.94C294.117 106.161 288.298 101.598 284.731 100.833C268.68 97.3983 267.126 116.991 267.235 123.276C267.226 123.314 267.235 123.353 267.235 123.391Z" fill="#F969C2"/>
<path d="M282.101 142.696C282.848 143.337 283.326 143.72 283.326 143.72C283.326 143.72 279.331 135.875 278.922 129.934C278.673 133.962 280.706 139.472 282.101 142.696Z" fill="#F969C2"/>
<path d="M280.995 138.324L282.38 139.539L284.452 144.265C284.452 144.265 283.067 143.165 282.988 143.031C282.36 141.95 280.995 138.324 280.995 138.324Z" fill="#0552DE"/>
<path d="M536.173 500.236C552.726 494.291 563.247 482.03 559.672 472.851C556.096 463.671 539.778 461.049 523.224 466.994C506.67 472.939 496.15 485.199 499.725 494.379C503.301 503.559 519.619 506.181 536.173 500.236Z" fill="#D7E9FF"/>
<path d="M580.343 376.697L562.499 394.128L567.291 402.384L585.136 386.752L580.343 376.697Z" fill="#0D1884"/>
<path d="M584.398 380.696L561.233 390.808L562.618 400.164L585.106 391.726L584.398 380.696Z" fill="#4E87EE"/>
<path d="M566.734 388.407C565.937 387.699 566.614 385.996 566.843 384.331C566.664 383.958 566.535 383.566 566.475 383.145C566.315 381.959 567.113 380.696 567.172 379.682L572.323 380.151C572.473 380.39 574.455 384.666 574.615 387.995C574.705 389.832 573.987 393.917 570.131 395.974C566.694 397.801 571.845 391.755 569.006 387.211L566.734 388.407Z" fill="#FCB892"/>
<path d="M569.165 387.488L569.782 386.704C572.612 391.258 567.471 397.294 570.908 395.467C570.968 395.429 571.028 395.39 571.088 395.362C570.789 395.572 570.48 395.783 570.131 395.964C566.764 397.753 571.626 392.004 569.165 387.488Z" fill="#DB895D"/>
<path d="M567.172 379.682L567.86 379.739C567.64 380.639 567.132 381.672 567.262 382.648C567.322 383.078 567.451 383.461 567.63 383.834C567.421 385.345 566.863 387.077 567.431 388.043L566.744 388.407C565.947 387.699 566.624 385.996 566.853 384.331C566.674 383.958 566.544 383.566 566.485 383.145C566.315 381.968 567.102 380.696 567.172 379.682Z" fill="#DB895D"/>
<path d="M546.558 327.917C543.539 324.348 534.213 325.965 534.243 331.418C534.253 333.264 534.532 335.35 536.316 337.512C541.845 344.218 551.699 358.568 552.347 360.233C552.994 361.907 565.697 383.815 565.697 383.815C565.697 383.815 573.598 383.805 574.146 382.351C574.694 380.897 565.568 360.3 563.954 356.655C562.868 354.187 556.372 339.55 546.558 327.917Z" fill="#F8FBFF"/>
<path d="M538.856 326.386C537.651 327.295 536.844 328.567 536.854 330.165C536.864 332.021 537.142 334.097 538.926 336.259C544.456 342.965 554.309 357.315 554.957 358.98C555.604 360.654 568.308 382.562 568.308 382.562C568.308 382.562 571.685 382.552 574.176 382.141C574.176 382.227 574.176 382.294 574.156 382.342C573.608 383.796 565.707 383.805 565.707 383.805C565.707 383.805 553.004 361.888 552.356 360.223C551.709 358.549 541.855 344.209 536.325 337.503C534.552 335.35 534.263 333.264 534.253 331.409C534.233 328.826 536.325 327.104 538.856 326.386Z" fill="#B6D1FE"/>
<path d="M549.217 331.236C549.217 331.236 550.084 333.705 550.084 338.182C550.084 343.118 549.217 351.939 549.217 351.939L545.461 350.035L546.547 327.907L549.217 331.236Z" fill="#B6D1FE"/>
<path d="M551.539 476.803C551.539 476.803 552.176 481.538 552.176 483.241C552.176 484.954 551.379 487.374 546.836 486.905C542.004 486.408 538.985 482.399 536.424 481.385C533.784 480.342 528.703 476.535 528.025 474.143C527.348 471.752 531.971 471.675 534.252 472.373C536.474 473.053 538.666 473.426 542.322 475.052L551.539 476.803Z" fill="#0863EF"/>
<path d="M551.538 477.31L542.312 475.55C538.655 473.923 536.463 473.55 534.242 472.871C532.209 472.249 528.333 472.249 527.985 473.942C527.626 471.752 532.03 471.694 534.242 472.373C536.463 473.053 538.655 473.426 542.312 475.052L551.538 476.812C551.538 476.812 552.175 481.548 552.175 483.251C552.175 483.327 552.175 483.394 552.166 483.471C552.106 481.577 551.538 477.31 551.538 477.31Z" fill="#99BCE6"/>
<path d="M546.856 393.726C546.856 393.726 547.325 416.667 546.856 426.865C546.388 437.053 548.211 436.9 550.274 447.223C552.336 457.545 553.482 475.607 553.482 475.607C553.482 475.607 554.08 479.596 547.464 480.342C540.848 481.089 538.318 475.607 538.318 475.607C538.318 475.607 538.128 464.825 535.01 452.322C531.891 439.818 531.015 434.04 529.998 427.764C528.982 421.498 526.691 419.259 525.505 402.537L546.856 393.726Z" fill="#4E87EE"/>
<path d="M544.604 480.104C551.219 479.358 550.622 475.368 550.622 475.368C550.622 475.368 549.486 457.306 547.413 446.984C545.351 436.661 543.528 436.815 543.996 426.626C544.395 417.959 544.116 400.059 544.026 394.912L546.865 393.736C546.865 393.736 547.334 416.677 546.865 426.875C546.397 437.063 548.22 436.91 550.283 447.233C552.345 457.555 553.491 475.617 553.491 475.617C553.491 475.617 554.089 479.606 547.473 480.352C546.148 480.505 544.992 480.391 543.986 480.142C544.185 480.123 544.385 480.123 544.604 480.104Z" fill="#0552DE"/>
<path d="M530.008 488.292C530.008 488.292 530.197 493.152 530.008 494.865C529.819 496.577 528.613 498.892 523.601 498.002C518.6 497.113 515.91 493.2 513.499 492.129C511.088 491.057 506.734 487.498 506.265 485.365C505.797 483.232 509.125 482.179 511.167 482.801C513.21 483.423 517.285 483.777 520.901 485.384L530.008 488.292Z" fill="#0863EF"/>
<path d="M511.167 482.801C513.21 483.423 517.285 483.777 520.901 485.384L530.008 488.292C530.008 488.292 530.018 488.551 530.028 488.962L521.16 486.13C517.544 484.533 513.469 484.169 511.426 483.547C509.414 482.935 506.166 483.949 506.524 486.025C506.415 485.795 506.315 485.566 506.275 485.365C505.807 483.232 509.125 482.179 511.167 482.801Z" fill="#99BCE6"/>
<path d="M513.011 397.132C513.011 397.132 513.29 414.246 514.744 435.896C516.239 457.976 518.142 485.374 518.142 485.374C518.142 485.374 518.959 489.192 524.538 489.192C530.118 489.192 531.204 488.694 531.831 486.963C534.203 480.4 532.509 467.571 532.32 459.162C532.12 450.753 530.586 446.696 530.088 439.617C529.59 432.528 533.844 421.402 534.81 409.865C534.81 409.865 549.068 404.067 546.557 390.358L513.011 397.132Z" fill="#4E87EE"/>
<path d="M521.938 487.948C527.518 487.948 528.604 487.451 529.232 485.719C531.603 479.157 529.909 466.328 529.72 457.919C529.521 449.51 527.986 445.453 527.488 438.374C526.99 431.295 531.244 420.159 532.211 408.622C532.211 408.622 545.253 403.312 544.177 390.847L546.558 390.368C549.069 404.077 534.811 409.875 534.811 409.875C533.835 421.403 529.59 432.538 530.088 439.627C530.587 446.716 532.121 450.763 532.32 459.172C532.519 467.581 534.203 480.4 531.832 486.973C531.204 488.704 530.128 489.202 524.539 489.202C522.148 489.202 520.633 488.503 519.677 487.7C520.334 487.853 521.072 487.948 521.938 487.948Z" fill="#0552DE"/>
<path d="M513.011 386.025C511.576 392.052 513.011 403.312 513.011 403.312C524.289 406.344 532.628 405.617 539.682 403.847C547.573 401.858 546.976 397.361 546.976 397.361C545.451 386.34 514.445 379.998 513.011 386.025Z" fill="#0552DE"/>
<path d="M546.906 359.372C548.41 344.477 547.633 331.275 544.017 327.917C540.4 324.568 535.847 326.53 535.847 326.53L514.286 332.365C514.286 332.365 514.645 357.392 514.645 365.59C514.645 373.789 514.435 377.998 513.011 384.025C511.576 390.052 511.915 401.025 511.915 401.025C523.193 404.058 532.628 403.618 539.682 401.848C547.573 399.858 548.291 395.505 548.291 395.505C546.766 384.484 545.401 374.267 546.906 359.372Z" fill="#F8FBFF"/>
<path d="M513.011 384.025C514.446 377.998 514.645 373.789 514.645 365.591C514.645 357.392 514.286 332.365 514.286 332.365L535.847 326.53C535.847 326.53 538.666 325.324 541.636 326.434L514.286 332.365C514.286 332.365 520.513 355.823 520.513 364.022C520.513 372.22 521.729 377.501 520.294 383.528C518.859 389.555 519.198 400.528 519.198 400.528C525.017 402.097 530.337 402.728 535.1 402.738C528.723 403.656 520.902 403.446 511.905 401.025C511.915 401.025 511.586 390.052 513.011 384.025Z" fill="#B6D1FE"/>
<path d="M461.272 315.834C461.282 316.877 463.643 318.589 465.088 319.546C465.257 319.929 465.477 320.282 465.766 320.608C466.573 321.507 468.087 321.794 468.914 322.425L471.993 318.436C471.903 318.168 469.92 313.892 467.459 311.548C466.094 310.247 462.448 308.028 458.283 309.415C454.577 310.649 462.697 311.012 464.321 316.073L461.272 315.834Z" fill="#FCB892"/>
<path d="M465.048 315.863C463.434 310.84 455.443 310.438 458.92 309.233C458.701 309.29 458.492 309.348 458.273 309.415C454.636 310.62 462.368 311.003 464.211 315.796L465.048 315.863Z" fill="#DB895D"/>
<path d="M469.262 321.966C468.405 321.488 467.19 321.172 466.492 320.388C466.204 320.062 465.984 319.709 465.815 319.326C464.49 318.455 462.417 316.944 462.069 315.901L461.262 315.834C461.272 316.877 463.633 318.589 465.078 319.546C465.247 319.929 465.466 320.283 465.755 320.608C466.562 321.507 468.077 321.794 468.904 322.425L469.262 321.966Z" fill="#DB895D"/>
<path d="M467.279 318.733C464.779 320.952 464.171 322.971 464.171 322.971C464.171 322.971 474.284 337.034 475.708 338.88C477.741 341.597 479.196 342.391 482.304 343.673C488.063 346.065 504.682 346.773 504.682 346.773C504.682 346.773 516.02 347.911 519.109 341.052C521.4 336.001 516.528 331.504 511.507 331.648C506.824 331.782 495.804 332.413 490.006 332.403C487.864 332.394 485.801 331.466 484.476 329.849L473.566 318.082C473.566 318.082 472.919 316.685 471.046 316.685C470.029 316.695 468.206 317.9 467.279 318.733Z" fill="#F8FBFF"/>
<path d="M504.682 346.773C504.682 346.773 516.021 347.911 519.109 341.052C519.607 339.961 519.747 338.89 519.647 337.895C516.499 344.639 505.27 343.52 505.27 343.52C505.27 343.52 488.651 342.802 482.893 340.42C479.784 339.138 478.329 338.344 476.297 335.627C475.111 334.078 467.798 323.927 465.477 320.703C464.49 322.014 464.191 322.971 464.191 322.971C464.191 322.971 474.304 337.034 475.729 338.88C477.761 341.597 479.216 342.391 482.325 343.673C488.063 346.055 504.682 346.773 504.682 346.773Z" fill="#B6D1FE"/>
<path d="M517.753 304.555C521.091 299.217 531.054 298.7 535.956 304.258C537.799 306.344 539.294 311.94 537.171 316.054C536.275 317.795 534.989 319.431 533.485 320.866C533.495 320.952 533.525 321.029 533.525 321.115C533.664 324.989 533.306 328.299 532.359 329.447C530.905 331.236 520.453 333.131 520.503 330.978C520.792 329.887 520.901 329.533 521.24 328.366C521.449 327.639 521.738 326.95 522.057 326.281C520.742 326.319 519.506 326.099 518.42 325.582C515.79 324.32 514.415 309.893 517.753 304.555Z" fill="#FCB892"/>
<path d="M532.629 328.204C532.898 327.878 533.118 327.362 533.287 326.721C533.088 327.974 532.789 328.931 532.36 329.457C530.906 331.246 520.454 333.14 520.504 330.988C520.624 330.548 520.703 330.232 520.793 329.935C521.381 331.762 531.225 329.935 532.629 328.204Z" fill="#DB895D"/>
<path d="M533.795 319.871C533.795 319.785 533.765 319.699 533.755 319.622C535.259 318.187 536.545 316.542 537.441 314.81C537.71 314.284 537.92 313.729 538.079 313.165C537.93 314.169 537.651 315.145 537.182 316.064C536.355 317.671 535.18 319.192 533.815 320.55C533.805 320.321 533.805 320.091 533.795 319.871Z" fill="#DB895D"/>
<path d="M518.72 325.343C519.896 325.649 521.022 325.075 522.337 325.037C522.247 325.477 522.237 325.869 522.078 326.29C520.862 326.29 519.218 326.042 518.441 325.592C517.933 325.295 517.823 325.104 518.72 325.343Z" fill="#DB895D"/>
<path d="M515.791 309.08C518.032 311.357 519.208 310.257 520.523 311.73C520.673 311.902 522.087 317.939 522.287 317.853C523.701 317.221 522.914 314.676 525.345 314.246C527.776 313.815 527.378 319.431 527.069 321.67C526.76 323.908 528.484 324.827 530.407 324.578C532.33 324.329 536.973 321.689 538.746 316.705C540.52 311.72 539.314 303.302 529.57 299.915C524.279 298.078 514.416 300.556 513.848 302.718C513.399 304.459 514.216 307.473 515.791 309.08Z" fill="#DB895D"/>
<path d="M515.791 307.827C518.032 310.104 519.208 309.003 520.523 310.477C520.673 310.649 522.087 316.685 522.287 316.599C523.701 315.968 522.914 313.423 525.345 312.993C527.776 312.562 527.378 318.178 527.069 320.416C526.76 322.655 528.484 323.573 530.407 323.325C532.33 323.076 536.973 320.436 538.746 315.451C540.52 310.467 539.314 302.048 529.57 298.662C524.279 296.825 514.416 299.303 513.848 301.465C513.399 303.216 514.216 306.229 515.791 307.827Z" fill="#412424"/>
</svg>
