<svg width="526" height="596" viewBox="0 0 526 596" fill="none" xmlns="http://www.w3.org/2000/svg">
<path d="M34.015 546.367L55.7001 533.589C63.4539 529.021 63.4539 521.541 55.7001 516.974C47.9462 512.406 35.2544 512.406 27.5005 516.974L5.81541 529.752C-1.93847 534.319 -1.93847 541.799 5.81541 546.367C13.5693 550.935 26.2611 550.935 34.015 546.367Z" fill="#D7E9FF"/>
<path d="M209.994 546.514L170.075 522.983C155.796 514.569 155.796 500.807 170.075 492.392C184.343 483.977 207.704 483.977 221.982 492.392L261.902 515.922C276.17 524.337 276.17 538.099 261.902 546.514C247.623 554.928 224.263 554.928 209.994 546.514Z" fill="#D7E9FF"/>
<path d="M87.9848 573.053C105.569 573.053 119.823 564.969 119.823 554.996C119.823 545.024 105.569 536.939 87.9848 536.939C70.4009 536.939 56.1462 545.024 56.1462 554.996C56.1462 564.969 70.4009 573.053 87.9848 573.053Z" fill="#D7E9FF"/>
<path d="M144.076 595.999C160.592 595.999 173.981 588.408 173.981 579.043C173.981 569.678 160.592 562.087 144.076 562.087C127.56 562.087 114.171 569.678 114.171 579.043C114.171 588.408 127.56 595.999 144.076 595.999Z" fill="#D7E9FF"/>
<path d="M348.345 459.299C369.587 459.299 386.807 449.531 386.807 437.482C386.807 425.434 369.587 415.666 348.345 415.666C327.103 415.666 309.883 425.434 309.883 437.482C309.883 449.531 327.103 459.299 348.345 459.299Z" fill="#D7E9FF"/>
<path d="M335.456 437.485L362.396 437.485L362.396 251.425L335.456 251.425L335.456 437.485Z" fill="#ECF4FF"/>
<path d="M362.395 251.422H349.257V437.482H362.395V251.422Z" fill="#C9E0FF"/>
<path d="M350.576 369.502C415.55 369.502 468.223 320.137 468.223 259.243C468.223 198.348 415.55 148.983 350.576 148.983C285.601 148.983 232.929 198.348 232.929 259.243C232.929 320.137 285.601 369.502 350.576 369.502Z" fill="#ECF4FF"/>
<path d="M305.708 337.235C370.684 337.235 423.355 287.866 423.355 226.976C423.355 200.942 413.707 177.032 397.605 158.167C439.17 175.182 468.223 214.022 468.223 259.242C468.223 320.133 415.552 369.501 350.576 369.501C313.383 369.501 280.236 353.305 258.679 328.051C273.087 333.943 288.981 337.235 305.708 337.235Z" fill="#C4DCFF"/>
<path d="M344.915 258.853C400.909 258.853 446.301 216.312 446.301 163.836C446.301 111.359 400.909 68.8184 344.915 68.8184C288.922 68.8184 243.53 111.359 243.53 163.836C243.53 216.312 288.922 258.853 344.915 258.853Z" fill="#ECF4FF"/>
<path d="M306.244 231.046C362.236 231.046 407.629 188.504 407.629 136.029C407.629 113.589 399.31 92.9903 385.439 76.7354C421.253 91.3931 446.3 124.867 446.3 163.834C446.3 216.31 400.907 258.852 344.914 258.852C312.858 258.852 284.301 244.895 265.719 223.128C278.134 228.202 291.827 231.046 306.244 231.046Z" fill="#C4DCFF"/>
<path d="M347.413 145.038C390.143 145.038 424.783 112.571 424.783 72.5193C424.783 32.468 390.143 0 347.413 0C304.682 0 270.042 32.468 270.042 72.5193C270.042 112.571 304.682 145.038 347.413 145.038Z" fill="#ECF4FF"/>
<path d="M317.904 123.816C360.64 123.816 395.275 91.3549 395.275 51.2969C395.275 34.1751 388.929 18.4461 378.339 6.04785C405.676 17.2384 424.783 42.775 424.783 72.519C424.783 112.567 390.138 145.038 347.413 145.038C322.951 145.038 301.157 134.383 286.978 117.778C296.447 121.654 306.898 123.816 317.904 123.816Z" fill="#C4DCFF"/>
<path d="M446.29 533.687C462.674 533.687 475.957 526.156 475.957 516.867C475.957 507.577 462.674 500.047 446.29 500.047C429.905 500.047 416.623 507.577 416.623 516.867C416.623 526.156 429.905 533.687 446.29 533.687Z" fill="#D7E9FF"/>
<path d="M435.658 516.868L456.431 516.868L456.431 331.772L435.658 331.772L435.658 516.868Z" fill="#ECF4FF"/>
<path d="M456.426 331.771H446.291V516.867H456.426V331.771Z" fill="#C9E0FF"/>
<path d="M446.289 422.834C490.312 422.834 526 384.763 526 337.8C526 290.837 490.312 252.766 446.289 252.766C402.267 252.766 366.579 290.837 366.579 337.8C366.579 384.763 402.267 422.834 446.289 422.834Z" fill="#ECF4FF"/>
<path d="M415.889 397.949C459.913 397.949 495.599 359.878 495.599 312.915C495.599 292.842 489.065 274.395 478.148 259.854C506.308 272.973 526 302.932 526 337.799C526 384.762 490.314 422.833 446.29 422.833C421.084 422.833 398.636 410.347 384.021 390.859C393.787 395.407 404.565 397.949 415.889 397.949Z" fill="#C4DCFF"/>
<path d="M228.09 536.872L192.653 516.205V425.59L228.09 446.257V536.872Z" fill="#C1D8F8"/>
<path d="M192.653 425.59V439.108L228.09 459.765V446.257L192.653 425.59Z" fill="#A9C2E0"/>
<path d="M244.441 528.35L228.09 536.872V446.949L244.441 438.427V528.35Z" fill="#A9C2E0"/>
<path d="M289.338 469.778L165.385 396.625C159.604 393.216 154.875 385.785 154.875 380.107V118.235C154.875 112.557 159.604 110.707 165.385 114.116L289.338 187.268C295.119 190.677 299.848 198.108 299.848 203.786V465.658C299.848 471.336 295.119 473.186 289.338 469.778Z" fill="#A9C2E0"/>
<path d="M292.61 474.784L282.883 480.52C278.897 482.867 275.397 480.579 275.397 476.663L275.645 457.38C275.645 453.464 278.907 448.341 282.883 445.994L292.61 440.258C296.596 437.911 299.849 439.186 299.849 443.092V463.398C299.849 467.304 300.374 470.284 292.61 474.784Z" fill="#A9C2E0"/>
<path d="M157.284 147.796L147.557 153.533C143.571 155.88 140.071 153.591 140.071 149.676L140.319 130.392C140.319 126.477 138.326 124.85 147.557 119.007L157.205 113.144C159.307 111.965 164.513 112.189 164.513 116.105V136.411C164.523 140.316 165.058 143.306 157.284 147.796Z" fill="#A9C2E0"/>
<path d="M274.207 479.905L150.254 406.753C144.473 403.344 139.743 395.913 139.743 390.235V128.363C139.743 122.685 144.473 120.835 150.254 124.243L274.207 197.396C279.988 200.805 284.717 208.236 284.717 213.914V475.785C284.717 481.464 279.988 483.324 274.207 479.905Z" fill="#C1D8F8"/>
<path d="M266.246 457.048L158.227 393.294C153.19 390.324 149.075 383.847 149.075 378.899V150.697C149.075 145.749 153.2 144.132 158.227 147.103L266.246 210.857C271.283 213.827 275.398 220.304 275.398 225.251V453.454C275.398 458.412 271.283 460.028 266.246 457.048Z" fill="#F8FBFF"/>
<path d="M258.511 434.852L165.96 380.234C161.647 377.692 158.117 372.141 158.117 367.894V172.377C158.117 168.14 161.647 166.757 165.96 169.299L258.511 223.917C262.824 226.459 266.354 232.011 266.354 236.257V431.775C266.354 436.021 262.824 437.404 258.511 434.852Z" fill="#0D1883"/>
<path d="M244.163 240.767L243.727 269.868L168.409 225.69L168.846 196.599L244.163 240.767Z" fill="#B6D1FE"/>
<path d="M166.615 249.035L237.56 290.535L237.698 280.396L166.753 238.896L166.615 249.035Z" fill="#F9339C"/>
<path d="M192.038 261.053L235.646 286.56L235.705 282.255L192.097 256.748L192.038 261.053Z" fill="#F8FBFF"/>
<path d="M240.038 326.57L165.345 282.49V277.767L240.038 321.847V326.57ZM247.217 326.083L242.626 323.376V328.099L247.217 330.807V326.083ZM232.929 327.642L165.345 287.759V292.483L232.929 332.365V327.642ZM247.217 336.076L242.626 333.368V338.092L247.217 340.799V336.076ZM222.161 331.274L165.345 297.742V302.466L222.161 335.998V331.274ZM247.217 346.059L242.626 343.351V348.075L247.217 350.782V346.059ZM235.973 349.409L165.345 307.725V312.448L235.973 354.133V349.409ZM247.217 356.051L242.626 353.344V358.067L247.217 360.775V356.051ZM228.913 355.233L165.355 317.717V322.441L228.913 359.957V355.233ZM247.217 366.034L242.626 363.327V368.05L247.217 370.758V366.034ZM220.317 360.142L165.355 327.7V332.424L220.317 364.865V360.142ZM247.217 376.027L242.626 373.319V378.043L247.217 380.75V376.027Z" fill="#B6D1FE"/>
<path opacity="0.39" d="M158.415 185.438V221.736L266.047 393.967V348.124L158.415 185.438Z" fill="#F0F1F2"/>
<path opacity="0.38" d="M158.415 235.518V249.562L266.047 421.792V406.151L158.415 235.518Z" fill="#F0F1F2"/>
<path d="M42.6524 435.896C43.6242 435.029 43.3168 431.523 43.0391 429.458C43.2573 429 43.4159 428.513 43.4854 427.988C43.6738 426.527 42.7218 424.959 42.6425 423.702L36.4148 424.277C36.2363 424.579 33.8365 429.867 33.6381 433.987C33.529 436.266 34.3918 441.321 39.0625 443.863C43.2176 446.122 36.99 438.642 40.4211 433.013L42.6524 435.896Z" fill="#FCB892"/>
<path d="M40.2228 433.352L39.4691 432.378C36.0379 438.007 42.2656 445.485 38.1105 443.226C38.0312 443.187 37.9717 443.139 37.8923 443.09C38.2493 443.353 38.6361 443.616 39.0526 443.84C43.1284 446.06 37.2477 438.932 40.2228 433.352Z" fill="#DB895D"/>
<path d="M42.6426 423.691L41.8096 423.769C42.0773 424.88 42.6922 426.155 42.5335 427.363C42.4641 427.889 42.3054 428.376 42.0872 428.834C42.3351 430.713 42.6128 433.772 41.9286 434.969L42.6426 435.895C43.6144 435.028 43.307 431.522 43.0293 429.457C43.2475 428.999 43.4062 428.512 43.4756 427.986C43.6739 426.516 42.712 424.948 42.6426 423.691Z" fill="#DB895D"/>
<path d="M67.5697 359.626C71.2186 355.205 82.5024 357.211 82.4628 363.96C82.4528 366.249 82.1058 368.83 79.9541 371.499C73.2612 379.797 61.3428 397.551 60.5595 399.616C59.7762 401.681 44.4171 428.805 44.4171 428.805C44.4171 428.805 34.8586 428.786 34.1943 426.994C33.53 425.192 44.5758 399.704 46.5291 395.195C47.8479 392.146 55.7009 374.031 67.5697 359.626Z" fill="#F8FBFF"/>
<path d="M76.8903 357.739C78.3577 358.859 79.3295 360.437 79.3096 362.424C79.2997 364.713 78.9526 367.294 76.801 369.962C70.1081 378.26 58.1897 396.015 57.4064 398.08C56.623 400.144 41.264 427.269 41.264 427.269C41.264 427.269 37.1788 427.259 34.1646 426.752C34.1646 426.859 34.1745 426.947 34.1943 427.006C34.8586 428.807 44.4171 428.817 44.4171 428.817C44.4171 428.817 59.7762 401.693 60.5595 399.628C61.3428 397.563 73.2612 379.809 79.9541 371.511C82.1057 368.842 82.4429 366.261 82.4627 363.972C82.4826 360.758 79.9541 358.626 76.8903 357.739Z" fill="#B6D1FE"/>
<path d="M64.3467 363.748C64.3467 363.748 63.3054 366.806 63.3054 372.338C63.3054 378.444 64.3467 389.362 64.3467 389.362L68.8885 387.015L67.5696 359.638L64.3467 363.748Z" fill="#B6D1FE"/>
<path d="M61.5503 543.887C61.5503 543.887 60.7769 549.751 60.7769 551.854C60.767 553.978 61.7387 556.968 67.2418 556.393C73.0919 555.779 76.7408 550.822 79.8344 549.566C83.0272 548.27 89.1847 543.556 89.9978 540.605C90.8108 537.654 85.2285 537.557 82.472 538.414C79.7849 539.252 77.1275 539.709 72.7052 541.725L61.5503 543.887Z" fill="#0863EF"/>
<path d="M61.5505 544.5L72.7054 542.328C77.1277 540.312 79.7851 539.854 82.4721 539.016C84.9312 538.257 89.6112 538.247 90.0376 540.341C90.4739 537.633 85.1493 537.565 82.4721 538.393C79.7851 539.231 77.1277 539.688 72.7054 541.704L61.5505 543.876C61.5505 543.876 60.7771 549.739 60.7771 551.843C60.7771 551.931 60.7771 552.028 60.787 552.116C60.8564 549.788 61.5505 544.5 61.5505 544.5Z" fill="#99BCE6"/>
<path d="M67.2118 441.077C67.2118 441.077 66.6367 469.467 67.2118 482.08C67.7869 494.692 65.5757 494.497 63.077 507.275C60.5783 520.053 59.2001 542.405 59.2001 542.405C59.2001 542.405 58.4763 547.343 66.478 548.268C74.4798 549.194 77.5437 542.405 77.5437 542.405C77.5437 542.405 77.7718 529.062 81.5396 513.596C85.3075 498.13 86.3684 490.972 87.598 483.21C88.8275 475.447 91.5939 472.691 93.0415 451.995L67.2118 441.077Z" fill="#4E87EE"/>
<path d="M69.9399 547.957C61.9371 547.031 62.661 542.094 62.661 542.094C62.661 542.094 64.0394 519.742 66.5384 506.964C69.0374 494.186 71.2489 494.381 70.6737 481.768C70.1878 471.035 70.5249 448.898 70.6439 442.519L67.2128 441.067C67.2128 441.067 66.6376 469.458 67.2128 482.07C67.7879 494.683 65.5765 494.488 63.0775 507.266C60.5785 520.044 59.2001 542.396 59.2001 542.396C59.2001 542.396 58.4762 547.333 66.4789 548.259C68.0854 548.444 69.4738 548.307 70.6935 547.996C70.4456 547.986 70.1977 547.986 69.9399 547.957Z" fill="#0552DE"/>
<path d="M87.5982 558.095C87.5982 558.095 87.3602 564.114 87.5982 566.228C87.8362 568.351 89.2937 571.214 95.3422 570.104C101.4 569.003 104.653 564.153 107.568 562.838C110.483 561.514 115.748 557.112 116.313 554.472C116.878 551.833 112.853 550.528 110.394 551.297C107.925 552.067 102.997 552.505 98.6242 554.492L87.5982 558.095Z" fill="#0863EF"/>
<path d="M110.384 551.297C107.915 552.066 102.987 552.505 98.6142 554.491L87.5981 558.094C87.5981 558.094 87.5882 558.416 87.5684 558.932L98.2969 555.426C102.67 553.439 107.607 553.001 110.067 552.232C112.496 551.472 116.432 552.729 116.006 555.299C116.145 555.017 116.254 554.735 116.313 554.481C116.869 551.833 112.853 550.528 110.384 551.297Z" fill="#99BCE6"/>
<path d="M108.154 445.294C108.154 445.294 107.817 466.467 106.052 493.27C104.247 520.589 101.947 554.501 101.947 554.501C101.947 554.501 100.965 559.225 94.2127 559.225C87.4603 559.225 86.1514 558.611 85.3979 556.469C82.5323 548.346 84.5749 532.471 84.8129 522.069C85.0508 511.668 86.905 506.652 87.5099 497.886C88.1147 489.121 82.9686 475.34 81.7887 461.072C81.7887 461.072 64.5457 453.903 67.5798 436.938L108.154 445.294Z" fill="#4E87EE"/>
<path d="M97.3459 557.666C90.5935 557.666 89.2846 557.053 88.5311 554.91C85.6655 546.787 87.7081 530.912 87.946 520.511C88.184 510.109 90.0382 505.093 90.6431 496.328C91.2479 487.562 86.1018 473.781 84.9218 459.513C84.9218 459.513 69.1464 452.949 70.4453 437.522L67.5698 436.928C64.5357 453.894 81.7786 461.062 81.7786 461.062C82.9586 475.33 88.1047 489.111 87.4998 497.876C86.895 506.642 85.0408 511.658 84.8028 522.059C84.5649 532.461 82.5223 548.336 85.3879 556.459C86.1415 558.601 87.4503 559.215 94.2027 559.215C97.098 559.215 98.9323 558.348 100.083 557.355C99.2893 557.549 98.3969 557.666 97.3459 557.666Z" fill="#0552DE"/>
<path d="M108.153 431.542C109.878 439.002 108.153 452.939 108.153 452.939C94.5089 456.698 84.425 455.802 75.8977 453.601C66.359 451.147 67.0729 445.576 67.0729 445.576C68.9073 431.931 106.417 424.081 108.153 431.542Z" fill="#0552DE"/>
<path d="M67.1522 398.553C65.3277 380.117 66.2697 363.784 70.6424 359.635C75.0151 355.486 80.5281 357.921 80.5281 357.921L106.606 365.147C106.606 365.147 106.169 396.119 106.169 406.257C106.169 416.396 106.417 421.616 108.143 429.067C109.868 436.527 109.471 450.113 109.471 450.113C95.8277 453.873 84.415 453.327 75.8877 451.126C66.349 448.672 65.4666 443.286 65.4666 443.286C67.3108 429.632 68.9766 416.99 67.1522 398.553Z" fill="#F8FBFF"/>
<path d="M108.153 429.067C106.428 421.607 106.18 416.396 106.18 406.257C106.18 396.119 106.617 365.148 106.617 365.148L80.5389 357.921C80.5389 357.921 77.128 356.431 73.5386 357.804L106.617 365.138C106.617 365.138 99.0808 394.161 99.0808 404.31C99.0808 414.448 97.6133 420.993 99.3385 428.444C101.064 435.904 100.667 449.49 100.667 449.49C93.6273 451.429 87.1823 452.217 81.4214 452.227C89.1356 453.357 98.5949 453.104 109.482 450.114C109.472 450.114 109.879 436.527 108.153 429.067Z" fill="#B6D1FE"/>
<path d="M102.412 330.722C98.3761 324.109 86.3288 323.476 80.3895 330.352C78.1684 332.933 76.3539 339.858 78.9121 344.951C79.9929 347.104 81.5496 349.129 83.374 350.912C83.3641 351.019 83.3245 351.116 83.3245 351.223C83.1559 356.015 83.5922 360.106 84.7325 361.537C86.4875 363.748 99.1396 366.095 99.0702 363.427C98.7232 362.073 98.5843 361.635 98.1778 360.203C97.92 359.307 97.573 358.45 97.1962 357.622C98.7826 357.661 100.29 357.398 101.599 356.755C104.791 355.177 106.447 337.335 102.412 330.722Z" fill="#FCB892"/>
<path d="M84.4162 359.988C84.089 359.579 83.8312 358.946 83.613 358.157C83.851 359.706 84.2179 360.894 84.7236 361.536C86.4786 363.747 99.1307 366.094 99.0613 363.426C98.9225 362.88 98.8134 362.491 98.7142 362.121C98.0201 364.399 86.1216 362.13 84.4162 359.988Z" fill="#DB895D"/>
<path d="M83.018 349.682C83.018 349.575 83.0577 349.478 83.0676 349.371C81.2429 347.589 79.686 345.563 78.6051 343.411C78.2778 342.759 78.02 342.077 77.8315 341.376C78.01 342.613 78.3572 343.83 78.9224 344.96C79.924 346.956 81.3421 348.826 82.9981 350.51C82.9981 350.238 83.0081 349.955 83.018 349.682Z" fill="#DB895D"/>
<path d="M101.252 356.453C99.8341 356.833 98.4656 356.111 96.8789 356.072C96.988 356.618 96.9979 357.096 97.1962 357.623C98.6639 357.623 100.657 357.321 101.599 356.755C102.194 356.394 102.323 356.16 101.252 356.453Z" fill="#DB895D"/>
<path d="M104.791 336.322C102.084 339.137 100.657 337.773 99.0702 339.604C98.8918 339.818 97.1764 347.289 96.9384 347.181C95.2329 346.402 96.1848 343.247 93.24 342.721C90.2951 342.185 90.7809 349.139 91.1577 351.905C91.5345 354.671 89.4424 355.81 87.1221 355.508C84.792 355.207 79.1798 351.934 77.0282 345.769C74.8765 339.604 76.344 329.183 88.1236 324.995C94.519 322.716 106.457 325.794 107.141 328.472C107.677 330.615 106.695 334.345 104.791 336.322Z" fill="#DB895D"/>
<path d="M104.792 334.771C102.085 337.586 100.657 336.223 99.0705 338.054C98.892 338.268 97.1766 345.738 96.9386 345.631C95.2332 344.852 96.1851 341.696 93.2402 341.17C90.2953 340.634 90.7811 347.588 91.1579 350.354C91.5347 353.12 89.4426 354.269 87.1224 353.958C84.8022 353.646 79.1801 350.383 77.0284 344.218C74.8768 338.054 76.3443 327.632 88.1238 323.445C94.5193 321.166 106.457 324.243 107.142 326.921C107.677 329.064 106.695 332.794 104.792 334.771Z" fill="#412424"/>
<path d="M131.484 432.7C131.831 432.837 137.81 437.696 138.574 439.995C139.337 442.293 140.735 453.796 138.207 449.13C134.39 442.099 128.371 441.319 127.25 440.219C126.12 439.118 126.685 437.297 125.912 436.197L131.484 432.7Z" fill="#FCB892"/>
<path d="M138.207 447.905C134.39 440.873 128.371 440.093 127.25 438.993C126.418 438.184 126.507 436.987 126.299 435.964L125.912 436.207C126.685 437.308 126.12 439.129 127.25 440.23C128.381 441.33 134.39 442.1 138.207 449.141C139.417 451.362 139.724 449.921 139.645 447.554C139.575 449.102 139.179 449.697 138.207 447.905Z" fill="#DB895D"/>
<path d="M98.0303 374.352C96.0571 368.625 101.947 363.045 107.589 365.479C109.859 366.463 112.011 368.314 113.429 371.654C117.831 382.046 116.751 405.937 118.297 407.709C119.844 409.491 132.804 431.96 132.804 431.96C132.804 431.96 132.496 433.45 129.264 435.788C126.418 437.843 124.653 438.174 124.683 438.193C124.782 438.252 111.743 422.114 107.262 414.663C103.097 407.748 101.173 383.487 98.0303 374.352Z" fill="#F8FBFF"/>
<path d="M131.147 432.39C128.301 434.445 126.536 434.776 126.566 434.796C126.665 434.854 113.626 418.716 109.145 411.266C104.98 404.341 103.066 380.09 99.9133 370.954C99.4572 369.63 99.4374 368.315 99.7249 367.098C97.95 368.909 97.0775 371.607 98.0294 374.353C101.173 383.489 103.086 407.74 107.261 414.665C111.742 422.115 124.781 438.263 124.682 438.195C124.642 438.175 126.417 437.844 129.263 435.789C132.496 433.452 132.803 431.962 132.803 431.962C132.803 431.962 132.674 431.748 132.456 431.368C132.079 431.689 131.653 432.03 131.147 432.39Z" fill="#B6D1FE"/>
<path d="M53.6192 523.762C52.4788 522.652 51.2491 522.311 50.4359 522.759H50.426L47.9568 524.171L52.3995 531.445C52.3995 531.445 54.7993 530.072 54.8588 530.023H54.8687C55.1265 529.838 55.3249 529.575 55.4637 529.225C56.0389 527.745 55.2058 525.3 53.6192 523.762Z" fill="#30397A"/>
<path d="M53.0825 530.591C52.5173 532.071 50.762 532.013 49.1654 530.474C47.5688 528.925 46.7358 526.481 47.311 525.011C47.8763 523.53 49.6315 523.579 51.2281 525.137C52.8247 526.666 53.6577 529.12 53.0825 530.591Z" fill="#222949"/>
<path d="M51.5751 529.413C51.2181 529.968 50.4149 529.88 49.6711 529.16C48.858 528.371 48.4415 527.115 48.7191 526.374C48.858 526.024 49.1158 525.849 49.4331 525.829C49.3935 525.888 49.3637 525.946 49.3439 526.014C49.0464 526.774 49.4827 528.02 50.2959 528.799C50.7322 529.228 51.1983 529.442 51.5751 529.413Z" fill="#30397A"/>
<path d="M51.6744 529.228C51.6446 529.296 51.6149 529.364 51.5752 529.413C51.1884 529.442 50.7323 529.228 50.2959 528.809C49.4828 528.02 49.0563 526.774 49.3439 526.024C49.3737 525.956 49.3935 525.897 49.4331 525.839C49.81 525.809 50.2761 526.014 50.7224 526.442C51.5455 527.222 51.962 528.468 51.6744 529.228Z" fill="#99BCE6"/>
<path d="M26.6093 539.278C25.4689 538.168 24.2392 537.837 23.4261 538.275L20.9568 539.687L25.4094 546.961C25.4094 546.961 27.7993 545.588 27.8687 545.54C28.1166 545.364 28.3348 545.101 28.4736 544.741C29.0389 543.271 28.2059 540.826 26.6093 539.278Z" fill="#30397A"/>
<path d="M26.093 546.115C25.5277 547.596 23.7724 547.537 22.1759 545.989C20.5793 544.44 19.7463 541.996 20.3016 540.526C20.8768 539.045 22.6221 539.104 24.2286 540.652C25.8252 542.191 26.6582 544.645 26.093 546.115Z" fill="#222949"/>
<path d="M24.5754 544.939C24.2184 545.495 23.4151 545.407 22.6714 544.686C21.8582 543.897 21.4318 542.65 21.7194 541.9C21.8483 541.559 22.1061 541.374 22.4334 541.354C22.3937 541.413 22.364 541.471 22.3342 541.54C22.0466 542.299 22.473 543.546 23.2862 544.335C23.7325 544.754 24.1887 544.959 24.5754 544.939Z" fill="#30397A"/>
<path d="M24.6845 544.754C24.6547 544.822 24.6151 544.891 24.5754 544.949C24.1886 544.969 23.7325 544.764 23.2961 544.335C22.483 543.546 22.0467 542.299 22.3442 541.539C22.364 541.471 22.4036 541.413 22.4433 541.354C22.8201 541.325 23.2862 541.53 23.7225 541.958C24.5357 542.747 24.9621 543.994 24.6845 544.754Z" fill="#99BCE6"/>
<path d="M14.0364 478.251L40.0546 463.243C40.7982 462.814 41.4725 462.775 41.9682 463.048V463.038L41.9782 463.048C41.9782 463.058 41.9881 463.058 41.9881 463.058L55.9986 470.917L34.492 523.334L26.4406 542.949L12.4797 535.129C11.9641 534.856 11.6468 534.262 11.6369 533.395L11.3394 482.926C11.3295 481.212 12.5491 479.118 14.0364 478.251Z" fill="#FC319D"/>
<path d="M47.688 466.273C47.2319 466.156 46.6865 466.243 46.0916 466.584L20.0734 481.583C18.5762 482.45 17.3566 484.553 17.3665 486.258L17.6739 538.032L19.2901 538.938L18.9927 486.735C18.9827 485.031 20.2023 482.927 21.6897 482.07L47.7078 467.062C47.9755 466.896 48.1044 466.185 47.688 466.273Z" fill="#0D1883"/>
<path d="M25.5366 541.176C25.5466 542.88 26.786 543.571 28.2931 542.705L54.3113 527.706C55.8085 526.839 57.0281 524.745 57.0182 523.031L56.7207 472.562C56.7108 470.848 55.4714 470.166 53.9841 471.023L27.9659 486.031C26.4687 486.898 25.2392 488.992 25.2491 490.697L25.5366 541.176Z" fill="#C12B9E"/>
<path d="M35.9085 471.696L29.0074 475.621C28.0059 476.186 26.2905 476.059 25.18 475.338C24.0695 474.618 23.9802 473.556 24.9817 472.991L31.8828 469.067C32.8744 468.502 34.5996 468.629 35.7102 469.349C36.8207 470.08 36.9099 471.131 35.9085 471.696Z" fill="#0D1883"/>
<path d="M31.6257 482.833C32.3694 482.648 32.7859 482.229 32.8057 481.8L32.7958 480.543L28.7102 480.631V481.781C28.7102 481.946 28.7598 482.122 28.8986 482.278C29.3845 482.853 30.5943 483.106 31.6257 482.833Z" fill="#222949"/>
<path d="M28.9089 481.126C28.4329 480.541 28.8692 479.849 29.9005 479.576C30.922 479.303 32.1417 479.556 32.6276 480.131C33.1036 480.716 32.6574 481.418 31.636 481.681C30.5947 481.954 29.3849 481.71 28.9089 481.126Z" fill="#30397A"/>
<path d="M44.4159 475.712C45.1597 475.527 45.5762 475.108 45.596 474.679L45.5861 473.422L41.5005 473.51V474.66C41.5005 474.825 41.5501 475.001 41.6889 475.157C42.1649 475.732 43.3846 475.985 44.4159 475.712Z" fill="#222949"/>
<path d="M41.6889 474.005C41.2129 473.42 41.6492 472.729 42.6806 472.456C43.702 472.183 44.9217 472.436 45.4077 473.011C45.8837 473.596 45.4374 474.298 44.416 474.561C43.3847 474.834 42.1649 474.59 41.6889 474.005Z" fill="#30397A"/>
<path d="M32.0517 480.61L31.7543 448.957C31.7543 446.717 33.0532 443.912 34.5405 442.967L40.7972 438.974C40.9856 438.857 41.283 438.702 41.5607 438.702C41.6697 438.702 41.7788 438.721 41.8681 438.789C42.1556 438.974 42.4729 439.578 42.4729 440.708L42.5225 473.939C43.395 474.289 44.4957 474.016 44.7336 473.266L44.6841 440.708C44.6841 438.838 44.0594 437.358 42.9687 436.666C41.997 436.052 40.8368 436.121 39.6767 436.861L33.4201 440.854C31.2386 442.247 29.5332 445.811 29.5332 448.967L29.7017 480.863C30.257 481.038 31.2882 481.204 32.0517 480.61Z" fill="#97BCE6"/>
<path d="M31.7654 442.438C31.7654 442.438 33.8675 443.461 33.5403 443.909C33.223 444.357 32.6677 445.33 32.6677 445.33C32.6677 445.33 33.8377 446.353 35.6225 444.503C37.8337 442.205 41.7602 441.445 42.3452 439.458C42.8807 437.637 42.0478 435.115 40.0547 435.115C38.0617 435.115 32.7173 437.413 30.7739 440.422C29.8021 441.932 31.1605 443.324 31.1605 443.324L31.7654 442.438Z" fill="#0D1883"/>
<path d="M130.77 571.607C130.77 571.607 127.577 576.76 128.946 580.792C130.314 584.824 132.138 586.84 136.471 585.72C140.804 584.6 152.128 581.016 152.128 581.016L148.558 571.607H135.787H130.77Z" fill="#0863EF"/>
<path d="M140.37 570.933L138.674 573.182C138.674 573.182 136.393 576.133 136.681 579.055C136.969 581.977 137.911 585.327 137.911 585.327L140.459 584.587L141.719 571.157L140.37 570.933Z" fill="#1158BF"/>
<path d="M141.033 571.828C141.033 571.828 138.732 574.136 137.82 578.13C137.82 578.13 136.7 587.285 144.681 586.165C152.663 585.045 160.764 582.658 162.014 581.46C163.57 579.961 164.978 576.084 160.417 575.529C155.856 574.974 150.601 575.636 150.601 573.854C150.611 572.052 141.033 571.828 141.033 571.828Z" fill="#0863EF"/>
<path d="M150.601 574.469C150.591 576.261 155.857 575.589 160.418 576.144C162.361 576.387 163.402 577.215 163.511 578.208C163.63 576.952 162.758 575.813 160.418 575.52C155.857 574.965 150.601 575.628 150.601 573.846C150.611 572.054 150.611 572.677 150.601 574.469Z" fill="#99BCE6"/>
<path d="M215.984 339.661C214.199 340.041 208.131 345.144 203.748 349.001C203.708 349.04 203.659 349.06 203.619 349.108C203.609 349.118 203.589 349.138 203.579 349.147C203.163 349.517 202.756 349.868 202.38 350.209C198.423 353.501 187.001 362.11 183.441 365.909C179.336 370.272 161.211 384.044 161.211 384.044C161.211 384.044 158.474 390.764 159.505 396.812C160.527 402.86 167.715 402.86 168.052 401.847C168.389 400.844 186.049 376.213 187.586 373.963C189.053 371.821 196.956 364.652 201.636 359.666L201.656 359.646L206.068 354.972C206.068 354.972 210.609 356.179 213.297 354.202C215.984 352.235 215.984 347.852 215.984 347.852L212.265 345.943L215.984 339.661Z" fill="#FCB892"/>
<path d="M206.068 353.775L201.656 357.486L201.636 357.506C196.956 362.492 189.053 369.66 187.586 371.803C186.049 374.053 168.389 398.674 168.052 399.686C167.715 400.69 160.526 400.69 159.505 394.651C159.406 394.038 159.346 393.424 159.307 392.811C159.237 394.125 159.277 395.489 159.505 396.813C160.526 402.861 167.715 402.862 168.052 401.849C168.389 400.845 186.049 376.215 187.586 373.965C189.053 371.822 196.956 364.654 201.636 359.668L201.656 359.648L206.068 354.973V353.775Z" fill="#DB895D"/>
<path d="M208.844 355.329C208.844 355.329 213.089 349.895 213.694 350.645C214.289 351.405 212.811 354.346 211.79 354.959C211.145 355.339 208.844 355.329 208.844 355.329Z" fill="#DB895D"/>
<path d="M163.026 393.131C161.251 388.369 162.262 384.502 162.887 382.769C161.836 383.567 161.211 384.044 161.211 384.044C161.211 384.044 158.474 390.764 159.505 396.813C160.527 402.861 167.716 402.861 168.053 401.848C168.093 401.721 168.41 401.225 168.936 400.445C166.843 400.738 164.702 397.621 163.026 393.131Z" fill="#DB895D"/>
<path d="M124.92 384.677C124.92 384.677 119.377 387.891 108.173 423.907C106.913 427.968 109.105 430.569 112.982 433.559C116.859 436.558 141.132 442.47 142.341 444.136C143.551 445.801 141.389 453.7 144.652 454.118C147.914 454.547 155.083 456.709 153.11 454.284C151.146 451.859 148.578 447.486 148.747 445.538C148.915 443.59 153.784 439.753 149.074 439.772C144.364 439.792 119.337 427.764 119.982 426.02C120.636 424.267 132.575 405.441 133.358 403.951C134.141 402.451 124.92 384.677 124.92 384.677Z" fill="#FCB892"/>
<path d="M153.111 454.294C151.147 451.869 148.579 447.496 148.748 445.548C148.916 443.6 153.785 439.763 149.075 439.782C144.365 439.802 119.338 427.774 119.983 426.03C120.628 424.287 132.576 405.451 133.359 403.961C134.132 402.461 124.921 384.687 124.921 384.687C124.921 384.687 124.385 384.998 123.324 386.488C125.635 391.037 131.465 402.753 130.84 403.961C130.067 405.461 118.119 424.287 117.465 426.03C116.81 427.774 141.847 439.802 146.556 439.782C151.266 439.763 146.398 443.6 146.229 445.548C146.061 447.496 148.619 451.879 150.592 454.294C150.998 454.8 150.998 455.093 150.731 455.258C152.744 455.57 154.112 455.521 153.111 454.294Z" fill="#DB895D"/>
<path d="M125.23 438.856C125.23 438.856 118.775 445.06 119.816 460.575C120.857 476.09 124.813 490.202 125.23 496.581C125.23 496.581 128.294 513.333 126.668 519.722C125.041 526.111 125.23 533.942 126.44 545.473C127.51 555.748 128.591 575.529 128.591 575.529L141.719 571.165C141.719 571.165 140.351 521.787 141.719 518.427C141.719 518.427 146.459 499.951 144.942 490.212C143.425 480.473 146.181 453.261 146.181 453.261L125.23 438.856Z" fill="#F2F4F7"/>
<path d="M131.733 572.432C131.733 572.432 130.652 552.661 129.581 542.376C128.372 530.845 128.173 523.004 129.81 516.625C131.446 510.246 128.372 493.484 128.372 493.484C127.955 487.105 123.999 472.993 122.958 457.478C122.353 448.537 124.247 442.703 125.952 439.353L125.219 438.856C125.219 438.856 118.764 445.06 119.805 460.575C120.846 476.09 124.802 490.202 125.219 496.582C125.219 496.582 128.283 513.333 126.656 519.722C125.02 526.102 125.219 533.942 126.428 545.473C127.499 555.748 128.58 575.529 128.58 575.529L141.708 571.166C141.708 571.166 141.688 570.425 141.658 569.14L131.733 572.432Z" fill="#B6D1FE"/>
<path d="M134.876 465.679C134.876 465.679 134.191 473.743 138.296 482.479C142.401 491.215 147.19 504.052 148.549 514.794C149.897 525.547 143.77 549.661 143.085 556.04C142.401 562.42 140.012 572.5 140.012 572.5L151.295 573.844C151.295 573.844 166.565 533.825 165.058 513.372C163.7 494.945 176.372 450.963 168.251 443.931C162.143 438.652 137.969 455.589 137.969 455.589L134.876 465.679Z" fill="#F2F4F7"/>
<path d="M146.228 555.729C146.912 549.35 153.04 525.225 151.692 514.483C150.343 503.731 145.455 484.184 144.979 481.389C144.205 476.831 144.076 468.601 144.076 468.601C144.076 468.601 133.288 467.695 130.7 465.075C131.533 467.335 137.027 473.061 139.535 478.175C142.609 484.447 147.22 504.305 148.538 514.795C149.887 525.547 143.759 549.662 143.075 556.041C142.391 562.42 140.001 572.5 140.001 572.5L151.285 573.844C151.285 573.844 151.374 573.611 151.533 573.192L143.154 572.198C143.154 572.198 145.544 562.118 146.228 555.729Z" fill="#B6D1FE"/>
<path d="M131.455 430.219C130.433 435.595 123.691 438.76 123.235 443.805C122.927 447.136 131.841 453.135 140.22 453.466C150.254 453.866 171.939 451.353 168.231 443.941C164.691 436.841 132.486 424.842 131.455 430.219Z" fill="#B6D1FE"/>
<path d="M133.507 385.388C133.507 385.388 125.981 382.369 124.276 385.388C122.57 388.407 121.886 402.86 124.276 408.227C126.665 413.603 132.486 422.67 131.454 428.046C130.433 433.422 123.691 436.588 123.235 441.633C122.927 444.964 131.841 450.963 140.22 451.294C150.254 451.693 171.513 449.95 167.844 441.779C164.602 434.543 166.337 405.539 167.705 402.851C169.569 399.198 159.842 402.179 161.548 384.034C161.548 384.044 142.738 385.388 133.507 385.388Z" fill="#4E87EE"/>
<path d="M143.997 450.069C135.619 449.738 126.705 443.738 127.012 440.407C127.478 435.362 134.211 432.197 135.232 426.821C136.253 421.445 130.443 412.377 128.053 407.001C125.664 401.625 126.348 387.182 128.053 384.162C128.073 384.133 128.093 384.114 128.113 384.084C126.477 383.968 124.94 384.221 124.275 385.399C122.57 388.418 121.886 402.872 124.275 408.238C126.665 413.614 132.485 422.682 131.454 428.058C130.423 433.434 123.69 436.599 123.234 441.644C122.927 444.975 131.841 450.975 140.22 451.306C146.635 451.559 157.621 450.936 163.769 448.325C157.552 449.893 149.243 450.273 143.997 450.069Z" fill="#0552DE"/>
<path d="M160.516 373.816C159.287 365.567 159.555 355.379 153.347 353.081C139.545 347.958 130.78 352.75 129.412 366.852C129.174 369.297 128.985 371.478 128.846 373.485C128.807 374.088 126.189 380.906 125.237 385.474C124.285 390.041 131.226 409.033 131.226 409.033L132.009 397.054C132.059 397.18 132.099 397.297 132.148 397.434C136.253 408.186 140.854 413.094 144.939 423.029C146.149 425.96 147.775 398.505 151.612 394.083C153.03 395.788 154.498 398.7 154.934 403.657C154.924 403.647 163.62 384.626 160.516 373.816Z" fill="#0552DE"/>
<path d="M162.449 369.892C161.22 361.643 159.544 350.735 153.337 348.436C139.535 343.313 130.77 348.105 129.401 362.208C129.163 364.652 128.975 366.834 128.836 368.84C128.796 369.444 126.179 376.262 125.227 380.829C124.275 385.397 131.216 404.389 131.216 404.389L131.999 392.409C132.049 392.536 132.088 392.653 132.138 392.789C136.243 403.542 140.844 408.45 144.929 418.384C146.139 421.316 147.765 393.861 151.602 389.439C153.02 391.143 154.487 394.055 154.924 399.013C154.924 399.013 165.553 380.703 162.449 369.892Z" fill="#F9339C"/>
<path d="M126.487 379.281C127.439 374.713 130.057 367.896 130.096 367.292C130.235 365.286 130.434 363.104 130.662 360.659C131.088 356.277 132.229 352.8 134.014 350.229C131.505 352.868 129.928 356.861 129.402 362.208C129.164 364.653 128.976 366.834 128.837 368.84C128.797 369.444 126.179 376.262 125.227 380.83C124.275 385.397 131.217 404.389 131.217 404.389L131.495 400.075C129.62 394.63 125.763 382.758 126.487 379.281Z" fill="#E23096"/>
<path d="M152.872 387.892C152.505 388.31 152.158 388.943 151.841 389.732C153.189 391.466 154.528 394.319 154.935 399.013C154.935 399.013 155.411 398.195 156.115 396.822C155.609 392.264 154.221 389.518 152.872 387.892Z" fill="#E23096"/>
<path d="M133.399 391.232C133.349 391.106 133.31 390.979 133.26 390.853L132.992 394.914C136.869 404.225 141.123 409.124 144.931 418.376C145.218 419.068 145.526 418.064 145.873 416.087C141.867 406.66 137.395 401.712 133.399 391.232Z" fill="#E23096"/>
</svg>
