<svg width="540" height="769" viewBox="0 0 540 769" fill="none" xmlns="http://www.w3.org/2000/svg">
<path d="M220.913 455.47C235.376 455.47 247.101 448.21 247.101 439.255C247.101 430.3 235.376 423.04 220.913 423.04C206.449 423.04 194.725 430.3 194.725 439.255C194.725 448.21 206.449 455.47 220.913 455.47Z" fill="#D7E9FF"/>
<path d="M230.317 260.918H211.975V439.255H230.317V260.918Z" fill="#ECF4FF"/>
<path d="M220.915 260.918H211.975V439.255H220.915V260.918Z" fill="#C9E0FF"/>
<path d="M291.28 266.716C291.28 311.968 259.776 348.652 220.926 348.652C182.076 348.652 150.572 311.968 150.572 266.716C150.572 221.463 182.295 0 221.157 0C260.02 0 291.28 221.475 291.28 266.716Z" fill="#ECF4FF"/>
<path d="M246.517 325.776C207.654 325.776 176.163 289.093 176.163 243.84C176.163 207.643 196.464 58.7205 224.476 0.559116C223.37 0.206623 222.263 0 221.144 0C182.281 0 150.559 221.463 150.559 266.716C150.559 311.968 182.062 348.652 220.912 348.652C242.88 348.652 262.5 336.923 275.393 318.544C266.587 323.175 256.819 325.776 246.517 325.776Z" fill="#C4DCFF"/>
<path d="M476.227 643.506C489.333 643.506 499.958 636.927 499.958 628.811C499.958 620.695 489.333 614.116 476.227 614.116C463.121 614.116 452.496 620.695 452.496 628.811C452.496 636.927 463.121 643.506 476.227 643.506Z" fill="#D7E9FF"/>
<path d="M484.753 467.151H468.125V628.811H484.753V467.151Z" fill="#ECF4FF"/>
<path d="M476.238 467.151H468.125V628.811H476.238V467.151Z" fill="#C9E0FF"/>
<path d="M540 472.414C540 513.424 511.452 546.68 476.227 546.68C441.001 546.68 412.453 513.424 412.453 472.414C412.453 431.403 441.208 230.652 476.433 230.652C511.659 230.652 540 431.403 540 472.414Z" fill="#ECF4FF"/>
<path d="M499.435 525.944C464.209 525.944 435.661 492.688 435.661 451.677C435.661 418.871 454.065 283.878 479.45 231.162C478.452 230.834 477.443 230.652 476.433 230.652C441.208 230.652 412.453 431.403 412.453 472.414C412.453 513.424 441.013 546.68 476.227 546.68C496.138 546.68 513.921 536.045 525.61 519.392C517.631 523.598 508.776 525.944 499.435 525.944Z" fill="#C4DCFF"/>
<path d="M309.856 467.941C323.023 467.941 333.697 461.78 333.697 454.181C333.697 446.582 323.023 440.422 309.856 440.422C296.689 440.422 286.016 446.582 286.016 454.181C286.016 461.78 296.689 467.941 309.856 467.941Z" fill="#D7E9FF"/>
<path d="M317.833 336.874H301.145V454.181H317.833V336.874Z" fill="#ECF4FF"/>
<path d="M309.282 336.874H301.145V454.181H309.282V336.874Z" fill="#C9E0FF"/>
<path d="M308.467 411.311C348.733 411.311 381.375 380.188 381.375 341.797C381.375 303.405 348.733 272.283 308.467 272.283C268.201 272.283 235.559 303.405 235.559 341.797C235.559 380.188 268.201 411.311 308.467 411.311Z" fill="#ECF4FF"/>
<path d="M336.273 390.976C296.011 390.976 263.364 359.847 263.364 321.461C263.364 305.052 269.349 289.968 279.323 278.081C253.561 288.801 235.559 313.293 235.559 341.809C235.559 380.206 268.206 411.323 308.467 411.323C331.517 411.323 352.061 401.113 365.416 385.19C356.488 388.897 346.636 390.976 336.273 390.976Z" fill="#C4DCFF"/>
<path d="M311.981 341.554C346.685 341.554 374.818 314.73 374.818 281.642C374.818 248.554 346.685 221.73 311.981 221.73C277.278 221.73 249.145 248.554 249.145 281.642C249.145 314.73 277.278 341.554 311.981 341.554Z" fill="#ECF4FF"/>
<path d="M335.943 324.026C301.241 324.026 273.107 297.2 273.107 264.115C273.107 249.966 278.264 236.973 286.864 226.726C264.665 235.964 249.145 257.077 249.145 281.642C249.145 314.728 277.279 341.554 311.981 341.554C331.844 341.554 349.542 332.753 361.061 319.031C353.362 322.239 344.872 324.026 335.943 324.026Z" fill="#C4DCFF"/>
<path d="M310.439 269.791C336.92 269.791 358.387 249.324 358.387 224.076C358.387 198.829 336.92 178.362 310.439 178.362C283.958 178.362 262.49 198.829 262.49 224.076C262.49 249.324 283.958 269.791 310.439 269.791Z" fill="#ECF4FF"/>
<path d="M328.721 256.42C302.241 256.42 280.772 235.952 280.772 210.706C280.772 199.912 284.701 189.994 291.269 182.178C274.325 189.228 262.49 205.333 262.49 224.088C262.49 249.334 283.959 269.803 310.439 269.803C325.595 269.803 339.108 263.081 347.89 252.616C342.015 255.047 335.532 256.42 328.721 256.42Z" fill="#C4DCFF"/>
<path d="M370.964 766.283L127.657 620.4C121.612 616.778 121.612 610.846 127.657 607.224L184.874 572.911C190.92 569.288 200.796 569.288 206.842 572.911L450.149 718.794C456.194 722.416 456.194 728.348 450.149 731.97L392.931 766.283C386.886 769.906 377.009 769.906 370.964 766.283Z" fill="#D7E9FF"/>
<path d="M403.732 409.986C403.732 409.986 389.853 420.524 383.638 418.008C379.757 416.416 381.618 409.22 381.618 409.22L375.622 409.986L355.734 444.64V503.64L378.517 510.507L378.687 453.403L407.442 421.424L403.732 409.986Z" fill="#F2F4F7"/>
<path d="M406.602 504.49C406.602 504.49 410.726 510.021 413.609 520.571C416.479 531.11 415.238 558.701 418.839 571.148C418.839 571.148 420.858 577.226 406.602 583.157C386.07 591.702 354.032 578.842 354.032 578.842C354.032 578.842 343.936 531.11 350.687 494.402C356.805 500.552 389.537 506.423 389.537 506.423L406.602 504.49Z" fill="#212121"/>
<path d="M382.92 408.321C382.92 408.321 365.782 432.169 362.887 448.432C360.016 464.707 362.291 490.573 362.449 499.483C361.987 505.803 352.669 496.359 351.465 493.478C350.273 490.585 351.307 450.948 351.465 443.582C351.721 433.323 370.44 415.334 374.053 408.333C377.653 401.319 382.92 408.321 382.92 408.321Z" fill="#CFD0D1"/>
<path d="M381.619 408.321C381.619 408.321 364.481 432.169 361.586 448.432C358.715 464.707 360.99 490.573 361.148 499.483C360.686 505.803 351.369 496.359 350.164 493.478C348.972 490.585 350.006 450.948 350.164 443.582C350.42 433.323 369.139 415.334 372.752 408.333C376.365 401.319 381.619 408.321 381.619 408.321Z" fill="#383838"/>
<path d="M402.43 409.67C410.592 421.679 419.569 430.443 419.569 430.443L412.307 460.526C412.307 460.526 402.163 482.514 402.43 488.215C402.661 493.855 405.07 499.422 406.14 502.631C399.061 516.402 377.386 512.464 373.092 507.724C368.798 502.959 371.085 474.577 371.085 457.281C371.085 438.927 403.124 418.057 402.43 409.67Z" fill="#CFD0D1"/>
<path d="M403.731 409.986C411.893 421.995 420.869 430.759 420.869 430.759L413.608 460.854C413.608 460.854 403.464 482.842 403.731 488.543C403.962 494.183 406.371 499.75 407.441 502.959C400.362 516.73 378.686 512.792 374.393 508.052C370.099 503.287 372.386 474.905 372.386 457.609C372.386 439.255 404.424 418.385 403.731 409.986Z" fill="#383838"/>
<path d="M420.868 430.759C420.868 430.759 411.891 421.995 403.729 409.986C403.814 411.056 403.364 412.344 402.525 413.79C409.848 423.794 416.963 430.759 416.963 430.759L409.701 460.854C409.701 460.854 399.557 482.842 399.825 488.543C400.056 494.183 402.464 499.75 403.535 502.959C400.214 509.413 393.694 511.978 387.26 512.391C394.801 512.865 403.437 510.726 407.439 502.959C406.369 499.762 403.948 494.183 403.729 488.543C403.462 482.855 413.606 460.854 413.606 460.854L420.868 430.759Z" fill="#232323"/>
<path d="M131.998 424.791L189.276 388.946L440.49 539.788L380.925 572.315L131.998 424.791Z" fill="#D9E9F4"/>
<path d="M298.492 474.188C298.492 474.188 285.696 480.545 279.091 479.062C272.474 477.592 263.546 472.973 267.256 470.858C270.966 468.731 281.013 469.472 281.536 466.725C282.035 464.002 275.722 464.61 278.727 463.127C281.731 461.632 287.496 461.097 298.298 466.786C298.286 466.774 301.436 470.031 298.492 474.188Z" fill="#FCB892"/>
<path d="M364.981 408.892C364.981 408.892 373.75 403.434 373.787 415.164C373.787 415.164 363.497 430.734 359.41 454.631C359.41 454.631 349.727 477.166 343.755 478.284C337.783 479.391 294.639 478.236 294.639 478.236C294.639 478.236 297.23 471.988 294.529 464.245C294.529 464.245 332.382 460.125 335.18 457.196C337.965 454.291 356.721 411.104 364.981 408.892Z" fill="#383838"/>
<path d="M295.307 464.148C294.809 464.209 294.529 464.233 294.529 464.233C295.259 466.312 295.587 468.281 295.708 470.056C295.818 468.366 295.757 466.348 295.307 464.148Z" fill="#232323"/>
<path d="M359.409 451.714C359.409 451.714 349.727 474.249 343.755 475.367C338.245 476.388 301.158 475.477 295.417 475.331C295.089 477.142 294.639 478.224 294.639 478.224C294.639 478.224 337.771 479.378 343.755 478.272C349.727 477.154 359.409 454.619 359.409 454.619C363.509 430.722 373.787 415.152 373.787 415.152C373.787 414.155 373.714 413.292 373.592 412.538C372.193 414.775 363.18 429.713 359.409 451.714Z" fill="#232323"/>
<path d="M381.617 408.321C381.617 408.321 364.478 432.169 361.583 448.432C358.713 464.707 360.854 486.647 361.012 495.557C361.012 495.557 350.952 492.396 349.748 489.516C348.556 486.623 350.004 450.96 350.162 443.582C350.417 433.323 369.137 415.334 372.749 408.333C376.362 401.319 381.617 408.321 381.617 408.321Z" fill="#383838"/>
<path d="M351.014 502.91C351.014 502.91 337.561 507.675 331.175 505.414C324.801 503.178 316.481 497.514 320.41 495.86C324.351 494.195 334.252 496.116 335.08 493.454C335.919 490.804 329.557 490.658 332.708 489.552C335.858 488.409 341.636 488.592 351.707 495.532C351.719 495.52 354.468 499.118 351.014 502.91Z" fill="#FCB892"/>
<path d="M335.104 492.615C335.506 490.974 333.109 490.318 332.197 489.771C330.689 490.573 334.605 490.901 335.104 492.615Z" fill="#DB895D"/>
<path d="M351.014 502.181C351.014 502.181 337.561 506.946 331.175 504.685C326.224 502.947 320.094 499.142 319.462 496.748C318.744 499.008 325.689 503.482 331.175 505.414C337.561 507.675 351.014 502.91 351.014 502.91C352.498 501.281 352.826 499.701 352.741 498.413C352.668 499.543 352.23 500.844 351.014 502.181Z" fill="#DB895D"/>
<path d="M419.008 429.312C419.008 429.312 408.961 425.082 403.001 440.507C397.004 455.931 388.538 483.791 388.538 483.791L386.008 487.303L347.717 492.457C347.717 492.457 354.59 499.786 347.061 504.49C347.061 504.49 389.146 512.841 401.383 500.102C401.383 500.09 436.207 434.162 419.008 429.312Z" fill="#383838"/>
<path d="M348.01 492.797C347.95 492.676 347.877 492.554 347.816 492.433L347.719 492.445C347.719 492.445 347.828 492.579 348.01 492.797Z" fill="#232323"/>
<path d="M421.405 430.686C427.608 445.478 399.924 497.902 399.924 497.902C389.792 508.453 359.237 504.551 348.995 502.886C348.496 503.433 347.864 503.98 347.049 504.478C347.049 504.478 389.135 512.829 401.371 500.09C401.383 500.09 432.412 441.333 421.405 430.686Z" fill="#232323"/>
<path d="M391.836 456.977L380.621 450.231L383.37 442.294L394.597 449.028L391.836 456.977Z" fill="#D9E9F4"/>
<path d="M373.807 395.838C373.807 395.838 381.664 404.48 378.441 414.167C377.565 416.817 375.497 427.671 391.687 422.724C391.687 422.724 408.412 413.584 403.133 408.624C399.642 405.318 396.175 400.493 400.591 382.783L373.807 395.838Z" fill="#DB895D"/>
<path d="M377.482 366.909C377.482 366.909 377.275 388.338 379.209 409.232C379.489 412.234 373.553 419.345 367.933 418.057C367.933 418.057 357.801 392.471 369.782 367.468C373.589 359.543 387.796 348.154 404.716 359.154L377.482 366.909Z" fill="#754C29"/>
<path d="M375.512 364.636C375.512 364.636 371.534 378.711 370.087 386.758C369.43 390.38 367.897 404.528 376.375 405.792C382.494 406.704 397.443 402.377 402.004 387.609C406.565 372.804 393.477 354.365 375.512 364.636Z" fill="#FCB892"/>
<path d="M398.207 357.622H398.158C410.626 360.868 414.093 377.119 414.093 377.119C415.808 392.604 419.554 409.828 414.032 417.011C406.04 427.404 388.987 418.567 388.987 418.567C405.639 368.878 373.807 370.883 373.807 370.883C373.807 370.883 372.189 351.837 398.207 357.622Z" fill="#DB895D"/>
<path d="M399.619 356.212H399.57C412.038 359.458 415.505 375.709 415.505 375.709C417.22 391.194 419.665 407.579 415.444 415.601C408.45 428.875 390.423 420.135 390.423 420.135C407.075 370.446 376.496 369.838 376.496 369.838C376.496 369.838 369.928 368.793 367.106 380.923C367.094 380.936 367.094 346.926 399.619 356.212Z" fill="#754C29"/>
<path d="M367.544 376.147C367.094 378.979 367.094 380.936 367.094 380.936C368.091 376.645 369.563 374.007 371.035 372.391C369.916 373.059 368.675 374.202 367.544 376.147Z" fill="#966442"/>
<path d="M415.504 375.709C415.504 375.709 412.037 359.458 399.569 356.212C399.582 356.212 399.618 356.212 399.618 356.212C387.503 352.748 379.913 355.301 375.133 359.859C379.95 356.383 387.09 354.815 397.66 357.841H397.611C410.079 361.087 413.545 377.338 413.545 377.338C415.26 392.823 417.705 409.208 413.484 417.23C412.779 418.579 411.952 419.686 411.04 420.609C412.73 419.479 414.239 417.862 415.431 415.601C419.664 407.591 417.219 391.194 415.504 375.709Z" fill="#966442"/>
<path d="M380.925 763.026L131.998 614.517V424.791L380.925 572.315V763.026Z" fill="#A9C2E0"/>
<path d="M380.926 763.026L438.216 727.181L440.491 539.788L380.926 572.315V763.026Z" fill="#BED6ED"/>
<path d="M270.285 450.34L307.323 428.972L256.467 452.783L256.832 453.415L270.285 450.34Z" fill="#516D8E"/>
<path d="M344.372 450.474L307.322 429.106L358.19 452.783V453.634L344.372 450.474Z" fill="#87A2C9"/>
<path d="M307.321 509.608L270.283 488.239V449.623L307.321 470.991V509.608Z" fill="#6C86AD"/>
<path d="M307.322 509.608L344.36 488.239V449.623L307.322 470.991V509.608Z" fill="#87A2C9"/>
<path d="M270.285 449.623L307.323 428.243L293.505 431.403L256.467 452.783L270.285 449.623Z" fill="#91ADCE"/>
<path d="M344.372 449.623L307.322 428.243L321.14 431.403L358.19 452.783L344.372 449.623Z" fill="#96B4D6"/>
<path d="M307.321 470.992L270.283 449.623L307.321 428.243L344.371 449.623L307.321 470.992Z" fill="#B9D6ED"/>
<path d="M341.209 449.611L309.888 467.685L307.321 469.168L304.767 467.685L273.434 449.611L307.321 430.078L341.209 449.611Z" fill="#6C86AD"/>
<path d="M306.289 469.691L323.586 475.999C323.938 476.133 324.328 475.951 324.449 475.598L336.99 441.236C337.124 440.884 336.941 440.495 336.588 440.373L319.292 434.065C318.939 433.931 318.55 434.113 318.428 434.466L305.888 468.828C305.754 469.168 305.936 469.557 306.289 469.691Z" fill="#0D1883"/>
<path d="M314.767 470.238C314.572 470.785 314.852 471.38 315.399 471.587C315.947 471.794 316.543 471.502 316.75 470.955C316.944 470.408 316.664 469.812 316.117 469.606C315.57 469.399 314.961 469.703 314.767 470.238Z" fill="#B6D1FE"/>
<path d="M308.781 465.315L309.839 462.422L316.091 445.284L319.059 437.14L322.429 438.355L325.737 439.559L331.503 441.662L334.312 442.695L334.775 442.853L324.29 471.611L308.574 465.886L308.781 465.315Z" fill="#B6D1FE"/>
<path d="M324.072 437.711L330.598 440.089L330.902 439.255L324.377 436.878L324.072 437.711Z" fill="#B6D1FE"/>
<path opacity="0.39" d="M311.105 458.593L312.675 454.594L330.859 441.406L333.486 442.391L311.105 458.593Z" fill="#F0F1F2"/>
<path opacity="0.38" d="M313.244 453.087L313.804 451.531L328.753 440.665L329.884 441.078L313.244 453.087Z" fill="#F0F1F2"/>
<path d="M308.419 494.598L310.723 494.033L285.323 390.634L283.02 391.199L308.419 494.598Z" fill="#DCE9F7"/>
<path d="M308.448 494.568L309.594 494.287L284.195 390.888L283.049 391.169L308.448 494.568Z" fill="#C1D8F8"/>
<path d="M281.618 388.532C280.657 384.704 282.737 380.692 286.484 379.453C290.668 378.067 295.083 380.547 296.129 384.74L297.601 390.623C297.857 391.644 297.236 392.677 296.214 392.932H296.202C296.154 392.945 296.105 392.957 296.056 392.957C295.095 393.115 294.147 392.507 293.903 391.547L292.456 385.761C291.994 383.926 290.254 382.649 288.369 382.905C286.155 383.196 284.744 385.348 285.267 387.451L288.454 400.201L286.423 400.712L284.769 401.125L281.618 388.532Z" fill="#3443B2"/>
<path d="M286.386 400.663L283.199 387.584C282.457 384.582 284.306 381.543 287.31 380.814C288.819 380.449 290.327 380.717 291.543 381.458C292.772 382.2 293.708 383.415 294.085 384.91L296.068 392.969C295.107 393.127 294.158 392.519 293.915 391.559L292.468 385.773C292.005 383.938 290.266 382.662 288.381 382.917C286.167 383.209 284.756 385.36 285.279 387.463L288.466 400.213L286.435 400.724C286.398 400.687 286.386 400.663 286.386 400.663Z" fill="#0D1883"/>
<path d="M271 413.559C271.949 414.568 275.792 417.206 277.082 416.525C278.505 415.772 279.539 410.983 279.539 410.983C279.539 410.983 284.806 415.079 286.058 414.605C287.311 414.131 287.81 408.576 287.81 408.576C287.81 408.576 292.274 412.028 293.855 411.566C295.437 411.104 295.899 409.378 296.799 406.826C298.052 409.658 299.669 410.703 301.518 410.326C303.027 410.022 304.863 406.911 305.484 405.343C305.544 405.185 305.605 405.051 305.642 404.954C305.666 405.075 305.678 405.197 305.703 405.318C312.332 446.657 312.125 505.414 312.125 505.414L311.784 505.499C311.772 505.499 284.246 453.306 271 413.559Z" fill="#0D1883"/>
<path d="M296.797 406.838C299.108 409.208 299.667 410.715 301.516 410.338C303.025 410.034 304.861 406.923 305.482 405.355C305.555 405.343 305.628 405.331 305.688 405.331C312.318 446.669 312.111 505.426 312.111 505.426C312.111 505.426 306.029 442.889 296.797 406.838Z" fill="#3443B2"/>
<path d="M279.537 410.983C279.537 410.983 284.804 415.079 286.057 414.605C287.31 414.131 287.808 408.576 287.808 408.576L312.123 505.414C307.647 497.526 279.537 410.983 279.537 410.983Z" fill="#3443B2"/>
<path d="M307.322 470.991V509.608L319.814 502.412L314.706 467.102L307.322 470.991Z" fill="#87A2C9"/>
<path d="M307.323 509.608V472.219L292.934 479.609L307.323 509.608Z" fill="#6C86AD"/>
<path d="M283.08 457.001L307.322 470.991L333.486 456.017L331.99 454.935L307.322 469.168L284.321 455.895L283.08 457.001Z" fill="#B9D6ED"/>
<path d="M298.687 488.045L261.649 466.664L261.309 465.935L307.323 470.991V472.219L298.687 488.045Z" fill="#567096"/>
<path d="M298.359 487.303L261.309 465.935L270.285 449.623L307.323 470.991L298.359 487.303Z" fill="#94B1D3"/>
<path d="M315.885 487.741L352.936 466.373L353.349 465.935L307.322 470.991V472.219L315.885 487.741Z" fill="#5A769E"/>
<path d="M316.299 487.303L353.349 465.935L344.372 449.623L307.322 470.991L316.299 487.303Z" fill="#A5C6E5"/>
<path d="M298.359 487.303L261.309 465.935L261.649 466.664L298.687 488.045L298.359 487.303Z" fill="#537099"/>
<path d="M336.078 494.402C336.078 494.402 333.816 490.658 332.198 489.771C330.58 488.883 334.302 487 339.691 489.285C345.079 491.57 340.287 494.402 340.287 494.402H336.078Z" fill="#FCB892"/>
<path d="M290.755 641.72L272.291 609.558C271.926 608.926 271.513 608.367 271.063 607.88C275.77 604.1 278.604 597.318 278.604 588.056C278.604 567.003 263.971 541.15 245.908 530.308C227.846 519.465 213.213 527.743 213.213 548.795C213.213 569.847 227.846 595.701 245.908 606.543C253.462 611.077 260.42 612.256 265.954 610.567C266.149 611.284 266.453 612.025 266.866 612.754L285.33 644.916C286.085 646.229 287.058 647.25 288.043 647.834C289.053 648.441 290.05 648.587 290.816 648.137C292.312 647.25 292.288 644.382 290.755 641.72ZM217.908 551.603C217.908 533.565 230.449 526.467 245.921 535.753C261.393 545.039 273.933 567.198 273.933 585.248C273.933 603.286 261.393 610.384 245.921 601.098C230.449 591.799 217.908 569.641 217.908 551.603Z" fill="#87A4C1"/>
<path d="M310.496 671.742L283.638 624.302C282.969 623.123 273.056 628.665 273.75 629.893L300.607 677.334C303.331 682.159 307.759 684.821 310.496 683.265C313.22 681.722 313.22 676.568 310.496 671.742ZM308.464 675.839C308.464 677.419 307.37 678.039 306.007 677.224C304.645 676.41 303.55 674.465 303.55 672.885C303.55 671.305 304.645 670.685 306.007 671.499C307.37 672.314 308.464 674.246 308.464 675.839Z" fill="#C1D8F8"/>
<path d="M285.11 627.17L275.416 632.652C274.978 632.907 274.26 632.47 273.81 631.692L272.059 628.604C271.621 627.827 271.621 626.988 272.059 626.733L281.753 621.251C282.191 620.996 282.909 621.433 283.359 622.211L285.11 625.298C285.548 626.076 285.548 626.915 285.11 627.17Z" fill="#C1D8F8"/>
<path d="M196.054 766.775C227.216 765.615 251.948 750.443 251.294 732.887C250.641 715.332 224.849 702.04 193.687 703.2C162.525 704.36 137.793 719.532 138.447 737.088C139.101 754.644 164.892 767.935 196.054 766.775Z" fill="#D7E9FF"/>
<path d="M153.689 716.047C153.689 716.047 152.424 725.212 152.424 728.494C152.412 731.812 154.005 736.492 163.03 735.592C172.627 734.632 178.612 726.877 183.696 724.908C188.939 722.89 199.035 715.524 200.373 710.893C201.711 706.275 192.539 706.129 188.027 707.466C183.623 708.778 179.257 709.496 172.007 712.644L153.689 716.047Z" fill="#0863EF"/>
<path d="M153.689 717.019L171.995 713.616C179.257 710.468 183.611 709.751 188.014 708.438C192.04 707.247 199.728 707.235 200.421 710.517C201.127 706.287 192.393 706.177 188.014 707.478C183.611 708.791 179.257 709.508 171.995 712.656L153.689 716.059C153.689 716.059 152.424 725.224 152.424 728.506C152.424 728.652 152.436 728.785 152.436 728.931C152.558 725.285 153.689 717.019 153.689 717.019Z" fill="#99BCE6"/>
<path d="M162.982 555.31C162.982 555.31 162.045 599.7 162.982 619.428C163.918 639.143 160.293 638.839 156.194 658.822C152.095 678.804 149.833 713.75 149.833 713.75C149.833 713.75 148.641 721.468 161.777 722.915C174.914 724.361 179.925 713.75 179.925 713.75C179.925 713.75 180.302 692.892 186.494 668.704C192.685 644.515 194.412 633.333 196.443 621.202C198.463 609.071 203 604.757 205.371 572.4L162.982 555.31Z" fill="#4E87EE"/>
<path d="M167.458 722.428C154.321 720.982 155.513 713.264 155.513 713.264C155.513 713.264 157.776 678.318 161.875 658.335C165.974 638.353 169.599 638.669 168.662 618.941C167.859 602.168 168.419 567.538 168.613 557.583L162.982 555.31C162.982 555.31 162.045 599.7 162.982 619.428C163.918 639.143 160.293 638.839 156.194 658.822C152.095 678.804 149.833 713.75 149.833 713.75C149.833 713.75 148.641 721.468 161.777 722.915C164.405 723.206 166.691 723 168.698 722.501C168.285 722.477 167.896 722.477 167.458 722.428Z" fill="#0552DE"/>
<path d="M196.431 738.266C196.431 738.266 196.042 747.674 196.431 750.993C196.82 754.311 199.204 758.784 209.142 757.058C219.079 755.332 224.407 747.759 229.199 745.693C233.98 743.627 242.628 736.735 243.552 732.602C244.477 728.469 237.884 726.427 233.834 727.643C229.783 728.846 221.694 729.539 214.518 732.639L196.431 738.266Z" fill="#0863EF"/>
<path d="M233.822 727.643C229.772 728.846 221.683 729.539 214.507 732.639L196.432 738.266C196.432 738.266 196.407 738.777 196.383 739.567L213.983 734.085C221.16 730.985 229.249 730.293 233.299 729.089C237.289 727.898 243.748 729.867 243.042 733.891C243.273 733.441 243.456 733.003 243.541 732.602C244.465 728.482 237.873 726.44 233.822 727.643Z" fill="#99BCE6"/>
<path d="M230.16 561.898C230.16 561.898 229.613 595.008 226.706 636.906C223.75 679.631 219.967 732.639 219.967 732.639C219.967 732.639 218.349 740.017 207.268 740.017C196.187 740.017 194.047 739.056 192.806 735.702C188.099 723 191.456 698.179 191.845 681.916C192.234 665.653 195.275 657.801 196.273 644.102C197.27 630.391 188.829 608.853 186.895 586.548C186.895 586.548 158.602 575.342 163.577 548.807L230.16 561.898Z" fill="#4E87EE"/>
<path d="M212.437 737.61C201.357 737.61 199.216 736.65 197.975 733.295C193.268 720.593 196.625 695.773 197.014 679.509C197.403 663.246 200.444 655.394 201.442 641.695C202.439 627.985 193.998 606.446 192.064 584.142C192.064 584.142 166.18 573.871 168.308 549.755L163.589 548.832C158.614 575.354 186.906 586.573 186.906 586.573C188.84 608.877 197.282 630.428 196.284 644.126C195.287 657.837 192.246 665.677 191.857 681.94C191.468 698.204 188.11 723.024 192.818 735.726C194.058 739.081 196.211 740.041 207.28 740.041C212.036 740.041 215.028 738.68 216.926 737.136C215.624 737.415 214.153 737.61 212.437 737.61Z" fill="#0552DE"/>
<path d="M219.275 469.278C219.275 469.278 226.61 460.247 227.778 460.198C228.957 460.149 225.746 467.916 225.746 467.916C225.746 467.916 238.579 464.598 240.513 464.72C242.459 464.829 243.687 467.126 243.687 467.126C243.687 467.126 229.906 479.828 221.744 478.625L214.312 479.913L212.549 472.341L219.275 469.278Z" fill="#FCB892"/>
<path d="M225.395 466.822C225.395 466.822 225.723 466.737 226.282 466.591C227.134 464.379 228.654 460.161 227.791 460.198C227.742 460.198 227.669 460.234 227.608 460.271C227.207 462.422 225.395 466.822 225.395 466.822Z" fill="#DB895D"/>
<path d="M243.091 466.251C241.242 467.904 228.932 478.637 221.391 477.519L214.068 478.795L214.324 479.913L221.756 478.625C229.93 479.84 243.699 467.126 243.699 467.126C243.699 467.126 243.48 466.725 243.091 466.251Z" fill="#DB895D"/>
<path d="M209.093 474.164C205.517 477.567 196.638 480.934 191.517 484.24C191.298 484.252 189.814 482.381 188.586 480.825C187.041 477.81 183.696 469.229 180.837 458.654C175.339 438.258 173.235 424.365 155.586 433.566C145.587 437.079 140.418 449.271 146.901 477.762C150.818 490.597 160.305 510.228 162.033 512.744C178.064 528.059 211.952 487.352 218.325 484.252C218.338 484.252 216.72 474.76 209.093 474.164Z" fill="#F8FBFF"/>
<path d="M196.298 464.379C196.298 464.379 234.029 559.929 230.149 564.341C226.293 568.741 216.38 572.023 193.61 569.775C169.94 567.441 163.627 564.864 162.313 556.805C161.377 551.141 171.18 528.545 169.502 518.797C165.926 497.988 196.298 464.379 196.298 464.379Z" fill="#0552DE"/>
<path d="M169.513 433.761C179.134 442.014 201.174 444.652 201.174 444.652L216.634 456.527L221.56 460.392C221.56 460.392 235.999 557.231 231.559 561.059C228.068 564.062 216.403 567.83 193.633 565.593C169.963 563.26 157.751 558.908 156.437 550.849C155.5 545.185 163.577 519.271 161.898 509.51C158.322 488.689 144.322 472.45 147.339 451.726C151.194 425.289 164.404 433.639 169.513 433.761Z" fill="#F8FBFF"/>
<path d="M199.011 563.187C175.341 560.853 162.192 556.878 160.866 548.807C159.93 543.143 167.824 513.619 165.197 507.201C151.355 473.41 150.15 448.31 149.798 450.462C146.404 471.137 158.3 488.677 161.876 509.498C163.554 519.247 155.478 545.173 156.415 550.837C157.728 558.896 169.94 563.247 193.611 565.581C213.474 567.538 225.759 565.557 231.536 561.047C224.53 563.308 214.094 564.67 199.011 563.187Z" fill="#B6D1FE"/>
<path d="M268.221 501.342C268.221 501.342 275.373 490.901 277.478 491.193C279.57 491.485 277.076 497.173 277.076 497.173C277.076 497.173 288.802 492.263 291.089 492.627C293.375 492.992 294.725 494.086 294.725 494.086C294.725 494.086 290.553 503.931 274.546 510.337C274.546 510.337 269.486 514.287 268.768 514.895C268.051 515.503 262.443 504.405 262.443 504.405L268.221 501.342Z" fill="#FCB892"/>
<path d="M294.03 493.648C292.789 495.946 287.717 503.822 274.179 509.255C274.179 509.255 269.119 513.206 268.402 513.813C267.818 514.312 263.998 507.067 262.6 504.332L262.441 504.418C262.441 504.418 268.049 515.527 268.766 514.907C269.484 514.287 274.544 510.349 274.544 510.349C290.551 503.931 294.723 494.098 294.723 494.098C294.723 494.098 294.48 493.891 294.03 493.648Z" fill="#DB895D"/>
<path d="M276.708 496.079C276.708 496.079 276.671 496.711 277.073 497.173C278.009 495.715 278.885 492.068 277.936 491.424C277.973 493.186 276.708 496.079 276.708 496.079Z" fill="#DB895D"/>
<path d="M263.245 502.971C259.669 506.375 250.789 509.741 245.669 513.048C245.45 513.06 243.966 511.188 242.737 509.632C241.192 506.618 237.847 498.036 234.989 487.461C229.491 467.065 223.446 452.261 205.797 461.462C200.262 466.531 201.065 480.156 207.706 495.168C213.277 506.545 216.756 509.559 225.501 524.242C225.526 524.279 225.562 524.303 225.587 524.339C228.092 528.205 231.279 531.243 233.006 533.76C249.038 549.075 266.115 516.147 272.489 513.048C272.501 513.06 270.884 503.555 263.245 502.971Z" fill="#F8FBFF"/>
<path d="M234.174 530.174C232.447 527.658 229.26 524.607 226.754 520.754C226.73 520.717 226.693 520.693 226.669 520.657C217.924 505.973 214.445 502.959 208.874 491.582C204.191 480.971 202.427 471.077 203.729 464.391C200.676 470.76 202.087 482.466 207.706 495.18C213.277 506.557 216.756 509.571 225.501 524.254C225.526 524.291 225.562 524.315 225.587 524.352C228.092 528.217 231.279 531.256 233.006 533.772C249.038 549.087 266.115 516.159 272.489 513.06C272.489 513.06 272.331 512.112 271.869 510.799C264.486 517.642 248.892 544.225 234.174 530.174Z" fill="#B6D1FE"/>
<path d="M211.089 381.92C211.089 381.92 219.907 389.067 216.757 405.476C213.862 420.524 210.991 428.303 208.34 429.373C206.746 430.005 201.82 429.701 200.92 430.503C200.02 431.306 201.054 442.926 201.175 444.652C195.458 446.074 178.478 443.837 169.514 433.761C170.645 431.95 175.681 424.9 176.97 413.012C178.247 401.137 211.089 381.92 211.089 381.92Z" fill="#FCB892"/>
<path d="M188.623 439.632C179.938 438.27 174.477 432.193 172.227 429.13C171.022 431.488 169.952 433.044 169.502 433.761C178.466 443.85 195.447 446.086 201.164 444.652C201.115 444.044 200.957 442.184 200.811 440.021C198.269 440.385 194.328 440.519 188.623 439.632Z" fill="#DB895D"/>
<path d="M212.186 384.521L215.142 387.596C213.33 383.719 211.104 381.908 211.104 381.908C211.104 381.908 207.795 383.841 203.246 386.867L212.186 384.521Z" fill="#DB895D"/>
<path d="M214.678 385.275C220.359 397.272 212.647 395.315 213.158 399.715C213.681 404.127 210.579 414.046 209.363 414.252C208.232 414.447 208.803 404.686 204.874 406.339C200.946 408.017 201.104 426.93 192.918 427.331C185.705 427.671 176.74 423.247 175.852 419.649C174.77 415.249 213.73 383.257 214.678 385.275Z" fill="#DB895D"/>
<path d="M217.437 380.182C223.786 387.22 213.155 393.528 213.666 397.928C214.189 402.34 211.635 412.344 210.418 412.551C209.287 412.745 208.192 402.267 204.276 403.933C200.347 405.61 200.505 424.523 192.319 424.924C185.106 425.265 176.652 421.023 174.998 417.704C172.882 413.474 162.701 396.53 176.032 381.908C194.581 365.11 215.94 378.529 217.437 380.182Z" fill="#412424"/>
<path d="M53.5803 683.375C83.172 683.375 107.161 669.536 107.161 652.465C107.161 635.393 83.172 621.555 53.5803 621.555C23.9887 621.555 0 635.393 0 652.465C0 669.536 23.9887 683.375 53.5803 683.375Z" fill="#D7E9FF"/>
<path d="M81.6546 650.264C80.3653 646.533 74.8431 643.275 72.386 639.981C71.0237 638.158 69.9898 636.213 68.9681 634.171C67.1436 630.549 65.5866 627.619 66.4989 623.499C67.0462 621.031 67.9463 618.613 68.6761 616.194C66.5962 615.72 59.59 616.23 58.0574 617.263C56.9748 617.993 55.5395 619.184 55.0895 620.436C54.0799 623.183 52.6933 624.86 51.6107 627.935C49.6037 633.673 51.039 635.86 55.7342 639.325C59.8454 642.351 59.9914 645.791 62.5457 649.79C65.1852 653.911 70.8777 655.466 75.5242 655.114C78.1272 654.919 82.9074 653.898 81.6546 650.264Z" fill="#0863EF"/>
<path d="M81.6566 650.265C80.3673 646.533 74.8451 643.275 72.3881 639.981C71.0257 638.158 69.9918 636.213 68.9701 634.171C67.1456 630.549 65.5886 627.62 66.5009 623.499C67.0483 621.032 67.9483 618.613 68.6782 616.194C66.6347 615.72 59.8353 616.219 58.1445 617.215C60.8448 616.62 65.3575 616.401 66.9631 616.766C66.2454 619.184 65.3454 621.615 64.7858 624.071C63.8736 628.191 65.4305 631.121 67.255 634.743C68.2768 636.785 69.3107 638.717 70.673 640.553C73.13 643.847 78.6523 647.104 79.9416 650.836C80.6228 652.829 79.4916 654.033 77.9103 654.75C80.2457 654.178 82.5811 652.927 81.6566 650.265Z" fill="#99BCE6"/>
<path d="M57.8744 669.737C55.7458 663.513 48.326 660.232 44.7013 654.956C41.5023 650.301 39.471 645.22 39.4101 639.568C39.3493 635.156 40.5414 634.317 36.053 634.317C33.669 634.317 28.5846 633.406 27.648 635.156C27.0398 636.299 27.648 639.799 27.648 641.148C27.648 643.446 27.3074 643.324 26.6628 645.196C25.7748 647.773 24.2787 651.589 25.1302 654.312C26.0424 657.217 29.7402 659.344 31.4552 661.885C35.6273 668.047 39.3858 673.237 47.3773 674.38C49.883 674.72 59.4313 674.283 57.8744 669.737Z" fill="#0863EF"/>
<path d="M38.2689 637.854C38.3418 643.506 40.361 648.587 43.56 653.242C43.6451 653.364 43.7303 653.473 43.8154 653.583C41.1394 649.304 39.4731 644.673 39.4001 639.568C39.3636 636.201 40.0326 634.913 38.354 634.5C38.3662 635.278 38.2445 636.359 38.2689 637.854Z" fill="#99BCE6"/>
<path d="M57.8757 669.737C57.4135 668.4 56.708 667.196 55.8444 666.078C56.1971 666.698 56.5012 667.342 56.7323 668.023C58.2893 672.569 48.7409 673.006 46.223 672.654C38.2316 671.511 34.4609 666.309 30.301 660.159C29.0968 658.384 26.9438 656.804 25.4355 655.029C26.6762 657.57 29.8752 659.563 31.4443 661.873C35.6164 668.035 39.375 673.225 47.3664 674.368C49.8842 674.72 59.4326 674.283 57.8757 669.737Z" fill="#99BCE6"/>
<path d="M30.9804 455.445C13.3311 471.854 30.3114 552.94 30.3114 552.94C30.0316 556.173 26.3461 562.53 24.9594 576.752C23.3295 593.55 26.2974 638.754 26.2974 638.754C26.2974 638.754 34.0091 641.768 40.4558 638.681C40.4558 638.681 50.6245 572.68 52.7288 555.967C54.5655 541.393 59.4674 502.351 59.4674 502.351L69.3685 554.666C69.3685 554.666 64.6977 561.789 62.788 567.745C60.4161 575.123 53.6897 620.132 53.6897 620.132C53.6897 620.132 59.9053 623.973 67.6169 622.843C67.6169 622.843 91.3602 563.114 91.8346 551.25C93.9997 496.833 75.7179 449.805 75.7179 449.805L30.9804 455.445Z" fill="#F2F4F7"/>
<path d="M29.7154 637.052C29.7154 637.052 26.7475 591.848 28.3774 575.05C29.7519 560.829 33.4496 554.472 33.7294 551.238C33.7294 551.238 17.637 474.395 33.0725 455.19L30.9804 455.457C13.3311 471.867 30.3114 552.952 30.3114 552.952C30.0316 556.185 26.3461 562.542 24.9594 576.764C23.3295 593.562 26.2974 638.766 26.2974 638.766C26.2974 638.766 34.0091 641.78 40.4558 638.693C40.4558 638.693 40.4923 638.45 40.5531 638.061C35.0552 639.118 29.7154 637.052 29.7154 637.052Z" fill="#B6D1FE"/>
<path d="M57.1059 618.419C57.1059 618.419 63.8445 573.409 66.2042 566.031C68.1139 560.075 72.7847 552.952 72.7847 552.952L60.8887 490.816C60.8887 490.816 60.2684 495.727 59.3926 502.704L69.3546 554.666C69.3546 554.666 64.6838 561.789 62.7741 567.745C60.4022 575.123 53.6758 620.132 53.6758 620.132C53.6758 620.132 59.8913 623.973 67.603 622.843C67.603 622.843 67.8098 622.308 68.199 621.348C61.8618 621.348 57.1059 618.419 57.1059 618.419Z" fill="#B6D1FE"/>
<path d="M73.6757 388.557C75.403 388.994 100.034 404.528 107.807 404.966C115.579 405.403 118.9 400.067 116.309 393.601C113.718 387.122 86.2042 358.34 82.7497 353.587C82.7497 353.587 75.1719 343.243 71.7052 342.38C68.2508 341.517 69.3455 355.593 75.9746 360.199C82.6037 364.806 92.1035 377.18 91.8116 381.495C91.8116 381.495 73.5541 366.812 71.0119 365.669C68.4697 364.514 65.8789 365.669 65.8789 365.669L73.6757 388.557Z" fill="#FCB892"/>
<path d="M75.9855 360.199C81.1428 363.785 90.1561 377.654 92.8199 383.184C93.5132 383.731 95.6904 387.657 95.6904 387.657C95.9824 383.342 82.6025 361.828 75.9733 357.221C72.2635 354.644 70.293 349.114 69.8794 344.872C69.3807 348.98 71.3025 356.954 75.9855 360.199Z" fill="#DB895D"/>
<path d="M107.806 401.976C100.033 401.538 75.4021 386.004 73.6749 385.567L66.8146 365.377C66.2551 365.511 65.9023 365.669 65.9023 365.669L73.6749 388.557C75.4021 388.994 100.033 404.528 107.806 404.966C114.569 405.343 117.95 401.356 117.001 396.044C116.405 399.764 113.218 402.28 107.806 401.976Z" fill="#DB895D"/>
<path d="M18.1977 386.709C18.1977 386.709 11.2523 387.852 8.5885 392.702C5.92469 397.551 5.63276 414.896 9.37912 436.253C9.37912 436.253 0.487582 483.438 2.11749 490.719C3.74741 497.988 5.54764 507.639 8.75881 512.27C9.92651 513.959 13.3445 518.724 15.023 517.545C15.023 517.545 11.4348 501.196 12.2984 499.908C13.162 498.607 13.5877 490.148 11.9213 486.161C10.2549 482.174 23.6348 456.977 22.0414 440.799C20.4479 424.62 28.78 396.312 28.78 396.312L18.1977 386.709Z" fill="#FCB892"/>
<path d="M11.0334 512.27C7.83438 507.626 6.02202 497.988 4.39211 490.719C2.76219 483.45 11.6537 436.253 11.6537 436.253C7.90733 414.896 8.19926 397.551 10.8631 392.702C12.6633 389.42 16.434 387.827 18.6843 387.159L18.1977 386.709C18.1977 386.709 11.2523 387.852 8.5885 392.702C5.92469 397.551 5.63276 414.896 9.37912 436.253C9.37912 436.253 0.487582 483.438 2.11749 490.719C3.74741 497.988 5.54764 507.639 8.75881 512.27C9.92651 513.959 13.3445 518.724 15.023 517.545C15.023 517.545 14.9622 517.277 14.8649 516.816C13.3566 515.564 11.7632 513.327 11.0334 512.27Z" fill="#DB895D"/>
<path d="M59.4923 370.422L63.2265 386.661L49.4087 392.702L36.5275 380.863L34.1191 366.945L44.1905 360.685L59.4923 370.422Z" fill="#DB895D"/>
<path d="M7.4707 396.093C7.4707 396.093 11.5576 390.611 15.7054 390.988C19.8532 391.365 22.4318 397.709 23.2833 400.955C24.1347 404.2 24.4388 412.453 24.4388 412.453L27.3216 398.159L22.0669 387.657L15.45 386.952C15.45 386.952 11.6306 389.237 10.4872 390.173C9.36819 391.097 8.2735 391.79 7.4707 396.093Z" fill="#DB895D"/>
<path d="M68.6152 369.364L69.3445 369.06C69.3445 369.06 68.6395 368.209 68.6152 369.364Z" fill="#4E87EE"/>
<path d="M31.1873 455.263C26.3706 470.943 72.6163 462.811 75.499 451.3C76.1315 448.76 75.3288 446.28 75.1341 447.143C72.7987 457.572 35.1405 465.315 31.1873 455.263Z" fill="#B6D1FE"/>
<path d="M74.4019 392.823C76.5549 398.828 77.5766 402.96 77.905 405.975C78.3916 402.924 77.6983 398.062 74.4019 388.848C69.5973 375.417 68.5756 370.81 68.6121 369.364L58.4434 373.558C58.4434 373.558 58.9421 375.077 59.4165 377.131L68.6243 373.339C68.5756 374.785 69.5973 379.38 74.4019 392.823Z" fill="#4E87EE"/>
<path d="M57.9842 391.96C60.1858 391.292 60.4412 388.143 60.0763 384.947C59.833 386.454 59.2127 387.609 57.9842 387.985C49.421 390.574 49.0561 391.729 33.499 375.028L12.5898 388.776C12.5898 388.776 15.8253 387.025 19.2676 388.484L33.499 379.003C49.044 395.692 49.421 394.549 57.9842 391.96Z" fill="#4E87EE"/>
<path d="M31.7205 448.736C31.6111 449.599 31.441 450.45 31.1857 451.288C30.7117 452.844 30.7482 454.157 31.1857 455.275C31.1857 455.275 31.1857 455.275 31.1857 455.263C31.83 453.185 31.9272 450.984 31.7205 448.736Z" fill="#4E87EE"/>
<path d="M51.645 433.141C54.99 429.227 71.8973 422.785 71.8973 422.785L71.9217 422.7C71.3378 429.859 75.3639 436.459 76.0329 444.08C76.86 434.697 71.2527 427.1 71.9217 418.725L71.8973 418.81C71.8973 418.81 55.0022 425.252 51.645 429.166C51.3653 429.495 51.1585 429.47 50.9882 429.288C50.3557 431.67 50.6476 434.308 51.645 433.141Z" fill="#4E87EE"/>
<path d="M52.1943 422.821C54.1769 420.658 73.2007 413.827 73.2007 413.827L73.1885 413.888C74.782 410.764 77.2998 409.816 77.908 405.963C77.5796 402.948 76.5578 398.828 74.4049 392.811C69.6003 379.38 68.5785 374.773 68.615 373.327L59.4072 377.119C59.9546 379.513 60.4533 382.637 60.0762 384.935C60.429 388.119 60.1857 391.279 57.9841 391.948C49.421 394.537 49.0561 395.692 33.4989 378.991L19.2676 388.472C20.5447 389.019 21.8828 389.991 23.1234 391.717C25.0088 394.318 25.4831 397.77 25.1547 401.319C25.7264 406.424 25.4831 414.021 23.7802 418.652C23.318 419.916 23.2816 421.29 23.8411 422.505C26.882 429.106 32.9272 438.963 31.723 448.736C31.9298 450.984 31.8325 453.185 31.1879 455.263C35.141 465.315 72.8966 457.694 75.4996 447.326C75.7793 446.208 75.9375 445.138 76.0227 444.068C75.3537 436.447 71.3397 429.847 71.9113 422.688L71.887 422.773C71.887 422.773 54.9919 429.215 51.6348 433.129C50.6252 434.308 50.3454 431.658 50.9779 429.276C50.3332 428.546 50.613 424.547 52.1943 422.821Z" fill="#4E87EE"/>
<path d="M52.1916 422.822C50.209 424.985 50.2455 430.807 51.6564 429.166C55.0014 425.252 71.9087 418.81 71.9087 418.81L71.9331 418.725C71.9696 418.227 72.0182 417.729 72.1033 417.218C72.3466 415.845 72.7359 414.787 73.1859 413.9L73.198 413.839C73.1859 413.827 54.1621 420.658 52.1916 422.822Z" fill="#0552DE"/>
<path d="M59.5752 386.199C61.2538 386.089 63.0418 385.482 65.5231 384.728C69.975 383.379 66.4962 371.929 66.034 370.458L58.2129 373.679C58.2251 373.667 61.0348 382.188 59.5752 386.199Z" fill="#0552DE"/>
<path d="M38.325 448.177C42.5336 434.502 25.8573 416.027 27.6575 411.87C29.3969 407.847 31.1363 397.551 26.5263 391.219C21.9164 384.886 19.8851 385.737 19.8851 385.737L33.8974 376.402C33.5447 376.025 33.2284 375.685 32.8635 375.296L12.6113 388.739C12.5991 388.751 12.3072 388.934 12.3315 388.921C13.4506 388.387 18.4619 386.454 22.5002 391.984C27.1102 398.317 23.7044 415.383 23.4611 421.63C23.2787 426.273 34.7854 437.869 30.5768 451.544C26.6966 464.16 55.8526 461.365 68.9041 453.804C54.6727 458.496 35.1016 458.666 38.325 448.177Z" fill="#0552DE"/>
<path d="M70.1096 342.344C70.6691 343.79 84.2315 356.383 83.5989 359.215C82.8448 362.582 76.836 366.994 74.0506 364.976C70.7178 362.569 61.0234 351.29 61.0234 351.29L70.1096 342.344Z" fill="#0D1884"/>
<path d="M70.1117 342.344L69.5156 342.927C71.8024 345.796 83.1874 356.601 82.6036 359.215C82.0076 361.889 78.1274 365.158 75.1473 365.414C78.1761 365.961 82.932 362.181 83.601 359.215C84.2335 356.383 70.6712 343.802 70.1117 342.344Z" fill="#374AAA"/>
<path d="M70.9136 340.46C71.8988 353.745 75.1465 358.145 74.9154 363.931C74.6965 369.729 69.4418 374.566 69.4418 374.566C69.4418 374.566 68.043 368.659 66.2307 367.942C64.2358 367.152 60.1367 347.765 60.1367 347.765L66.7537 340.472C66.7294 340.46 71.1934 337.287 70.9136 340.46Z" fill="#F9339C"/>
<path d="M48.6044 376.657C49.4559 377.812 50.2101 378.723 50.6479 379.015C50.4655 376.888 50.575 374.19 50.8669 371.224C50.1857 370.811 49.5289 370.385 48.9207 369.948C48.6774 372.415 48.5436 374.712 48.6044 376.657Z" fill="#C6724E"/>
<path d="M70.0505 342.356C70.16 340.241 70.0505 337.518 70.0505 337.518L65.5135 334.042L51.9512 328.998L43.084 344.203L43.5097 365.329C43.5097 365.329 45.6748 367.638 48.9346 369.948C50.151 358.048 54.4569 341.918 56.6706 340.034C59.4561 337.664 62.7402 335.658 66.219 336.218C66.6326 336.278 67.0583 336.655 67.4597 337.153C64.2607 336.971 61.2441 338.819 58.6533 341.031C56.4152 342.927 52.0607 359.3 50.8686 371.224C54.7123 373.582 59.5655 375.466 64.1877 374.117C69.5518 372.537 70.8168 355.751 70.0505 342.356Z" fill="#FCB892"/>
<path d="M67.4606 337.153C67.0592 336.655 66.6335 336.278 66.2199 336.218C62.7411 335.671 59.457 337.664 56.6715 340.034C54.4578 341.918 50.1519 358.06 48.9355 369.948C49.5437 370.385 50.2005 370.81 50.8817 371.224C52.0615 359.3 56.4283 342.915 58.6664 341.031C61.2329 338.819 64.2494 336.971 67.4606 337.153Z" fill="#DB895D"/>
<path d="M48.0732 396.895C49.6179 398.293 50.664 399.168 50.664 399.168C50.664 399.168 48.876 395.521 47.0149 390.501C44.7039 384.278 42.2712 375.964 42.9888 369.911C42.2347 368.501 41.6508 367.201 41.517 366.374C38.6343 375.198 45.9202 392.179 48.0732 396.895Z" fill="#C6724E"/>
<path d="M28.7793 382.321C29.5943 383.962 30.1659 384.971 30.1659 384.971C30.1659 384.971 31.2241 381.75 32.2945 380.109C31.9418 379.453 31.6377 378.808 31.4188 378.189C30.5916 378.031 29.4605 380.559 28.7793 382.321Z" fill="#0552DE"/>
<path d="M70.0499 342.356C70.0499 342.356 68.0551 336.497 66.2184 336.205C62.7396 335.658 59.4555 337.652 56.67 340.022C53.8846 342.392 47.7541 367.371 48.6786 378.018C47.1703 376.973 41.9886 369.145 41.5264 366.362C38.1571 376.681 48.6786 398.159 48.6786 398.159C48.6786 398.159 34.2161 386.065 31.4307 378.176C30.1535 377.933 28.183 383.962 28.183 383.962C28.183 383.962 20.4835 370.264 20.3254 360.673C20.1307 349.15 22.8797 313.245 51.1478 319.541C57.4363 320.939 67.678 329.301 70.4026 336.23C71.7163 339.633 70.0499 342.356 70.0499 342.356Z" fill="#F9339C"/>
<path d="M20.3375 360.904C20.6416 347.315 24.8624 316.685 51.1478 322.543C57.4363 323.941 67.678 332.304 70.4026 339.232C70.5608 339.633 70.6702 340.034 70.7554 340.411C70.9865 339.317 71.0351 337.858 70.4026 336.242C67.678 329.314 57.4363 320.963 51.1478 319.553C22.8797 313.257 20.1307 349.163 20.3254 360.686C20.3254 360.758 20.3254 360.831 20.3375 360.904Z" fill="#F969C2"/>
<path d="M46.5146 396.287C47.8161 397.454 48.6676 398.171 48.6676 398.171C48.6676 398.171 41.6249 383.792 40.9194 372.913C40.4694 380.267 44.0576 390.368 46.5146 396.287Z" fill="#F969C2"/>
<path d="M44.5684 388.277L47.0132 390.502L50.6623 399.168C50.6623 399.168 48.2174 397.15 48.0714 396.895C46.9645 394.914 44.5684 388.277 44.5684 388.277Z" fill="#0552DE"/>
</svg>
