<svg width="697" height="800" viewBox="0 0 697 800" fill="none" xmlns="http://www.w3.org/2000/svg">
<path d="M539.177 730.743C561.998 730.743 580.498 720.068 580.498 706.9C580.498 693.732 561.998 683.057 539.177 683.057C516.356 683.057 497.855 693.732 497.855 706.9C497.855 720.068 516.356 730.743 539.177 730.743Z" fill="#D7E9FF"/>
<path d="M553.991 444.52H525.057V706.9H553.991V444.52Z" fill="#ECF4FF"/>
<path d="M539.174 444.52H525.057V706.9H539.174V444.52Z" fill="#C9E0FF"/>
<path d="M650.213 453.061C650.213 519.636 600.507 573.607 539.176 573.607C477.845 573.607 428.139 519.636 428.139 453.061C428.139 386.486 478.21 60.6585 539.525 60.6585C600.856 60.6585 650.213 386.486 650.213 453.061Z" fill="#ECF4FF"/>
<path d="M579.576 539.939C518.245 539.939 468.539 485.968 468.539 419.393C468.539 366.136 500.57 147.044 544.782 61.4681C543.035 60.9443 541.288 60.6427 539.525 60.6427C478.194 60.6427 428.139 386.47 428.139 453.045C428.139 519.62 477.845 573.592 539.176 573.592C573.843 573.592 604.794 556.337 625.169 529.303C611.242 536.129 595.838 539.939 579.576 539.939Z" fill="#C4DCFF"/>
<path d="M141.877 571.226C167.023 571.226 187.407 559.464 187.407 544.954C187.407 530.445 167.023 518.683 141.877 518.683C116.732 518.683 96.3477 530.445 96.3477 544.954C96.3477 559.464 116.732 571.226 141.877 571.226Z" fill="#D7E9FF"/>
<path d="M157.12 320.862H125.248V544.938H157.12V320.862Z" fill="#ECF4FF"/>
<path d="M140.795 320.862H125.248V544.938H140.795V320.862Z" fill="#C9E0FF"/>
<path d="M139.241 463.077C216.133 463.077 278.466 403.627 278.466 330.291C278.466 256.956 216.133 197.506 139.241 197.506C62.3489 197.506 0.015625 256.956 0.015625 330.291C0.015625 403.627 62.3489 463.077 139.241 463.077Z" fill="#ECF4FF"/>
<path d="M192.33 424.218C115.436 424.218 53.1048 364.77 53.1048 291.432C53.1048 260.081 64.5229 231.286 83.5797 208.571C34.3974 229.064 0 275.828 0 330.292C0 403.629 62.3314 463.077 139.225 463.077C183.246 463.077 222.471 443.568 247.976 413.153C230.936 420.249 212.133 424.218 192.33 424.218Z" fill="#C4DCFF"/>
<path d="M145.941 329.815C212.203 329.815 265.919 278.581 265.919 215.38C265.919 152.18 212.203 100.945 145.941 100.945C79.6788 100.945 25.9629 152.18 25.9629 215.38C25.9629 278.581 79.6788 329.815 145.941 329.815Z" fill="#ECF4FF"/>
<path d="M191.693 296.321C125.423 296.321 71.7149 245.096 71.7149 181.887C71.7149 154.869 81.5608 130.058 97.9814 110.47C55.5961 128.122 25.9629 168.441 25.9629 215.365C25.9629 278.559 79.6869 329.799 145.941 329.799C183.88 329.799 217.674 312.989 239.668 286.781C224.963 292.909 208.749 296.321 191.693 296.321Z" fill="#C4DCFF"/>
<path d="M142.987 192.76C193.559 192.76 234.555 153.658 234.555 105.422C234.555 57.1867 193.559 18.0841 142.987 18.0841C92.4161 18.0841 51.4199 57.1867 51.4199 105.422C51.4199 153.658 92.4161 192.76 142.987 192.76Z" fill="#ECF4FF"/>
<path d="M177.909 167.188C127.345 167.188 86.3413 128.09 86.3413 79.8495C86.3413 59.2293 93.8529 40.2917 106.383 25.3544C74.0339 38.8313 51.4199 69.5949 51.4199 105.406C51.4199 153.631 92.4077 192.745 142.987 192.745C171.938 192.745 197.728 179.918 214.514 159.917C203.286 164.584 190.915 167.188 177.909 167.188Z" fill="#C4DCFF"/>
<path d="M609.99 758.538C623.927 758.538 635.224 752.014 635.224 743.965C635.224 735.917 623.927 729.393 609.99 729.393C596.054 729.393 584.756 735.917 584.756 743.965C584.756 752.014 596.054 758.538 609.99 758.538Z" fill="#D7E9FF"/>
<path d="M621.599 537.049H598.922V742.648H621.599V537.049Z" fill="#ECF4FF"/>
<path d="M609.991 537.049H598.922V742.648H609.991V537.049Z" fill="#C9E0FF"/>
<path d="M609.99 638.197C658.044 638.197 697 595.911 697 543.748C697 491.585 658.044 449.298 609.99 449.298C561.936 449.298 522.98 491.585 522.98 543.748C522.98 595.911 561.936 638.197 609.99 638.197Z" fill="#ECF4FF"/>
<path d="M643.165 610.561C595.11 610.561 556.155 568.273 556.155 516.111C556.155 493.808 563.286 473.331 575.196 457.172C544.467 471.744 522.965 505.016 522.965 543.764C522.965 595.925 561.92 638.213 609.975 638.213C637.48 638.213 661.999 624.34 677.944 602.703C667.304 607.751 655.536 610.561 643.165 610.561Z" fill="#C4DCFF"/>
<path d="M433.524 750.521L175.48 595.751C165.936 590.02 165.936 580.655 175.48 574.924L198.063 561.384C207.607 555.653 223.249 555.653 232.793 561.384L490.837 716.154C500.382 721.885 500.382 731.25 490.837 736.981L468.255 750.521C458.711 756.236 443.084 756.236 433.524 750.521Z" fill="#D7E9FF"/>
<path d="M424.807 701.518L259.633 606.196C241.005 595.449 225.903 566.59 225.903 541.764V102.104C225.903 89.4687 215.517 86.6908 221.806 82.1509C222.044 81.9763 236.543 75.3886 236.829 75.2934C243.594 72.7059 250.851 71.5471 259.633 76.6268L424.807 171.949C443.435 182.696 458.538 211.555 458.538 236.382V676.057C458.538 689.248 454.266 698.661 447.485 702.963C447.088 703.217 429.603 711.519 429.159 711.678C423.124 713.646 432.954 706.217 424.807 701.518Z" fill="#0D1883"/>
<path d="M406.447 710.456L241.273 615.133C222.645 604.386 207.543 575.527 207.543 550.701V111.026C207.543 86.1989 222.645 74.7855 241.273 85.5321L406.447 180.855C425.075 191.602 440.178 220.46 440.178 245.287V684.962C440.178 709.789 425.075 721.202 406.447 710.456Z" fill="#B6D1FE"/>
<path d="M403.512 712.043L238.338 616.72C219.71 605.974 204.607 577.115 204.607 552.288V112.613C204.607 87.7863 219.71 76.3729 238.338 87.1195L403.512 182.442C422.14 193.189 437.242 222.048 437.242 246.874V686.549C437.242 711.376 422.14 722.79 403.512 712.043Z" fill="#0D1883"/>
<path d="M403.512 712.043L238.338 616.72C219.71 605.974 204.607 577.115 204.607 552.288V112.613C204.607 87.7863 219.71 76.3729 238.338 87.1195L403.512 182.442C422.14 193.189 437.242 222.048 437.242 246.874V686.549C437.242 711.376 422.14 722.79 403.512 712.043Z" fill="#7E8AE8"/>
<path d="M242.387 144.71C229.508 137.281 219.059 143.234 219.059 158.012V562.257C219.059 577.035 229.508 595.036 242.387 602.481L399.446 693.121C412.325 700.55 422.775 694.597 422.775 679.819V275.574C422.775 260.796 412.325 242.795 399.446 235.35L242.387 144.71Z" fill="#0D1883"/>
<path d="M368.701 217.603L242.387 144.71C229.508 137.281 219.059 143.234 219.059 158.012V492.904L368.701 217.603Z" fill="#3C4590"/>
<path d="M219.059 517.905L377.341 222.587L399.462 235.35L219.059 559.987V517.905Z" fill="#3C4590"/>
<path d="M389.156 215.587L312.167 169.346C306.275 165.806 301.447 158.092 301.447 152.202V150.488C301.447 144.599 306.275 142.678 312.167 146.218L389.156 192.459C395.047 195.998 399.875 203.713 399.875 209.602V211.317C399.875 217.206 395.047 219.127 389.156 215.587Z" fill="#0D1883"/>
<path d="M382.899 341.784L260.253 268.13C250.867 262.494 241.879 241.446 241.879 241.446C241.879 232.064 250.867 225.619 260.253 231.27L382.899 304.925C392.284 310.56 399.97 322.863 399.97 332.244V334.99C399.97 344.356 392.284 347.436 382.899 341.784Z" fill="#B6D1FE"/>
<path d="M381.595 344.388L258.949 270.733C249.564 265.098 241.877 252.795 241.877 243.414V240.668C241.877 240.001 241.925 239.382 242.004 238.779C241.639 239.477 241.337 240.176 241.067 240.858C235.7 254.938 246.562 267.399 255.947 273.035L378.593 346.689C384.533 350.261 390.996 349.404 394.935 345.927C391.806 347.975 386.978 347.626 381.595 344.388Z" fill="#5A6ECC"/>
<path d="M394.934 345.943C397.268 344.419 398.665 341.578 398.665 337.578C398.665 341.022 397.22 343.912 394.934 345.943Z" fill="#101B51"/>
<path d="M381.592 307.512L258.947 233.858C250.228 228.619 242.971 230.905 242.002 238.779C244.066 234.826 247.957 231.365 255.961 236.159L378.607 309.814C387.992 315.449 395.679 327.752 395.679 337.133L398.68 337.562V334.816C398.664 325.45 390.978 313.164 381.592 307.512Z" fill="#101B51"/>
<path d="M378.591 309.83L255.945 236.175C247.958 231.381 244.051 234.842 241.986 238.795C241.907 239.398 241.859 240.017 241.859 240.684V243.43C241.859 252.811 249.546 265.113 258.931 270.749L381.577 344.404C386.96 347.642 391.788 347.991 394.917 345.943C397.203 343.927 398.649 341.022 398.649 337.578L395.647 337.149C395.663 327.768 387.993 315.465 378.591 309.83Z" fill="#101B51"/>
<path d="M279.963 147.86C284.315 145.4 284.318 137.176 279.97 129.49C275.622 121.805 268.569 117.57 264.218 120.03C259.866 122.49 259.863 130.714 264.211 138.399C268.559 146.085 275.611 150.32 279.963 147.86Z" fill="#0D1883"/>
<path d="M274.561 249.16C268.049 266.907 276.45 291.75 298.048 310.386C319.773 329.149 346.643 334.53 364.381 326.148L367.256 328.625L376.212 316.703C390.013 298.321 380.627 267.574 356.298 246.985C332.144 226.54 299.779 221.651 282.787 236.905L271.766 246.779L274.561 249.16Z" fill="#82B1F4"/>
<path d="M271.748 246.763C289.55 230.81 322.884 235.572 347.546 256.494C372.384 277.574 381.705 309.354 367.254 328.609C351.628 349.42 314.832 347.515 286.485 322.958C258.393 298.591 252.533 263.986 271.748 246.763Z" fill="#B9D9F9"/>
<path d="M274.402 244.398C292.013 228.619 325.108 233.413 349.644 254.208C374.354 275.177 383.708 306.703 369.399 325.752C353.947 346.34 317.438 344.34 289.266 319.942C261.316 295.734 255.392 261.431 274.402 244.398Z" fill="#B9D9F9"/>
<path d="M279.768 256.272C293.124 243.827 319.565 248.017 339.638 265.098C359.822 282.273 367.572 307.402 356.265 321.863C344.275 337.197 315.817 334.594 293.521 315.307C271.351 296.163 265.618 269.463 279.768 256.272Z" fill="#558AD8"/>
<path d="M293.504 315.323C315.8 334.594 344.258 337.197 356.248 321.879C357.296 320.545 358.122 319.101 358.836 317.593C345.751 328.339 320.818 324.561 300.84 307.322C280.974 290.194 274.383 266.971 283.785 253.304C282.355 254.177 280.974 255.129 279.751 256.272C265.617 269.463 271.35 296.163 293.504 315.323Z" fill="#82B1F4"/>
<path d="M372.908 274.94C369.668 277.972 360.966 273.956 353.486 265.971C346.006 257.987 342.544 249.049 345.784 246.017C349.024 242.985 357.726 247.002 365.206 254.986C372.686 262.971 376.148 271.908 372.908 274.94Z" fill="url(#paint0_radial_210_394)"/>
<path d="M317.31 309.894L364.11 338.007L340.575 361.342L292.457 340.245L309.259 317.481H314.277" fill="#0D1883"/>
<path d="M258.22 274.543L319.741 309.894L295.428 352.468L247.596 289.115L258.22 274.543Z" fill="#3C4590"/>
<path d="M328.79 314.941L349.594 327.688L331.045 358.468L307.971 352.008L328.79 314.941Z" fill="#3C4590"/>
<path d="M381.595 344.388L258.949 270.733C249.564 265.097 241.877 252.795 241.877 243.414V240.668C241.877 240.001 241.925 239.382 242.004 238.779C241.639 239.477 241.337 240.175 241.067 240.858C235.7 254.938 246.562 267.399 255.947 273.034L378.593 346.689C384.533 350.261 390.996 349.404 394.935 345.927C391.806 347.975 386.978 347.626 381.595 344.388Z" fill="#5A6ECC"/>
<path d="M250.927 124.106C251.403 141.694 266.807 162.52 291.121 175.759C315.434 188.998 341.287 190.649 356.326 181.506L359.661 183.315L366.013 171.648C376.431 152.536 359.788 123.36 328.853 106.517C297.902 89.6593 264.378 91.5007 253.944 110.613L247.592 122.28L250.927 124.106Z" fill="#82B1F4"/>
<path d="M323.994 115.439C293.043 98.5805 259.503 100.422 249.085 119.534C248.831 119.994 248.609 120.471 248.386 120.947C248.116 121.391 247.831 121.836 247.577 122.28C237.159 141.392 253.802 170.553 284.737 187.411C315.688 204.269 349.212 202.428 359.646 183.315C359.9 182.855 360.122 182.379 360.345 181.903C360.615 181.458 360.901 181.03 361.155 180.569C371.572 161.441 354.929 132.281 323.994 115.439Z" fill="#B9D9F9"/>
<path d="M347.462 178.736C355.297 164.354 341.616 141.781 316.904 128.318C292.193 114.855 265.808 115.599 257.972 129.981C250.137 144.363 263.818 166.936 288.53 180.399C313.241 193.862 339.626 193.118 347.462 178.736Z" fill="#558AD8"/>
<path d="M288.58 180.396C313.29 193.857 339.684 193.111 347.529 178.729C348.227 177.443 348.704 176.062 349.069 174.649C339.048 185.507 315.212 185.063 292.725 172.824C270.222 160.569 256.93 140.79 260.63 126.487C259.645 127.551 258.74 128.694 258.041 129.995C250.181 144.361 263.87 166.934 288.58 180.396Z" fill="#82B1F4"/>
<path d="M346.751 128.456C344.56 132.249 335.206 130.932 325.868 125.535C316.531 120.137 310.718 112.693 312.894 108.915C315.085 105.121 324.439 106.438 333.777 111.835C343.131 117.232 348.943 124.678 346.751 128.456Z" fill="url(#paint1_radial_210_394)"/>
<path d="M436.81 126.026C419.215 127.646 396.617 114.772 380.53 92.1198C364.443 69.4678 359.71 43.9108 367.047 27.8306L364.84 24.7193L375.718 16.9887C393.552 4.33723 424.598 17.449 445.084 46.276C465.57 75.103 467.714 108.74 449.896 121.391L439.018 129.122L436.81 126.026Z" fill="#82B1F4"/>
<path d="M438.961 129.146C456.786 116.488 454.637 82.8545 434.162 54.0239C413.688 25.1933 382.641 12.0829 364.816 24.741C346.992 37.3991 349.141 71.0324 369.615 99.863C390.09 128.694 421.137 141.804 438.961 129.146Z" fill="#B9D9F9"/>
<path d="M441.512 127.325C459.336 114.666 457.188 81.0333 436.713 52.2027C416.239 23.3721 385.191 10.2617 367.367 22.9198C349.543 35.5779 351.692 69.2112 372.166 98.0418C392.641 126.872 423.688 139.983 441.512 127.325Z" fill="#B9D9F9"/>
<path d="M430.044 119.678C443.45 110.158 441.061 83.7738 424.709 60.748C408.357 37.7221 384.233 26.7736 370.828 36.2938C357.422 45.8141 359.811 72.198 376.163 95.2238C392.515 118.25 416.639 129.198 430.044 119.678Z" fill="#558AD8"/>
<path d="M376.196 95.1997C359.839 72.1826 357.441 45.8002 370.86 36.2759C372.067 35.4187 373.385 34.7837 374.751 34.2599C365.111 45.5304 368.382 69.23 383.278 90.1836C398.174 111.137 419.47 122.027 433.302 116.645C432.349 117.757 431.317 118.788 430.11 119.646C416.691 129.17 392.553 118.217 376.196 95.1997Z" fill="#82B1F4"/>
<path d="M435.178 46.2606C432.097 49.8799 422.362 46.6416 413.437 39.0379C404.512 31.4342 399.78 22.3383 402.861 18.719C405.942 15.0997 415.677 18.338 424.601 25.9417C433.526 33.5454 438.259 42.6413 435.178 46.2606Z" fill="url(#paint2_radial_210_394)"/>
<path d="M490.519 781.221L542.957 749.775C561.712 738.536 561.712 720.122 542.957 708.884C524.202 697.645 493.52 697.645 474.781 708.884L422.344 740.33C403.589 751.569 403.589 769.982 422.344 781.221C441.083 792.46 471.764 792.46 490.519 781.221Z" fill="#D7E9FF"/>
<path d="M444.419 713.551L459.521 703.741C464.794 700.328 468.907 691.581 468.907 683.819V488.157C468.907 483.554 467.398 479.935 464.778 478.236C462.443 476.728 459.632 476.887 456.837 478.712L441.735 488.523C436.463 491.951 432.35 500.698 432.35 508.444V704.09C432.35 708.693 433.858 712.313 436.479 714.011C437.527 714.694 438.686 715.027 439.893 715.027C441.37 715.043 442.894 714.535 444.419 713.551ZM462.11 483.443C462.809 483.903 463.571 485.379 463.571 488.157V683.803C463.571 689.327 460.427 696.201 456.853 698.518L441.751 708.344C441.132 708.741 439.988 709.328 439.162 708.804C438.464 708.344 437.701 706.868 437.701 704.09V508.428C437.701 502.92 440.846 496.047 444.419 493.713L459.521 483.903C459.966 483.617 460.681 483.237 461.363 483.237C461.633 483.237 461.888 483.3 462.11 483.443Z" fill="#B6D1FE"/>
<path d="M437.904 741.775C435.538 739.425 432.981 738.695 431.298 739.6L426.137 742.584L435.316 758.061C435.316 758.061 440.318 755.172 440.445 755.077H440.461C440.969 754.696 441.414 754.156 441.7 753.394C442.922 750.283 441.207 745.076 437.904 741.775Z" fill="#30397A"/>
<path d="M436.745 756.268C435.538 759.395 431.886 759.252 428.583 755.966C425.279 752.68 423.564 747.474 424.755 744.362C425.962 741.235 429.615 741.378 432.918 744.664C436.237 747.95 437.936 753.156 436.745 756.268Z" fill="#222949"/>
<path d="M433.584 753.744C432.838 754.918 431.171 754.712 429.63 753.188C427.947 751.521 427.089 748.87 427.677 747.283C427.947 746.553 428.503 746.156 429.17 746.124C429.09 746.251 429.043 746.378 428.979 746.505C428.36 748.124 429.233 750.759 430.917 752.442C431.854 753.347 432.806 753.807 433.584 753.744Z" fill="#30397A"/>
<path d="M433.808 753.347C433.76 753.49 433.681 753.617 433.602 753.744C432.808 753.791 431.855 753.347 430.934 752.442C429.25 750.759 428.377 748.124 428.996 746.505C429.06 746.378 429.107 746.251 429.187 746.124C429.981 746.077 430.95 746.505 431.855 747.426C433.554 749.093 434.427 751.76 433.808 753.347Z" fill="#99BCE6"/>
<path d="M473.574 763.173C471.208 760.823 468.651 760.093 466.968 760.998L461.807 763.982L470.986 779.459C470.986 779.459 475.988 776.57 476.115 776.475H476.131C476.639 776.094 477.084 775.554 477.37 774.792C478.592 771.665 476.893 766.474 473.574 763.173Z" fill="#30397A"/>
<path d="M472.417 777.666C471.21 780.793 467.557 780.65 464.254 777.364C460.951 774.078 459.236 768.872 460.427 765.76C461.634 762.633 465.287 762.776 468.59 766.062C471.909 769.348 473.608 774.539 472.417 777.666Z" fill="#222949"/>
<path d="M469.272 775.142C468.526 776.316 466.858 776.11 465.318 774.586C463.634 772.919 462.777 770.268 463.364 768.681C463.634 767.951 464.19 767.554 464.857 767.522C464.778 767.649 464.73 767.776 464.667 767.903C464.047 769.522 464.921 772.157 466.604 773.84C467.525 774.745 468.478 775.189 469.272 775.142Z" fill="#30397A"/>
<path d="M469.48 774.745C469.432 774.888 469.353 775.015 469.273 775.142C468.479 775.19 467.527 774.745 466.606 773.84C464.922 772.158 464.049 769.522 464.668 767.903C464.732 767.776 464.779 767.649 464.859 767.522C465.653 767.475 466.621 767.903 467.527 768.824C469.226 770.491 470.099 773.158 469.48 774.745Z" fill="#99BCE6"/>
<path d="M530.998 728.647C528.632 726.297 526.075 725.567 524.392 726.472L519.23 729.456L528.41 744.934C528.41 744.934 533.412 742.044 533.539 741.949H533.555C534.063 741.568 534.508 741.029 534.793 740.267C536.016 737.155 534.317 731.949 530.998 728.647Z" fill="#30397A"/>
<path d="M529.841 743.14C528.634 746.267 524.981 746.124 521.678 742.838C518.375 739.552 516.66 734.346 517.851 731.234C519.058 728.107 522.71 728.25 526.014 731.536C529.333 734.822 531.032 740.029 529.841 743.14Z" fill="#222949"/>
<path d="M526.696 740.616C525.949 741.791 524.282 741.584 522.742 740.06C521.058 738.393 520.201 735.743 520.788 734.155C521.058 733.425 521.614 733.028 522.281 732.996C522.202 733.123 522.154 733.25 522.09 733.377C521.471 734.996 522.345 737.632 524.028 739.314C524.949 740.219 525.902 740.664 526.696 740.616Z" fill="#30397A"/>
<path d="M526.904 740.219C526.856 740.362 526.777 740.489 526.697 740.616C525.903 740.664 524.95 740.219 524.029 739.314C522.346 737.632 521.473 734.997 522.092 733.377C522.155 733.25 522.203 733.123 522.283 732.996C523.077 732.949 524.045 733.377 524.95 734.298C526.65 735.965 527.523 738.632 526.904 740.219Z" fill="#99BCE6"/>
<path d="M425.138 602.576L478.29 569.384C482.372 566.844 486.882 566.924 490.614 568.813V568.717L530.617 593.481L498.443 619.974V701.328C498.443 706.566 495.87 711.408 491.678 714.011L465.379 730.425L464.935 769.871L426.98 748.092C422.105 746.029 418.389 740.949 418.389 734.473V615.275C418.389 610.021 420.961 605.18 425.138 602.576Z" fill="#C12B9E"/>
<path d="M538.463 606.608V724.535C538.463 729.71 535.89 734.504 531.697 737.076L478.545 769.855C469.573 775.379 458.393 768.427 458.393 757.315V639.419C458.393 634.245 460.965 629.451 465.142 626.879L518.294 594.052C527.283 588.528 538.463 595.48 538.463 606.608Z" fill="#F63598"/>
<path d="M433.014 742.378V623.625C433.014 618.403 435.587 613.593 439.763 610.99L492.915 577.924C496.282 575.829 499.951 575.512 503.222 576.512C499.141 572.559 492.963 571.305 487.564 574.654L434.411 607.72C430.235 610.323 427.662 615.133 427.662 620.355V739.108C427.662 746.108 432.315 752.648 437.778 754.331C435.094 751.743 433.014 746.838 433.014 742.378Z" fill="#0D1884"/>
<path d="M437.716 492.459C437.716 492.459 442.782 494.967 442.004 496.079C441.226 497.174 439.908 499.571 439.908 499.571C439.908 499.571 442.734 502.079 447.038 497.539C452.39 491.904 461.855 490.015 463.268 485.157C464.57 480.681 462.537 474.474 457.726 474.474C452.914 474.474 440.019 480.109 435.334 487.507C432.984 491.221 436.255 494.634 436.255 494.634L437.716 492.459Z" fill="#4E87EE"/>
<path d="M496.808 599.227L477.338 611.307C474.528 613.053 469.573 612.831 466.333 610.815C463.094 608.799 462.728 605.72 465.539 603.973L485.009 591.893C487.82 590.147 492.774 590.369 496.014 592.385C499.27 594.401 499.619 597.481 496.808 599.227Z" fill="#0D1884"/>
<path d="M472.11 622.594V771.777C470.204 771.808 468.33 771.427 466.615 770.634V625.991L472.11 622.594Z" fill="#C12B9E"/>
<path d="M481.732 764.062V616.657L487.227 613.26V764.062C487.227 764.236 487.164 764.395 487.116 764.57L483.733 766.649C482.606 766.332 481.732 765.316 481.732 764.062Z" fill="#C12B9E"/>
<path d="M532.6 594.687V736.346C532.298 736.568 532.044 736.869 531.711 737.076L527.105 739.917V592.306C529.091 592.655 530.949 593.481 532.6 594.687Z" fill="#C12B9E"/>
<path d="M502.346 603.91V755.188L496.852 758.569V607.307L502.346 603.91Z" fill="#C12B9E"/>
<path d="M517.483 594.576V745.854L511.988 749.251V597.973L517.483 594.576Z" fill="#C12B9E"/>
<path d="M83.4876 683.879C114.642 678.384 137.327 659.358 134.157 641.382C130.986 623.406 103.16 613.288 72.0057 618.783C40.8514 624.278 18.166 643.305 21.3366 661.281C24.5073 679.256 52.3332 689.374 83.4876 683.879Z" fill="#D7E9FF"/>
<path d="M48.9492 634.213C48.9492 634.213 44.4867 645.246 46.5989 649.008C48.711 652.77 60.2245 668.025 63.0353 673.2C65.8621 678.359 74.5487 679.534 75.9621 677.422C77.3754 675.311 80.6628 672.263 71.0232 653.008C71.0232 653.008 64.9092 641.039 64.4486 636.34C63.9881 631.626 48.9492 634.213 48.9492 634.213Z" fill="#0863EF"/>
<path d="M71.0392 652.992C71.0392 652.992 64.9251 641.023 64.4646 636.324C64.2264 633.864 59.9704 633.403 55.9844 633.53C59.2081 633.642 62.0984 634.308 62.3048 636.324C62.7812 641.023 68.8794 652.992 68.8794 652.992C78.5031 672.247 75.2158 675.295 73.8183 677.407C73.4848 677.899 72.7383 678.2 71.7855 678.327C73.7706 678.549 75.4222 678.232 75.978 677.407C77.3755 675.295 80.6628 672.247 71.0392 652.992Z" fill="#99BCE6"/>
<path d="M68.0988 625.292C68.0988 625.292 64.4462 637.737 67.0347 639.372C69.6232 641.007 80.4221 641.722 82.7724 644.071C85.1228 646.42 100.162 653.23 107.911 650.881C115.661 648.532 105.799 639.642 101.099 638.34C96.3979 637.039 81.5178 630.499 79.6757 625.308C77.8494 620.117 68.0988 625.292 68.0988 625.292Z" fill="#0863EF"/>
<path d="M79.6744 627.467C81.5165 632.642 96.3966 639.198 101.097 640.5C104.194 641.357 109.514 645.516 110.578 648.929C112.087 645.421 104.909 639.404 101.097 638.341C96.3966 637.039 81.5165 630.499 79.6744 625.308C77.8481 620.117 77.8481 622.276 79.6744 627.467Z" fill="#99BCE6"/>
<path d="M91.9377 429.075C92.3665 428.313 94.6375 435.17 94.7963 436.012C96.5114 445.266 101.8 476.411 96.6384 500.841C91.2073 526.525 82.0759 552.971 81.1389 574.099C80.202 595.227 82.7588 625.514 82.7588 625.514C82.7588 625.514 74.5485 629.975 66.5606 624.34C66.5606 624.34 62.511 595.846 61.574 590.687C60.6371 585.528 67.4817 542.526 69.0697 531.112C70.499 520.858 75.0249 473.125 73.6115 471.712C72.4205 470.522 87.5229 436.964 91.9377 429.075Z" fill="#F2F4F7"/>
<path d="M76.2954 624.34C76.2954 624.34 72.2458 595.847 71.3088 590.688C70.3719 585.529 77.2165 542.526 78.8045 531.113C80.2338 520.858 82.4253 480.189 84.8074 473.967C90.5402 459.045 85.2679 458.331 75.8825 470.776C74.6755 472.363 70.499 520.874 69.0697 531.129C67.4817 542.542 60.6371 585.544 61.574 590.703C62.511 595.862 66.5606 624.356 66.5606 624.356C71.9441 628.166 77.4229 627.356 80.4243 626.435C79.0744 625.975 77.6929 625.324 76.2954 624.34Z" fill="#B6D1FE"/>
<path d="M91.9345 431.329C92.141 428.519 82.5333 450.108 44.9598 439.79C44.9598 439.79 26.1571 451.917 34.6215 498.872C43.0859 545.827 45.1821 549.891 40.4815 559.526C35.7808 569.146 37.4323 580.67 47.7706 635.15C47.7706 635.15 59.157 642.975 65.938 637.34C65.938 637.34 61.3485 602.275 66.2556 569.4C71.1469 536.525 75.0217 514.921 75.9587 481.109C75.9587 481.109 89.1237 468.902 91.9345 431.329Z" fill="#F2F4F7"/>
<path d="M93.6515 432.456C93.7468 431.44 92.9528 427.71 92.4129 426.678C90.8407 423.693 86.1242 441.965 65.3047 442.536C79.5655 442.996 89.602 436.012 93.6515 432.456Z" fill="#B6D1FE"/>
<path d="M51.0119 632.356C40.6737 577.877 39.022 566.352 43.7227 556.733C48.4234 547.113 44.9773 544.065 36.5288 497.11C29.0491 455.584 43.8974 440.52 47.4388 437.583C46.5971 437.377 45.819 437.234 44.9455 436.996C44.9455 436.996 26.4605 449.886 33.2733 497.11C40.0067 543.827 45.1679 547.113 40.4672 556.733C35.7665 566.352 37.4182 580.671 47.7564 635.15C47.7564 635.15 55.1726 640.134 61.5566 639.261C56.2048 638.594 51.0119 632.356 51.0119 632.356Z" fill="#B6D1FE"/>
<path d="M30.4137 361.071C30.4137 361.071 22.9022 362.309 20.012 367.563C17.1376 372.818 16.82 391.581 20.8695 414.693C20.8695 414.693 11.2459 465.759 13.0086 473.633C14.7714 481.506 16.7247 491.935 20.1867 496.967C21.4412 498.793 25.1573 503.952 26.9677 502.682C26.9677 502.682 23.0769 484.998 24.0139 483.586C24.9508 482.189 25.4114 473.029 23.601 468.712C21.8065 464.394 36.2737 437.123 34.5427 419.614C32.8276 402.105 41.8319 371.468 41.8319 371.468L30.4137 361.071Z" fill="#FCB892"/>
<path d="M22.6793 496.967C19.2174 491.951 17.2482 481.506 15.5013 473.633C13.7545 465.759 23.3622 414.693 23.3622 414.693C19.3127 391.581 19.6303 372.802 22.5047 367.563C24.458 364.008 28.5393 362.293 30.969 361.563L30.445 361.087C30.445 361.087 22.9334 362.325 20.0432 367.579C17.1688 372.833 16.8512 391.596 20.9007 414.709C20.9007 414.709 11.2771 465.775 13.0399 473.649C14.8026 481.522 16.7559 491.951 20.2179 496.983C21.4724 498.809 25.1885 503.968 26.9989 502.698C26.9989 502.698 26.9354 502.412 26.8242 501.904C25.1885 500.523 23.4575 498.094 22.6793 496.967Z" fill="#DB895D"/>
<path d="M75.1001 343.436L79.1337 361.009L64.1901 367.549L50.2469 354.738L47.6426 339.674L58.5366 332.911L75.1001 343.436Z" fill="#DB895D"/>
<path d="M18.8184 371.231C18.8184 371.231 23.2491 365.294 27.7274 365.706C32.2057 366.119 35.0166 372.993 35.9376 376.501C36.8587 380.009 37.1922 388.946 37.1922 388.946L40.3049 373.469L34.6196 362.103L27.4574 361.341C27.4574 361.341 23.3284 363.817 22.0898 364.833C20.867 365.802 19.6918 366.564 18.8184 371.231Z" fill="#DB895D"/>
<path d="M141.386 355.516C141.434 355.484 132.62 360.532 128.491 365.247C124.362 369.945 131.238 360.516 128.967 358.532C127.475 357.215 122.25 368.596 120.821 371.485C114.119 377.184 97.2221 388.693 97.2221 388.693C97.2221 388.693 92.2197 363.088 90.4728 351.833C88.7101 340.579 81.5162 339.388 77.3872 340.626C60.4903 345.642 79.5152 401.217 86.9791 408.154C93.8871 414.615 122.329 383.819 126.538 379.2L128.666 378.851C128.666 378.851 134.542 378.295 140.052 369.945C145.563 361.612 141.338 355.548 141.386 355.516Z" fill="#FCB892"/>
<path d="M141.102 366.819C135.607 375.169 129.716 375.724 129.716 375.724L127.587 376.073C123.379 380.709 94.937 411.489 88.0289 405.028C82.0102 399.424 68.4958 362.247 72.323 345.405C65.5579 360.152 80.5491 402.186 86.9808 408.171C93.8888 414.632 122.331 383.836 126.539 379.216L128.667 378.867C128.667 378.867 134.543 378.312 140.054 369.962C141.451 367.835 142.214 365.866 142.595 364.104C142.198 364.977 141.721 365.882 141.102 366.819Z" fill="#DB895D"/>
<path d="M128.571 363.135C128.904 362.293 129.206 361.436 129.349 360.643C128.523 362.532 127.714 363.96 128.571 363.135Z" fill="#DB895D"/>
<path d="M84.9609 342.293L85.7546 341.96C85.7546 341.96 84.9927 341.039 84.9609 342.293Z" fill="#4E87EE"/>
<path d="M44.4815 435.266C39.2726 452.235 89.2965 443.441 92.425 430.98C93.1079 428.234 92.2344 425.535 92.028 426.472C89.4871 437.758 48.7533 446.14 44.4815 435.266Z" fill="#B6D1FE"/>
<path d="M91.2331 367.676C93.5517 374.184 94.6633 378.645 95.0286 381.899C95.5526 378.597 94.8062 373.343 91.2331 363.374C86.0401 348.833 84.9286 343.849 84.9603 342.293L73.9551 346.833C73.9551 346.833 74.495 348.484 75.0032 350.707L84.9603 346.611C84.9286 348.167 86.0401 353.135 91.2331 367.676Z" fill="#4E87EE"/>
<path d="M73.4622 366.74C75.8443 366.025 76.1143 362.612 75.7332 359.152C75.4632 360.771 74.7961 362.025 73.4622 362.438C64.2038 365.247 63.8068 366.486 46.9733 348.421L24.3594 363.295C24.3594 363.295 27.8531 361.406 31.5851 362.977L46.9892 352.723C63.8068 370.787 64.2038 369.549 73.4622 366.74Z" fill="#4E87EE"/>
<path d="M45.0503 428.202C44.9392 429.139 44.7486 430.059 44.4788 430.964C43.9549 432.647 44.0025 434.075 44.4788 435.266C45.1772 433.012 45.2725 430.631 45.0503 428.202Z" fill="#4E87EE"/>
<path d="M66.6192 411.312C70.2399 407.074 88.5186 400.105 88.5186 400.105L88.5503 400.01C87.9309 407.757 92.2823 414.9 92.9969 423.154C93.8862 413.011 87.8198 404.772 88.5503 395.708L88.5186 395.803C88.5186 395.803 70.2399 402.788 66.6192 407.01C66.3174 407.376 66.0793 407.328 65.9046 407.137C65.2217 409.725 65.5234 412.582 66.6192 411.312Z" fill="#4E87EE"/>
<path d="M67.2045 400.154C69.3484 397.82 89.9296 390.423 89.9296 390.423L89.9137 390.486C91.6447 387.105 94.3602 386.073 95.0272 381.915C94.662 378.66 93.5662 374.184 91.2317 367.691C86.0388 353.151 84.9272 348.167 84.959 346.611L75.0018 350.707C75.5894 353.31 76.1453 356.675 75.7324 359.167C76.1135 362.612 75.8434 366.025 73.4613 366.755C64.203 369.565 63.806 370.803 46.9725 352.738L31.5684 362.993C32.95 363.58 34.3951 364.644 35.745 366.501C37.7936 369.311 38.2858 373.041 37.9364 376.883C38.5558 382.407 38.3017 390.629 36.4437 395.645C35.9355 397.011 35.9038 398.503 36.5073 399.82C39.7945 406.964 46.3373 417.631 45.0351 428.203C45.2575 430.632 45.1463 433.013 44.4634 435.267C48.7353 446.14 89.5961 437.902 92.407 426.679C92.7087 425.473 92.8675 424.314 92.9787 423.155C92.264 414.9 87.9128 407.757 88.5321 400.011L88.5003 400.106C88.5003 400.106 70.2218 407.091 66.601 411.313C65.5211 412.583 65.2035 409.726 65.8864 407.138C65.1876 406.36 65.4894 402.011 67.2045 400.154Z" fill="#4E87EE"/>
<path d="M67.2067 400.153C65.0628 402.486 65.0945 408.788 66.6191 407.01C70.2398 402.772 88.5185 395.803 88.5185 395.803L88.5502 395.708C88.5978 395.168 88.6455 394.629 88.7408 394.089C88.9949 392.597 89.4237 391.454 89.916 390.486L89.9319 390.422C89.9319 390.422 69.3347 397.819 67.2067 400.153Z" fill="#0552DE"/>
<path d="M75.1956 360.517C77.006 360.406 78.9434 359.739 81.6273 358.913C86.4391 357.453 82.6754 345.055 82.1831 343.468L73.7188 346.944C73.7346 346.944 76.7678 356.183 75.1956 360.517Z" fill="#0552DE"/>
<path d="M52.2015 427.6C56.7593 412.789 38.7189 392.804 40.6563 388.312C42.5461 383.962 44.42 372.819 39.4335 365.961C34.4469 359.104 32.2396 360.025 32.2396 360.025L47.3897 349.929C47.0085 349.516 46.6592 349.151 46.2622 348.738L24.3469 363.279C24.3311 363.295 24.0134 363.485 24.0452 363.485C25.2521 362.914 30.6833 360.802 35.0504 366.803C40.037 373.66 36.3526 392.122 36.0827 398.884C35.8921 403.9 48.3267 416.456 43.7689 431.267C39.5606 444.918 71.1153 441.902 85.2491 433.711C69.8925 438.759 48.7078 438.934 52.2015 427.6Z" fill="#0552DE"/>
<path d="M87.4575 311.005C88.5215 325.371 92.0469 330.149 91.7769 336.404C91.5387 342.674 85.8535 347.912 85.8535 347.912C85.8535 347.912 84.329 341.515 82.3756 340.737C80.2159 339.88 75.7852 318.91 75.7852 318.91L82.9473 311.005C82.9314 311.005 87.7592 307.576 87.4575 311.005Z" fill="#F9339C"/>
<path d="M63.3325 350.183C64.2536 351.437 65.0793 352.421 65.5398 352.738C65.3493 350.437 65.4605 347.516 65.7781 344.293C65.0476 343.849 64.3329 343.388 63.6659 342.912C63.396 345.595 63.269 348.087 63.3325 350.183Z" fill="#C6724E"/>
<path d="M86.5203 313.069C86.6474 310.783 86.5203 307.831 86.5203 307.831L81.6132 304.068L66.9395 298.608L57.3477 315.069L57.8082 337.944C57.8082 337.944 60.1585 340.436 63.684 342.944C65.0021 330.07 69.6551 312.609 72.0531 310.561C75.0545 307.989 78.6118 305.83 82.3755 306.434C82.8202 306.513 83.2807 306.91 83.7253 307.45C80.2633 307.259 76.9919 309.259 74.197 311.64C71.7831 313.688 67.0666 331.419 65.7803 344.325C69.941 346.881 75.1816 348.913 80.184 347.452C85.9804 345.738 87.362 327.562 86.5203 313.069Z" fill="#FCB892"/>
<path d="M83.7249 307.434C83.2802 306.894 82.8356 306.481 82.3751 306.418C78.6114 305.815 75.0541 307.973 72.0527 310.545C69.6547 312.577 64.9858 330.054 63.6836 342.928C64.3506 343.389 65.0494 343.865 65.7957 344.309C67.0821 331.404 71.7986 313.672 74.2124 311.625C76.9915 309.244 80.2629 307.227 83.7249 307.434Z" fill="#DB895D"/>
<path d="M62.748 372.089C64.4314 373.597 65.543 374.549 65.543 374.549C65.543 374.549 63.6056 370.597 61.5888 365.168C59.0955 358.437 56.4594 349.437 57.2375 342.881C56.4276 341.357 55.7924 339.944 55.6495 339.055C52.5369 348.611 60.4136 366.993 62.748 372.089Z" fill="#C6724E"/>
<path d="M41.8809 356.31C42.7702 358.088 43.3736 359.183 43.3736 359.183C43.3736 359.183 44.517 355.691 45.6762 353.929C45.2951 353.215 44.9617 352.516 44.7393 351.849C43.8342 351.675 42.6114 354.405 41.8809 356.31Z" fill="#0552DE"/>
<path d="M86.5176 313.068C86.5176 313.068 84.3579 306.735 82.3728 306.417C78.6091 305.814 75.0519 307.973 72.0504 310.544C69.0331 313.1 62.4109 340.133 63.3955 351.658C61.7598 350.531 56.1539 342.054 55.6458 339.038C51.9932 350.197 63.3955 373.453 63.3955 373.453C63.3955 373.453 47.7372 360.357 44.7358 351.832C43.3542 351.578 41.2261 358.103 41.2261 358.103C41.2261 358.103 32.8889 343.276 32.7301 332.895C32.5236 320.418 35.4933 281.559 66.0793 288.369C72.8921 289.892 83.9609 298.925 86.9147 306.433C88.328 310.116 86.5176 313.068 86.5176 313.068Z" fill="#F9339C"/>
<path d="M32.7303 333.134C33.0638 318.418 37.6215 285.273 66.0637 291.607C72.8765 293.115 83.9452 302.163 86.899 309.672C87.0737 310.116 87.1849 310.545 87.2802 310.957C87.5184 309.783 87.5819 308.195 86.899 306.449C83.9452 298.941 72.8765 289.908 66.0637 288.384C35.4777 281.574 32.508 320.434 32.7144 332.911C32.7144 332.975 32.7303 333.054 32.7303 333.134Z" fill="#F969C2"/>
<path d="M61.0598 371.438C62.4732 372.708 63.3943 373.47 63.3943 373.47C63.3943 373.47 55.7716 357.897 55.0093 346.135C54.517 354.087 58.4078 365.025 61.0598 371.438Z" fill="#F969C2"/>
<path d="M58.9512 362.754L61.6032 365.151L65.5575 374.532C65.5575 374.532 62.9054 372.342 62.7625 372.072C61.5555 369.945 58.9512 362.754 58.9512 362.754Z" fill="#0552DE"/>
<path d="M151.549 343.166L144.069 387.137L126.918 389.153L131.746 347.103L151.549 343.166Z" fill="#0D1884"/>
<path d="M141.497 341.674L150.279 385.407L134.986 393.424L124.426 352.452L141.497 341.674Z" fill="#4E87EE"/>
<path d="M123.076 366.817C123.076 366.817 126.157 357.039 128.952 358.515C129.952 359.055 126.919 367.294 126.919 367.294L123.076 366.817Z" fill="#FCB892"/>
<path d="M247.748 800C291.11 800 326.262 779.717 326.262 754.696C326.262 729.675 291.11 709.392 247.748 709.392C204.386 709.392 169.234 729.675 169.234 754.696C169.234 779.717 204.386 800 247.748 800Z" fill="#D7E9FF"/>
<path d="M207.891 734.885C207.891 734.885 217.038 732.028 218.404 737.854C219.785 743.695 212.814 750.442 209.209 754.252C206.191 757.426 204.984 765.84 199.585 768.427C196.631 769.856 191.216 768.697 189.39 763.792C187.722 759.3 191.327 742.013 191.327 742.013L207.891 734.885Z" fill="#0863EF"/>
<path d="M206.62 736.854C206.62 736.854 215.768 733.996 217.133 739.822C217.689 742.156 216.895 744.632 215.514 747.013C217.61 744.061 219.103 740.838 218.404 737.854C217.038 732.012 207.891 734.885 207.891 734.885L191.327 742.029C191.327 742.029 191.2 742.616 191.01 743.584L206.62 736.854Z" fill="#99BCE6"/>
<path d="M207.605 756.617C205.937 758.665 204.794 762.3 203.031 765.443C205.016 762.792 206.207 759.252 207.605 756.617Z" fill="#99BCE6"/>
<path d="M195.407 553.939C193.772 559.225 193.565 632.768 189.246 656.944C184.529 683.359 184.466 724.393 184.418 741.743C184.545 753.489 210.605 751.14 213.019 733.234C212.034 715.043 215.401 697.502 217.545 674.834C220.372 650.468 234.807 594.433 234.807 594.433C234.807 594.433 197.027 548.653 195.407 553.939Z" fill="#4E87EE"/>
<path d="M188.245 739.108C188.293 721.758 188.356 680.724 193.073 654.309C196.948 632.61 197.504 571.225 198.758 555.002C196.9 553.574 195.677 553.066 195.407 553.939C193.772 559.225 193.565 632.768 189.246 656.944C184.529 683.359 184.466 724.393 184.418 741.743C184.513 750.489 198.965 751.41 207.35 743.949C199.028 748.362 188.325 746.632 188.245 739.108Z" fill="#0552DE"/>
<path d="M287.405 742.473C291.931 745.108 307.002 741.886 311.957 744.378C316.911 746.87 318.611 755.823 311.671 760.22C304.731 764.618 271.89 773.761 263.41 770.57C254.929 767.38 260.027 749.617 260.027 749.617C260.027 749.617 282.879 739.838 287.405 742.473Z" fill="#0863EF"/>
<path d="M311.954 744.378C306.999 741.886 291.929 745.108 287.403 742.473C282.877 739.822 260.04 749.617 260.04 749.617C260.04 749.617 260.009 749.743 259.961 749.918C265.98 747.489 281.257 741.679 284.862 743.791C289.388 746.426 304.458 743.203 309.413 745.696C314.368 748.188 316.067 757.141 309.127 761.538C309.111 761.554 309.08 761.57 309.064 761.57C310.128 761.078 311.017 760.633 311.668 760.22C318.608 755.823 316.909 746.87 311.954 744.378Z" fill="#99BCE6"/>
<path d="M242.288 552.732C257.644 553.669 272.747 544.843 272.747 544.843C272.747 544.843 285.276 593.242 284.641 660.389C284.736 698.661 285.197 720.98 289.77 740.997C288.484 754.458 258.772 761.061 256.644 748.965C254.563 712.455 251.705 690.867 250.434 669.453C249.323 650.817 235.792 602.053 234.967 599.64C217.657 588.56 211.654 588.496 203.11 572.638C193.216 554.336 217.228 551.193 242.288 552.732Z" fill="#4E87EE"/>
<path d="M260.455 745.68C258.375 709.17 255.517 687.581 254.246 666.168C253.135 647.532 239.604 598.767 238.778 596.354C220.77 586.258 211.496 586.036 207.001 578.115L206.43 578.623C210.686 586.766 217.657 588.576 234.967 599.656C235.793 602.085 249.323 650.849 250.435 669.469C251.721 690.883 254.564 712.472 256.644 748.982C258.407 759.014 279.083 756.188 286.865 747.267C277.622 753.426 261.98 754.347 260.455 745.68Z" fill="#0552DE"/>
<path d="M185.245 500.809C185.515 499.063 192.55 480.268 198.473 471.22C211.257 451.663 222.628 435.662 201.967 426.455C186.039 422.011 178.368 433.361 171.587 452.647C165.886 465.537 165.044 472.807 158.803 490.808C157.851 494.999 160.058 505.142 162.837 509.476C171.349 527.271 186.785 534.636 201.22 544.081C201.22 544.081 212.607 540.827 210.527 531.62C203.587 525.683 196.424 511.762 185.245 500.809Z" fill="#F8FBFF"/>
<path d="M166.807 510.809C164.028 506.492 161.821 496.332 162.773 492.142C168.999 474.141 169.856 466.855 175.557 453.981C182.005 435.631 202.57 426.725 201.983 426.471C186.054 422.027 178.384 433.376 171.603 452.663C165.902 465.553 165.06 472.823 158.819 490.824C157.866 495.015 160.074 505.158 162.853 509.492C171.365 527.286 186.801 534.652 201.236 544.097C201.236 544.097 201.728 543.954 202.459 543.652C188.849 535.001 174.779 527.477 166.807 510.809Z" fill="#B6D1FE"/>
<path d="M239.096 461.204C239.096 461.204 282.625 566.861 278.369 571.702C274.129 576.544 261.17 579.528 236.142 577.068C210.13 574.512 195.837 571.512 194.392 562.638C193.36 556.416 211.495 531.748 209.637 521.033C205.715 498.143 239.096 461.204 239.096 461.204Z" fill="#0552DE"/>
<path d="M209.653 427.535C220.229 436.615 244.447 439.504 244.447 439.504L261.424 452.552L266.839 456.807C266.839 456.807 285.165 561.003 280.909 565.844C276.669 570.686 261.169 574.908 236.142 572.448C210.129 569.892 193.693 565.892 192.248 557.034C191.216 550.812 203.126 521.524 201.268 510.81C197.33 487.919 181.941 470.061 185.276 447.282C189.516 418.233 204.031 427.408 209.653 427.535Z" fill="#F8FBFF"/>
<path d="M242.079 569.813C216.066 567.257 199.63 563.257 198.185 554.399C197.153 548.177 209.063 518.889 207.205 508.174C203.267 485.284 187.878 467.426 191.213 444.647C192.706 434.456 195.453 428.98 198.645 426.154C193.214 426.773 187.64 431.075 185.274 447.282C181.955 470.077 197.343 487.919 201.266 510.81C203.108 521.524 191.213 550.812 192.246 557.034C193.691 565.892 210.127 569.892 236.139 572.448C257.959 574.591 272.538 571.654 278.731 567.67C271.013 570.146 258.642 571.448 242.079 569.813Z" fill="#B6D1FE"/>
<path d="M338.951 485.65C337.252 487.269 334.822 488.396 333.393 489.793L326.834 482.57C326.945 482.031 329.851 473.3 334.028 468.252C336.346 465.458 340.65 461.188 350.861 462.378C358.214 463.236 341.794 482.935 338.951 485.65Z" fill="#FCB892"/>
<path d="M350.846 462.378C350.719 462.362 350.607 462.362 350.496 462.346C354.196 465.569 339.967 482.602 337.331 485.11C335.854 486.523 333.853 487.57 332.408 488.729L333.377 489.793C334.806 488.396 337.252 487.269 338.935 485.65C341.794 482.935 358.214 463.235 350.846 462.378Z" fill="#DB895D"/>
<path d="M327.663 479.395C324.534 483.824 309.543 500.856 303.731 504.174C303.524 504.285 291.773 492.745 286.437 481.951C276.178 461.124 266.507 446.425 249.435 460.108C244.544 466.759 248.308 481.268 258.646 496.063C267.063 507.143 295.282 528.794 302.127 529.62C325.726 529.715 333.555 492.999 339.764 488.316C339.78 488.316 336.016 478.411 327.663 479.395Z" fill="#F8FBFF"/>
<path d="M302.144 525.859C295.299 525.034 267.095 503.381 258.663 492.301C251.961 482.713 248.039 473.252 247.435 465.966C246.689 473.554 250.738 484.729 258.663 496.063C267.08 507.143 295.299 528.796 302.144 529.621C325.742 529.716 333.572 493 339.781 488.317C339.781 488.317 339.368 487.253 338.542 485.872C332.476 493.873 324.186 525.938 302.144 525.859Z" fill="#B6D1FE"/>
<path d="M255.343 370.548C255.343 370.548 265.046 378.405 261.568 396.438C258.392 412.979 255.232 421.535 252.31 422.709C250.563 423.408 245.148 423.075 244.147 423.948C243.147 424.821 244.29 437.599 244.433 439.504C238.144 441.076 219.485 438.615 209.639 427.535C210.877 425.551 216.42 417.789 217.833 404.724C219.246 391.66 255.343 370.548 255.343 370.548Z" fill="#FCB892"/>
<path d="M230.664 433.981C221.12 432.473 215.117 425.79 212.64 422.441C211.322 425.028 210.147 426.742 209.654 427.536C219.516 438.616 238.16 441.077 244.449 439.505C244.401 438.839 244.226 436.791 244.068 434.426C241.257 434.822 236.921 434.965 230.664 433.981Z" fill="#DB895D"/>
<path d="M256.549 373.405L259.789 376.786C257.788 372.532 255.342 370.532 255.342 370.532C255.342 370.532 251.706 372.659 246.703 375.977L256.549 373.405Z" fill="#DB895D"/>
<path d="M259.281 374.231C265.522 387.422 257.058 385.279 257.613 390.105C258.185 394.962 254.787 405.852 253.437 406.09C252.198 406.297 252.818 395.566 248.498 397.391C244.178 399.233 244.353 420.028 235.365 420.456C227.44 420.837 217.578 415.964 216.61 412.011C215.435 407.186 258.233 372.008 259.281 374.231Z" fill="#DB895D"/>
<path d="M262.314 368.643C269.286 376.39 257.613 383.311 258.169 388.152C258.741 393.01 255.946 403.995 254.596 404.233C253.357 404.439 252.15 392.93 247.847 394.756C243.527 396.597 243.702 417.392 234.713 417.821C226.789 418.202 217.499 413.519 215.689 409.884C213.37 405.233 202.174 386.597 216.832 370.532C237.207 352.07 260.678 366.817 262.314 368.643Z" fill="#412424"/>
<defs>
<radialGradient id="paint0_radial_210_394" cx="0" cy="0" r="1" gradientUnits="userSpaceOnUse" gradientTransform="translate(359.29 260.555) rotate(46.8401) scale(19.8328 8.03576)">
<stop stop-color="white"/>
<stop offset="0.9998" stop-color="white" stop-opacity="0"/>
<stop offset="1" stop-color="white" stop-opacity="0"/>
</radialGradient>
<radialGradient id="paint1_radial_210_394" cx="0" cy="0" r="1" gradientUnits="userSpaceOnUse" gradientTransform="translate(329.761 118.643) rotate(29.9906) scale(19.5445 7.91609)">
<stop stop-color="white"/>
<stop offset="0.9998" stop-color="white" stop-opacity="0"/>
<stop offset="1" stop-color="white" stop-opacity="0"/>
</radialGradient>
<radialGradient id="paint2_radial_210_394" cx="0" cy="0" r="1" gradientUnits="userSpaceOnUse" gradientTransform="translate(418.966 32.4432) rotate(40.4419) scale(21.2301 8.60172)">
<stop stop-color="white"/>
<stop offset="0.9998" stop-color="white" stop-opacity="0"/>
<stop offset="1" stop-color="white" stop-opacity="0"/>
</radialGradient>
</defs>
</svg>
