<svg width="16" height="16" viewBox="0 0 16 16" fill="none" xmlns="http://www.w3.org/2000/svg">
<circle cx="8" cy="8" r="8" fill="#EE5D5D"/>
<path d="M8.57447 10.0656H7.81127C7.69607 10.0656 7.63847 10.0128 7.63847 9.90716L7.55207 4.98235V2.46235C7.55207 2.35675 7.60967 2.30396 7.72487 2.30396H8.66087C8.76647 2.30396 8.81927 2.35675 8.81927 2.46235V4.98235L8.73287 9.90716C8.73287 10.0128 8.68007 10.0656 8.57447 10.0656ZM8.77607 11.2896C8.93927 11.4432 9.02087 11.64 9.02087 11.88C9.02087 12.12 8.93927 12.3216 8.77607 12.4848C8.62247 12.6384 8.42567 12.7152 8.18567 12.7152C7.94567 12.7152 7.74887 12.6384 7.59527 12.4848C7.44167 12.3216 7.36487 12.12 7.36487 11.88C7.36487 11.64 7.44167 11.4432 7.59527 11.2896C7.74887 11.1264 7.94567 11.0448 8.18567 11.0448C8.42567 11.0448 8.62247 11.1264 8.77607 11.2896Z" fill="white"/>
</svg>
