<?xml version="1.0" encoding="UTF-8" standalone="no"?>
<svg
   xmlns:dc="http://purl.org/dc/elements/1.1/"
   xmlns:cc="http://creativecommons.org/ns#"
   xmlns:rdf="http://www.w3.org/1999/02/22-rdf-syntax-ns#"
   xmlns:svg="http://www.w3.org/2000/svg"
   xmlns="http://www.w3.org/2000/svg"
   xmlns:sodipodi="http://sodipodi.sourceforge.net/DTD/sodipodi-0.dtd"
   xmlns:inkscape="http://www.inkscape.org/namespaces/inkscape"
   version="1.2"
   viewBox="0 0 5083.3335 5072.7274"
   preserveAspectRatio="xMidYMid"
   clip-path="url(#presentation_clip_path)"
   xml:space="preserve"
   id="svg95"
   sodipodi:docname="icon.svg"
   width="180"
   height="180"
   style="fill-rule:evenodd;stroke-width:28.22200012;stroke-linejoin:round"
   inkscape:version="0.92.5 (2060ec1f9f, 2020-04-08)"><metadata
   id="metadata99"><rdf:RDF><cc:Work
       rdf:about=""><dc:format>image/svg+xml</dc:format><dc:type
         rdf:resource="http://purl.org/dc/dcmitype/StillImage" /><dc:title></dc:title></cc:Work></rdf:RDF></metadata><sodipodi:namedview
   pagecolor="#ffffff"
   bordercolor="#666666"
   borderopacity="1"
   objecttolerance="10"
   gridtolerance="10"
   guidetolerance="10"
   inkscape:pageopacity="0"
   inkscape:pageshadow="2"
   inkscape:window-width="1920"
   inkscape:window-height="1031"
   id="namedview97"
   showgrid="false"
   units="px"
   inkscape:zoom="1"
   inkscape:cx="224.12127"
   inkscape:cy="3.782279"
   inkscape:window-x="0"
   inkscape:window-y="26"
   inkscape:window-maximized="1"
   inkscape:current-layer="svg95" />
 <defs
   id="defs5">
  <clipPath
   id="presentation_clip_path"
   clipPathUnits="userSpaceOnUse">
   <rect
   x="0"
   y="0"
   width="9150"
   height="1550"
   id="rect2" />
  </clipPath>
 </defs>
 <g
   id="id2"
   class="Master_Slide"
   clip-path="url(#presentation_clip_path)"
   transform="translate(0,3530.0927)">
  <g
   id="bg-id2"
   visibility="visible"
   class="Background"
   style="visibility:visible">
   <rect
   x="0"
   y="0"
   width="9150"
   height="1550"
   id="rect7"
   style="fill:none;stroke:none" />
  </g>
  <g
   id="bo-id2"
   visibility="visible"
   class="BackgroundObjects"
   style="visibility:visible" />
 </g>
 <g
   id="id1"
   class="Slide"
   visibility="visible"
   clip-path="url(#presentation_clip_path)"
   style="visibility:visible"
   transform="matrix(3.75,0,0,3.7547744,-0.01736998,-742.36361)">
  <g
   class="Group"
   id="g92">
   <g
   class="com.sun.star.drawing.ClosedBezierShape"
   id="g18"
   transform="matrix(0.93486593,0,0,0.93357824,-1495.096,165.35999)">
    <g
   id="g16">
     <path
   d="m 2711,579 -137,439 h -194 l 136,-439 h -136 l 25,-79 h 466 l -25,79 z m -377,0 h -217 l -35,113 h 209 l -24,79 h -210 l -52,168 h 217 l -25,79 h -419 l 161,-518 h 419 z M 2324,34 c -400,0 -724,324 -724,725 0,401 324,725 724,725 400,0 725,-324 725,-725 0,-401 -325,-725 -725,-725 z"
   id="path12"
   inkscape:connector-curvature="0"
   style="fill:#026ab5;stroke:none" />
     <rect
   x="1600"
   y="33"
   width="1450"
   height="1452"
   id="rect14"
   style="fill:none;stroke:none" />
    </g>
   </g>
   
   
   
   
   
   
   
   
   
  </g>
 </g>
</svg>