<svg width="64" height="81" viewBox="0 0 64 81" fill="none" xmlns="http://www.w3.org/2000/svg">
<path d="M64 32.1618C64 49.9242 49.6731 64.3235 32 64.3235C14.3269 64.3235 0 49.9242 0 32.1618C0 14.3993 14.3269 0 32 0C49.6731 0 64 14.3993 64 32.1618Z" fill="#196EFF"/>
<path d="M32 81L28.4445 64.1272L32 64.3235L35.5556 64.1272L32 81Z" fill="#196EFF"/>
<path d="M31.7189 52.9226C43.126 53.0805 52.4998 43.9141 52.656 32.4489C52.8121 20.9838 43.6914 11.5614 32.2843 11.4035C20.8772 11.2456 11.5033 20.412 11.3472 31.8772C11.1911 43.3423 20.3118 52.7647 31.7189 52.9226Z" fill="#FEFEFE"/>
<path fill-rule="evenodd" clip-rule="evenodd" d="M32.4041 16.388C41.0208 16.5068 47.9127 23.6266 47.7943 32.2872C47.6761 40.9476 40.5923 47.8745 31.9757 47.7556C23.3591 47.6367 16.4672 40.5169 16.5855 31.8565C16.7039 23.1959 23.7876 16.2691 32.4041 16.388Z" fill="#FEFEFE" stroke="#FEFEFE" stroke-width="0.0762" stroke-miterlimit="22.9256"/>
<path fill-rule="evenodd" clip-rule="evenodd" d="M47.832 31.4295L47.5066 29.725L47.2177 29.0809L47.1568 28.9815L47.2514 28.9187L47.4818 29.4184L47.6539 30.063L47.6658 30.1275L47.7193 30.4174L47.7989 31.1357L47.8161 31.3435L47.832 31.4295ZM22.4945 24.0225L22.7263 23.955L22.7889 24.1205L22.6529 24.2473L22.5604 24.6657L21.9778 24.8469L22.0376 24.7682L21.9521 24.7073L22.2136 24.4557L22.0928 24.4349L22.1551 24.3116L22.0875 24.2914L22.4945 24.0225ZM23.2698 23.1587L23.0881 23.3833L23.4115 23.4091L23.1743 23.7336L23.3989 23.8007L23.594 24.3964L23.8661 24.4321L23.7265 24.8263L22.631 25.1638L23.1659 24.725L22.7382 24.7088L23.1542 24.3159L23.1524 23.9604L22.7838 23.9215L22.9601 23.2639L23.2698 23.1587ZM16.898 30.5438L16.9518 31.123L16.8205 31.1598L16.8213 31.0484L16.7822 30.7223L16.898 30.5438ZM22.9605 20.5246L23.56 19.9177L23.3344 20.3067L23.764 20.0443L24.0371 19.5684L24.3763 19.3907L24.91 18.8301L24.773 18.7789L25.2375 18.4767L24.4576 18.7963L24.2635 19.068L24.4133 19.0164L23.8881 19.5087L23.2734 19.9181L23.2537 19.8109L23.0541 19.9389L23.0433 20.0525L23.1378 19.9894L22.7708 20.4171L22.6314 20.756L22.9605 20.5246ZM26.0593 18.0375L25.7855 18.2802L27.4899 17.8458L27.5359 17.6365L27.0381 17.7008L26.9003 17.8169L27.1275 17.8391L26.6373 17.9462L26.8327 17.7968L26.0593 18.0375ZM34.1577 34.1008L34.1729 34.0238L35.0248 34.3939L35.1335 34.5578L35.0069 34.7214L35.1582 34.6919L35.4703 34.8438L36.7153 34.0532L36.8346 34.3817L36.7641 34.4233L36.7493 34.9266L36.5075 36.0575L35.2912 36.6849L34.8957 37.5129L35.0324 38.0416L35.2998 38.6932L35.3749 39.7897L34.3821 41.0961L34.3156 41.8499L33.8048 42.4781L33.7001 42.8136L32.6287 43.959L32.1696 44.1789L30.8767 44.4972L30.7253 44.3139L30.7852 44.1075L30.3285 43.6506L30.0229 43.4791L29.6848 42.6561L28.8946 41.9312L28.8554 41.772L28.8746 41.0275L29.0998 40.3904L28.5505 39.4329L28.5263 39.3544L28.4272 39.1885L28.1558 38.9916L27.616 38.6158L27.4549 38.379L27.5714 37.9484L27.5486 37.666L27.4631 37.2564L27.137 37.1351L26.618 37.3482L26.0608 36.9296L25.6983 36.9818L25.4997 37.0209L25.3473 37.097L24.6279 37.4976L24.3451 37.4511L23.3152 37.7088L22.3262 37.18L21.9903 37.0053L21.8774 36.7124L21.4481 36.2964L21.3394 36.1324L21.065 35.9731L21.0498 35.8373L21.0945 35.7081L20.857 35.4304L21.0662 35.1301L21.0755 34.3318L20.9874 33.96L21.5307 32.7141L21.8291 32.3129L22.4658 31.8363L22.6605 31.1404L23.1638 30.7362L23.3356 30.3412L23.4252 30.2958L23.6187 30.443L24.0825 30.4078L24.7119 29.9971L26.1625 29.685L26.3385 29.5763L26.5113 29.663L26.6147 29.5871L26.5265 29.7987L26.6872 29.9803L26.4757 30.3182L26.7921 30.4413L27.5925 30.4791L28.4707 30.7791L28.6526 30.6509L28.5949 30.3381L28.7619 30.1292L29.2562 30.1529L29.673 30.1822L30.5501 30.1583L30.8495 29.9238L31.3732 29.895L31.5395 29.7884L31.8518 30.1533L31.8077 30.5509L31.3309 30.1443L31.4623 30.3779L32.4986 31.4807L32.8454 31.6628L33.1995 32.3065L33.4767 32.4281L34.1577 34.1008ZM31.4158 26.2337L31.7611 26.3217L31.9518 26.6067L31.8176 26.7997L31.4317 26.9534L30.7546 26.8525L30.3873 26.9914L30.1087 27.3242L29.7337 27.3642L29.8909 27.4669L29.3529 27.7171L29.2782 27.8873L29.4176 27.8935L29.5547 28.178L29.3996 28.1414L29.3967 28.2423L29.5952 28.2812L29.7713 28.6026L30.3202 28.584L30.4199 28.3752L30.9332 28.4526L31.2301 28.1609L31.4885 28.0656L31.5707 28.3388L31.6961 28.6144L31.6563 29.0896L31.6347 29.6052L31.982 30.0487L32.0027 30.0446L32.0477 30.4028L32.1788 30.3658L33.2829 31.2838L33.7823 32.0312L34.2272 32.2553L34.917 32.943L35.3866 33.8742L36.4252 33.1144L36.9966 32.4131L37.0621 32.0776L37.3769 31.8267L37.5577 31.4243L37.6767 31.0341L37.5664 30.6664L37.6318 29.9862L36.7413 29.6492L36.6297 29.4487L36.5796 29.2917L36.5503 29.3644L36.4196 30.0349L36.0168 30.2141L35.8663 30.0878L35.6372 29.7098L35.7534 30.1099L34.8206 29.3142L34.5993 28.9794L34.6938 28.9163L34.6784 28.7746L34.9504 28.8104L35.4905 29.2607L36.2435 29.3689L36.4642 29.0697L36.823 29.344L37.5837 29.1505L38.2991 28.7101L38.7192 28.9722L38.9721 29.134L39.1065 28.9409L39.1481 29.1663L39.037 29.2549L39.4284 29.5337L39.5771 29.3046L39.4523 28.9732L39.5427 28.9443L40.5802 30.7093L41.6725 32.1969L41.7123 31.4326L41.1805 29.9911L41.2724 29.6281L40.9791 27.7507L41.0765 27.8759L41.0851 27.8078L41.1312 27.654L41.0019 27.3568L41.3578 27.7321L41.7914 28.1808L42.0786 28.7584L42.1483 28.7337L41.9775 28.211L42.124 28.3715L42.8436 29.9096L43.1802 30.7558L43.2095 30.6831L43.1127 30.4463L44.8522 30.3552L45.8527 29.3011L46.1671 30.1211L46.17 29.62L45.8849 29.2666L46.116 29.0231L47.0736 27.637L47.0589 27.5885L46.8255 26.9001L46.5613 26.2177L46.2544 25.5328L45.943 24.8822L45.5719 24.2544L45.2032 23.6369L44.7952 23.0385L44.3563 22.4462L43.9134 21.8881L43.4212 21.3504L42.9246 20.8474L42.3955 20.3395L41.862 19.8656L41.2915 19.4217L40.7081 19.0243L40.1045 18.631L39.4944 18.2611L38.8615 17.9404L38.2206 17.6325L38.0618 17.5689L36.5701 18.7854L35.4244 19.456L34.0617 19.4258L32.9328 19.9982L31.8927 20.0888C31.6155 19.824 31.0222 21.5415 30.9552 20.8078L29.5198 20.7999L28.9997 21.4914L28.4348 21.48L28.9278 21.8503L28.5751 21.9528L28.5622 22.4003L27.5937 22.045L28.3906 21.9888L28.5185 21.8192L27.2459 21.6573L26.8311 21.5384L26.5427 21.8173L26.1695 21.9241L25.9814 22.1721L25.3735 23.1366L25.5701 23.109L25.1245 23.341L24.8198 23.6457L24.8648 24.0038L24.973 24.0715L24.8674 24.2479L25.1307 24.352L25.5154 24.0765L25.5368 23.9053L25.6365 24.0414L25.9612 24.5339L25.9738 24.7762L26.3951 24.5267L26.4167 24.0109L26.6315 23.6796L26.409 23.5675L26.3006 23.2106L26.719 22.7726L26.6716 22.5152L26.8891 22.428L27.1157 22.5614L26.7561 23.088L26.9198 23.4562L27.1748 23.573L27.7275 23.2868L28.1224 23.2981L27.878 23.413L27.289 23.673L27.3904 23.8199L27.5032 23.7979L27.5131 23.8514L27.5362 24.0916L27.1679 24.0526L27.1456 24.3351L27.2473 24.482L27.2606 24.6128L27.1646 24.6094L27.1572 24.455L27.0367 24.779L26.7338 24.7494L26.2338 25.0923L25.9705 24.9881L25.4791 24.9731L25.4762 24.7847L25.6512 24.6392L25.5244 24.5864L25.5667 24.3554L25.2666 24.57L25.2565 24.8613L25.346 24.9993L25.3683 25.3508L25.2295 25.2892L25.1325 25.397L24.8761 25.4474L24.5602 25.9207L24.4369 26.0008L24.0531 26.454L23.6561 26.4316L23.7139 26.6872L23.3699 26.6658L23.1499 26.7978L23.2087 26.9422L23.6483 27.0227L23.5825 27.1245L23.8196 27.4895L23.585 28.0026L22.4138 28.0435L22.1933 28.2314L22.2488 28.5317L22.0678 29.3345L22.1945 29.3875L22.1491 29.7747L22.3944 29.8377L22.6101 29.74L22.8257 29.9868L23.0582 29.8076L23.5436 29.7347L23.963 29.1852L23.8758 29.0023L24.5315 28.2954L24.5426 28.1262L24.5481 27.9252L25.1094 27.8594L25.3646 27.6315L25.5889 27.4652L25.8528 27.5137L26.121 27.8727L27.0888 28.2831L27.2735 28.5921L27.1986 28.7622L27.2841 28.8234L27.4377 28.5039L27.2811 28.3457L27.3044 28.1854L27.6631 28.1706L27.0891 27.9386L27.0733 27.7969L26.8215 27.8128L26.5284 27.4922L26.2978 27.3928L26.2094 27.0879L26.4702 27.0031L26.5324 27.1689L26.6479 27.0462L26.9939 27.4234L27.4392 27.5919L27.7353 27.7004L27.811 28.0528L28.0394 28.1971L28.3406 28.5048L28.6423 28.4125L28.9713 28.5259L28.925 28.3904L28.5857 28.2789L28.7089 28.1992L28.4899 27.875L28.7022 27.9892L28.8187 27.6997L29.1422 27.6696L29.2317 27.8076L29.434 27.523L29.6925 27.4282L29.419 27.2702L29.3029 27.1596L29.3869 26.8096L29.4225 26.3687L29.4299 26.1226L29.6812 25.9288L29.7293 26.0751L30.0779 26.0067L29.9373 26.2232L30.305 26.3738L30.4929 26.1254L30.6671 26.0913L30.6493 25.9947L30.3946 26.1114L30.072 25.9745L30.3217 26.0033L30.7503 25.5635L30.8594 25.4644L30.7045 25.6614L30.8922 25.7582L30.6798 26.0443L31.4158 26.2337ZM25.275 18.0465L23.9466 18.9631L24.9922 18.4136L23.7527 19.2348L24.3051 18.9485L24.0971 19.145L23.4583 19.4817L23.5739 19.3588L22.6818 19.8786L21.7272 20.6328L20.3638 22.2794L20.5691 22.1836L21.1401 21.5378L22.6364 20.2656L22.3854 20.8042L21.7449 21.4189L22.3591 21.1207L21.7974 21.7679L21.8978 21.8264L22.4268 21.7002L22.4151 21.9251L22.2506 22.0685L21.6171 22.2472L21.5705 22.4875L21.222 22.5559L21.1924 22.6842L21.5146 22.5875L21.3422 22.9771L20.7032 23.3695L20.4139 23.126L20.0994 23.3209L20.2955 23.4049L19.8691 24.4895L19.3926 24.7274L19.7592 24.3554L19.5799 24.246L18.9756 24.9427L18.8507 24.9004L18.3516 25.5322L17.7406 26.6528L17.1274 28.5082L17.157 28.3802L17.3285 27.7569L17.5416 27.0699L17.7976 26.3859L18.0902 25.7281L18.3915 25.0573L18.7393 24.4107L19.0683 23.8348L19.4817 23.1975L19.9216 22.5886L20.359 22.0245L20.823 21.4885L21.3196 20.9576L21.8345 20.4672L22.374 19.9946L22.9277 19.5411L23.4954 19.1075L24.0936 18.7232L24.6958 18.3602L25.1192 18.1218L25.275 18.0465ZM25.2546 18.0506L25.2854 18.0446L25.2546 18.0506ZM25.2299 18.0888L26.0244 17.7328L24.6848 18.4738L25.2299 18.0888ZM26.1665 17.9273L25.5525 18.2257L25.3933 18.4571L25.6457 18.3854L25.7344 18.2903L25.6464 18.2739L26.1665 17.9273ZM23.3989 19.5044L23.3981 19.505L23.0137 19.8358L22.8147 19.9081L22.9385 19.7724L23.3887 19.5065L23.3989 19.5044ZM21.1401 23.2059L20.3576 23.9712L20.5492 24.434L20.9543 23.8096L20.8175 23.7585L21.1506 23.204L21.1401 23.2059ZM17.0778 31.2872L17.0687 31.4114L16.9934 31.3484L17.0272 31.186L17.0778 31.2872ZM25.1112 19.3277L25.4715 19.3793L25.3117 19.7222L25.126 19.6362L24.9387 19.4283L25.1112 19.3277ZM35.4964 40.729L35.8298 40.4634L36.2398 40.0382L36.2025 39.7788L36.4654 39.3044L36.6119 39.4648L36.6916 40.1833L36.5232 40.9391L36.1212 42.3859L35.9682 42.6495L35.602 42.9104L35.3512 42.7593L35.247 42.3682L35.5281 41.5902L35.3921 41.0831L35.4964 40.729ZM27.9816 19.3987L28.1621 19.3411L28.7195 19.5989L28.1645 19.641L27.9816 19.3987ZM34.197 25.0923L34.2616 25.0144L34.4138 25.3577C34.4392 25.3896 34.4646 25.421 34.4899 25.453L34.6632 25.5524C34.662 25.5878 34.6682 26.0822 34.8056 26.2739L35.0569 26.7723L35.1301 27.2397L34.9886 27.6377L34.7305 27.8324L34.4433 27.3857L34.2943 26.731L34.0672 26.635L33.9222 26.6748L34.0016 26.6071L33.8965 26.5627L33.5653 26.2117L33.5761 25.8887L33.8276 25.9169L34.0054 26.0266L34.0793 25.7102L34.0323 25.2908L34.1635 25.1327L34.197 25.0923Z" fill="url(#paint0_radial_159_310)"/>
<path fill-rule="evenodd" clip-rule="evenodd" d="M32.4039 16.3495C23.7661 16.23 16.6648 23.1743 16.5464 31.856C16.4278 40.5376 23.3366 47.6751 31.9744 47.7944C40.6123 47.9134 47.7134 40.9694 47.832 32.2876C47.9506 23.6059 41.0418 16.4685 32.4039 16.3495ZM32.3457 18.5894L32.2892 18.5885L32.2889 18.5925L31.901 18.587L31.0838 18.5204L31.085 18.5173L31.0563 18.5149L31.0548 18.5182L30.8109 18.4981L29.8381 18.3373L29.7732 18.318L29.7744 18.3168L29.7216 18.3012L29.7204 18.3024L29.0572 18.1058L28.5638 17.8494L28.435 17.6955L28.3583 17.5664L28.3595 17.4764L28.4393 17.3216L28.7388 17.1098L29.157 16.917L29.8595 16.7483L30.5844 16.6423L31.5194 16.5603L32.4743 16.5524L33.4604 16.5871L34.4863 16.7173L35.3735 16.9187L36.0059 17.1791L36.3413 17.4104L36.4167 17.5474L36.4206 17.616L36.4122 17.6133L36.4157 17.6735L36.4259 17.6769L36.3694 17.7953L36.3608 17.7921L36.3563 17.8018L36.3226 17.8372L36.3313 17.8408L36.2225 17.9548L35.9824 18.0688L35.9747 18.0645L35.9155 18.0926L35.9229 18.0972L35.7114 18.1975L35.0372 18.3798L35.0326 18.3748L34.9801 18.3891L34.9846 18.3941L34.9346 18.4075L34.0947 18.533L33.6949 18.5586L33.6933 18.554L33.6642 18.5559L33.6661 18.5605L33.0131 18.6022L32.3455 18.5932L32.3457 18.5894ZM33.0145 18.663L33.6887 18.6198L33.6964 18.6394C33.8296 18.9928 33.9409 19.3562 34.0394 19.7208C34.1568 20.1566 34.2564 20.598 34.3448 21.0408L34.3512 21.0741L32.4857 21.1105L32.3112 21.103L32.3448 18.6537L33.0145 18.663ZM32.4851 21.171L34.3632 21.1344L34.3676 21.1579C34.4642 21.6536 34.5469 22.1524 34.6197 22.6522C34.701 23.208 34.7696 23.7659 34.8292 24.3243L34.8324 24.3554L32.504 24.3974L32.2663 24.3877L32.3105 21.1638L32.4851 21.171ZM32.5031 24.4581L34.8386 24.4156L34.8415 24.4417C34.9698 25.6763 35.054 26.9168 35.1061 28.1572L35.1073 28.1849L34.8374 28.2029L32.2141 28.2258L32.2657 24.4483L32.5031 24.4581ZM34.8395 28.2634L35.1098 28.2454L35.1111 28.2746C35.1351 28.8694 35.1515 29.465 35.1611 30.0602L35.1614 30.0888L32.331 30.1127L32.1881 30.1108L32.2133 28.2864L34.8395 28.2634ZM32.3307 30.1735L35.1624 30.1496L35.1629 30.1778C35.1729 30.8704 35.1735 31.5634 35.1652 32.256L35.1651 32.2824L35.1074 32.286L32.4694 32.3129L32.1584 32.3025L32.1875 30.1713L32.3307 30.1735ZM32.4687 32.3736L35.1098 32.3466L35.1643 32.3433L35.1639 32.3739C35.1639 32.3843 35.1636 32.3948 35.1636 32.4056C35.1457 33.711 35.0965 35.0166 35.0124 36.3196L35.0107 36.3456L32.403 36.402L32.1026 36.3913L32.1575 32.3631L32.4687 32.3736ZM32.4026 36.4627L35.0067 36.406L35.0045 36.4371C34.922 37.6806 34.8075 38.9235 34.6497 40.1599L34.6466 40.1842L32.3615 40.2168L32.0504 40.2053L32.1016 36.4517L32.4026 36.4627ZM32.3607 40.2774L34.6386 40.2451L34.6346 40.2777C34.5591 40.8588 34.4735 41.4384 34.375 42.0163L34.3713 42.0387L34.1649 42.0489L32.1257 42.0631L32.025 42.0619L32.0495 40.2659L32.3607 40.2774ZM32.1254 42.1238L34.1665 42.1097L34.3611 42.0998L34.3549 42.135C34.2783 42.5763 34.1939 43.0161 34.0993 43.454L34.0942 43.4761L32.2747 43.4919L32.0055 43.4834L32.0243 42.1223L32.1254 42.1238ZM32.274 43.5524L34.0809 43.5369L34.0731 43.5717C33.9752 44.015 33.8665 44.4563 33.741 44.8924C33.635 45.2604 33.5169 45.6267 33.3779 45.9834L33.3711 46.0011L32.2086 46.0169L31.971 46.0097L32.0049 43.544L32.274 43.5524ZM32.2082 46.0775L33.3469 46.0623L33.3306 46.1017C33.135 46.5846 32.7556 47.4023 32.2466 47.6229L32.2411 47.6252H32.2354C32.1493 47.6254 32.0633 47.625 31.9775 47.6238L31.949 47.6235L31.9703 46.0704L32.2082 46.0775ZM31.8641 47.6219C31.8154 47.621 31.7669 47.6195 31.7181 47.618H31.7124L31.7073 47.6157C31.2053 47.3815 30.8492 46.5567 30.6666 46.07L30.6518 46.0303L31.9138 46.0685L31.8927 47.6226L31.8641 47.6219ZM31.9144 46.008L30.6293 45.9688L30.6227 45.9507C30.493 45.5895 30.3847 45.2193 30.2887 44.8478C30.1746 44.4071 30.0777 43.9617 29.9917 43.5146L29.9849 43.4798L31.9483 43.5422L31.9144 46.008ZM29.9691 42.062L31.9678 42.1209L31.9492 43.4817L29.9732 43.4189L29.9689 43.3966C29.8869 42.9592 29.8149 42.5197 29.7507 42.0791L29.7457 42.0439L29.9691 42.062ZM31.9685 42.0601L29.9725 42.0017L29.7368 41.9824L29.7337 41.9598C29.6506 41.3763 29.5802 40.7904 29.5202 40.2041L29.517 40.1715L31.9929 40.2638L31.9685 42.0601ZM31.9938 40.2031L29.511 40.1106L29.5087 40.086C29.3852 38.8537 29.3051 37.616 29.2563 36.3783L29.2551 36.3478L32.0453 36.4498L31.9938 40.2031ZM29.3141 32.2666L32.1011 32.3612L32.046 36.3891L29.2528 36.2873L29.2519 36.2608C29.2026 34.9493 29.1889 33.6358 29.2068 32.3234C29.2069 32.3115 29.2072 32.2995 29.2074 32.2876L29.2077 32.257L29.3141 32.2666ZM29.302 30.0683L32.1308 30.1698L32.1019 32.3004L29.318 32.2062L29.2088 32.1963L29.209 32.1699C29.2198 31.478 29.2396 30.7863 29.2686 30.095L29.2696 30.0652L29.302 30.0683ZM32.03 28.2882L32.1567 28.287L32.1318 30.1095L29.306 30.0076L29.2723 30.0045L29.2735 29.9775C29.2992 29.3847 29.3317 28.7921 29.3719 28.2L29.3738 28.1722L32.03 28.2882ZM29.8215 24.3473L32.2091 24.446L32.1575 28.2262L32.0312 28.2274L29.3778 28.1118L29.3799 28.0827C29.4661 26.8413 29.5842 25.6008 29.7468 24.3671L29.7507 24.3396L29.8215 24.3473ZM30.5918 21.0921L32.254 21.1614L32.21 24.3852L29.826 24.2868L29.7585 24.2796L29.7622 24.2504C29.8375 23.692 29.9218 23.1345 30.0183 22.5795C30.1054 22.0806 30.2021 21.5829 30.3127 21.0887L30.3178 21.0644L30.5918 21.0921ZM31.898 18.6478L32.2882 18.653L32.2546 21.1007L30.5961 21.0316L30.3314 21.0046L30.3385 20.9734C30.4386 20.5346 30.5504 20.0976 30.6795 19.6665C30.7877 19.306 30.9086 18.9469 31.0516 18.5985L31.0591 18.5794L31.898 18.6478ZM34.1009 18.5932L34.947 18.4671L35.0302 18.4446L35.0419 18.4575C35.3357 18.7851 35.5975 19.1432 35.8335 19.5149C36.0996 19.9342 36.335 20.3743 36.5461 20.824L36.5615 20.8575L36.1747 20.9291L34.3877 21.0732L34.3827 21.0486C34.2935 20.6085 34.1932 20.1697 34.0755 19.7366C33.9761 19.3715 33.8644 19.0078 33.7313 18.654L33.718 18.6178L34.1009 18.5932ZM36.1825 20.9893L36.5878 20.9141L36.5968 20.9341C36.8187 21.417 37.0142 21.9126 37.1889 22.4146C37.3791 22.9621 37.545 23.5184 37.6904 24.0793L37.6986 24.1103L37.3616 24.1582L34.8784 24.3506L34.8755 24.3234C34.8148 23.7666 34.7445 23.2109 34.662 22.6569C34.5879 22.1576 34.5036 21.6596 34.4057 21.1645L34.3995 21.1332L36.1825 20.9893ZM37.3681 24.2187L37.7138 24.1693L37.72 24.1939C37.8699 24.7843 37.9978 25.3804 38.1067 25.9797C38.2221 26.6158 38.316 27.2559 38.3909 27.8982L38.3942 27.9257L38.0034 27.9823L36.678 28.0802L35.1611 28.1814L35.1598 28.1522C35.1058 26.913 35.0193 25.6734 34.888 24.4399L34.8848 24.411L37.3681 24.2187ZM38.0099 28.0427L38.4011 27.9857L38.4044 28.0147C38.4715 28.6095 38.5221 29.206 38.5575 29.8033L38.5592 29.8298L38.0407 29.8958L35.2171 30.0862L35.2167 30.0564C35.2066 29.4604 35.1895 28.865 35.1648 28.2696L35.1636 28.2417L36.682 28.1407L38.0099 28.0427ZM38.0466 29.9562L38.5627 29.8905L38.5643 29.9209C38.6034 30.6179 38.622 31.3161 38.6205 32.014V32.0394L38.1477 32.0955L35.2216 32.2787L35.2218 32.2482C35.23 31.5569 35.2292 30.8652 35.2185 30.1739L35.218 30.1469L38.0466 29.9562ZM38.1529 32.156L38.6205 32.1003L38.6202 32.1326C38.6198 32.2393 38.6189 32.3464 38.6174 32.4532C38.6005 33.6828 38.5231 34.9127 38.3797 36.1339L38.377 36.1562L38.2917 36.1664L35.6726 36.3311L35.065 36.3442L35.0669 36.3134C35.1524 35.0127 35.2023 33.7095 35.2199 32.4063C35.2202 32.393 35.2204 32.3793 35.2207 32.3659L35.2208 32.3397L38.1529 32.156ZM35.6753 36.3917L38.2972 36.2268L38.3699 36.218L38.3656 36.2541C38.2135 37.5116 37.9903 38.7651 37.6801 39.9933L37.675 40.013L37.5455 40.0245L34.9998 40.1792L34.6939 40.1838L34.6982 40.1513C34.8589 38.9157 34.9751 37.6737 35.0589 36.4309L35.0609 36.4051L35.6753 36.3917ZM35.0022 40.2399L37.55 40.0845L37.6591 40.0751L37.649 40.114C37.4975 40.7025 37.3251 41.2861 37.1277 41.8607L37.1218 41.8778L36.6468 41.925L34.4136 42.0365L34.4198 42.0017C34.5193 41.4258 34.6059 40.8478 34.6827 40.2686L34.6859 40.2444L35.0022 40.2399ZM36.6514 41.9852L37.0998 41.9409L37.085 41.983C36.924 42.4423 36.7469 42.8962 36.5501 43.3412L36.543 43.357L34.629 43.4717L34.1316 43.476L34.1392 43.441C34.2353 43.0028 34.321 42.562 34.3991 42.12L34.4031 42.0977L36.6514 41.9852ZM34.6311 43.532L36.5153 43.4193L36.4961 43.4621C36.2865 43.9257 36.0542 44.3804 35.7936 44.8171C35.5609 45.2071 35.3041 45.5853 35.0178 45.9378L35.01 45.9476L34.1426 45.9908L33.401 46.0008L33.4161 45.9617C33.5546 45.6042 33.6733 45.2382 33.7798 44.8702C33.9056 44.4372 34.0149 43.9987 34.1133 43.5586L34.1183 43.5366L34.6311 43.532ZM34.1445 46.0513L34.9587 46.0109L34.9164 46.0608C34.3097 46.7763 33.5252 47.4233 32.5887 47.6199L32.5861 47.6204H32.5837C32.5371 47.6216 32.4904 47.6226 32.444 47.6233L32.3562 47.6248L32.4266 47.5722C32.6204 47.4273 32.7818 47.2139 32.9099 47.0104C32.9955 46.8747 33.0725 46.733 33.1436 46.5889C33.2258 46.4223 33.3005 46.2517 33.3699 46.0793L33.377 46.0619L34.1445 46.0513ZM30.2939 46.0195L30.6217 46.0293L30.6283 46.0473C30.6929 46.2207 30.7627 46.3927 30.8402 46.561C30.9073 46.7062 30.9802 46.8493 31.0619 46.9869C31.1842 47.1931 31.3394 47.4102 31.5284 47.5598L31.5973 47.6142L31.5096 47.6104C31.4632 47.6086 31.4166 47.6061 31.3703 47.6037H31.3677L31.365 47.603C30.4355 47.381 29.6695 46.7136 29.0833 45.983L29.0427 45.9323L30.2939 46.0195ZM29.9182 43.4776L29.9475 43.4785L29.9519 43.5008C30.0387 43.945 30.1363 44.3875 30.2504 44.8252C30.3474 45.197 30.4565 45.5669 30.5856 45.929L30.5996 45.9681L30.297 45.9588L28.9933 45.8681L28.9856 45.8579C28.7079 45.4967 28.4609 45.1106 28.2381 44.713C27.9885 44.2676 27.7684 43.805 27.5709 43.3342L27.5528 43.2912L29.9182 43.4776ZM27.4888 41.8588L29.7035 42.0403L29.7069 42.0629C29.7723 42.5039 29.8455 42.9438 29.9292 43.3819L29.9361 43.4183L27.5271 43.2284L27.5205 43.2121C27.336 42.7624 27.1717 42.3042 27.0234 41.8408L27.0098 41.7983L27.4888 41.8588ZM26.6631 39.9345L29.2062 40.1599L29.4698 40.1696L29.4725 40.1943C29.5335 40.7786 29.6049 41.362 29.6893 41.9436L29.6945 41.979L27.4952 41.7986L26.9896 41.7347L26.9841 41.7173C26.8022 41.1358 26.6454 40.546 26.5098 39.9522L26.5006 39.9121L26.6631 39.9345ZM26.4947 36.1169L29.1428 36.3437L29.201 36.3458L29.2022 36.3721C29.252 37.6086 29.3344 38.8455 29.4602 40.0762L29.4634 40.1087L29.21 40.0994L26.6701 39.8743L26.4866 39.8488L26.482 39.8296C26.2055 38.5917 26.017 37.3309 25.8996 36.068L25.8962 36.0323L26.4947 36.1169ZM26.2669 31.9917L29.1513 32.252L29.1511 32.2783C29.1509 32.2932 29.1503 32.3079 29.1501 32.3227C29.1323 33.6334 29.1468 34.9447 29.1975 36.2546L29.1986 36.2851L29.1466 36.2832L26.5012 36.0568L25.891 35.9702L25.8889 35.9478C25.78 34.7275 25.7363 33.5007 25.7528 32.2756C25.7543 32.1669 25.7565 32.0582 25.759 31.9495L25.7596 31.9172L26.2669 31.9917ZM26.4437 29.7961L29.214 30.0599L29.2129 30.0866C29.1834 30.7777 29.1636 31.4692 29.1528 32.1605L29.1522 32.1913L26.2738 31.9318L25.7612 31.8563L25.762 31.8312C25.78 31.1326 25.8173 30.4346 25.8755 29.7383L25.8782 29.708L26.4437 29.7961ZM26.4906 27.8839L29.191 28.1644L29.3199 28.1699L29.318 28.1991C29.2773 28.7887 29.2442 29.379 29.218 29.9694L29.2167 29.9992L26.4514 29.7359L25.8834 29.6473L25.8858 29.621C25.9376 29.0268 26.0044 28.4337 26.0877 27.8432L26.0917 27.8141L26.4906 27.8839ZM27.2787 24.0793L29.7043 24.3348L29.7004 24.3637C29.5345 25.5981 29.4138 26.8397 29.3261 28.082L29.3242 28.1094L29.1955 28.1037L26.4989 27.8236L26.1 27.7541L26.1041 27.7268C26.1965 27.0857 26.3084 26.4474 26.4414 25.8135C26.5669 25.2163 26.7114 24.6228 26.8778 24.0358L26.885 24.0115L27.2787 24.0793ZM28.5418 20.884L30.2819 21.0605L30.2748 21.0918C30.1629 21.5858 30.0644 22.0828 29.9763 22.5813C29.878 23.1348 29.7924 23.6907 29.7161 24.2476L29.7126 24.2746L27.2867 24.0192L26.9019 23.9529L26.9106 23.9224C27.0712 23.3676 27.2514 22.818 27.456 22.2782C27.6436 21.7829 27.8521 21.2945 28.086 20.8194L28.0956 20.8001L28.5418 20.884ZM29.8248 18.3966L30.8035 18.5583L31.0301 18.5767L31.0154 18.6128C30.8734 18.9615 30.7519 19.3199 30.6434 19.6802C30.5142 20.1081 30.4021 20.5415 30.3013 20.9766L30.2958 21.0011L28.5503 20.8238L28.1234 20.7437L28.1402 20.7101C28.3644 20.2649 28.6123 19.8302 28.8907 19.4171C29.1376 19.0513 29.4099 18.6996 29.7136 18.3795L29.7254 18.367L29.8248 18.3966ZM35.7322 18.2549L35.984 18.1351L35.9971 18.1433C36.9571 18.7382 37.7913 19.5277 38.4978 20.4078L38.5223 20.4386L38.479 20.4548L37.7114 20.6443L36.61 20.8483L36.6007 20.8285C36.3913 20.3809 36.158 19.9426 35.8949 19.5242C35.6614 19.1526 35.4025 18.7941 35.1127 18.4646L35.0826 18.4305L35.7322 18.2549ZM37.7243 20.7036L38.4969 20.5126L38.5623 20.4883L38.5751 20.5045C39.3075 21.4362 39.9097 22.4758 40.396 23.5568L40.4094 23.5874L39.6239 23.7991L38.7086 23.9659L37.7497 24.1028L37.7432 24.0784C37.5977 23.5186 37.432 22.9637 37.2421 22.4176C37.0678 21.916 36.8727 21.4211 36.6515 20.9383L36.6364 20.9052L37.7243 20.7036ZM38.7182 24.0256L39.6371 23.8584L40.4349 23.6433L40.4446 23.6656C40.9677 24.85 41.358 26.0965 41.6324 27.3621L41.6383 27.3888L41.562 27.4086L40.4566 27.6255L38.4486 27.9175L38.445 27.8886C38.2991 26.6456 38.0818 25.4055 37.7729 24.1926L37.7651 24.1618L38.7182 24.0256ZM40.4668 27.6854L41.5753 27.4678L41.6512 27.4481L41.6573 27.477C41.7831 28.0736 41.8832 28.6757 41.9587 29.2809L41.9618 29.3058L41.8406 29.3359L40.6617 29.5625L38.6148 29.8226L38.6131 29.7925C38.5772 29.1954 38.5262 28.5995 38.4586 28.0053L38.4555 27.9777L40.4668 27.6854ZM40.6711 29.6222L41.8537 29.3952L41.9692 29.3666L41.973 29.3983C42.0553 30.085 42.1059 30.7755 42.1264 31.4665L42.1274 31.4907L40.9365 31.7327L39.5788 31.9252L38.6771 32.0324V32.0006C38.678 31.3034 38.6594 30.6059 38.6201 29.9098L38.6186 29.8834L40.6711 29.6222ZM39.5864 31.9854L40.9467 31.7925L42.1295 31.5522L42.1302 31.5858C42.1377 31.8913 42.1394 32.1966 42.1351 32.5019C42.1209 33.5458 42.0387 34.5896 41.8851 35.6223L41.8821 35.6422L41.1757 35.7838L39.7756 35.9864L38.4336 36.1492L38.4379 36.1134C38.58 34.8993 38.6573 33.6763 38.674 32.4541C38.6754 32.3423 38.6764 32.2305 38.6768 32.1187V32.0936L39.5864 31.9854ZM39.7835 36.0464L41.1859 35.8435L41.8722 35.7059L41.866 35.746C41.6649 37.0486 41.3497 38.3374 40.9084 39.5789L40.9032 39.5943L40.3864 39.694L38.9971 39.8966L37.7297 40.0078L37.7395 39.9692C38.0492 38.7419 38.2719 37.4899 38.4236 36.2333L38.4265 36.2111L39.7835 36.0464ZM39.004 39.9565L40.3964 39.7537L40.8797 39.6605L40.8626 39.7075C40.6396 40.3211 40.3849 40.9233 40.0969 41.5088L40.0904 41.5219L38.9932 41.6932L37.1762 41.8724L37.1905 41.8308C37.3864 41.2576 37.5583 40.6762 37.7092 40.0897L37.7142 40.0702L39.004 39.9565ZM39.0009 41.7532L40.0586 41.5883L40.0336 41.6375C39.7898 42.1225 39.5222 42.5955 39.2293 43.0523L39.2227 43.0627L39.0683 43.0893L36.9216 43.3342L36.5978 43.3536L36.6166 43.3111C36.8122 42.866 36.9886 42.4119 37.1487 41.9527L37.1546 41.9355L39.0009 41.7532ZM36.9268 43.3947L39.0769 43.1493L39.1776 43.1322L39.1415 43.1866C38.5114 44.1466 37.7604 45.0405 36.8829 45.7812L36.8762 45.787L35.6352 45.9163L35.0737 45.9445L35.1127 45.8951C35.3928 45.5417 35.6441 45.1643 35.8728 44.7755C36.1278 44.3416 36.3558 43.891 36.5622 43.4317L36.5693 43.416L36.9268 43.3947ZM35.6398 45.9768L36.7942 45.8563L36.7195 45.9168C35.664 46.7695 34.4426 47.3857 33.0975 47.599L33.096 47.5992H33.0946C33.0787 47.6002 33.0627 47.6011 33.0468 47.6021L32.8612 47.6123L33.0354 47.5471C33.8213 47.253 34.4853 46.658 35.0138 46.0173L35.0217 46.0076L35.6398 45.9768ZM28.7798 45.9138L28.98 45.9278L28.9875 45.9378C29.4977 46.5912 30.1443 47.2027 30.9206 47.5177L31.0929 47.5878L30.9077 47.5724C30.8915 47.5711 30.8755 47.5698 30.86 47.5683H30.8585L30.857 47.568C29.5134 47.3167 28.3049 46.6632 27.2706 45.7768L27.1988 45.7153L28.7798 45.9138ZM25.0219 42.9555L27.1541 43.2599L27.4993 43.2872L27.506 43.303C27.7001 43.7696 27.9165 44.2279 28.1606 44.6705C28.3793 45.0666 28.6212 45.4517 28.8924 45.8138L28.9297 45.8637L28.7854 45.8536L27.1198 45.6442L27.1134 45.6383C26.2592 44.874 25.5352 43.9612 24.9332 42.9863L24.8987 42.9307L25.0219 42.9555ZM25.1362 41.562L26.9548 41.7914L26.9606 41.8088C27.108 42.2722 27.2718 42.7309 27.4551 43.1813L27.4727 43.2241L27.1608 43.1995L25.0321 42.8958L24.8552 42.8599L24.8488 42.8494C24.5711 42.3883 24.3184 41.9119 24.0897 41.4244L24.0664 41.3749L25.1362 41.562ZM24.2794 39.6055L26.4452 39.9044L26.4496 39.9236C26.5849 40.5166 26.7413 41.1051 26.9223 41.6858L26.9354 41.7278L25.1452 41.502L24.0362 41.3079L24.03 41.2946C23.7578 40.7013 23.5194 40.092 23.3128 39.4727L23.2976 39.427L24.2794 39.6055ZM23.5755 35.6746L25.0028 35.9059L25.8399 36.0242L25.842 36.0466C25.9591 37.3073 26.1471 38.5657 26.4226 39.8015L26.4314 39.8413L24.289 39.5456L23.2767 39.3618L23.2714 39.3456C22.8623 38.0892 22.5815 36.7889 22.4158 35.4777L22.4108 35.4385L23.5755 35.6746ZM23.484 31.5516L24.8384 31.7817L25.7034 31.9091L25.7027 31.9342C25.7002 32.0476 25.698 32.1615 25.6965 32.2749C25.6797 33.493 25.7231 34.7132 25.8313 35.9267L25.8344 35.9624L25.0118 35.846L23.5862 35.6152L22.4025 35.3751L22.4001 35.3547C22.2749 34.3176 22.2208 33.2718 22.2352 32.2271C22.2394 31.9189 22.2495 31.6106 22.2656 31.3029L22.2675 31.269L23.484 31.5516ZM22.664 29.1305L23.8399 29.3899L25.8226 29.6993L25.8204 29.7256C25.7617 30.421 25.7241 31.1182 25.7058 31.8162L25.7051 31.8479L24.8479 31.722L23.4958 31.4922L22.2712 31.2078L22.2727 31.1839C22.3125 30.491 22.3825 29.8002 22.4843 29.1138L22.489 29.0821L22.664 29.1305ZM22.9528 27.2108L24.0553 27.4587L26.0373 27.8045L26.0334 27.832C25.9499 28.4222 25.8828 29.0145 25.8306 29.6086L25.8281 29.6387L23.8508 29.3304L22.6785 29.0715L22.498 29.0218L22.5019 28.9968C22.5938 28.3973 22.7102 27.8019 22.8515 27.2122L22.8585 27.1835L22.9528 27.2108ZM25.0204 23.6566L25.9447 23.8493L26.8339 24.0026L26.8253 24.033C26.4823 25.2393 26.2305 26.4748 26.0503 27.7156L26.046 27.7445L24.0668 27.3995L22.9676 27.1519L22.873 27.1245L22.8793 27.098C23.1892 25.8375 23.6154 24.5998 24.1727 23.4277L24.1832 23.4059L25.0204 23.6566ZM26.7972 20.4995L27.6272 20.7125L28.0465 20.7911L28.0299 20.8247C27.7969 21.299 27.5894 21.7865 27.402 22.2811C27.198 22.8192 27.0181 23.3668 26.8578 23.9197L26.851 23.9442L25.9561 23.7898L25.0352 23.5976L24.2099 23.3509L24.2245 23.3208C24.7457 22.2441 25.3839 21.2132 26.1523 20.2967L26.1646 20.2818L26.7972 20.4995ZM29.0346 18.1624L29.6734 18.3516L29.642 18.3851C29.3419 18.7074 29.0727 19.0596 28.828 19.4258C28.5524 19.8383 28.3064 20.2721 28.0842 20.7156L28.0746 20.7346L27.6401 20.6532L26.8144 20.4414L26.2064 20.2321L26.2336 20.2001C26.9582 19.3535 27.8055 18.5999 28.7699 18.0396L28.7833 18.0317L29.0346 18.1624ZM36.2584 18.0047L36.3907 17.8658L36.4086 17.8733C37.5875 18.3639 38.6726 19.0549 39.6373 19.8926L39.6652 19.9168L39.4882 20.0381L39.0998 20.2215L38.5756 20.4185L38.5627 20.4025C37.8624 19.5246 37.0365 18.7351 36.0869 18.1344L36.0433 18.107L36.2584 18.0047ZM39.1233 20.2774L39.5182 20.0909L39.7119 19.9581L39.7283 19.9727C40.6988 20.8315 41.5394 21.8334 42.2405 22.9243L42.2585 22.9522L41.8682 23.1236L41.2254 23.3676L40.4629 23.573L40.4532 23.5509C39.9681 22.4705 39.3683 21.4316 38.639 20.4988L38.6152 20.4682L39.1233 20.2774ZM41.2439 23.4252L41.8907 23.1798L42.2909 23.0041L42.3039 23.0246C43.0124 24.1466 43.5754 25.3597 43.9914 26.6205L44 26.6462L43.4377 26.8648L42.5625 27.1481L41.6923 27.3746L41.6861 27.3457C41.412 26.0837 41.0224 24.8411 40.5017 23.6591L40.4884 23.629L41.2439 23.4252ZM42.5795 27.2062L43.4577 26.9219L44.0188 26.7037L44.028 26.7323C44.2187 27.3228 44.3773 27.924 44.504 28.5314L44.5089 28.5545L44.1697 28.6929L43.2528 28.9859L42.017 29.2921L42.013 29.2604C41.9368 28.6569 41.8366 28.0559 41.7108 27.4605L41.7051 27.4339L42.5795 27.2062ZM43.2692 29.0442L44.1901 28.7498L44.5208 28.6153L44.5275 28.6488C44.666 29.3362 44.7642 30.0318 44.8225 30.7307L44.8244 30.7524L44.3715 30.9146L43.349 31.2171L42.1834 31.4798L42.1822 31.4453C42.1613 30.7543 42.1099 30.0639 42.0273 29.3778L42.0242 29.3529L43.2692 29.0442ZM42.2134 31.5349L43.3643 31.2757L44.39 30.9724L44.8291 30.8149L44.8319 30.8521C44.8752 31.4136 44.8931 31.9767 44.8856 32.5398C44.8745 33.3371 44.8127 34.1334 44.7 34.9227L44.6974 34.9409L43.2929 35.3593L41.9411 35.6302L41.9469 35.5903C42.0971 34.5683 42.1775 33.5356 42.1917 32.5026C42.196 32.1898 42.1941 31.8771 42.1861 31.5646L42.1855 31.5407L42.2134 31.5349ZM43.3075 35.418L44.6872 35.0071L44.6805 35.0509C44.4792 36.3917 44.1286 37.71 43.626 38.9688L43.6208 38.9819L42.4827 39.2899L40.9667 39.582L40.9831 39.5354C41.4189 38.2968 41.7298 37.012 41.9278 35.7139L41.9309 35.6942L43.3075 35.418ZM42.496 39.3489L43.5931 39.0521L43.5713 39.1055C43.3088 39.7465 43.0066 40.3714 42.6655 40.974L42.6601 40.984L42.6265 40.9938L41.5311 41.253L40.2984 41.4893L40.1568 41.5116L40.1804 41.4626C40.465 40.8777 40.7165 40.276 40.937 39.6636L40.9424 39.6485L42.496 39.3489ZM40.3089 41.5491L41.5434 41.3123L42.6182 41.0578L42.5851 41.1152C42.2894 41.6253 41.9652 42.1188 41.6132 42.5914L41.6071 42.5993L41.0057 42.7573L39.2947 43.0503L39.3287 42.9966C39.6157 42.5421 39.8779 42.0724 40.1173 41.5911L40.1237 41.578L40.3089 41.5491ZM41.0183 42.8164L41.5493 42.6772L41.4989 42.7428C40.684 43.8083 39.724 44.7634 38.635 45.5449L38.6294 45.5491L37.0662 45.7672L36.9728 45.7769L37.0405 45.7179C37.8952 44.972 38.6276 44.0826 39.2435 43.13L39.2505 43.1197L41.0183 42.8164ZM37.0733 45.8274L38.5219 45.6253L38.4224 45.6933C37.111 46.5933 35.6444 47.2252 34.0805 47.5102L34.0798 47.5105H34.0788C34.0329 47.5163 33.9869 47.5217 33.9405 47.527L33.9148 47.5298L33.9046 47.4785L33.9295 47.4713C35.0212 47.1559 36.0134 46.5803 36.8833 45.852L36.89 45.8465L37.0733 45.8274ZM26.9832 45.688L27.1047 45.7034L27.1114 45.7091C27.9251 46.4312 28.8555 47.0166 29.886 47.3701L29.9114 47.3788L29.8969 47.4304L29.8706 47.4248C28.374 47.0888 26.978 46.4336 25.7348 45.5333L25.6366 45.4623L26.9832 45.688ZM23.1009 42.5691L24.826 42.9161L24.8326 42.9266C25.4206 43.8937 26.126 44.8009 26.9566 45.5693L27.0265 45.6339L25.5311 45.383L25.5256 45.3789C24.4613 44.5732 23.5294 43.5993 22.7442 42.5185L22.6954 42.4517L23.1009 42.5691ZM22.6163 41.0509L23.8234 41.3321L24.0016 41.3634L24.008 41.3768C24.2321 41.8601 24.4793 42.3328 24.751 42.7906L24.7837 42.8456L23.1153 42.5101L22.6402 42.3725L22.6345 42.3644C22.297 41.8872 21.9875 41.3902 21.7062 40.8777L21.6753 40.8211L22.6163 41.0509ZM21.7285 39.0624L22.9562 39.3652L23.2362 39.4158L23.2415 39.4319C23.4452 40.049 23.6799 40.6559 23.9485 41.2476L23.9708 41.2966L23.8353 41.2728L22.6305 40.9921L21.6364 40.7494L21.6302 40.7382C21.2983 40.118 21.0073 39.4763 20.7574 38.8185L20.7369 38.7645L21.7285 39.0624ZM21.0042 35.1102L22.2321 35.4022L22.3526 35.4266L22.3552 35.4469C22.5183 36.7544 22.7958 38.0511 23.1999 39.3052L23.2143 39.3503L22.9688 39.3056L21.7443 39.0039L20.7115 38.6934L20.7066 38.6803C20.2372 37.4116 19.9208 36.0876 19.7537 34.7447L19.748 34.7005L21.0042 35.1102ZM20.0644 30.6368L21.1025 30.9686L22.2118 31.2559L22.2106 31.2791C22.1936 31.5947 22.1831 31.9106 22.1788 32.2264C22.1645 33.261 22.2168 34.2968 22.3395 35.3241L22.344 35.363L22.2452 35.3431L21.0203 35.0519L19.7398 34.6341L19.7378 34.6158C19.6434 33.8114 19.6017 33.0011 19.613 32.1911C19.6203 31.6379 19.6526 31.0854 19.7092 30.5352L19.7131 30.4981L20.0644 30.6368ZM20.3356 28.41L21.2478 28.7405L22.4343 29.0672L22.4308 29.092C22.3286 29.7775 22.2579 30.4679 22.2176 31.1598L22.2155 31.1941L21.1192 30.9103L20.0843 30.5797L19.7197 30.4357L19.7221 30.414C19.7984 29.7148 19.9146 29.0203 20.0716 28.3349L20.079 28.302L20.3356 28.41ZM21.0859 26.6134L21.956 26.9219L22.8048 27.168L22.7986 27.1943C22.6568 27.7826 22.5406 28.3771 22.4482 28.9753L22.4432 29.0067L21.2662 28.6827L20.3578 28.3536L20.0924 28.242L20.0979 28.2187C20.2394 27.6199 20.4118 27.0282 20.6149 26.4475L20.625 26.4192L21.0859 26.6134ZM22.7857 22.9159L23.4259 23.1793L24.1301 23.3903L24.1159 23.4202C23.561 24.5893 23.136 25.8235 22.8264 27.0803L22.8193 27.109L21.9746 26.864L21.1076 26.5568L20.6454 26.362L20.6547 26.3366C21.1033 25.0834 21.6982 23.8815 22.4372 22.7752L22.4507 22.7549L22.7857 22.9159ZM25.221 19.8936L25.6115 20.0911L26.1097 20.2629L26.0836 20.2945C25.3207 21.2111 24.6861 22.2395 24.1675 23.3133L24.157 23.3348L23.446 23.1221L22.8103 22.8605L22.4843 22.7037L22.5029 22.6766C23.226 21.6118 24.0847 20.6383 25.0673 19.8082L25.0841 19.7939L25.221 19.8936ZM28.5255 17.8977L28.7253 18.0015L28.6813 18.0276C27.7246 18.5951 26.8838 19.3512 26.164 20.1985L26.1516 20.2132L25.635 20.0352L25.2525 19.8417L25.1317 19.7538L25.16 19.7304C26.1378 18.9199 27.2311 18.2568 28.4129 17.7932L28.4316 17.7856L28.5255 17.8977ZM36.4253 17.8192L36.484 17.6953L36.5072 17.7024C37.7911 18.1024 39.0139 18.6804 40.1411 19.4156L40.1603 19.4283L40.126 19.5177L39.8764 19.7717L39.7126 19.884L39.6962 19.8699C38.7277 19.0245 37.6378 18.3267 36.4525 17.8307L36.4253 17.8192ZM39.9155 19.8185L40.1776 19.5512L40.2119 19.4621L40.2413 19.4814C41.3647 20.2274 42.3839 21.1259 43.2704 22.1444L43.285 22.1617L43.2568 22.2008L42.9933 22.4994L42.4256 22.8789L42.3104 22.9295L42.2973 22.9093C41.5966 21.8161 40.7566 20.8116 39.7868 19.9495L39.7595 19.9253L39.9155 19.8185ZM42.4547 22.9323L43.0331 22.5456L43.3038 22.2388L43.3261 22.2077L43.3493 22.235C44.2284 23.2618 44.9691 24.4039 45.5509 25.6256L45.5595 25.6437L45.3132 25.8922L44.818 26.2418L44.1963 26.5699L44.0525 26.6258L44.0432 26.5974C43.6276 25.3399 43.0664 24.1293 42.3605 23.0094L42.3429 22.9814L42.4547 22.9323ZM44.2213 26.6251L44.8495 26.2937L45.3522 25.9387L45.5871 25.7018L45.6041 25.7387C45.871 26.3104 46.1027 26.8987 46.2976 27.4991L46.3031 27.5156L46.1405 27.6791L45.635 28.0392L44.9711 28.3665L44.5619 28.533L44.555 28.4998C44.428 27.8951 44.2695 27.2968 44.0798 26.709L44.0713 26.6834L44.2213 26.6251ZM44.9959 28.4219L45.6659 28.0913L46.1797 27.7257L46.3238 27.5807L46.3379 27.6251C46.5472 28.2896 46.7122 28.9678 46.8309 29.6542L46.8337 29.67L46.6169 29.8616L46.0055 30.2421L45.278 30.5899L44.8795 30.7326L44.8764 30.696C44.817 29.9978 44.7179 29.3032 44.5785 28.6166L44.5741 28.5935L44.9959 28.4219ZM45.301 30.6459L46.0342 30.2953L46.6531 29.9104L46.8451 29.7405L46.8534 29.7911C47.0039 30.7092 47.0727 31.6394 47.0601 32.5699C47.0542 33.0026 47.0298 33.435 46.9887 33.8658L46.9875 33.8785L46.6667 34.1093L45.9286 34.4778L45.0534 34.8347L44.7576 34.9227L44.7638 34.8789C44.8721 34.1043 44.9314 33.3228 44.9418 32.5404C44.9499 31.9655 44.931 31.3901 44.8859 30.817L44.8843 30.7952L45.301 30.6459ZM45.0733 34.8919L45.9533 34.5332L46.6977 34.1614L46.9797 33.9586L46.9733 34.0214C46.8268 35.4094 46.4976 36.7727 45.9895 38.0715L45.9863 38.0803L45.8977 38.135L45.1703 38.4725L44.2639 38.808L43.6895 38.9635L43.7101 38.9107C44.2039 37.6555 44.5476 36.3423 44.7445 35.0071L44.7472 34.9891L45.0733 34.8919ZM44.2821 38.8657L45.1936 38.5285L45.9477 38.1788L45.9205 38.2455C45.6548 38.9021 45.3445 39.5407 44.991 40.1546L44.9866 40.1625L44.2179 40.5094L43.6283 40.7016L42.7374 40.9613L42.7711 40.9008C43.1042 40.3025 43.399 39.6825 43.6555 39.0468L43.6607 39.0338L44.2821 38.8657ZM43.6462 40.7594L44.2395 40.5661L44.9333 40.2528L44.8874 40.3302C44.5629 40.877 44.2051 41.4036 43.8159 41.9057L43.8109 41.912L42.6493 42.3259L41.6946 42.5763L41.7417 42.5117C42.0848 42.0421 42.4006 41.5524 42.6891 41.0469L42.6948 41.0368L43.6462 40.7594ZM42.667 42.384L43.7415 42.0011L43.6792 42.0791C42.7438 43.2506 41.6392 44.281 40.404 45.1265L40.4001 45.1292L39.8973 45.2786L38.7534 45.529L38.8587 45.4504C39.9124 44.6637 40.8407 43.7152 41.6299 42.6623L41.6359 42.6545L42.667 42.384ZM38.7292 45.5964L39.9125 45.3373L40.2375 45.2405L40.0709 45.3481C39.0961 45.978 38.0492 46.4908 36.9544 46.873L36.9543 46.8732H36.954C36.4793 47.0279 35.9971 47.1588 35.5094 47.2661L35.4834 47.2719L35.4693 47.2197L35.4948 47.2114C36.6185 46.845 37.6748 46.2989 38.6375 45.6123L38.6433 45.6082L38.7292 45.5964ZM24.1585 45.1199L25.3344 45.4113L25.5163 45.442L25.5219 45.446C26.5343 46.2078 27.6574 46.8104 28.8604 47.2058L28.886 47.2142L28.8718 47.2663L28.8456 47.2604C28.2236 47.1227 27.6105 46.9461 27.0107 46.7321L27.0103 46.7318H27.0101C25.9137 46.3135 24.8702 45.7626 23.9036 45.0951L23.7424 44.9836L24.1585 45.1199ZM21.4542 42.0912L22.6098 42.4268L22.6157 42.4346C23.3789 43.5062 24.284 44.4774 25.318 45.289L25.4224 45.3708L24.175 45.0616L23.5845 44.868L23.581 44.8653C22.3818 43.9889 21.3168 42.9354 20.422 41.7474L20.3621 41.6678L21.4542 42.0912ZM19.9316 40.2305L20.5296 40.4509L21.5153 40.7818L21.6006 40.8029L21.6068 40.8141C21.8796 41.3193 22.1797 41.8095 22.5069 42.2812L22.5523 42.347L21.4732 42.0339L20.2954 41.5771L20.2905 41.5703C19.9153 41.0569 19.572 40.5199 19.263 39.9634L19.2193 39.8851L19.9316 40.2305ZM18.3316 37.8079L19.0655 38.168L19.9564 38.53L20.6702 38.7443L20.6749 38.7574C20.9202 39.4132 21.206 40.0534 21.5322 40.6721L21.5652 40.7348L20.5496 40.3935L19.9551 40.1746L19.195 39.8059L19.1665 39.7891L19.1629 39.782C18.8256 39.1556 18.5322 38.5054 18.2843 37.838L18.254 37.7566L18.3316 37.8079ZM17.6496 33.7604L18.3727 34.1526L19.2428 34.5356L19.6888 34.6811L19.6912 34.699C19.8535 36.036 20.1635 37.3548 20.6241 38.6198L20.6435 38.6732L19.9767 38.4729L19.0899 38.1126L18.3615 37.7551L18.2207 37.6619L18.2175 37.6532C17.7513 36.3473 17.463 34.9834 17.3566 33.6004L17.3518 33.538L17.6496 33.7604ZM17.8311 29.5128L18.4392 29.9147L19.1731 30.2853L19.6585 30.4766L19.6563 30.4981C19.5975 31.0604 19.564 31.6251 19.5564 32.1904C19.5454 32.9853 19.5849 33.7808 19.6752 34.5707L19.6802 34.6145L19.2645 34.4788L18.399 34.0981L17.6821 33.7094L17.3464 33.4585L17.3455 33.4455C17.3165 33.0173 17.3044 32.5882 17.3103 32.1593C17.3231 31.2167 17.4196 30.2764 17.5996 29.3512L17.6095 29.3004L17.8311 29.5128ZM18.3748 27.3419L18.8888 27.7111L19.5283 28.0705L20.0264 28.2798L20.0209 28.3032C19.8636 28.9871 19.7466 29.68 19.669 30.3772L19.665 30.414L19.1977 30.2298L18.4694 29.8619L17.8687 29.465L17.6236 29.23L17.6267 29.2145C17.7662 28.5293 17.9519 27.8532 18.1823 27.1931L18.1978 27.1484L18.3748 27.3419ZM19.2086 25.5778L19.7017 25.9468L20.3309 26.2953L20.5729 26.3974L20.5641 26.4227C20.3611 27.0012 20.189 27.5907 20.0472 28.1873L20.0397 28.2199L19.5549 28.016L18.9212 27.66L18.415 27.2966L18.2207 27.0841L18.2268 27.0679C18.4354 26.486 18.6789 25.9166 18.9555 25.3642L18.9737 25.3278L19.2086 25.5778ZM21.3995 21.9368L21.7977 22.3592L22.2399 22.6536L22.3994 22.7304L22.3814 22.7575C21.6448 23.8622 21.0517 25.0617 20.6035 26.3121L20.5933 26.3403L20.3571 26.2409L19.7342 25.8956L19.2487 25.5324L19.0027 25.2706L19.012 25.2526C19.6331 24.0364 20.4143 22.9062 21.3327 21.8975L21.3577 21.8698L21.3995 21.9368ZM24.5758 19.3351L24.8315 19.6104L25.0371 19.7597L25.0095 19.7832C24.0276 20.6163 23.1697 21.5922 22.4467 22.6591L22.4331 22.6794L22.2699 22.6008L21.8367 22.3124L21.4473 21.8995L21.4003 21.8242L21.4149 21.8083C22.3293 20.8203 23.3715 19.9554 24.5133 19.2453L24.5452 19.2258L24.5758 19.3351ZM25.0849 19.7196L24.8717 19.5647L24.6298 19.3046L24.5987 19.1935L24.6171 19.1823C25.7583 18.4857 26.9894 17.9469 28.2755 17.5859L28.2962 17.5798L28.3914 17.7404L28.3605 17.7527C27.1763 18.2217 26.0809 18.89 25.1014 19.7057L25.0849 19.7196ZM36.4759 17.5301L36.387 17.3686L36.0347 17.1254L35.632 16.9595L35.6476 16.9098L35.6731 16.9156C37.0616 17.2368 38.4001 17.7512 39.648 18.4428L39.6486 18.4429L39.7174 18.4857L40.0339 18.7597L40.1931 19.0491L40.2297 19.2476L40.1812 19.3743L40.152 19.3554C39.0189 18.619 37.7903 18.0406 36.5007 17.6412L36.4818 17.6353L36.4759 17.5301ZM40.292 19.2534L40.2504 19.0283L40.0568 18.6769L40.1472 18.7313C41.3304 19.446 42.4154 20.3188 43.3699 21.3213L43.3737 21.3253L43.4592 21.5413L43.455 21.8362L43.382 22.0273L43.319 22.1143L43.2958 22.0878C42.4045 21.067 41.3803 20.1672 40.2518 19.4205L40.2328 19.4081L40.292 19.2534ZM43.4355 22.0565L43.5152 21.8478L43.5202 21.4806L43.5683 21.5329C44.488 22.5353 45.2752 23.6569 45.9047 24.8645L45.909 24.8729L45.8605 25.1836L45.6498 25.5527L45.602 25.601L45.5846 25.5649C44.9996 24.3442 44.2559 23.2034 43.3746 22.1779L43.36 22.1609L43.4355 22.0565ZM45.698 25.5897L45.9183 25.2041L45.9557 24.9647L45.9953 25.043C46.2784 25.6039 46.5277 26.1816 46.741 26.773L46.7434 26.7797L46.7199 26.9394L46.5092 27.3084L46.3478 27.4708L46.3333 27.427C46.1371 26.8304 45.9047 26.2456 45.638 25.6772L45.6294 25.6592L45.698 25.5897ZM46.5573 27.3456L46.7965 26.9269L46.8166 26.986C47.0407 27.637 47.221 28.3035 47.3568 28.9787L47.358 28.9852L47.333 29.0797L47.0593 29.4703L46.8831 29.6262L46.8744 29.5766C46.7527 28.8912 46.5858 28.2146 46.3742 27.5517L46.3688 27.5352L46.5573 27.3456ZM47.1045 29.5111L47.3839 29.1125L47.3964 29.1784C47.5883 30.2024 47.6767 31.2437 47.6624 32.2852C47.6577 32.6231 47.6413 32.9603 47.6151 33.297L47.6145 33.3072L47.2252 33.7076L47.0493 33.834L47.0548 33.7725C47.0907 33.3729 47.1111 32.9718 47.1166 32.5705C47.1297 31.6133 47.057 30.6558 46.8979 29.7117L46.8954 29.6962L47.1045 29.5111ZM47.2644 33.754L47.608 33.4004L47.6012 33.4797C47.4744 34.8988 47.1547 36.2935 46.6483 37.6241L46.6454 37.6321L46.33 37.8679L46.0663 38.0309L46.096 37.9527C46.5874 36.6596 46.9029 35.305 47.0394 33.9278L47.0406 33.9148L47.2644 33.754ZM46.3637 37.9181L46.6034 37.7389L46.5663 37.8324C46.3 38.503 45.9872 39.1552 45.6303 39.7819L45.6272 39.7872L45.621 39.7916L45.0833 40.1059L45.1341 40.0151C45.4731 39.4089 45.7715 38.7797 46.0266 38.1334L46.0299 38.1245L46.3637 37.9181ZM45.0238 40.2108L45.5678 39.8928L45.5126 39.9866C45.1783 40.5537 44.8077 41.0986 44.4051 41.6187L44.4012 41.6234L43.891 41.9017L43.9709 41.7967C44.3523 41.2923 44.7031 40.7649 45.0201 40.2172L45.0238 40.2108ZM44.0126 41.9046L44.3099 41.7421L44.2203 41.8533C43.234 43.0769 42.0662 44.1462 40.7625 45.02L40.7589 45.0224L40.578 45.0762L40.7149 44.9777C41.8919 44.132 42.9441 43.1168 43.8363 41.972L43.8414 41.9656L44.0126 41.9046ZM20.1222 41.5749L20.2634 41.6296L20.2684 41.6364C21.1213 42.7971 22.1355 43.8345 23.2776 44.7094L23.4101 44.8109L23.2272 44.751L23.2236 44.7483C21.9525 43.8384 20.8216 42.7388 19.8754 41.4913L19.7873 41.3752L20.1222 41.5749ZM20.2092 41.5563L19.7339 41.2728L19.6943 41.247L19.6912 41.243C19.3121 40.7224 18.9656 40.1783 18.6539 39.6146L18.603 39.5226L19.1273 39.8361L19.131 39.8428C19.4311 40.3973 19.7656 40.9329 20.131 41.4464L20.2092 41.5563ZM17.7238 37.4063L18.1759 37.7049L18.1789 37.7138C18.4174 38.3757 18.7005 39.0208 19.0265 39.644L19.0729 39.7329L18.5824 39.44L18.5433 39.4096L18.5405 39.4043C18.1987 38.763 17.9021 38.0977 17.6533 37.4149L17.6147 37.3092L17.7238 37.4063ZM17.0835 33.3375L17.2921 33.4936L17.2931 33.5067C17.3901 34.878 17.6645 36.2321 18.1143 37.5308L18.1416 37.6098L17.7605 37.358L17.573 37.191L17.5705 37.1839C17.1075 35.8481 16.8305 34.4546 16.7439 33.0427L16.7392 32.9631L17.0835 33.3375ZM17.4012 29.1013L17.5609 29.2535L17.5575 29.2691C17.3681 30.2205 17.267 31.1882 17.2537 32.1585C17.2485 32.5566 17.2575 32.9548 17.2819 33.3521L17.2858 33.4131L17.1239 33.2924L16.7356 32.8699L16.7349 32.8597C16.7185 32.5261 16.7114 32.1923 16.7159 31.8582C16.7304 30.8005 16.8505 29.7459 17.0768 28.7125L17.0909 28.6488L17.4012 29.1013ZM17.7979 26.5601L18.0182 26.9518L18.1542 27.1009L18.1487 27.1171C17.916 27.7756 17.7284 28.4501 17.5857 29.134L17.5754 29.184L17.4475 29.0616L17.174 28.6635L17.1308 28.4789L17.1324 28.4724C17.2903 27.8026 17.4919 27.1438 17.7373 26.5013L17.7779 26.3946L17.7979 26.5601ZM18.6731 24.8278L18.872 25.2194L18.9328 25.284L18.9237 25.3018C18.6473 25.8505 18.4033 26.4152 18.1937 26.9931L18.1777 27.037L18.0671 26.9159L17.8563 26.5407L17.8247 26.2791L17.8273 26.2724C18.0517 25.7119 18.309 25.1647 18.5968 24.6342L18.6385 24.5575L18.6731 24.8278ZM21.2134 21.2223L21.2091 21.5402L21.2828 21.7502L21.3268 21.8201L21.312 21.8362C20.3903 22.8445 19.6051 23.9747 18.9799 25.1909L18.9616 25.2266L18.9218 25.1843L18.7317 24.8095L18.6876 24.4672L18.6922 24.4588C19.3733 23.2423 20.2163 22.1214 21.1936 21.1299L21.2984 21.0232L21.2134 21.2223ZM24.5507 18.7369L24.4917 19.0345L24.5293 19.1689L24.5112 19.1801C23.3629 19.8905 22.3143 20.7569 21.3942 21.7473L21.3691 21.7744L21.3374 21.7236L21.2694 21.5301L21.2736 21.2352L21.4 20.9396L21.4538 20.872L21.455 20.8709C22.4166 19.9399 23.4949 19.1349 24.6605 18.481L24.7661 18.422L24.5507 18.7369ZM28.7089 17.057L28.3925 17.2804L28.2995 17.4614L28.2986 17.5206L28.2783 17.5263C26.9907 17.886 25.7581 18.4229 24.6146 19.1174L24.5831 19.1368L24.5538 19.0322L24.6075 18.7608L24.7518 18.5494L25.0658 18.2835L25.411 18.0874L25.412 18.0872C26.5657 17.5213 27.7864 17.1023 29.0436 16.8411L29.0684 16.8358L29.0841 16.884L28.7089 17.057Z" fill="url(#paint1_radial_159_310)"/>
<path d="M16.083 42.7282L17.4039 41.9237L17.1181 41.4497L17.3873 41.2857L18.1529 42.5557L17.8837 42.7197L17.5986 42.2467L16.2777 43.0511L16.083 42.7282ZM16.7957 43.7799L18.2762 42.6497L18.6405 43.1317C18.7783 43.3143 18.8608 43.4393 18.888 43.506C18.9303 43.6081 18.9362 43.7167 18.9052 43.8311C18.8741 43.9453 18.7997 44.0476 18.6821 44.1372C18.5912 44.2068 18.5021 44.2485 18.4153 44.2624C18.3281 44.2765 18.2477 44.2716 18.1736 44.2474C18.0998 44.2234 18.0372 44.1892 17.986 44.1454C17.9176 44.0844 17.8319 43.986 17.729 43.8497L17.581 43.6541L17.0226 44.0803L16.7957 43.7799ZM18.2526 43.1414L17.8327 43.4619L17.9568 43.6262C18.0463 43.7447 18.1139 43.8183 18.1595 43.8462C18.2051 43.8743 18.2528 43.887 18.3032 43.8846C18.3533 43.8819 18.4002 43.8641 18.444 43.8307C18.4978 43.7896 18.5302 43.7398 18.5413 43.6811C18.5523 43.623 18.5437 43.5656 18.5156 43.5105C18.4954 43.4692 18.444 43.3948 18.3623 43.2866L18.2526 43.1414ZM18.9234 46.2841L18.6489 45.9798L18.8528 45.5737L18.3533 45.0205L17.9375 45.1917L17.67 44.8953L19.5334 44.1788L19.8002 44.4743L18.9234 46.2841ZM19.0037 45.2729L19.3425 44.6161L18.6628 44.8951L19.0037 45.2729ZM19.1669 46.4796L20.4298 45.1082L20.7056 45.3647L20.2086 45.9043L20.7484 46.4064L21.2454 45.8668L21.5207 46.1231L20.2578 47.4944L19.9825 47.2382L20.5346 46.6386L19.9949 46.1365L19.4427 46.7361L19.1669 46.4796ZM22.0257 47.9296L22.2426 48.2451C22.0741 48.3719 21.9086 48.4346 21.7455 48.433C21.5829 48.4313 21.4223 48.3689 21.2647 48.246C21.0696 48.0941 20.9609 47.9019 20.9386 47.6705C20.9164 47.4385 20.9949 47.2062 21.1739 46.974C21.3636 46.7283 21.574 46.5867 21.8052 46.5489C22.0364 46.5115 22.2547 46.5727 22.4607 46.7331C22.6403 46.8732 22.7452 47.0402 22.7749 47.2347C22.7935 47.3497 22.7735 47.4795 22.7157 47.6239L22.3674 47.4653C22.4095 47.3754 22.42 47.2867 22.3987 47.199C22.3779 47.1118 22.3278 47.0375 22.2491 46.9762C22.1404 46.8915 22.0214 46.8617 21.893 46.8876C21.7648 46.9131 21.6327 47.014 21.497 47.1901C21.353 47.3768 21.2835 47.5357 21.2896 47.667C21.2949 47.7984 21.3514 47.9057 21.4581 47.9889C21.5372 48.0505 21.6243 48.0781 21.7201 48.0718C21.8156 48.0659 21.9174 48.0182 22.0257 47.9296ZM23.1505 47.2581L24.4586 47.9508L23.592 49.6041L23.26 49.4282L23.9811 48.0525L23.337 47.7114L22.6159 49.0871L22.2838 48.9112L23.1505 47.2581ZM24.3056 48.9592C24.3821 48.7849 24.4718 48.6501 24.5755 48.5549C24.6524 48.4854 24.7395 48.4303 24.8369 48.3906C24.934 48.3514 25.0298 48.3325 25.124 48.3344C25.2502 48.336 25.3819 48.3677 25.5205 48.4292C25.7712 48.5402 25.9374 48.707 26.0194 48.9302C26.1015 49.1529 26.0813 49.4037 25.9593 49.6819C25.8381 49.9582 25.6687 50.1408 25.4509 50.2307C25.2334 50.3202 24.9995 50.3098 24.7499 50.1992C24.4968 50.0871 24.3297 49.9204 24.2482 49.6993C24.1669 49.478 24.1863 49.2311 24.3056 48.9592ZM24.6644 49.1044C24.5794 49.2978 24.5598 49.4646 24.6047 49.6038C24.65 49.7432 24.7411 49.843 24.8781 49.9037C25.0148 49.9642 25.1489 49.9648 25.2805 49.9042C25.4115 49.8438 25.5206 49.7148 25.6076 49.5166C25.6934 49.3206 25.7148 49.1556 25.6721 49.0211C25.6287 48.8868 25.5361 48.7884 25.3948 48.7257C25.253 48.6629 25.1174 48.6613 24.9879 48.7205C24.8588 48.7798 24.7507 48.9072 24.6644 49.1044ZM25.9651 50.6489L26.502 48.86L27.0786 49.0347C27.2969 49.101 27.4368 49.1533 27.4977 49.1914C27.5916 49.2489 27.66 49.3333 27.7018 49.444C27.7436 49.5549 27.743 49.6816 27.7004 49.8235C27.6674 49.9336 27.6197 50.02 27.5576 50.0826C27.4952 50.1454 27.4275 50.189 27.3534 50.2133C27.2796 50.2373 27.2089 50.2468 27.1419 50.2414C27.0509 50.2325 26.9239 50.2036 26.7611 50.1541L26.527 50.0831L26.3244 50.7579L25.9651 50.6489ZM26.7705 49.2717L26.6183 49.7791L26.8147 49.8387C26.9564 49.8816 27.054 49.9012 27.1073 49.8969C27.1605 49.8927 27.2066 49.8747 27.246 49.8431C27.285 49.8112 27.3125 49.7691 27.3284 49.7163C27.3479 49.6513 27.3449 49.5918 27.3196 49.5378C27.2945 49.4842 27.2541 49.4428 27.1991 49.4149C27.1585 49.3934 27.0735 49.3636 26.9441 49.3244L26.7705 49.2717ZM28.0909 51.2384L28.4064 49.7187L27.8665 49.6056L27.9309 49.2959L29.377 49.5992L29.3128 49.9089L28.7741 49.796L28.4586 51.3155L28.0909 51.2384ZM29.3402 51.4951L29.5276 49.6361L29.9014 49.6742L29.8276 50.4057L30.5594 50.4803L30.6332 49.7487L31.0066 49.7867L30.8191 51.6459L30.4457 51.6078L30.5277 50.7949L29.7959 50.7204L29.714 51.5332L29.3402 51.4951ZM32.9867 51.6657L32.5783 51.6815L32.3997 51.2635L31.6571 51.2924L31.5204 51.7227L31.1224 51.7381L31.7742 49.8427L32.1708 49.8273L32.9867 51.6657ZM32.2674 50.9539L31.9847 50.2708L31.7605 50.9736L32.2674 50.9539ZM34.3911 51.5716L34.3072 50.7961L34.2314 50.8044C34.114 50.8172 34.0328 50.8441 33.9879 50.8849C33.9436 50.9256 33.8725 51.0406 33.775 51.2298L33.549 51.6637L33.1027 51.7126L33.289 51.3254C33.3625 51.1721 33.4225 51.0635 33.4692 50.9998C33.5159 50.9365 33.577 50.8773 33.6516 50.8227C33.4765 50.8148 33.3457 50.7682 33.259 50.6832C33.1723 50.5982 33.122 50.4908 33.1078 50.3606C33.0955 50.2473 33.1131 50.1439 33.1604 50.0503C33.2077 49.9567 33.2762 49.8896 33.366 49.8496C33.4552 49.8096 33.5926 49.7792 33.7777 49.759L34.563 49.6731L34.7643 51.5308L34.3911 51.5716ZM34.224 50.0284L33.9326 50.0603C33.7846 50.0765 33.6876 50.0901 33.6419 50.1021C33.5957 50.1142 33.5582 50.141 33.5288 50.1837C33.4995 50.2262 33.4882 50.2786 33.495 50.3414C33.5021 50.4063 33.524 50.4564 33.5604 50.4913C33.5969 50.5263 33.6407 50.5456 33.6917 50.5493C33.7426 50.5533 33.8451 50.5464 33.9987 50.5296L34.2749 50.4994L34.224 50.0284ZM35.5291 49.5205L35.8944 49.4342L36.0753 50.2084C36.1551 50.1811 36.2053 50.147 36.2261 50.1063C36.2468 50.0657 36.2694 49.9606 36.2932 49.7919C36.323 49.5771 36.3707 49.4366 36.4357 49.3707C36.5004 49.3046 36.617 49.252 36.7856 49.2123C36.7941 49.2103 36.8117 49.2057 36.8384 49.1984L36.9018 49.47L36.8497 49.4809C36.7751 49.4985 36.7225 49.5208 36.6922 49.5475C36.6621 49.5744 36.6405 49.6093 36.6283 49.6524C36.6158 49.6956 36.6024 49.7811 36.5878 49.9096C36.5802 49.9776 36.5685 50.0357 36.5526 50.0842C36.5364 50.1323 36.4997 50.1829 36.4426 50.2357C36.5294 50.2397 36.6077 50.2705 36.6772 50.3283C36.7468 50.386 36.8282 50.4719 36.9213 50.5848L37.2848 51.0256L36.8554 51.1269L36.5294 50.7077C36.5244 50.7017 36.5147 50.6907 36.4993 50.6742C36.4939 50.6683 36.4718 50.6435 36.4337 50.5994C36.3661 50.5211 36.3143 50.4743 36.2791 50.4589C36.244 50.4435 36.1954 50.4429 36.1332 50.4566L36.3194 51.2534L35.9539 51.3396L35.5291 49.5205ZM37.2059 50.1067C37.1436 49.9267 37.1178 49.7667 37.1291 49.6258C37.1381 49.5222 37.1644 49.4223 37.2086 49.3266C37.2531 49.2314 37.3103 49.1518 37.3806 49.0886C37.4738 49.0034 37.5918 48.9363 37.7348 48.8862C37.9935 48.7956 38.2283 48.8035 38.4396 48.9106C38.6509 49.0173 38.8063 49.2143 38.9059 49.5016C39.0046 49.7867 39.0046 50.0364 38.9064 50.2515C38.8079 50.4661 38.6299 50.6187 38.3723 50.7089C38.1111 50.8005 37.8757 50.793 37.6662 50.6873C37.4565 50.581 37.3032 50.3872 37.2059 50.1067ZM37.5668 49.967C37.636 50.1666 37.7348 50.302 37.8621 50.373C37.9898 50.4439 38.1241 50.4545 38.2656 50.4049C38.4066 50.3556 38.5051 50.2639 38.5602 50.1294C38.615 49.9954 38.6073 49.8264 38.5364 49.6218C38.4662 49.4196 38.3698 49.2843 38.2474 49.2153C38.1245 49.1468 37.9901 49.1382 37.844 49.1892C37.6977 49.2405 37.5976 49.3324 37.5429 49.4643C37.4887 49.5962 37.4963 49.7636 37.5668 49.967ZM39.5913 50.2568L38.77 48.5803L39.274 48.3309L40.1368 49.3248L39.8756 48.0332L40.3809 47.7832L41.2021 49.4597L40.8895 49.6143L40.243 48.2947L40.5583 49.7783L40.2339 49.9387L39.2574 48.7825L39.9038 50.1021L39.5913 50.2568ZM40.6417 47.6636L41.8928 46.8714L42.8838 48.4524L42.5663 48.6535L41.7416 47.3379L41.1255 47.7279L41.9503 49.0435L41.6328 49.2446L40.6417 47.6636ZM44.6034 47.1412L44.2823 47.3953L43.8934 47.1626L43.3093 47.6247L43.4503 48.0536L43.1375 48.3011L42.5564 46.3827L42.8682 46.1359L44.6034 47.1412ZM43.6052 46.9903L42.9771 46.6047L43.2066 47.3056L43.6052 46.9903ZM44.826 46.9387L43.5531 45.5767L43.8269 45.3182L44.3278 45.8541L44.8638 45.3479L44.3629 44.8121L44.6364 44.5537L45.9094 45.9157L45.6358 46.1739L45.0793 45.5785L44.5432 46.0846L45.0999 46.68L44.826 46.9387ZM44.8525 44.3148L45.0868 44.0515L46.0095 44.8803L45.5887 43.487L45.8379 43.2066L47.2241 44.4519L46.9902 44.715L46.0851 43.902L46.4889 45.2788L46.2389 45.5601L44.8525 44.3148ZM48.1252 43.1359L47.4726 42.7135L47.4313 42.7779C47.3674 42.8777 47.3371 42.9579 47.3405 43.0187C47.344 43.0789 47.3882 43.2068 47.4731 43.4021L47.6665 43.8516L47.4233 44.231L47.2412 43.8419C47.1689 43.6879 47.1228 43.5728 47.1028 43.4962C47.0833 43.4199 47.0759 43.3349 47.0808 43.2423C46.9644 43.374 46.846 43.4469 46.7258 43.4611C46.6054 43.4754 46.4906 43.4472 46.3811 43.3761C46.2857 43.3144 46.2168 43.2357 46.1742 43.1398C46.1318 43.0439 46.123 42.9482 46.1486 42.853C46.1738 42.758 46.2368 42.6317 46.3376 42.4744L46.7654 41.8069L48.3283 42.8188L48.1252 43.1359ZM46.8267 42.2953L46.668 42.5429C46.5874 42.6687 46.537 42.753 46.5174 42.7964C46.4978 42.84 46.4948 42.8862 46.5093 42.936C46.5238 42.9857 46.5572 43.0276 46.61 43.0617C46.6645 43.097 46.7172 43.1114 46.7672 43.105C46.8172 43.0985 46.8596 43.0763 46.8944 43.0388C46.9296 43.0016 46.9889 42.9172 47.0726 42.7866L47.2229 42.5518L46.8267 42.2953Z" fill="#22201E"/>
<path fill-rule="evenodd" clip-rule="evenodd" d="M49.3392 39.8872C49.244 39.5731 49.149 39.259 49.0542 38.9447C49.3131 38.7661 49.572 38.5874 49.8311 38.4087C49.5102 38.4043 49.1892 38.3998 48.8684 38.3955C48.756 38.0471 48.644 37.6985 48.5319 37.35C48.408 37.6953 48.2843 38.0406 48.1605 38.3856C47.8408 38.3813 47.521 38.3769 47.2012 38.3724C47.4541 38.5582 47.7071 38.7439 47.9601 38.9296C47.8573 39.2412 47.7544 39.5526 47.6518 39.8639C47.936 39.6875 48.2203 39.5113 48.5049 39.3349C48.7829 39.5189 49.0609 39.703 49.3392 39.8872ZM50.9993 32.1014C50.9042 31.7874 50.8092 31.4733 50.7144 31.159C50.9733 30.9803 51.2321 30.8017 51.4912 30.6229C51.1704 30.6186 50.8494 30.6141 50.5285 30.6096C50.4162 30.2612 50.3042 29.9127 50.1921 29.5641C50.0682 29.9094 49.9445 30.2547 49.8207 30.5999C49.5009 30.5955 49.1812 30.591 48.8614 30.5867C49.1141 30.7724 49.3672 30.9581 49.6202 31.1439C49.5175 31.4554 49.4145 31.7667 49.312 32.0781C49.5962 31.9018 49.8805 31.7254 50.165 31.549C50.4431 31.7332 50.7211 31.9173 50.9993 32.1014ZM49.0597 24.4303C48.9646 24.1163 48.8696 23.8022 48.7746 23.4879C49.0335 23.3093 49.2924 23.1306 49.5515 22.9519C49.2306 22.9475 48.9097 22.943 48.5889 22.9386C48.4766 22.5903 48.3645 22.2416 48.2524 21.893C48.1284 22.2384 48.0048 22.5837 47.8811 22.9289C47.5613 22.9244 47.2414 22.9201 46.9216 22.9156C47.1744 23.1013 47.4274 23.2871 47.6806 23.4728C47.5777 23.7844 47.4749 24.0958 47.3722 24.4071C47.6565 24.2307 47.9408 24.0543 48.2253 23.878C48.5033 24.0622 48.7814 24.2462 49.0597 24.4303ZM44.0739 18.2365C43.9788 17.9224 43.8838 17.6083 43.7888 17.294C44.0477 17.1154 44.3066 16.9367 44.5658 16.758C44.2448 16.7536 43.9239 16.7491 43.6031 16.7446C43.4908 16.3964 43.3787 16.0478 43.2666 15.6991C43.1426 16.0446 43.019 16.3899 42.8953 16.7349C42.5755 16.7305 42.2556 16.7261 41.9358 16.7217C42.1886 16.9074 42.4417 17.0932 42.6948 17.2789C42.5919 17.5904 42.4891 17.9019 42.3864 18.2132C42.6707 18.0368 42.9551 17.8604 43.2395 17.6842C43.5175 17.8682 43.7956 18.0523 44.0739 18.2365ZM36.9191 15.168C36.8239 14.854 36.7289 14.5399 36.6341 14.2256C36.8929 14.047 37.1518 13.8683 37.411 13.6896C37.0901 13.6852 36.7691 13.6807 36.4483 13.6762C36.3359 13.328 36.2239 12.9793 36.1118 12.6307C35.9879 12.976 35.8642 13.3213 35.7404 13.6665C35.4207 13.6621 35.1009 13.6576 34.7811 13.6533C35.0338 13.839 35.287 14.0248 35.54 14.2105C35.4372 14.522 35.3343 14.8335 35.2317 15.1447C35.5159 14.9684 35.8002 14.792 36.0847 14.6156C36.3628 14.7998 36.6408 14.9839 36.9191 15.168ZM27.5465 15.0387C27.6502 14.7273 27.7537 14.416 27.8571 14.1045C27.6032 13.9187 27.3492 13.733 27.0951 13.5473C27.416 13.5516 27.737 13.5561 28.0578 13.5605C28.1796 13.2153 28.3012 12.87 28.4226 12.5247C28.5371 12.8733 28.6513 13.2218 28.7657 13.5702C29.0854 13.5747 29.4052 13.5791 29.725 13.5835C29.4672 13.7621 29.2092 13.9409 28.9512 14.1196C29.0454 14.4339 29.1397 14.748 29.2338 15.062C28.9545 14.8779 28.6751 14.6937 28.3955 14.5096C28.1125 14.686 27.8296 14.8624 27.5465 15.0387ZM20.3105 17.9086C20.4142 17.5972 20.5177 17.2859 20.6213 16.9744C20.3673 16.7885 20.1134 16.6029 19.8593 16.417C20.1802 16.4215 20.501 16.4259 20.8219 16.4304C20.9437 16.0852 21.0652 15.7399 21.1868 15.3944C21.3013 15.7431 21.4155 16.0917 21.5297 16.4401C21.8495 16.4446 22.1694 16.449 22.4892 16.4534C22.2313 16.632 21.9734 16.8108 21.7153 16.9895C21.8096 17.3037 21.9039 17.6179 21.998 17.9318C21.7186 17.7478 21.4393 17.5636 21.1597 17.3795C20.8767 17.5559 20.5937 17.7322 20.3105 17.9086ZM15.1574 23.9626C15.2611 23.6512 15.3646 23.3399 15.4682 23.0284C15.2142 22.8426 14.9603 22.6569 14.7062 22.471C15.0271 22.4755 15.3479 22.48 15.6688 22.4844C15.7907 22.1392 15.9121 21.7939 16.0337 21.4485C16.1482 21.7972 16.2624 22.1457 16.3766 22.4941C16.6964 22.4986 17.0163 22.5029 17.3361 22.5074C17.0783 22.686 16.8203 22.8647 16.5622 23.0434C16.6565 23.3578 16.7508 23.6717 16.8449 23.9859C16.5655 23.8017 16.2862 23.6176 16.0066 23.4334C15.7236 23.6098 15.4406 23.7863 15.1574 23.9626ZM13.009 31.5772C13.1127 31.2658 13.2161 30.9545 13.3196 30.643C13.0657 30.4572 12.8118 30.2715 12.5576 30.0857C12.8785 30.0901 13.1995 30.0946 13.5203 30.099C13.6421 29.7538 13.7637 29.4085 13.8851 29.0631C13.9996 29.4118 14.1139 29.7603 14.2282 30.1087C14.5479 30.1132 14.8677 30.1175 15.1875 30.122C14.9298 30.3006 14.6717 30.4793 14.4137 30.6581C14.508 30.9724 14.6022 31.2865 14.6964 31.6005C14.4171 31.4164 14.1376 31.2322 13.8581 31.0481C13.5751 31.2245 13.2922 31.4009 13.009 31.5772ZM14.4558 39.4059C14.5595 39.0945 14.6631 38.7832 14.7665 38.4717C14.5126 38.2858 14.2587 38.1001 14.0046 37.9143C14.3254 37.9188 14.6463 37.9232 14.9673 37.9277C15.089 37.5825 15.2105 37.2372 15.3321 36.8917C15.4466 37.2404 15.5608 37.589 15.675 37.9374C15.9949 37.9419 16.3147 37.9462 16.6345 37.9506C16.3766 38.1293 16.1186 38.308 15.8605 38.4868C15.9548 38.801 16.0492 39.115 16.1432 39.4291C15.8639 39.2451 15.5846 39.0609 15.3049 38.8767C15.022 39.053 14.739 39.2295 14.4558 39.4059Z" fill="#E42D24"/>
<defs>
<radialGradient id="paint0_radial_159_310" cx="0" cy="0" r="1" gradientUnits="userSpaceOnUse" gradientTransform="translate(37.5856 25.6422) rotate(0.790551) scale(54.7353 55.0137)">
<stop stop-color="#E9F6FD"/>
<stop offset="0.4" stop-color="#00A0E3"/>
<stop offset="1" stop-color="#393185"/>
</radialGradient>
<radialGradient id="paint1_radial_159_310" cx="0" cy="0" r="1" gradientUnits="userSpaceOnUse" gradientTransform="translate(28.1221 29.2462) rotate(0.790529) scale(46.6369 46.8741)">
<stop stop-color="#A2D9F7"/>
<stop offset="1" stop-color="#008DD2"/>
</radialGradient>
</defs>
</svg>
