<svg width="572" height="769" viewBox="0 0 572 769" fill="none" xmlns="http://www.w3.org/2000/svg">
<path d="M164.054 445.925C178.208 445.925 189.681 438.818 189.681 430.052C189.681 421.285 178.208 414.179 164.054 414.179C149.9 414.179 138.426 421.285 138.426 430.052C138.426 438.818 149.9 445.925 164.054 445.925Z" fill="#D7E9FF"/>
<path d="M173.253 255.448H155.305V430.065H173.253V255.448Z" fill="#ECF4FF"/>
<path d="M164.054 255.448H155.305V430.065H164.054V255.448Z" fill="#C9E0FF"/>
<path d="M232.907 261.134C232.907 305.434 202.081 341.348 164.051 341.348C126.021 341.348 95.1953 305.434 95.1953 261.134C95.1953 216.833 126.24 0 164.27 0C202.3 0 232.907 216.833 232.907 261.134Z" fill="#ECF4FF"/>
<path d="M189.1 318.953C151.07 318.953 120.244 283.039 120.244 238.739C120.244 203.301 140.108 57.498 167.525 0.553104C166.444 0.2058 165.363 0 164.27 0C126.24 0 95.1953 216.833 95.1953 261.134C95.1953 305.434 126.021 341.348 164.051 341.348C185.549 341.348 204.744 329.861 217.365 311.879C208.745 316.406 199.186 318.953 189.1 318.953Z" fill="#C4DCFF"/>
<path d="M264.66 419.839C281.145 419.839 294.508 412.122 294.508 402.602C294.508 393.083 281.145 385.365 264.66 385.365C248.176 385.365 234.812 393.083 234.812 402.602C234.812 412.122 248.176 419.839 264.66 419.839Z" fill="#D7E9FF"/>
<path d="M275.365 213.026H254.457V402.602H275.365V213.026Z" fill="#ECF4FF"/>
<path d="M264.66 213.026H254.457V402.602H264.66V213.026Z" fill="#C9E0FF"/>
<path d="M264.66 306.309C308.955 306.309 344.863 267.315 344.863 219.213C344.863 171.111 308.955 132.117 264.66 132.117C220.365 132.117 184.457 171.111 184.457 219.213C184.457 267.315 220.365 306.309 264.66 306.309Z" fill="#ECF4FF"/>
<path d="M295.254 280.814C250.958 280.814 215.051 241.826 215.051 193.718C215.051 173.15 221.625 154.267 232.599 139.372C204.27 152.814 184.457 183.492 184.457 219.213C184.457 267.308 220.364 306.309 264.66 306.309C290.018 306.309 312.609 293.51 327.314 273.559C317.485 278.216 306.653 280.814 295.254 280.814Z" fill="#C4DCFF"/>
<path d="M472.655 669.434C490.944 669.434 505.77 660.876 505.77 650.319C505.77 639.763 490.944 631.205 472.655 631.205C454.365 631.205 439.539 639.763 439.539 650.319C439.539 660.876 454.365 669.434 472.655 669.434Z" fill="#D7E9FF"/>
<path d="M483.744 487.293H460.561V650.32H483.744V487.293Z" fill="#ECF4FF"/>
<path d="M471.87 487.293H460.561V650.32H471.87V487.293Z" fill="#C9E0FF"/>
<path d="M470.734 590.751C526.661 590.751 571.998 547.495 571.998 494.136C571.998 440.777 526.661 397.521 470.734 397.521C414.808 397.521 369.471 440.777 369.471 494.136C369.471 547.495 414.808 590.751 470.734 590.751Z" fill="#ECF4FF"/>
<path d="M509.356 562.477C453.43 562.477 408.093 519.219 408.093 465.863C408.093 443.056 416.404 422.102 430.26 405.573C394.481 420.482 369.471 454.505 369.471 494.136C369.471 547.492 414.808 590.751 470.734 590.751C502.756 590.751 531.279 576.563 549.843 554.425C537.428 559.596 523.753 562.477 509.356 562.477Z" fill="#C4DCFF"/>
<path d="M475.612 493.801C523.807 493.801 562.878 456.529 562.878 410.551C562.878 364.574 523.807 327.302 475.612 327.302C427.416 327.302 388.346 364.574 388.346 410.551C388.346 456.529 427.416 493.801 475.612 493.801Z" fill="#ECF4FF"/>
<path d="M508.894 469.439C460.701 469.439 421.628 432.162 421.628 386.189C421.628 366.534 428.782 348.474 440.734 334.235C409.908 347.085 388.346 376.413 388.346 410.552C388.346 456.537 427.418 493.801 475.612 493.801C503.208 493.801 527.794 481.569 543.785 462.506C533.094 466.956 521.297 469.439 508.894 469.439Z" fill="#C4DCFF"/>
<path d="M473.454 394.074C510.238 394.074 540.058 365.63 540.058 330.543C540.058 295.456 510.238 267.012 473.454 267.012C436.669 267.012 406.85 295.456 406.85 330.543C406.85 365.63 436.669 394.074 473.454 394.074Z" fill="#ECF4FF"/>
<path d="M498.862 375.487C462.08 375.487 432.258 347.046 432.258 311.956C432.258 296.958 437.725 283.181 446.834 272.312C423.303 282.114 406.861 304.495 406.861 330.556C406.861 365.646 436.683 394.087 473.465 394.087C494.526 394.087 513.284 384.748 525.493 370.2C517.324 373.583 508.331 375.487 498.862 375.487Z" fill="#C4DCFF"/>
<path d="M322.156 751.925L84.0557 609.081C78.1377 605.53 78.1377 599.729 84.0557 596.179L140.046 562.593C145.964 559.043 155.626 559.043 161.544 562.593L399.644 705.425C405.562 708.975 405.562 714.777 399.644 718.327L343.654 751.912C337.736 755.463 328.074 755.463 322.156 751.925Z" fill="#D7E9FF"/>
<path d="M354.216 403.065C354.216 403.065 340.63 413.394 334.557 410.924C330.762 409.368 332.576 402.319 332.576 402.319L326.709 403.065L307.244 436.998V494.766L329.54 501.493L329.707 445.577L357.844 414.256L354.216 403.065Z" fill="#F2F4F7"/>
<path d="M357.034 495.589C357.034 495.589 361.061 501.005 363.891 511.334C366.708 521.663 365.486 548.663 369.011 560.857C369.011 560.857 370.993 566.812 357.034 572.614C336.951 580.975 305.598 568.382 305.598 568.382C305.598 568.382 295.717 521.65 302.33 485.698C308.312 491.718 340.347 497.468 340.347 497.468L357.034 495.589Z" fill="#212121"/>
<path d="M333.851 401.432C333.851 401.432 317.074 424.791 314.257 440.703C311.452 456.627 313.678 481.967 313.832 490.689C313.382 496.876 304.26 487.627 303.09 484.81C301.932 481.98 302.935 443.172 303.09 435.956C303.334 425.91 321.654 408.3 325.192 401.444C328.705 394.576 333.851 401.432 333.851 401.432Z" fill="#CFD0D1"/>
<path d="M332.589 401.432C332.589 401.432 315.813 424.791 312.995 440.703C310.191 456.627 312.416 481.967 312.571 490.689C312.12 496.876 302.999 487.627 301.828 484.81C300.67 481.98 301.674 443.172 301.828 435.956C302.072 425.91 320.393 408.3 323.931 401.444C327.43 394.576 332.589 401.432 332.589 401.432Z" fill="#383838"/>
<path d="M352.946 402.757C360.922 414.513 369.709 423.093 369.709 423.093L362.608 452.55C362.608 452.55 352.688 474.082 352.946 479.652C353.165 485.183 355.532 490.624 356.587 493.763C349.652 507.244 328.45 503.397 324.243 498.754C320.036 494.085 322.275 466.3 322.275 449.372C322.275 431.403 353.641 410.976 352.946 402.757Z" fill="#CFD0D1"/>
<path d="M354.217 403.065C362.194 414.822 370.981 423.402 370.981 423.402L363.879 452.858C363.879 452.858 353.96 474.391 354.217 479.961C354.436 485.492 356.803 490.933 357.858 494.072C350.924 507.552 329.722 503.706 325.515 499.062C321.308 494.393 323.546 466.609 323.546 449.681C323.546 431.724 354.899 411.285 354.217 403.065Z" fill="#383838"/>
<path d="M370.993 423.415C370.993 423.415 362.206 414.835 354.229 403.078C354.319 404.133 353.869 405.381 353.046 406.808C360.212 416.61 367.185 423.415 367.185 423.415L360.083 452.871C360.083 452.871 350.164 474.404 350.421 479.974C350.64 485.505 353.007 490.946 354.062 494.085C350.82 500.4 344.439 502.909 338.135 503.32C345.52 503.783 353.972 501.687 357.883 494.085C356.828 490.946 354.474 485.492 354.242 479.974C353.985 474.404 363.904 452.871 363.904 452.871L370.993 423.415Z" fill="#232323"/>
<path d="M88.3027 417.562L144.37 382.471L390.202 530.153L331.909 562.002L88.3027 417.562Z" fill="#D9E9F4"/>
<path d="M293.007 479.678C293.007 479.678 295.49 482.456 295.092 485.723C293.625 497.776 290.859 487.344 290.859 487.344C290.859 487.344 286.754 501.095 284.979 500.58C281.736 499.641 279.356 491.409 280.025 488.849C280.694 486.277 283.576 480.964 283.576 480.964L285.339 474.095L291.669 474.738L293.007 479.678Z" fill="#FCB892"/>
<path d="M289.903 487.022C289.903 487.022 286.146 499.59 284.268 500.233C284.499 500.374 284.731 500.503 284.975 500.567C286.403 500.979 289.761 490.778 290.855 487.331C289.903 487.022 289.903 487.022 289.903 487.022Z" fill="#DB895D"/>
<path d="M293.004 479.678L291.679 474.738L290.791 474.648L292.052 479.356C292.052 479.356 294.535 482.134 294.136 485.402C293.673 489.196 293.081 490.753 292.489 491.126C293.351 492.129 294.368 491.602 295.088 485.723C295.487 482.456 293.004 479.678 293.004 479.678Z" fill="#DB895D"/>
<path d="M338.06 491.666C338.06 491.666 334.741 490.637 331.666 491.808C321.386 495.705 334.586 495.075 334.586 495.075C335.68 494.573 318.787 503.024 319.894 504.504C321.901 507.218 333.145 507.578 335.319 506.06C337.494 504.542 345.959 496.902 345.959 496.902L343.155 491.19L338.06 491.666Z" fill="#FCB892"/>
<path d="M334.578 495.075L333.677 494.149C333.677 494.149 329.431 494.367 328.067 493.595C326.639 494.908 330.28 495.41 334.578 495.075Z" fill="#DB895D"/>
<path d="M335.308 505.109C333.198 506.588 322.61 506.279 320.114 503.797C319.857 504.105 319.754 504.35 319.87 504.504C321.877 507.218 333.121 507.578 335.295 506.061C337.469 504.543 345.935 496.902 345.935 496.902L345.626 496.246C344.082 497.648 337.238 503.771 335.308 505.109Z" fill="#DB895D"/>
<path d="M323.911 395.528C311.045 392.067 302.451 407.503 302.451 407.503C302.451 407.503 289.226 435.506 288.467 437.989C287.707 440.484 283.526 453.45 283.591 480.964C283.591 480.964 287.051 476.115 293.008 479.678C297.691 465.413 299.891 458.75 301.628 444.343C301.628 444.343 301.126 434.837 305.114 427.505C307.392 423.299 328.658 403.078 328.658 403.078C328.658 403.078 325.133 395.862 323.911 395.528Z" fill="#383838"/>
<path d="M305.68 425.499C301.267 432.599 299.723 442.748 299.723 442.748C297.986 457.142 295.786 463.818 291.103 478.083C287.757 476.076 285.197 476.732 283.602 477.697C283.602 478.765 283.602 479.845 283.602 480.964C283.602 480.964 287.063 476.115 293.02 479.678C297.703 465.413 299.903 458.75 301.64 444.343C301.64 444.343 301.55 435.069 305.127 427.505L305.68 425.499Z" fill="#232323"/>
<path d="M363.416 420.057C384.837 416.16 385.146 482.443 383.345 487.37C381.518 492.335 342.497 500.001 342.497 500.001C342.497 500.001 343.269 497.776 339.396 491.55C349.444 487.743 365.873 476.128 365.873 476.128L355.388 434.786C355.388 434.773 352.442 422.051 363.416 420.057Z" fill="#383838"/>
<path d="M369.409 420.971C382.648 432.959 382.648 481.582 381.104 485.788C379.534 490.058 350.459 496.323 342.354 497.995C342.688 499.41 342.482 500.014 342.482 500.014C342.482 500.014 381.503 492.348 383.33 487.383C384.951 482.945 384.861 429.242 369.409 420.971Z" fill="#232323"/>
<path d="M342.585 449.076L331.598 442.478L334.3 434.695L345.287 441.294L342.585 449.076Z" fill="#D9E9F4"/>
<path d="M324.936 389.212C324.936 389.212 332.616 397.675 329.477 407.156C328.628 409.754 326.608 420.379 342.445 415.542C342.445 415.542 358.81 406.602 353.638 401.74C350.229 398.499 346.832 393.778 351.155 376.438L324.936 389.212Z" fill="#DB895D"/>
<path d="M328.538 360.887C328.538 360.887 328.332 381.88 330.236 402.319C330.519 405.265 324.704 412.211 319.198 410.95C319.198 410.95 309.279 385.906 321.012 361.414C324.743 353.658 338.637 342.506 355.195 353.272L328.538 360.887Z" fill="#754C29"/>
<path d="M326.607 358.662C326.607 358.662 322.722 372.451 321.294 380.323C320.65 383.873 319.145 397.727 327.443 398.962C333.426 399.849 348.054 395.617 352.531 381.159C356.995 366.663 344.194 348.616 326.607 358.662Z" fill="#FCB892"/>
<path d="M348.826 351.793C348.826 351.793 348.788 351.793 348.775 351.793C360.971 354.97 364.368 370.882 364.368 370.882C366.053 386.035 369.707 402.898 364.303 409.947C356.481 420.122 339.795 411.465 339.795 411.465C356.095 362.817 324.935 364.785 324.935 364.785C324.935 364.785 323.353 346.133 348.826 351.793Z" fill="#DB895D"/>
<path d="M350.204 350.417C350.204 350.417 350.165 350.417 350.153 350.417C362.349 353.594 365.745 369.505 365.745 369.505C367.431 384.658 369.824 400.711 365.681 408.571C358.837 421.575 341.198 413.008 341.198 413.008C357.499 364.36 327.574 363.768 327.574 363.768C327.574 363.768 321.141 362.739 318.375 374.625C318.375 374.625 318.375 341.322 350.204 350.417Z" fill="#754C29"/>
<path d="M318.812 369.93C318.375 372.708 318.375 374.612 318.375 374.612C319.353 370.419 320.781 367.833 322.235 366.251C321.128 366.907 319.919 368.039 318.812 369.93Z" fill="#966442"/>
<path d="M365.745 369.505C365.745 369.505 362.348 353.594 350.152 350.416C350.165 350.416 350.203 350.416 350.203 350.416C338.354 347.034 330.918 349.516 326.248 353.98C330.957 350.571 337.943 349.04 348.299 351.999C348.299 351.999 348.261 351.999 348.248 351.999C360.444 355.176 363.841 371.087 363.841 371.087C365.526 386.24 367.919 402.293 363.776 410.153C363.082 411.465 362.271 412.558 361.383 413.459C363.03 412.352 364.523 410.77 365.681 408.558C369.81 400.711 367.43 384.671 365.745 369.505Z" fill="#966442"/>
<path d="M331.909 748.722L88.3027 603.331V417.562L331.909 562.002V748.722Z" fill="#A9C2E0"/>
<path d="M331.904 748.723L387.959 713.632L390.197 530.153L331.904 562.002V748.723Z" fill="#BED6ED"/>
<path d="M185.303 766.945C215.799 765.81 240.002 750.957 239.363 733.77C238.723 716.583 213.482 703.57 182.986 704.705C152.49 705.84 128.286 720.693 128.926 737.88C129.566 755.067 154.807 768.08 185.303 766.945Z" fill="#D7E9FF"/>
<path d="M321.163 524.788L261.725 524.493L255.434 511.218L311.771 509.674L321.163 524.788Z" fill="#0D1884"/>
<path d="M322.283 509.288L266.627 521.791L252.822 510.768L304.477 497.197L322.283 509.288Z" fill="#4E87EE"/>
<path d="M143.842 717.272C143.842 717.272 142.607 726.237 142.594 729.466C142.581 732.708 144.151 737.3 152.976 736.412C162.368 735.473 168.222 727.871 173.201 725.955C178.334 723.974 188.202 716.757 189.514 712.23C190.826 707.702 181.859 707.56 177.433 708.872C173.123 710.159 168.852 710.853 161.75 713.94L143.842 717.272Z" fill="#0863EF"/>
<path d="M143.842 718.224L161.763 714.892C168.865 711.805 173.123 711.098 177.446 709.824C181.383 708.654 188.909 708.654 189.591 711.856C190.286 707.715 181.743 707.599 177.446 708.872C173.136 710.159 168.865 710.853 161.763 713.94L143.842 717.272C143.842 717.272 142.607 726.237 142.594 729.466C142.594 729.608 142.607 729.749 142.607 729.891C142.735 726.328 143.842 718.224 143.842 718.224Z" fill="#99BCE6"/>
<path d="M152.938 559.892C152.938 559.892 152.025 603.356 152.938 622.664C153.852 641.971 150.314 641.675 146.3 661.227C142.286 680.792 140.073 715.008 140.073 715.008C140.073 715.008 138.902 722.571 151.755 723.986C164.607 725.401 169.522 715.008 169.522 715.008C169.522 715.008 169.895 694.594 175.941 670.9C182.001 647.22 183.699 636.26 185.681 624.387C187.662 612.515 192.1 608.283 194.416 576.601L152.938 559.892Z" fill="#4E87EE"/>
<path d="M157.325 723.523C144.472 722.108 145.643 714.545 145.643 714.545C145.643 714.545 147.856 680.329 151.87 660.764C155.884 641.2 159.422 641.508 158.509 622.201C157.724 605.775 158.277 571.88 158.458 562.117L152.951 559.892C152.951 559.892 152.037 603.356 152.951 622.664C153.864 641.971 150.326 641.675 146.312 661.227C142.297 680.792 140.084 715.008 140.084 715.008C140.084 715.008 138.914 722.571 151.767 723.986C154.34 724.269 156.579 724.064 158.535 723.588C158.123 723.562 157.737 723.562 157.325 723.523Z" fill="#0552DE"/>
<path d="M185.666 739.036C185.666 739.036 185.293 748.246 185.666 751.488C186.039 754.729 188.38 759.115 198.107 757.43C207.833 755.745 213.043 748.323 217.726 746.304C222.409 744.284 230.875 737.531 231.775 733.492C232.676 729.44 226.23 727.447 222.268 728.63C218.305 729.813 210.38 730.482 203.369 733.518L185.666 739.036Z" fill="#0863EF"/>
<path d="M222.268 728.63C218.305 729.813 210.38 730.482 203.368 733.518L185.678 739.036C185.678 739.036 185.653 739.538 185.627 740.31L202.854 734.933C209.878 731.897 217.79 731.228 221.753 730.045C225.664 728.887 231.968 730.804 231.286 734.74C231.505 734.303 231.685 733.878 231.775 733.479C232.676 729.44 226.217 727.447 222.268 728.63Z" fill="#99BCE6"/>
<path d="M218.677 566.349C218.677 566.349 218.15 598.764 215.307 639.785C212.412 681.615 208.707 733.518 208.707 733.518C208.707 733.518 207.124 740.747 196.279 740.747C185.446 740.747 183.336 739.808 182.127 736.515C177.521 724.076 180.802 699.778 181.188 683.853C181.561 667.929 184.546 660.25 185.523 646.833C186.488 633.417 178.229 612.322 176.337 590.48C176.337 590.48 148.651 579.508 153.527 553.537L218.677 566.349Z" fill="#4E87EE"/>
<path d="M201.335 738.38C190.502 738.38 188.392 737.441 187.183 734.148C182.577 721.71 185.858 697.411 186.244 681.487C186.617 665.562 189.602 657.883 190.579 644.467C191.544 631.051 183.285 609.955 181.394 588.114C181.394 588.114 156.075 578.055 158.146 554.438L153.527 553.525C148.651 579.495 176.337 590.468 176.337 590.468C178.229 612.309 186.488 633.405 185.523 646.821C184.558 660.237 181.574 667.916 181.188 683.841C180.815 699.765 177.521 724.064 182.127 736.502C183.349 739.783 185.446 740.734 196.279 740.734C200.923 740.734 203.869 739.41 205.709 737.879C204.448 738.188 203.007 738.38 201.335 738.38Z" fill="#0552DE"/>
<path d="M224.639 481.569C226.543 479.343 220.38 472.59 217.37 471.536C215.17 470.764 211.349 468.564 207.824 471.536C204.144 474.636 202.42 476.205 197.956 482.469C195.447 484.926 200.452 490.611 205.418 489.968C209.252 490.123 211.542 486.83 214.913 483.974C217.666 481.633 220.779 480.321 224.639 481.569Z" fill="#FCB892"/>
<path d="M224.636 480.269C220.777 479.022 217.663 480.334 214.91 482.675C211.526 485.53 209.249 488.836 205.415 488.669C201.697 489.145 197.966 486.084 197.374 483.472C196.667 486.199 201.054 490.521 205.415 489.968C209.249 490.123 211.539 486.83 214.91 483.974C217.663 481.646 220.777 480.334 224.636 481.569C225.009 481.131 225.061 480.514 224.906 479.806C224.842 479.974 224.752 480.128 224.636 480.269Z" fill="#DB895D"/>
<path d="M198.059 480.45C194.56 483.781 185.863 487.087 180.858 490.316C180.639 490.328 179.198 488.502 177.989 486.971C176.471 484.026 173.203 475.613 170.411 465.258C165.033 445.295 162.975 431.686 145.71 440.703C135.919 444.137 130.863 456.074 137.219 483.974C141.052 496.541 150.341 515.759 152.027 518.229C167.722 533.214 200.876 493.364 207.116 490.328C207.116 490.328 205.534 481.028 198.059 480.45Z" fill="#F8FBFF"/>
<path d="M185.541 470.867C185.541 470.867 222.465 564.42 218.67 568.742C214.887 573.051 205.2 576.267 182.917 574.067C159.746 571.79 153.571 569.269 152.284 561.371C151.371 555.827 160.968 533.703 159.322 524.158C155.822 503.77 185.541 470.867 185.541 470.867Z" fill="#0552DE"/>
<path d="M159.322 440.883C168.74 448.961 190.315 451.546 190.315 451.546L205.432 463.174L210.244 466.969C210.244 466.969 224.37 561.783 220.021 565.526C216.612 568.472 205.2 572.15 182.905 569.964C159.734 567.687 147.795 563.416 146.508 555.531C145.595 549.987 153.507 524.608 151.86 515.064C148.361 494.676 134.659 478.777 137.618 458.479C141.401 432.599 154.331 440.767 159.322 440.883Z" fill="#F8FBFF"/>
<path d="M188.207 567.61C165.036 565.333 152.171 561.435 150.884 553.538C149.971 547.994 157.703 519.09 155.117 512.8C141.57 479.716 140.399 455.135 140.052 457.244C136.732 477.478 148.376 494.663 151.875 515.051C153.522 524.596 145.609 549.974 146.523 555.518C147.809 563.416 159.749 567.674 182.919 569.951C202.346 571.867 214.388 569.925 220.036 565.513C213.166 567.726 202.963 569.063 188.207 567.61Z" fill="#B6D1FE"/>
<path d="M274.736 512.389C276.64 510.163 273.372 500.786 270.362 499.731C268.162 498.96 264.341 496.76 260.816 499.731C257.136 502.831 255.412 504.401 250.948 510.665C248.439 513.122 253.444 518.807 258.41 518.164C262.244 518.319 264.264 515.141 268.445 513.714C271.456 512.685 272.433 514.292 274.736 512.389Z" fill="#FCB892"/>
<path d="M274.734 511.089C272.431 512.98 271.44 511.385 268.442 512.414C264.261 513.855 262.241 517.032 258.407 516.865C254.689 517.341 250.958 514.279 250.367 511.668C249.659 514.395 254.046 518.717 258.407 518.164C262.241 518.319 264.261 515.141 268.442 513.714C271.44 512.697 272.418 514.292 274.734 512.389C275.222 511.81 275.364 510.755 275.261 509.494C275.21 510.163 275.042 510.729 274.734 511.089Z" fill="#DB895D"/>
<path d="M251.061 508.645C247.561 511.977 238.864 515.283 233.86 518.511C233.641 518.524 232.2 516.698 230.991 515.167C229.472 512.221 226.205 503.809 223.413 493.454C218.035 473.491 212.117 458.994 194.852 467.998C189.435 472.963 190.22 486.302 196.717 501.005C202.172 512.144 205.569 515.103 214.137 529.471C214.163 529.509 214.201 529.535 214.227 529.561C216.671 533.343 219.798 536.327 221.483 538.784C237.179 553.769 253.891 521.534 260.118 518.499C260.105 518.524 258.523 509.224 251.061 508.645Z" fill="#F8FBFF"/>
<path d="M222.602 535.285C220.904 532.815 217.79 529.844 215.346 526.062C215.32 526.024 215.282 525.998 215.256 525.972C206.688 511.604 203.291 508.646 197.836 497.506C193.256 487.126 191.519 477.427 192.806 470.88C189.808 477.118 191.211 488.566 196.704 501.031C202.159 512.17 205.555 515.129 214.124 529.497C214.15 529.535 214.188 529.561 214.214 529.587C216.658 533.368 219.785 536.353 221.47 538.81C237.166 553.795 253.878 521.56 260.105 518.525C260.105 518.525 259.95 517.598 259.5 516.312C252.27 523.014 237.011 549.049 222.602 535.285Z" fill="#B6D1FE"/>
<path d="M200.012 390.125C200.012 390.125 208.644 397.122 205.557 413.188C202.726 427.917 199.909 435.544 197.323 436.586C195.766 437.204 190.942 436.908 190.054 437.693C189.166 438.477 190.182 449.848 190.311 451.546C184.715 452.948 168.105 450.749 159.318 440.883C160.425 439.107 165.352 432.2 166.613 420.572C167.874 408.943 200.012 390.125 200.012 390.125Z" fill="#FCB892"/>
<path d="M178.023 446.633C169.519 445.295 164.18 439.339 161.98 436.342C160.796 438.645 159.754 440.175 159.316 440.883C168.091 450.762 184.7 452.948 190.309 451.546C190.271 450.942 190.116 449.141 189.962 447.018C187.466 447.379 183.606 447.507 178.023 446.633Z" fill="#DB895D"/>
<path d="M201.08 392.685L203.962 395.695C202.187 391.9 200.012 390.125 200.012 390.125C200.012 390.125 196.77 392.016 192.318 394.974L201.08 392.685Z" fill="#DB895D"/>
<path d="M203.525 393.405C209.083 405.149 201.544 403.245 202.033 407.542C202.535 411.864 199.511 421.562 198.315 421.768C197.208 421.961 197.762 412.404 193.928 414.025C190.081 415.671 190.235 434.181 182.233 434.58C175.17 434.914 166.396 430.579 165.534 427.055C164.466 422.759 202.586 391.437 203.525 393.405Z" fill="#DB895D"/>
<path d="M206.226 388.44C212.44 395.334 202.032 401.509 202.534 405.818C203.036 410.14 200.553 419.929 199.356 420.134C198.25 420.327 197.182 410.075 193.335 411.696C189.488 413.343 189.643 431.853 181.641 432.251C174.577 432.586 166.305 428.431 164.697 425.177C162.626 421.035 152.668 404.441 165.713 390.138C183.853 373.673 204.76 386.819 206.226 388.44Z" fill="#412424"/>
<path d="M56.771 682.17C81.9561 681.233 101.944 668.969 101.416 654.778C100.887 640.587 80.0425 629.842 54.8574 630.78C29.6724 631.717 9.68422 643.981 10.2126 658.172C10.741 672.363 31.5859 683.108 56.771 682.17Z" fill="#D7E9FF"/>
<path d="M31.2522 638.125C31.2522 638.125 27.3926 647.67 29.2195 650.911C31.0464 654.166 41.0042 667.363 43.4357 671.827C45.8673 676.29 53.3807 677.306 54.6029 675.48C55.8251 673.653 58.6684 671.016 50.3444 654.358C50.3444 654.358 45.0697 644.004 44.658 639.939C44.2463 635.887 31.2522 638.125 31.2522 638.125Z" fill="#0863EF"/>
<path d="M50.3332 654.359C50.3332 654.359 45.058 644.004 44.6463 639.939C44.4276 637.817 40.7607 637.418 37.3125 637.521C40.1045 637.624 42.6005 638.203 42.7678 639.939C43.1795 644.004 48.4547 654.359 48.4547 654.359C56.7792 671.003 53.9358 673.653 52.7263 675.48C52.4433 675.904 51.7999 676.162 50.9765 676.264C52.6877 676.457 54.1287 676.187 54.6048 675.48C55.8271 673.653 58.6705 671.016 50.3332 654.359Z" fill="#99BCE6"/>
<path d="M47.8005 630.421C47.8005 630.421 44.6485 641.174 46.887 642.589C49.1256 644.004 58.4659 644.621 60.4986 646.641C62.5314 648.66 75.5254 654.565 82.2283 652.532C88.9312 650.5 80.4014 642.808 76.3359 641.689C72.2705 640.557 59.4179 634.897 57.8226 630.421C56.2273 625.931 47.8005 630.421 47.8005 630.421Z" fill="#0863EF"/>
<path d="M57.8234 632.286C59.4187 636.762 72.2713 642.422 76.3368 643.554C79.0128 644.3 83.6186 647.889 84.532 650.847C85.8443 647.811 79.6303 642.602 76.3368 641.689C72.2713 640.557 59.4187 634.897 57.8234 630.421C56.2281 625.931 56.2281 627.809 57.8234 632.286Z" fill="#99BCE6"/>
<path d="M68.4228 460.731C68.783 460.075 70.7515 466.005 70.893 466.738C72.3725 474.739 76.9526 501.674 72.4883 522.796C67.7925 545.01 59.8931 567.868 59.0826 586.146C58.2721 604.425 60.4849 630.614 60.4849 630.614C60.4849 630.614 53.396 634.473 46.4873 629.611C46.4873 629.611 42.988 604.978 42.1775 600.501C41.3669 596.038 47.285 558.851 48.6616 548.985C49.8967 540.122 53.8077 498.844 52.5855 497.622C51.5306 496.568 64.6018 467.561 68.4228 460.731Z" fill="#F2F4F7"/>
<path d="M54.8875 629.597C54.8875 629.597 51.3881 604.964 50.5776 600.488C49.7671 596.024 55.6852 558.837 57.0618 548.971C58.2969 540.109 60.188 504.941 62.2594 499.551C67.2126 486.65 62.6582 486.032 54.5401 496.786C53.498 498.162 49.8828 540.109 48.6478 548.971C47.284 558.837 41.3531 596.024 42.1636 600.488C42.9742 604.951 46.4735 629.597 46.4735 629.597C51.1308 632.89 55.8653 632.195 58.4641 631.398C57.2933 631.012 56.0969 630.433 54.8875 629.597Z" fill="#B6D1FE"/>
<path d="M68.4135 462.686C68.5936 460.255 60.2954 478.932 27.7974 469.992C27.7974 469.992 11.5484 480.475 18.8559 521.084C26.1635 561.693 27.9904 565.205 23.9249 573.527C19.8595 581.849 21.3004 591.818 30.229 638.923C30.229 638.923 40.071 645.689 45.9376 640.814C45.9376 640.814 41.9751 610.496 46.2078 582.068C50.4405 553.641 53.7854 534.963 54.596 505.726C54.6088 505.726 65.9819 495.178 68.4135 462.686Z" fill="#F2F4F7"/>
<path d="M69.9011 463.65C69.9783 462.763 69.2964 459.534 68.8333 458.647C67.4824 456.061 63.3913 471.857 45.3926 472.359C57.7176 472.77 66.4017 466.738 69.9011 463.65Z" fill="#B6D1FE"/>
<path d="M33.0444 636.517C24.1029 589.413 22.6749 579.444 26.7404 571.121C30.8058 562.799 27.8339 560.175 20.5135 519.566C14.0551 483.652 26.8819 470.635 29.9438 468.088C29.2234 467.908 28.5415 467.792 27.7953 467.586C27.7953 467.586 11.8165 478.726 17.7088 519.566C23.5369 559.956 27.9883 562.799 23.9357 571.121C19.8702 579.444 21.3111 591.818 30.2397 638.923C30.2397 638.923 36.6467 643.232 42.166 642.473C37.5216 641.92 33.0444 636.517 33.0444 636.517Z" fill="#B6D1FE"/>
<path d="M15.2237 401.92C15.2237 401.92 8.72671 402.988 6.24369 407.529C3.76066 412.069 3.47765 428.303 6.9899 448.292C6.9899 448.292 -1.32114 492.451 0.196975 499.268C1.71509 506.073 3.41331 515.103 6.41094 519.438C7.5045 521.02 10.708 525.483 12.2776 524.377C12.2776 524.377 8.91972 509.083 9.73024 507.874C10.5408 506.665 10.9267 498.741 9.38284 495.011C7.839 491.28 20.3313 467.689 18.8518 452.549C17.3594 437.41 25.1558 410.912 25.1558 410.912L15.2237 401.92Z" fill="#FCB892"/>
<path d="M8.53546 519.438C5.53762 515.09 3.83929 506.073 2.32107 499.268C0.802854 492.464 9.11446 448.292 9.11446 448.292C5.60197 428.303 5.885 412.069 8.36819 407.529C10.0537 404.454 13.5791 402.975 15.6763 402.332L15.2131 401.92C15.2131 401.92 8.71562 402.988 6.23243 407.529C3.74924 412.069 3.46616 428.303 6.97865 448.292C6.97865 448.292 -1.33295 492.464 0.185268 499.268C1.70349 506.073 3.40182 515.103 6.39966 519.438C7.49329 521.02 10.697 525.483 12.2667 524.377C12.2667 524.377 12.2152 524.133 12.1252 523.695C10.7099 522.512 9.21737 520.415 8.53546 519.438Z" fill="#DB895D"/>
<path d="M53.8616 386.678L57.3482 401.869L44.4313 407.529L32.3764 396.454L30.125 383.423L39.5425 377.571L53.8616 386.678Z" fill="#DB895D"/>
<path d="M5.20312 410.706C5.20312 410.706 9.0373 405.573 12.91 405.934C16.7828 406.281 19.2016 412.224 19.9993 415.272C20.797 418.321 21.0801 426.039 21.0801 426.039L23.782 412.661L18.8671 402.834L12.6784 402.177C12.6784 402.177 9.10162 404.313 8.03372 405.187C6.96582 406.024 5.94937 406.68 5.20312 410.706Z" fill="#DB895D"/>
<path d="M111.163 397.122C111.202 397.097 103.572 401.457 100.009 405.535C96.445 409.6 102.389 401.444 100.42 399.721C99.121 398.589 94.6053 408.416 93.383 410.924C87.5808 415.851 72.9914 425.807 72.9914 425.807C72.9914 425.807 68.6686 403.67 67.1634 393.945C65.6453 384.221 59.4184 383.192 55.8547 384.259C41.2396 388.594 57.6945 436.651 64.14 442.658C70.1096 448.24 94.6953 421.614 98.3362 417.613L100.176 417.317C100.176 417.317 105.258 416.829 110.018 409.612C114.778 402.396 111.124 397.148 111.163 397.122Z" fill="#FCB892"/>
<path d="M110.932 406.885C106.172 414.102 101.09 414.59 101.09 414.59L99.2504 414.886C95.6223 418.887 71.0237 445.513 65.0541 439.931C59.8565 435.081 48.1619 402.936 51.4812 388.363C45.6403 401.123 58.5828 437.474 64.1535 442.645C70.1231 448.227 94.7089 421.601 98.3498 417.6L100.19 417.305C100.19 417.305 105.271 416.816 110.032 409.6C111.241 407.773 111.897 406.062 112.219 404.531C111.871 405.303 111.46 406.075 110.932 406.885Z" fill="#DB895D"/>
<path d="M100.086 403.709C100.382 402.988 100.639 402.242 100.755 401.56C100.047 403.194 99.3397 404.416 100.086 403.709Z" fill="#DB895D"/>
<path d="M62.3887 385.687L63.0706 385.404C63.0706 385.404 62.4144 384.607 62.3887 385.687Z" fill="#4E87EE"/>
<path d="M27.3791 466.081C22.8762 480.758 66.1296 473.143 68.8185 462.377C69.4103 460.01 68.6513 457.669 68.4712 458.479C66.2969 468.242 31.0844 475.484 27.3791 466.081Z" fill="#B6D1FE"/>
<path d="M67.8029 407.645C69.8101 413.266 70.7622 417.125 71.0838 419.955C71.547 417.099 70.8909 412.546 67.8029 403.927C63.3126 391.347 62.3476 387.051 62.3862 385.687L52.8652 389.611C52.8652 389.611 53.3284 391.038 53.7659 392.955L62.3734 389.405C62.3477 390.755 63.3126 395.065 67.8029 407.645Z" fill="#4E87EE"/>
<path d="M52.4421 406.834C54.5006 406.204 54.7322 403.258 54.3977 400.274C54.1661 401.676 53.5871 402.77 52.4421 403.117C44.4398 405.548 44.0925 406.616 29.5417 391L9.98633 403.863C9.98633 403.863 13.0097 402.229 16.2261 403.593L29.5417 394.717C44.0925 410.333 44.4398 409.252 52.4421 406.834Z" fill="#4E87EE"/>
<path d="M27.8818 459.972C27.7789 460.782 27.6245 461.58 27.3801 462.351C26.9297 463.805 26.9683 465.04 27.3801 466.082C27.3801 466.082 27.3801 466.082 27.3801 466.069C27.9848 464.127 28.0748 462.068 27.8818 459.972Z" fill="#4E87EE"/>
<path d="M46.5224 445.372C49.6487 441.706 65.4602 435.673 65.4602 435.673L65.486 435.596C64.9456 442.298 68.7023 448.472 69.3327 455.611C70.1046 446.838 64.8556 439.712 65.486 431.879L65.4602 431.956C65.4602 431.956 49.6487 437.989 46.5224 441.655C46.2522 441.963 46.0592 441.938 45.9048 441.77C45.313 443.996 45.5832 446.465 46.5224 445.372Z" fill="#4E87EE"/>
<path d="M47.0243 435.712C48.8769 433.692 66.6698 427.299 66.6698 427.299L66.6569 427.351C68.1493 424.431 70.5037 423.543 71.0697 419.942C70.761 417.125 69.809 413.266 67.7891 407.632C63.2991 395.052 62.3342 390.755 62.3728 389.392L53.7659 392.942C54.2805 395.193 54.7436 398.1 54.3962 400.261C54.7307 403.245 54.4991 406.191 52.4407 406.821C44.4384 409.253 44.0911 410.32 29.5403 394.704L16.2246 403.58C17.4211 404.082 18.669 405.008 19.8398 406.616C21.6023 409.047 22.0398 412.275 21.731 415.594C22.2585 420.366 22.0398 427.48 20.4445 431.814C20.007 432.998 19.9813 434.284 20.4959 435.416C23.3392 441.59 28.9999 450.826 27.8678 459.959C28.0608 462.056 27.9707 464.126 27.366 466.069C31.0584 475.472 66.3868 468.346 68.8055 458.647C69.0628 457.605 69.2043 456.602 69.2943 455.598C68.6768 448.459 64.9072 442.285 65.4476 435.583L65.4219 435.66C65.4219 435.66 49.6103 441.693 46.484 445.359C45.5448 446.465 45.2747 443.983 45.8665 441.745C45.2875 441.076 45.5448 437.333 47.0243 435.712Z" fill="#4E87EE"/>
<path d="M47.0281 435.712C45.1754 437.731 45.2141 443.185 46.5264 441.642C49.6529 437.976 65.4655 431.943 65.4655 431.943L65.4913 431.866C65.5299 431.403 65.5685 430.927 65.6585 430.464C65.8773 429.177 66.2504 428.187 66.675 427.351L66.6878 427.299C66.675 427.299 48.8809 433.692 47.0281 435.712Z" fill="#0552DE"/>
<path d="M53.9504 401.444C55.5201 401.341 57.1927 400.763 59.5215 400.068C63.6773 398.807 60.435 388.08 59.9975 386.716L52.6895 389.726C52.6766 389.713 55.3142 397.688 53.9504 401.444Z" fill="#0552DE"/>
<path d="M34.0595 459.444C37.9963 446.645 22.4035 429.344 24.076 425.473C25.697 421.717 27.3309 412.069 23.021 406.139C18.7111 400.209 16.807 401.007 16.807 401.007L29.904 392.273C29.5695 391.926 29.2736 391.604 28.9391 391.231L10.0012 403.811C9.98837 403.824 9.71818 403.991 9.74391 403.991C10.786 403.49 15.4819 401.676 19.2515 406.86C23.5614 412.79 20.3707 428.753 20.1392 434.605C19.9719 438.953 30.7274 449.797 26.7906 462.608C23.1625 474.417 50.4371 471.805 62.6464 464.718C49.3564 469.117 31.049 469.259 34.0595 459.444Z" fill="#0552DE"/>
<path d="M64.5384 358.636C65.4647 371.062 68.5011 375.191 68.2824 380.606C68.0765 386.034 63.1617 390.549 63.1617 390.549C63.1617 390.549 61.8493 385.018 60.1509 384.349C58.2853 383.616 54.4512 365.466 54.4512 365.466L60.6398 358.636C60.627 358.636 64.8085 355.665 64.5384 358.636Z" fill="#F9339C"/>
<path d="M43.6819 392.505C44.4797 393.585 45.1873 394.434 45.599 394.717C45.4317 392.736 45.5219 390.202 45.8049 387.424C45.1745 387.038 44.5568 386.639 43.9907 386.227C43.7463 388.543 43.6305 390.691 43.6819 392.505Z" fill="#C6724E"/>
<path d="M63.726 360.411C63.8289 358.43 63.726 355.883 63.726 355.883L59.4932 352.629L46.808 347.908L38.5098 362.135L38.9086 381.905C38.9086 381.905 40.9285 384.066 43.9904 386.227C45.1226 375.101 49.1495 359.987 51.2337 358.224C53.8325 355.999 56.9073 354.134 60.1622 354.648C60.5482 354.713 60.9471 355.06 61.3202 355.523C58.3225 355.356 55.505 357.08 53.0863 359.15C51.0021 360.926 46.9109 376.246 45.8045 387.411C49.4068 389.623 53.9354 391.373 58.2582 390.112C63.2628 388.658 64.4593 372.953 63.726 360.411Z" fill="#FCB892"/>
<path d="M61.3094 355.536C60.9234 355.073 60.5374 354.713 60.1514 354.661C56.8963 354.147 53.8212 356.012 51.2222 358.237C49.1508 359.999 45.1236 375.101 43.9785 386.24C44.5446 386.639 45.1623 387.038 45.7927 387.436C46.8992 376.271 50.9778 360.951 53.075 359.176C55.4938 357.092 58.3116 355.369 61.3094 355.536Z" fill="#DB895D"/>
<path d="M43.1837 411.452C44.6376 412.764 45.6026 413.574 45.6026 413.574C45.6026 413.574 43.93 410.153 42.1931 405.458C40.0316 399.631 37.7542 391.848 38.4361 386.189C37.7284 384.864 37.188 383.655 37.0594 382.883C34.3446 391.154 41.1637 407.04 43.1837 411.452Z" fill="#C6724E"/>
<path d="M25.1309 397.817C25.9028 399.348 26.4303 400.3 26.4303 400.3C26.4303 400.3 27.4211 397.277 28.4246 395.746C28.103 395.129 27.807 394.524 27.614 393.945C26.8292 393.804 25.7742 396.158 25.1309 397.817Z" fill="#0552DE"/>
<path d="M63.7276 360.411C63.7276 360.411 61.862 354.931 60.1381 354.661C56.8831 354.147 53.8083 356.012 51.2095 358.237C48.5978 360.45 42.8727 383.835 43.7347 393.791C42.3195 392.813 37.4693 385.481 37.0448 382.883C33.8927 392.543 43.7347 412.648 43.7347 412.648C43.7347 412.648 30.2003 401.329 27.6015 393.945C26.4179 393.727 24.5653 399.36 24.5653 399.36C24.5653 399.36 17.3607 386.536 17.2191 377.558C17.039 366.765 19.6122 333.167 46.0505 339.058C51.9429 340.37 61.5147 348.191 64.0621 354.674C65.2972 357.864 63.7276 360.411 63.7276 360.411Z" fill="#F9339C"/>
<path d="M17.232 377.763C17.5151 365.042 21.4648 336.383 46.0505 341.85C51.9429 343.162 61.5147 350.982 64.0621 357.465C64.2165 357.851 64.3194 358.211 64.3837 358.572C64.5896 357.555 64.6539 356.192 64.0621 354.674C61.5147 348.191 51.93 340.37 46.0505 339.058C19.6122 333.167 17.039 366.778 17.2191 377.557C17.2191 377.635 17.232 377.699 17.232 377.763Z" fill="#F969C2"/>
<path d="M41.7264 410.886C42.9486 411.979 43.7464 412.648 43.7464 412.648C43.7464 412.648 37.1588 399.193 36.4898 389.006C36.0652 395.888 39.4233 405.342 41.7264 410.886Z" fill="#F969C2"/>
<path d="M39.9004 403.387L42.1906 405.471L45.6001 413.587C45.6001 413.587 43.3099 411.696 43.1813 411.465C42.152 409.6 39.9004 403.387 39.9004 403.387Z" fill="#0552DE"/>
<path d="M119.963 386.447L113.478 424.47L98.6562 426.206L102.838 389.842L119.963 386.447Z" fill="#0D1884"/>
<path d="M111.253 385.147L118.856 422.965L105.643 429.911L96.4961 394.473L111.253 385.147Z" fill="#4E87EE"/>
<path d="M95.3379 406.898C95.3379 406.898 98.0011 398.447 100.42 399.721C101.295 400.184 98.6573 407.31 98.6573 407.31L95.3379 406.898Z" fill="#FCB892"/>
<path d="M257.738 480.579V485.737C257.996 485.724 258.253 485.699 258.497 485.66V480.566H257.738V480.579Z" fill="#558AD8"/>
<path d="M256.701 480.579V485.75C256.843 485.75 256.997 485.763 257.139 485.763C257.216 485.763 257.28 485.763 257.357 485.75V480.579H256.701Z" fill="#558AD8"/>
<path d="M250.947 480.579V482.046C250.947 482.548 251.115 483.011 251.411 483.448V480.579H250.947Z" fill="#558AD8"/>
<path d="M258.896 480.579V485.609C259.154 485.557 259.411 485.506 259.656 485.441V480.579H258.896Z" fill="#558AD8"/>
<path d="M260.043 480.579V485.326C260.236 485.261 260.416 485.197 260.596 485.133V480.579H260.043Z" fill="#558AD8"/>
<path d="M252.75 480.579V484.657C252.93 484.76 253.11 484.863 253.303 484.953V480.579H252.75Z" fill="#558AD8"/>
<path d="M255.656 480.579V485.647C255.875 485.673 256.094 485.699 256.312 485.724V480.579H255.656Z" fill="#558AD8"/>
<path d="M253.689 480.579V485.133C253.87 485.21 254.05 485.274 254.243 485.326V480.579H253.689Z" fill="#558AD8"/>
<path d="M254.641 480.579V485.441C254.846 485.493 255.052 485.544 255.271 485.583V480.579H254.641Z" fill="#558AD8"/>
<path d="M251.797 480.579V483.911C251.964 484.079 252.144 484.246 252.35 484.4V480.579H251.797Z" fill="#558AD8"/>
<path d="M263.338 480.579H262.875V483.448C263.171 483.011 263.338 482.548 263.338 482.046V480.579Z" fill="#558AD8"/>
<path d="M261.934 480.579V484.4C262.139 484.246 262.32 484.079 262.487 483.911V480.579H261.934Z" fill="#558AD8"/>
<path d="M260.984 480.579V484.953C261.177 484.863 261.37 484.76 261.538 484.657V480.579H260.984Z" fill="#558AD8"/>
<path d="M251.408 480.579V483.448C251.524 483.616 251.653 483.77 251.794 483.911V480.579H251.408Z" fill="#306599"/>
<path d="M252.361 480.579V484.399C252.49 484.49 252.619 484.58 252.747 484.657V480.579H252.361Z" fill="#306599"/>
<path d="M253.303 480.579V484.953C253.431 485.017 253.56 485.068 253.689 485.12V480.566H253.303V480.579Z" fill="#306599"/>
<path d="M254.254 480.579V485.326C254.383 485.364 254.511 485.403 254.64 485.441V480.579H254.254Z" fill="#306599"/>
<path d="M255.27 480.579V485.583C255.398 485.609 255.527 485.621 255.656 485.647V480.579H255.27Z" fill="#306599"/>
<path d="M256.312 480.579V485.724C256.441 485.737 256.57 485.737 256.698 485.75V480.579H256.312Z" fill="#306599"/>
<path d="M257.355 480.579V485.75C257.484 485.75 257.613 485.75 257.741 485.737V480.579H257.355Z" fill="#306599"/>
<path d="M258.5 480.579V485.673C258.629 485.66 258.757 485.634 258.886 485.609V480.579H258.5Z" fill="#306599"/>
<path d="M262.49 480.579V483.911C262.632 483.757 262.773 483.603 262.876 483.448V480.579H262.49Z" fill="#306599"/>
<path d="M261.549 480.579V484.657C261.69 484.58 261.819 484.49 261.935 484.399V480.579H261.549Z" fill="#306599"/>
<path d="M260.596 480.579V485.133C260.724 485.081 260.853 485.017 260.982 484.965V480.592H260.596V480.579Z" fill="#306599"/>
<path d="M259.658 480.579V485.441C259.787 485.403 259.916 485.364 260.044 485.326V480.579H259.658Z" fill="#306599"/>
<path d="M257.148 476.861C253.725 476.861 250.959 478.52 250.959 480.578C250.959 482.623 253.738 484.296 257.148 484.296C260.57 484.296 263.336 482.636 263.336 480.578C263.336 478.52 260.57 476.861 257.148 476.861Z" fill="#B9D9F9"/>
<path d="M257.148 477.607C260.03 477.607 262.372 478.958 262.539 480.656C262.539 480.592 262.552 480.528 262.552 480.463C262.552 478.675 260.133 477.221 257.148 477.221C254.163 477.221 251.744 478.675 251.744 480.463C251.744 480.528 251.757 480.592 251.757 480.656C251.924 478.958 254.266 477.607 257.148 477.607Z" fill="#4281DB"/>
<path d="M257.149 483.704C260.031 483.704 262.372 482.353 262.54 480.655C262.372 478.958 260.031 477.607 257.149 477.607C254.267 477.607 251.925 478.958 251.758 480.655C251.925 482.353 254.267 483.704 257.149 483.704Z" fill="#82B1F4"/>
<path d="M263.891 480.579C264.213 480.901 263.827 481.801 263.042 482.599C262.244 483.397 261.343 483.77 261.022 483.448C260.7 483.127 261.086 482.226 261.871 481.428C262.669 480.643 263.569 480.257 263.891 480.579Z" fill="url(#paint0_radial_195_2063)"/>
<path d="M244.967 492.863V498.021C245.224 498.008 245.481 497.983 245.726 497.944V492.85H244.967V492.863Z" fill="#558AD8"/>
<path d="M243.932 492.863V498.034C244.073 498.034 244.228 498.047 244.369 498.047C244.446 498.047 244.511 498.047 244.588 498.034V492.863H243.932Z" fill="#558AD8"/>
<path d="M238.178 492.863V494.33C238.178 494.832 238.345 495.295 238.641 495.733V492.863H238.178Z" fill="#558AD8"/>
<path d="M246.113 492.863V497.893C246.371 497.841 246.628 497.79 246.872 497.726V492.863H246.113Z" fill="#558AD8"/>
<path d="M247.26 492.863V497.61C247.453 497.545 247.633 497.481 247.813 497.417V492.863H247.26Z" fill="#558AD8"/>
<path d="M239.969 492.863V496.941C240.149 497.044 240.329 497.147 240.522 497.237V492.863H239.969Z" fill="#558AD8"/>
<path d="M242.887 492.863V497.931C243.105 497.957 243.324 497.983 243.543 498.009V492.863H242.887Z" fill="#558AD8"/>
<path d="M240.92 492.863V497.417C241.1 497.494 241.28 497.558 241.473 497.61V492.863H240.92Z" fill="#558AD8"/>
<path d="M241.854 492.863V497.726C242.059 497.777 242.265 497.828 242.484 497.867V492.863H241.854Z" fill="#558AD8"/>
<path d="M239.027 492.863V496.196C239.195 496.363 239.375 496.53 239.581 496.685V492.863H239.027Z" fill="#558AD8"/>
<path d="M250.569 492.863H250.105V495.733C250.401 495.295 250.569 494.832 250.569 494.33V492.863Z" fill="#558AD8"/>
<path d="M249.152 492.863V496.685C249.358 496.53 249.538 496.363 249.706 496.196V492.863H249.152Z" fill="#558AD8"/>
<path d="M248.211 492.863V497.237C248.404 497.147 248.597 497.044 248.764 496.941V492.863H248.211Z" fill="#558AD8"/>
<path d="M238.637 492.863V495.733C238.753 495.9 238.881 496.054 239.023 496.196V492.863H238.637Z" fill="#306599"/>
<path d="M239.58 492.863V496.684C239.709 496.774 239.837 496.864 239.966 496.941V492.863H239.58Z" fill="#306599"/>
<path d="M240.533 492.863V497.237C240.662 497.301 240.791 497.352 240.919 497.404V492.85H240.533V492.863Z" fill="#306599"/>
<path d="M241.473 492.863V497.61C241.601 497.648 241.73 497.687 241.859 497.726V492.863H241.473Z" fill="#306599"/>
<path d="M242.488 492.863V497.867C242.617 497.893 242.746 497.906 242.874 497.931V492.863H242.488Z" fill="#306599"/>
<path d="M243.543 492.863V498.009C243.672 498.021 243.8 498.021 243.929 498.034V492.863H243.543Z" fill="#306599"/>
<path d="M244.586 492.863V498.034C244.715 498.034 244.843 498.034 244.972 498.021V492.863H244.586Z" fill="#306599"/>
<path d="M245.73 492.863V497.957C245.859 497.944 245.988 497.919 246.116 497.893V492.863H245.73Z" fill="#306599"/>
<path d="M249.717 492.863V496.196C249.858 496.041 250 495.887 250.103 495.733V492.863H249.717Z" fill="#306599"/>
<path d="M248.764 492.863V496.941C248.905 496.864 249.034 496.774 249.15 496.684V492.863H248.764Z" fill="#306599"/>
<path d="M247.824 492.863V497.417C247.953 497.365 248.082 497.301 248.21 497.25V492.876H247.824V492.863Z" fill="#306599"/>
<path d="M246.871 492.863V497.726C247 497.687 247.128 497.648 247.257 497.61V492.863H246.871Z" fill="#306599"/>
<path d="M244.366 489.158C240.944 489.158 238.178 490.817 238.178 492.875C238.178 494.921 240.957 496.593 244.366 496.593C247.776 496.593 250.555 494.933 250.555 492.875C250.568 490.817 247.789 489.158 244.366 489.158Z" fill="#B9D9F9"/>
<path d="M244.367 489.891C247.249 489.891 249.59 491.242 249.758 492.941C249.758 492.876 249.771 492.812 249.771 492.748C249.771 490.959 247.352 489.505 244.367 489.505C241.382 489.505 238.963 490.959 238.963 492.748C238.963 492.812 238.976 492.876 238.976 492.941C239.143 491.242 241.498 489.891 244.367 489.891Z" fill="#4281DB"/>
<path d="M244.364 496.001C247.246 496.001 249.587 494.651 249.755 492.953C249.587 491.255 247.246 489.904 244.364 489.904C241.482 489.904 239.14 491.255 238.973 492.953C239.14 494.651 241.494 496.001 244.364 496.001Z" fill="#82B1F4"/>
<path d="M251.11 492.863C251.431 493.185 251.045 494.086 250.261 494.883C249.463 495.681 248.562 496.054 248.241 495.733C247.919 495.411 248.305 494.51 249.09 493.713C249.887 492.928 250.788 492.542 251.11 492.863Z" fill="url(#paint1_radial_195_2063)"/>
<path d="M243.605 489.995V495.153C243.863 495.14 244.12 495.114 244.365 495.076V489.982H243.605V489.995Z" fill="#558AD8"/>
<path d="M242.57 489.995V495.166C242.712 495.166 242.866 495.179 243.008 495.179C243.085 495.179 243.149 495.179 243.226 495.166V489.995H242.57Z" fill="#558AD8"/>
<path d="M236.816 489.995V491.462C236.816 491.963 236.984 492.427 237.28 492.864V489.995H236.816Z" fill="#558AD8"/>
<path d="M244.752 489.995V495.024C245.009 494.973 245.267 494.921 245.511 494.857V489.995H244.752Z" fill="#558AD8"/>
<path d="M245.898 489.995V494.741C246.091 494.677 246.272 494.613 246.452 494.548V489.995H245.898Z" fill="#558AD8"/>
<path d="M238.607 489.995V494.072C238.788 494.175 238.968 494.278 239.161 494.368V489.995H238.607Z" fill="#558AD8"/>
<path d="M241.514 489.995V495.063C241.732 495.089 241.951 495.114 242.17 495.14V489.995H241.514Z" fill="#558AD8"/>
<path d="M239.559 489.995V494.548C239.739 494.626 239.919 494.69 240.112 494.741V489.995H239.559Z" fill="#558AD8"/>
<path d="M240.492 489.995V494.857C240.698 494.909 240.904 494.96 241.123 494.999V489.995H240.492Z" fill="#558AD8"/>
<path d="M237.654 489.995V493.327C237.822 493.495 238.002 493.662 238.208 493.816V489.995H237.654Z" fill="#558AD8"/>
<path d="M249.19 489.995H248.727V492.864C249.022 492.427 249.19 491.963 249.19 491.462V489.995Z" fill="#558AD8"/>
<path d="M247.791 489.995V493.816C247.997 493.662 248.177 493.495 248.344 493.327V489.995H247.791Z" fill="#558AD8"/>
<path d="M246.838 489.995V494.368C247.031 494.278 247.224 494.175 247.391 494.072V489.995H246.838Z" fill="#558AD8"/>
<path d="M237.266 489.995V492.864C237.381 493.031 237.51 493.186 237.652 493.327V489.995H237.266Z" fill="#306599"/>
<path d="M238.219 489.995V493.815C238.347 493.905 238.476 493.995 238.605 494.072V489.995H238.219Z" fill="#306599"/>
<path d="M239.16 489.995V494.368C239.289 494.433 239.417 494.484 239.546 494.536V489.982H239.16V489.995Z" fill="#306599"/>
<path d="M240.111 489.995V494.741C240.24 494.78 240.369 494.818 240.497 494.857V489.995H240.111Z" fill="#306599"/>
<path d="M241.127 489.995V494.999C241.256 495.024 241.384 495.037 241.513 495.063V489.995H241.127Z" fill="#306599"/>
<path d="M242.17 489.995V495.14C242.299 495.153 242.427 495.153 242.556 495.166V489.995H242.17Z" fill="#306599"/>
<path d="M243.207 489.995V495.166C243.336 495.166 243.464 495.166 243.593 495.153V489.995H243.207Z" fill="#306599"/>
<path d="M244.369 489.995V495.089C244.498 495.076 244.626 495.05 244.755 495.024V489.995H244.369Z" fill="#306599"/>
<path d="M248.348 489.995V493.327C248.489 493.173 248.631 493.018 248.734 492.864V489.995H248.348Z" fill="#306599"/>
<path d="M247.402 489.995V494.072C247.544 493.995 247.673 493.905 247.788 493.815V489.995H247.402Z" fill="#306599"/>
<path d="M246.451 489.995V494.548C246.58 494.497 246.708 494.433 246.837 494.381V490.008H246.451V489.995Z" fill="#306599"/>
<path d="M245.51 489.995V494.857C245.638 494.818 245.767 494.78 245.896 494.741V489.995H245.51Z" fill="#306599"/>
<path d="M243.005 486.289C239.583 486.289 236.816 487.949 236.816 490.007C236.816 492.052 239.596 493.724 243.005 493.724C246.428 493.724 249.194 492.065 249.194 490.007C249.194 487.949 246.428 486.289 243.005 486.289Z" fill="#B9D9F9"/>
<path d="M243.005 487.023C245.887 487.023 248.229 488.374 248.396 490.072C248.396 490.008 248.409 489.943 248.409 489.879C248.409 488.091 245.99 486.637 243.005 486.637C240.02 486.637 237.602 488.091 237.602 489.879C237.602 489.943 237.614 490.008 237.614 490.072C237.782 488.374 240.123 487.023 243.005 487.023Z" fill="#4281DB"/>
<path d="M243.004 493.133C245.886 493.133 248.228 491.782 248.395 490.084C248.228 488.386 245.886 487.036 243.004 487.036C240.122 487.036 237.781 488.386 237.613 490.084C237.781 491.782 240.122 493.133 243.004 493.133Z" fill="#82B1F4"/>
<path d="M249.748 489.995C250.07 490.317 249.684 491.217 248.899 492.015C248.102 492.813 247.201 493.186 246.879 492.864C246.558 492.542 246.944 491.642 247.728 490.844C248.526 490.059 249.427 489.686 249.748 489.995Z" fill="url(#paint2_radial_195_2063)"/>
<path d="M253.951 478.212V483.37C254.208 483.357 254.466 483.332 254.71 483.293V478.199H253.951V478.212Z" fill="#558AD8"/>
<path d="M252.914 478.212V483.383C253.056 483.383 253.21 483.396 253.352 483.396C253.429 483.396 253.493 483.396 253.57 483.383V478.212H252.914Z" fill="#558AD8"/>
<path d="M247.16 478.212V479.679C247.16 480.181 247.327 480.644 247.623 481.081V478.212H247.16Z" fill="#558AD8"/>
<path d="M255.109 478.212V483.242C255.367 483.19 255.624 483.139 255.868 483.074V478.212H255.109Z" fill="#558AD8"/>
<path d="M256.256 478.212V482.959C256.449 482.894 256.629 482.83 256.809 482.766V478.212H256.256Z" fill="#558AD8"/>
<path d="M248.963 478.212V482.29C249.143 482.393 249.323 482.496 249.516 482.586V478.212H248.963Z" fill="#558AD8"/>
<path d="M251.869 478.212V483.28C252.088 483.306 252.307 483.332 252.525 483.357V478.212H251.869Z" fill="#558AD8"/>
<path d="M249.902 478.212V482.766C250.082 482.843 250.263 482.907 250.456 482.959V478.212H249.902Z" fill="#558AD8"/>
<path d="M250.854 478.212V483.074C251.059 483.126 251.265 483.177 251.484 483.216V478.212H250.854Z" fill="#558AD8"/>
<path d="M248.01 478.212V481.544C248.177 481.712 248.357 481.879 248.563 482.033V478.212H248.01Z" fill="#558AD8"/>
<path d="M259.551 478.212H259.088V481.081C259.384 480.644 259.551 480.181 259.551 479.679V478.212Z" fill="#558AD8"/>
<path d="M258.146 478.212V482.033C258.352 481.879 258.532 481.712 258.7 481.544V478.212H258.146Z" fill="#558AD8"/>
<path d="M257.197 478.212V482.586C257.39 482.496 257.583 482.393 257.751 482.29V478.212H257.197Z" fill="#558AD8"/>
<path d="M247.621 478.212V481.081C247.737 481.249 247.866 481.403 248.007 481.544V478.212H247.621Z" fill="#306599"/>
<path d="M248.574 478.212V482.032C248.703 482.123 248.832 482.213 248.96 482.29V478.212H248.574Z" fill="#306599"/>
<path d="M249.516 478.212V482.586C249.644 482.65 249.773 482.701 249.902 482.753V478.199H249.516V478.212Z" fill="#306599"/>
<path d="M250.467 478.212V482.959C250.595 482.997 250.724 483.036 250.853 483.074V478.212H250.467Z" fill="#306599"/>
<path d="M251.482 478.212V483.216C251.611 483.242 251.74 483.254 251.868 483.28V478.212H251.482Z" fill="#306599"/>
<path d="M252.525 478.212V483.357C252.654 483.37 252.783 483.37 252.911 483.383V478.212H252.525Z" fill="#306599"/>
<path d="M253.57 478.212V483.383C253.699 483.383 253.828 483.383 253.956 483.37V478.212H253.57Z" fill="#306599"/>
<path d="M254.713 478.212V483.306C254.842 483.293 254.97 483.267 255.099 483.242V478.212H254.713Z" fill="#306599"/>
<path d="M258.703 478.212V481.544C258.845 481.39 258.986 481.236 259.089 481.081V478.212H258.703Z" fill="#306599"/>
<path d="M257.762 478.212V482.29C257.903 482.213 258.032 482.123 258.148 482.032V478.212H257.762Z" fill="#306599"/>
<path d="M256.809 478.212V482.766C256.937 482.714 257.066 482.65 257.195 482.598V478.225H256.809V478.212Z" fill="#306599"/>
<path d="M255.857 478.212V483.074C255.986 483.036 256.115 482.997 256.243 482.959V478.212H255.857Z" fill="#306599"/>
<path d="M253.361 474.494C249.938 474.494 247.172 476.153 247.172 478.211C247.172 480.257 249.951 481.929 253.361 481.929C256.783 481.929 259.549 480.269 259.549 478.211C259.549 476.153 256.783 474.494 253.361 474.494Z" fill="#B9D9F9"/>
<path d="M253.361 475.227C256.243 475.227 258.585 476.578 258.752 478.277C258.752 478.212 258.765 478.148 258.765 478.084C258.765 476.295 256.346 474.841 253.361 474.841C250.376 474.841 247.957 476.295 247.957 478.084C247.957 478.148 247.97 478.212 247.97 478.277C248.137 476.578 250.479 475.227 253.361 475.227Z" fill="#4281DB"/>
<path d="M253.36 481.337C256.242 481.337 258.583 479.987 258.751 478.289C258.583 476.591 256.242 475.24 253.36 475.24C250.478 475.24 248.136 476.591 247.969 478.289C248.136 479.987 250.478 481.337 253.36 481.337Z" fill="#82B1F4"/>
<path d="M260.104 478.212C260.426 478.534 260.04 479.434 259.255 480.232C258.457 481.03 257.556 481.403 257.235 481.081C256.913 480.76 257.299 479.859 258.084 479.061C258.882 478.264 259.782 477.891 260.104 478.212Z" fill="url(#paint3_radial_195_2063)"/>
<path d="M256.129 473.916V479.074C256.386 479.061 256.644 479.035 256.888 478.997V473.903H256.129V473.916Z" fill="#558AD8"/>
<path d="M255.092 473.916V479.087C255.233 479.087 255.388 479.1 255.529 479.1C255.606 479.1 255.671 479.1 255.748 479.087V473.916H255.092Z" fill="#558AD8"/>
<path d="M249.338 473.916V475.383C249.338 475.884 249.505 476.347 249.801 476.785V473.916H249.338Z" fill="#558AD8"/>
<path d="M257.287 473.916V478.945C257.544 478.894 257.802 478.842 258.046 478.778V473.916H257.287Z" fill="#558AD8"/>
<path d="M258.434 473.916V478.662C258.627 478.598 258.807 478.534 258.987 478.469V473.916H258.434Z" fill="#558AD8"/>
<path d="M251.141 473.916V477.993C251.321 478.096 251.501 478.199 251.694 478.289V473.916H251.141Z" fill="#558AD8"/>
<path d="M254.047 473.916V478.984C254.266 479.01 254.484 479.035 254.703 479.061V473.916H254.047Z" fill="#558AD8"/>
<path d="M252.08 473.916V478.469C252.26 478.546 252.44 478.611 252.633 478.662V473.916H252.08Z" fill="#558AD8"/>
<path d="M253.031 473.916V478.778C253.237 478.829 253.443 478.881 253.662 478.92V473.916H253.031Z" fill="#558AD8"/>
<path d="M250.188 473.916V477.248C250.355 477.415 250.535 477.583 250.741 477.737V473.916H250.188Z" fill="#558AD8"/>
<path d="M261.729 473.916H261.266V476.785C261.562 476.347 261.729 475.884 261.729 475.383V473.916Z" fill="#558AD8"/>
<path d="M260.324 473.916V477.737C260.53 477.583 260.71 477.415 260.877 477.248V473.916H260.324Z" fill="#558AD8"/>
<path d="M259.375 473.916V478.289C259.568 478.199 259.761 478.096 259.928 477.993V473.916H259.375Z" fill="#558AD8"/>
<path d="M249.799 473.916V476.785C249.915 476.952 250.043 477.107 250.185 477.248V473.916H249.799Z" fill="#306599"/>
<path d="M250.752 473.916V477.736C250.881 477.826 251.009 477.916 251.138 477.993V473.916H250.752Z" fill="#306599"/>
<path d="M251.693 473.916V478.289C251.822 478.354 251.951 478.405 252.079 478.456V473.903H251.693V473.916Z" fill="#306599"/>
<path d="M252.645 473.916V478.662C252.773 478.701 252.902 478.739 253.031 478.778V473.916H252.645Z" fill="#306599"/>
<path d="M253.66 473.916V478.92C253.789 478.945 253.917 478.958 254.046 478.984V473.916H253.66Z" fill="#306599"/>
<path d="M254.703 473.916V479.061C254.832 479.074 254.96 479.074 255.089 479.087V473.916H254.703Z" fill="#306599"/>
<path d="M255.746 473.916V479.087C255.875 479.087 256.003 479.087 256.132 479.074V473.916H255.746Z" fill="#306599"/>
<path d="M256.891 473.916V479.01C257.019 478.997 257.148 478.971 257.277 478.945V473.916H256.891Z" fill="#306599"/>
<path d="M260.881 473.916V477.248C261.022 477.094 261.164 476.939 261.267 476.785V473.916H260.881Z" fill="#306599"/>
<path d="M259.939 473.916V477.993C260.081 477.916 260.21 477.826 260.325 477.736V473.916H259.939Z" fill="#306599"/>
<path d="M258.986 473.916V478.469C259.115 478.418 259.244 478.354 259.372 478.302V473.929H258.986V473.916Z" fill="#306599"/>
<path d="M258.049 473.916V478.778C258.177 478.739 258.306 478.701 258.435 478.662V473.916H258.049Z" fill="#306599"/>
<path d="M255.538 470.198C252.116 470.198 249.35 471.857 249.35 473.915C249.35 475.96 252.129 477.632 255.538 477.632C258.961 477.632 261.727 475.973 261.727 473.915C261.727 471.857 258.961 470.198 255.538 470.198Z" fill="#B9D9F9"/>
<path d="M255.539 470.944C258.421 470.944 260.762 472.295 260.93 473.993C260.93 473.929 260.942 473.864 260.942 473.8C260.942 472.012 258.524 470.558 255.539 470.558C252.554 470.558 250.135 472.012 250.135 473.8C250.135 473.864 250.148 473.929 250.148 473.993C250.315 472.295 252.656 470.944 255.539 470.944Z" fill="#4281DB"/>
<path d="M255.539 477.041C258.421 477.041 260.763 475.69 260.93 473.992C260.763 472.294 258.421 470.944 255.539 470.944C252.657 470.944 250.316 472.294 250.148 473.992C250.316 475.69 252.657 477.041 255.539 477.041Z" fill="#82B1F4"/>
<path d="M262.282 473.916C262.603 474.237 262.217 475.138 261.432 475.936C260.635 476.734 259.734 477.107 259.412 476.785C259.091 476.463 259.477 475.563 260.262 474.765C261.059 473.98 261.96 473.594 262.282 473.916Z" fill="url(#paint4_radial_195_2063)"/>
<path d="M272.502 477.555V482.714C272.759 482.701 273.017 482.675 273.261 482.636V477.543H272.502V477.555Z" fill="#558AD8"/>
<path d="M271.465 477.555V482.726C271.606 482.726 271.761 482.739 271.902 482.739C271.98 482.739 272.044 482.739 272.121 482.726V477.555H271.465Z" fill="#558AD8"/>
<path d="M265.711 477.555V479.022C265.711 479.524 265.878 479.987 266.174 480.425V477.555H265.711Z" fill="#558AD8"/>
<path d="M273.66 477.555V482.585C273.917 482.533 274.175 482.482 274.419 482.418V477.555H273.66Z" fill="#558AD8"/>
<path d="M274.807 477.555V482.302C275 482.238 275.18 482.173 275.36 482.109V477.555H274.807Z" fill="#558AD8"/>
<path d="M267.514 477.555V481.633C267.694 481.736 267.874 481.839 268.067 481.929V477.555H267.514Z" fill="#558AD8"/>
<path d="M270.42 477.555V482.623C270.639 482.649 270.857 482.675 271.076 482.701V477.555H270.42Z" fill="#558AD8"/>
<path d="M268.453 477.555V482.109C268.633 482.186 268.813 482.25 269.006 482.302V477.555H268.453Z" fill="#558AD8"/>
<path d="M269.404 477.555V482.418C269.61 482.469 269.816 482.521 270.035 482.559V477.555H269.404Z" fill="#558AD8"/>
<path d="M266.561 477.555V480.888C266.728 481.055 266.908 481.222 267.114 481.377V477.555H266.561Z" fill="#558AD8"/>
<path d="M278.102 477.555H277.639V480.425C277.935 479.987 278.102 479.524 278.102 479.022V477.555Z" fill="#558AD8"/>
<path d="M276.697 477.555V481.377C276.903 481.222 277.083 481.055 277.251 480.888V477.555H276.697Z" fill="#558AD8"/>
<path d="M275.748 477.555V481.929C275.941 481.839 276.134 481.736 276.301 481.633V477.555H275.748Z" fill="#558AD8"/>
<path d="M266.172 477.555V480.425C266.288 480.592 266.416 480.746 266.558 480.888V477.555H266.172Z" fill="#306599"/>
<path d="M267.125 477.555V481.376C267.254 481.466 267.382 481.556 267.511 481.633V477.555H267.125Z" fill="#306599"/>
<path d="M268.066 477.555V481.929C268.195 481.993 268.324 482.045 268.452 482.096V477.543H268.066V477.555Z" fill="#306599"/>
<path d="M269.018 477.555V482.302C269.146 482.34 269.275 482.379 269.404 482.418V477.555H269.018Z" fill="#306599"/>
<path d="M270.033 477.555V482.559C270.162 482.585 270.291 482.598 270.419 482.623V477.555H270.033Z" fill="#306599"/>
<path d="M271.076 477.555V482.701C271.205 482.714 271.333 482.713 271.462 482.726V477.555H271.076Z" fill="#306599"/>
<path d="M272.121 477.555V482.726C272.25 482.726 272.378 482.726 272.507 482.714V477.555H272.121Z" fill="#306599"/>
<path d="M273.264 477.555V482.649C273.392 482.636 273.521 482.611 273.65 482.585V477.555H273.264Z" fill="#306599"/>
<path d="M277.254 477.555V480.888C277.395 480.733 277.537 480.579 277.64 480.425V477.555H277.254Z" fill="#306599"/>
<path d="M276.312 477.555V481.633C276.454 481.556 276.583 481.466 276.698 481.376V477.555H276.312Z" fill="#306599"/>
<path d="M275.359 477.555V482.109C275.488 482.057 275.617 481.993 275.745 481.942V477.568H275.359V477.555Z" fill="#306599"/>
<path d="M274.422 477.555V482.418C274.551 482.379 274.679 482.34 274.808 482.302V477.555H274.422Z" fill="#306599"/>
<path d="M271.915 473.839C268.493 473.839 265.727 475.498 265.727 477.556C265.727 479.602 268.506 481.274 271.915 481.274C275.338 481.274 278.104 479.614 278.104 477.556C278.104 475.498 275.338 473.839 271.915 473.839Z" fill="#B9D9F9"/>
<path d="M271.912 474.572C274.794 474.572 277.135 475.923 277.303 477.622C277.303 477.557 277.315 477.493 277.315 477.429C277.315 475.64 274.897 474.186 271.912 474.186C268.927 474.186 266.508 475.64 266.508 477.429C266.508 477.493 266.521 477.557 266.521 477.622C266.688 475.923 269.03 474.572 271.912 474.572Z" fill="#4281DB"/>
<path d="M271.91 480.681C274.793 480.681 277.134 479.331 277.301 477.633C277.134 475.935 274.793 474.584 271.91 474.584C269.028 474.584 266.687 475.935 266.52 477.633C266.687 479.331 269.028 480.681 271.91 480.681Z" fill="#82B1F4"/>
<path d="M278.657 477.555C278.978 477.877 278.592 478.778 277.807 479.575C277.01 480.373 276.109 480.746 275.787 480.425C275.466 480.103 275.852 479.202 276.637 478.404C277.434 477.607 278.335 477.234 278.657 477.555Z" fill="url(#paint5_radial_195_2063)"/>
<defs>
<radialGradient id="paint0_radial_195_2063" cx="0" cy="0" r="1" gradientUnits="userSpaceOnUse" gradientTransform="translate(262.472 482.041) rotate(-45) scale(2.02756 0.821518)">
<stop stop-color="white"/>
<stop offset="0.9998" stop-color="white" stop-opacity="0"/>
<stop offset="1"/>
</radialGradient>
<radialGradient id="paint1_radial_195_2063" cx="0" cy="0" r="1" gradientUnits="userSpaceOnUse" gradientTransform="translate(249.697 494.333) rotate(-45.0005) scale(2.02758 0.821528)">
<stop stop-color="white"/>
<stop offset="0.9998" stop-color="white" stop-opacity="0"/>
<stop offset="1"/>
</radialGradient>
<radialGradient id="paint2_radial_195_2063" cx="0" cy="0" r="1" gradientUnits="userSpaceOnUse" gradientTransform="translate(248.332 491.465) rotate(-45) scale(2.02757 0.821521)">
<stop stop-color="white"/>
<stop offset="0.9998" stop-color="white" stop-opacity="0"/>
<stop offset="1"/>
</radialGradient>
<radialGradient id="paint3_radial_195_2063" cx="0" cy="0" r="1" gradientUnits="userSpaceOnUse" gradientTransform="translate(258.684 479.672) rotate(-44.9994) scale(2.02758 0.821527)">
<stop stop-color="white"/>
<stop offset="0.9998" stop-color="white" stop-opacity="0"/>
<stop offset="1"/>
</radialGradient>
<radialGradient id="paint4_radial_195_2063" cx="0" cy="0" r="1" gradientUnits="userSpaceOnUse" gradientTransform="translate(260.863 475.379) rotate(-45.0001) scale(2.02756 0.821519)">
<stop stop-color="white"/>
<stop offset="0.9998" stop-color="white" stop-opacity="0"/>
<stop offset="1"/>
</radialGradient>
<radialGradient id="paint5_radial_195_2063" cx="0" cy="0" r="1" gradientUnits="userSpaceOnUse" gradientTransform="translate(277.239 479.017) rotate(-44.9995) scale(2.02758 0.821528)">
<stop stop-color="white"/>
<stop offset="0.9998" stop-color="white" stop-opacity="0"/>
<stop offset="1"/>
</radialGradient>
</defs>
</svg>
