<svg width="16" height="21" viewBox="0 0 16 21" fill="none" xmlns="http://www.w3.org/2000/svg">
<path d="M5.36624 0.624999C5.36624 0.279821 5.64607 0 5.99125 0C6.33642 0 6.61625 0.279822 6.61625 0.625V20C6.61625 20.3452 6.33642 20.625 5.99125 20.625C5.64607 20.625 5.36624 20.3452 5.36624 20V0.624999Z" fill="white"/>
<path d="M0.683079 15.576C0.439002 15.3319 0.439002 14.9361 0.68308 14.6921C0.927157 14.448 1.32289 14.448 1.56696 14.6921L6.42832 19.5534C6.6724 19.7975 6.6724 20.1932 6.42832 20.4373C6.18424 20.6814 5.78852 20.6814 5.54444 20.4373L0.683079 15.576Z" fill="white"/>
<path d="M10.5 20C10.5 20.3452 10.2202 20.625 9.87503 20.625C9.52985 20.625 9.25003 20.3452 9.25003 20L9.25002 0.625001C9.25002 0.279822 9.52985 5.10236e-07 9.87502 4.8006e-07C10.2202 4.49884e-07 10.5 0.279822 10.5 0.625L10.5 20Z" fill="white"/>
<path d="M15.1832 5.04905C15.4273 5.29312 15.4273 5.68885 15.1832 5.93293C14.9391 6.17701 14.5434 6.17701 14.2993 5.93293L9.43795 1.07157C9.19387 0.827492 9.19387 0.431763 9.43795 0.187686C9.68203 -0.0563922 10.0778 -0.0563922 10.3218 0.187685L15.1832 5.04905Z" fill="white"/>
</svg>
