<svg width="24" height="24" viewBox="0 0 24 24" fill="none" xmlns="http://www.w3.org/2000/svg"><circle cx="12" cy="12" r="11.5" stroke="#77BCFC"/><path d="M11.23 14.22c0-.492.078-.924.234-1.296a3.62 3.62 0 01.612-.954c.24-.264.552-.564.936-.9.516-.456.894-.852 1.134-1.188.252-.348.378-.768.378-1.26 0-.66-.258-1.188-.774-1.584-.516-.408-1.224-.612-2.124-.612-1.488 0-2.634.486-3.438 1.458l-.954-.72c1.02-1.248 2.514-1.872 4.482-1.872 1.26 0 2.262.282 3.006.846.756.564 1.134 1.326 1.134 2.286 0 .492-.084.93-.252 1.314a3.3 3.3 0 01-.594.954c-.228.264-.534.57-.918.918-.516.468-.9.888-1.152 1.26-.252.36-.378.81-.378 1.35H11.23zm.666 3.87a.905.905 0 01-.666-.27.945.945 0 01-.27-.666c0-.264.09-.48.27-.648.18-.18.402-.27.666-.27.276 0 .504.09.684.27.18.168.27.384.27.648a.914.914 0 01-.288.666.905.905 0 01-.666.27z" fill="#77BCFC"/></svg>