<svg width="22" height="22" viewBox="0 0 22 22" fill="none" xmlns="http://www.w3.org/2000/svg">
<circle cx="11" cy="11" r="10.5" stroke="#1399FF"/>
<path d="M10.6467 14.1367C10.6467 13.6447 10.7247 13.2127 10.8807 12.8407C11.0487 12.4687 11.2527 12.1507 11.4927 11.8867C11.7327 11.6227 12.0447 11.3227 12.4287 10.9867C12.9447 10.5307 13.3227 10.1347 13.5627 9.79868C13.8147 9.45068 13.9407 9.03068 13.9407 8.53868C13.9407 7.87868 13.6827 7.35068 13.1667 6.95468C12.6507 6.54668 11.9427 6.34268 11.0427 6.34268C9.55467 6.34268 8.40867 6.82868 7.60467 7.80068L6.65067 7.08068C7.67067 5.83268 9.16467 5.20868 11.1327 5.20868C12.3927 5.20868 13.3947 5.49068 14.1387 6.05468C14.8947 6.61868 15.2727 7.38068 15.2727 8.34068C15.2727 8.83268 15.1887 9.27068 15.0207 9.65468C14.8647 10.0267 14.6667 10.3447 14.4267 10.6087C14.1987 10.8727 13.8927 11.1787 13.5087 11.5267C12.9927 11.9947 12.6087 12.4147 12.3567 12.7867C12.1047 13.1467 11.9787 13.5967 11.9787 14.1367H10.6467ZM11.3127 18.0067C11.0487 18.0067 10.8267 17.9167 10.6467 17.7367C10.4667 17.5447 10.3767 17.3227 10.3767 17.0707C10.3767 16.8067 10.4667 16.5907 10.6467 16.4227C10.8267 16.2427 11.0487 16.1527 11.3127 16.1527C11.5887 16.1527 11.8167 16.2427 11.9967 16.4227C12.1767 16.5907 12.2667 16.8067 12.2667 17.0707C12.2667 17.3227 12.1707 17.5447 11.9787 17.7367C11.7987 17.9167 11.5767 18.0067 11.3127 18.0067Z" fill="#1399FF"/>
</svg>
