<svg width="31" height="40" viewBox="0 0 31 40" fill="none" xmlns="http://www.w3.org/2000/svg">
<path d="M0 4.66671V39.3333C0 39.7015 0.30174 40 0.673987 40H26.2827C26.6547 40 26.9564 39.7015 26.9564 39.3333V11.3335C26.9564 11.3187 26.9492 11.3061 26.9478 11.2915C26.9445 11.233 26.9328 11.1754 26.9134 11.1202C26.9059 11.0988 26.9006 11.0782 26.8912 11.0573C26.8584 10.9848 26.8129 10.9186 26.7563 10.8621L20.0173 4.19549C19.9601 4.13919 19.8929 4.09416 19.8191 4.06203C19.7988 4.05352 19.7783 4.04638 19.7572 4.04006C19.7008 4.02084 19.6422 4.00931 19.5826 4.00546C19.5712 4.00738 19.5578 4.00024 19.5437 4.00024H0.673987C0.30174 4.00024 0 4.29846 0 4.66671ZM24.6558 10.6668H20.2174V6.27616L24.6558 10.6668ZM1.3477 5.33345H18.8697V11.3335C18.8697 11.7015 19.1714 12 19.5434 12H25.6087V38.6668H1.3477V5.33345Z" fill="#77BCFC"/>
<path d="M28.304 34.6666V35.9998H30.3257C30.6979 35.9998 30.9997 35.7015 30.9997 35.3333V0.666738C30.9997 0.298495 30.6979 0 30.3257 0H4.71696C4.34471 0 4.04297 0.298495 4.04297 0.666738V2.66668H5.39094V1.3332H29.6517V34.6666H28.304Z" fill="#77BCFC"/>
<path d="M5.39062 13.3335H21.5644V14.666H5.39062V13.3335Z" fill="#77BCFC"/>
<path d="M5.39062 9.33325H10.782V10.6661H5.39062V9.33325Z" fill="#77BCFC"/>
<path d="M5.39062 17.3335H16.1733V18.6663H5.39062V17.3335Z" fill="#77BCFC"/>
<path d="M17.5195 17.3335H21.5629V18.6663H17.5195V17.3335Z" fill="#77BCFC"/>
<path d="M5.39062 21.3333H21.5644V22.6661H5.39062V21.3333Z" fill="#77BCFC"/>
<path d="M5.39062 29.3333H21.5644V30.6661H5.39062V29.3333Z" fill="#77BCFC"/>
<path d="M11.4551 25.3335H21.5638V26.666H11.4551V25.3335Z" fill="#77BCFC"/>
<path d="M5.39062 25.3335H10.108V26.666H5.39062V25.3335Z" fill="#77BCFC"/>
<path d="M5.39062 33.3333H8.0863V34.6658H5.39062V33.3333Z" fill="#77BCFC"/>
<path d="M9.43555 33.3333H21.5659V34.6658H9.43555V33.3333Z" fill="#77BCFC"/>
</svg>
