<svg width="340" height="340" viewBox="0 0 340 340" fill="none" xmlns="http://www.w3.org/2000/svg">
<mask id="mask0_4_3" style="mask-type:alpha" maskUnits="userSpaceOnUse" x="0" y="0" width="340" height="340">
<circle cx="170" cy="170" r="169" fill="#C4C4C4" stroke="black" stroke-width="2"/>
</mask>
<g mask="url(#mask0_4_3)">
<circle cx="170" cy="170" r="170" fill="#ECF4FF"/>
<path d="M126.236 174.651C84.8973 183.45 43 207.458 43 268.028C43 322.154 122.072 339.665 169.75 339.665C217.429 339.665 297 323.646 297 269.52C297 211.333 254.233 184.467 212.733 174.665C202.036 188.384 187.073 196.888 170.249 196.888C153.419 196.888 137.689 188.378 126.236 174.651Z" fill="#C4DCFF"/>
<path d="M229.749 112.999C229.749 154.421 203.663 187.999 170.249 187.999C136.836 187.999 107.749 154.421 107.749 112.999C107.749 48.9994 134.836 36.9994 168.249 36.9994C201.663 36.9994 229.749 48.9994 229.749 112.999Z" fill="#C4DCFF"/>
</g>
</svg>
