<svg width="280" height="205" viewBox="0 0 280 205" fill="none" xmlns="http://www.w3.org/2000/svg">
<path d="M159.463 60.4181L129.075 42.1778C128.433 41.7924 128.433 41.1622 129.075 40.7728L146.346 30.4043C146.988 30.0189 148.039 30.0189 148.685 30.4043L179.074 48.6446C179.716 49.0299 179.716 49.6602 179.074 50.0495L161.803 60.4181C161.157 60.8035 160.105 60.8035 159.463 60.4181Z" fill="#D7E9FF"/>
<path d="M156.703 59.6956L137.742 48.7449V25.6675L156.703 36.6181V59.6956Z" fill="#B5CBE5"/>
<path d="M156.703 59.6956L175.663 48.7449V25.6675L156.703 36.6181V59.6956Z" fill="#C3D7F4"/>
<path d="M158.786 37.9509V55.9544L173.577 47.4122V29.4088L158.786 37.9509ZM172.842 46.9426L159.524 54.6337V38.4205L172.842 30.7294V46.9426Z" fill="#B5CBE5"/>
<path d="M156.703 41.0096L137.742 30.059V26.1974L156.703 37.148V41.0096Z" fill="#A9C2E0"/>
<path d="M156.703 41.0096L175.663 30.059V25.5029L156.703 36.4536V41.0096Z" fill="#BBD0EA"/>
<path d="M156.704 37.148L136.539 25.5029L156.579 13.9301L176.743 25.5752L156.704 37.148Z" fill="#E0EBFC"/>
<path d="M156.703 39.4722L136.539 27.8232V25.503L156.703 37.148V39.4722Z" fill="#B5CBE5"/>
<path d="M156.703 39.4722L176.867 27.8232V25.503L156.703 37.148V39.4722Z" fill="#C3D7F4"/>
<path d="M170.631 38.8984C170.631 39.2518 170.411 39.6654 170.138 39.8261C169.865 39.9827 169.644 39.8261 169.644 39.4727C169.644 39.1193 169.865 38.7056 170.138 38.545C170.411 38.3844 170.631 38.545 170.631 38.8984Z" fill="#A9C2E0"/>
<path d="M170.716 38.9345C170.716 39.2959 170.491 39.7176 170.214 39.8822C169.937 40.0429 169.712 39.8823 169.712 39.5208C169.712 39.1594 169.937 38.7377 170.214 38.5731C170.491 38.4124 170.716 38.5731 170.716 38.9345Z" fill="#ACC4E2"/>
<path d="M170.797 38.9749C170.797 39.3443 170.568 39.774 170.283 39.9427C169.998 40.1074 169.769 39.9427 169.769 39.5732C169.769 39.2038 169.998 38.7741 170.283 38.6054C170.568 38.4408 170.797 38.6054 170.797 38.9749Z" fill="#AEC6E4"/>
<path d="M170.881 39.0111C170.881 39.3886 170.648 39.8264 170.356 39.995C170.067 40.1637 169.83 39.995 169.83 39.6175C169.83 39.24 170.063 38.8023 170.356 38.6336C170.644 38.469 170.881 38.6377 170.881 39.0111Z" fill="#B1C9E6"/>
<path d="M170.962 39.0514C170.962 39.4329 170.721 39.8827 170.428 40.0554C170.131 40.2281 169.894 40.0554 169.894 39.6739C169.894 39.2924 170.135 38.8426 170.428 38.6699C170.725 38.4932 170.962 38.6659 170.962 39.0514Z" fill="#B4CBE8"/>
<path d="M171.045 39.087C171.045 39.4766 170.8 39.9344 170.499 40.1111C170.198 40.2878 169.953 40.1111 169.953 39.7215C169.953 39.332 170.198 38.8742 170.499 38.6975C170.8 38.5208 171.045 38.6975 171.045 39.087Z" fill="#B6CDEA"/>
<path d="M171.129 39.1232C171.129 39.5208 170.88 39.9906 170.575 40.1673C170.27 40.344 170.021 40.1673 170.021 39.7697C170.021 39.3722 170.27 38.9063 170.575 38.7256C170.88 38.5489 171.129 38.7256 171.129 39.1232Z" fill="#B9CFEC"/>
<path d="M171.209 39.1633C171.209 39.5689 170.957 40.0468 170.644 40.2275C170.331 40.4082 170.078 40.2275 170.078 39.8219C170.078 39.4163 170.331 38.9384 170.644 38.7577C170.957 38.5769 171.209 38.7577 171.209 39.1633Z" fill="#BCD1EE"/>
<path d="M171.294 39.1994C171.294 39.613 171.037 40.0989 170.72 40.2837C170.403 40.4684 170.146 40.2837 170.146 39.87C170.146 39.4564 170.403 38.9705 170.72 38.7858C171.037 38.601 171.294 38.7857 171.294 39.1994Z" fill="#BFD3F0"/>
<path d="M171.374 39.2396C171.374 39.6612 171.113 40.1552 170.788 40.3399C170.463 40.5287 170.202 40.3399 170.202 39.9183C170.202 39.4966 170.463 39.0026 170.788 38.8179C171.113 38.6292 171.374 38.8179 171.374 39.2396Z" fill="#C1D6F1"/>
<path d="M171.458 39.2757C171.458 39.7054 171.189 40.2074 170.86 40.3961C170.531 40.5889 170.262 40.3961 170.262 39.9704C170.262 39.5447 170.527 39.0387 170.86 38.85C171.189 38.6572 171.458 38.85 171.458 39.2757Z" fill="#C4D8F3"/>
<path d="M171.542 39.3158C171.542 39.7495 171.27 40.2635 170.937 40.4563C170.603 40.653 170.331 40.4563 170.331 40.0226C170.331 39.5889 170.603 39.0748 170.937 38.8821C171.27 38.6853 171.542 38.878 171.542 39.3158Z" fill="#C7DAF5"/>
<path d="M171.623 39.3519C171.623 39.7936 171.346 40.3157 171.005 40.5125C170.664 40.7092 170.387 40.5125 170.387 40.0707C170.387 39.629 170.664 39.1069 171.005 38.9101C171.346 38.7093 171.623 38.9101 171.623 39.3519Z" fill="#C9DCF7"/>
<path d="M171.707 39.3881C171.707 39.8378 171.426 40.3679 171.081 40.5687C170.736 40.7695 170.455 40.5687 170.455 40.1189C170.455 39.6692 170.736 39.1391 171.081 38.9383C171.426 38.7375 171.707 38.9383 171.707 39.3881Z" fill="#CCDEF9"/>
<path d="M171.787 39.4282C171.787 39.886 171.502 40.4241 171.149 40.6289C170.796 40.8337 170.511 40.6289 170.511 40.1711C170.511 39.7133 170.796 39.1752 171.149 38.9704C171.502 38.7656 171.787 38.9704 171.787 39.4282Z" fill="#CFE1FB"/>
<path d="M171.871 39.4643C171.871 39.9301 171.583 40.4763 171.225 40.6811C170.868 40.8899 170.579 40.6811 170.579 40.2152C170.579 39.7494 170.868 39.2032 171.225 38.9984C171.583 38.7936 171.871 38.9984 171.871 39.4643Z" fill="#D1E3FD"/>
<path d="M171.951 39.5044C171.951 39.9782 171.659 40.5324 171.293 40.7413C170.928 40.9541 170.635 40.7413 170.635 40.2674C170.635 39.7935 170.928 39.2393 171.293 39.0305C171.659 38.8177 171.951 39.0305 171.951 39.5044Z" fill="#D4E5FF"/>
<path d="M176.466 200.155L22.2259 107.58C18.9635 105.622 18.9635 102.418 22.2259 100.459L109.893 47.8417C113.156 45.8828 118.497 45.8828 121.759 47.8417L275.999 140.416C279.261 142.375 279.261 145.578 275.999 147.537L188.331 200.155C185.069 202.114 179.728 202.114 176.466 200.155Z" fill="#D7E9FF"/>
<path d="M134.636 56.9267L43.4495 113.988V60.138L134.476 5.7984L134.636 56.9267Z" fill="#B8D3F2"/>
<path d="M182.324 192.761L177.561 195.571V173.356L182.324 170.398V192.761Z" fill="#A9C2E0"/>
<path d="M172.794 192.696L177.561 195.571V173.356L172.794 170.679V192.696Z" fill="#C4DCFF"/>
<path d="M52.9796 115.047L48.2124 117.861V95.6423L52.9796 92.6879V115.047Z" fill="#A9C2E0"/>
<path d="M43.4492 114.982L48.2124 117.861V95.6422L43.4492 92.9688V114.982Z" fill="#C4DCFF"/>
<path d="M268.74 140.757L263.973 143.571V121.353L268.74 118.399V140.757Z" fill="#A9C2E0"/>
<path d="M259.209 140.693L263.973 143.571V121.353L259.209 118.679V140.693Z" fill="#C4DCFF"/>
<path d="M268.74 118.631L177.561 173.356L43.4497 92.8605L134.624 38.1355L268.74 118.631Z" fill="#ECF4FF"/>
<path d="M177.561 173.356V184.817L43.4492 104.321V92.8605L177.561 173.356Z" fill="#C4DCFF"/>
<path d="M268.74 118.631V130.092L177.561 184.817V173.356L268.74 118.631Z" fill="#B8D3F2"/>
<path d="M43.3131 60.8998L38.9792 58.2545L130.571 3.58163L134.476 5.79746L43.3131 60.8998Z" fill="#ECF4FF"/>
<path d="M38.9792 58.0056L43.3131 60.6549L43.4495 104.357L39.0675 101.7L38.9792 58.0056Z" fill="#C4DCFF"/>
<path d="M99.4718 79.8265C99.4718 79.8265 94.3595 70.6903 81.6671 69.5703C81.6671 69.5703 69.2114 74.58 61.3423 81.2997C61.3423 81.2997 67.4457 88.5292 79.147 91.5559C79.147 91.5559 92.943 86.5301 99.4718 79.8265Z" fill="#B5CBE5"/>
<path d="M99.4723 77.3658C99.4723 77.3658 94.36 68.2296 81.6676 67.1096C81.6676 67.1096 69.2119 72.1193 61.3428 78.839C61.3428 78.839 67.4462 86.0685 79.1475 89.0952C79.1475 89.0952 92.9435 84.0734 99.4723 77.3658Z" fill="#E0EBFC"/>
<path d="M79.6406 88.7861C79.5724 88.8543 79.4922 88.9225 79.4239 88.9908C79.2594 89.051 79.147 89.0952 79.147 89.0952C67.4498 86.0685 61.3423 78.839 61.3423 78.839C61.4266 78.7667 61.5188 78.6945 61.6071 78.6222C61.7436 78.566 61.8359 78.5259 61.8359 78.5259C74.5323 79.6498 79.6406 88.7861 79.6406 88.7861Z" fill="#C3D7F4"/>
<path d="M133.191 60.0648C133.191 60.0648 128.079 50.9286 115.387 49.8087C115.387 49.8087 102.931 54.8183 95.0618 61.538C95.0618 61.538 101.165 68.7675 112.867 71.7942C112.867 71.7942 126.663 66.7685 133.191 60.0648Z" fill="#B5CBE5"/>
<path d="M133.192 57.6042C133.192 57.6042 128.08 48.468 115.387 47.348C115.387 47.348 102.932 52.3577 95.0625 59.0774C95.0625 59.0774 101.166 66.3069 112.867 69.3335C112.867 69.3335 126.663 64.3118 133.192 57.6042Z" fill="#E0EBFC"/>
<path d="M113.36 69.0245C113.292 69.0927 113.212 69.161 113.143 69.2292C112.979 69.2894 112.867 69.3335 112.867 69.3335C101.169 66.3069 95.0618 59.0774 95.0618 59.0774C95.146 59.0051 95.2383 58.9329 95.3266 58.8606C95.4631 58.8044 95.5554 58.7643 95.5554 58.7643C108.252 59.8882 113.36 69.0245 113.36 69.0245Z" fill="#C3D7F4"/>
<path d="M156.638 29.204C160.142 29.204 162.983 27.5632 162.983 25.5391C162.983 23.515 160.142 21.8742 156.638 21.8742C153.135 21.8742 150.294 23.515 150.294 25.5391C150.294 27.5632 153.135 29.204 156.638 29.204Z" fill="#C3D7F4"/>
<path d="M159.84 26.5143C159.792 26.5946 159.736 26.6709 159.672 26.7431C158.845 27.7025 157.027 28.112 155.434 27.6905C154.616 27.4737 153.97 27.0723 153.621 26.5505C153.251 26.0126 153.239 25.4104 153.592 24.8605C153.641 24.7802 153.701 24.6999 153.765 24.6317C153.769 24.6237 153.769 24.6237 153.777 24.6197C154.15 24.1902 154.716 23.8771 155.378 23.6924C156.189 23.4676 157.128 23.4475 158.003 23.6803C158.821 23.8931 159.467 24.2985 159.816 24.8123C160.181 25.3623 160.194 25.9644 159.84 26.5143Z" fill="#A9C2E0"/>
<path d="M154.796 27.2379C154.327 27.0212 153.958 26.7281 153.725 26.3829C153.552 26.138 153.464 25.8771 153.456 25.6162L153.452 25.5961C153.452 25.568 153.456 25.5359 153.456 25.5078L153.476 25.1064H153.532L159.957 25.0863V25.4155C159.989 25.7286 159.876 26.0457 159.688 26.3428C159.64 26.4231 159.583 26.4953 159.523 26.5635C159.17 26.973 158.628 27.2781 158.002 27.4507C157.224 27.6755 156.305 27.6955 155.458 27.4748C155.222 27.4105 154.997 27.3302 154.796 27.2379Z" fill="#B5CBE5"/>
<path d="M159.713 25.9044C159.664 25.9806 159.612 26.0529 159.548 26.1252C158.757 27.0444 157.012 27.4378 155.487 27.0364C154.701 26.8276 154.083 26.4423 153.745 25.9445C153.392 25.4267 153.38 24.8527 153.717 24.3268C153.766 24.2505 153.822 24.1743 153.882 24.106C153.886 24.098 153.886 24.098 153.894 24.094C154.251 23.6805 154.797 23.3795 155.427 23.2028C156.201 22.9901 157.104 22.966 157.943 23.1908C158.729 23.3915 159.347 23.7849 159.684 24.2786C160.038 24.8005 160.05 25.3785 159.713 25.9044Z" fill="#ECF4FF"/>
<path d="M157.353 10.6947H156.061V25.2862H156.073C156.065 25.3263 156.069 25.3665 156.109 25.4066C156.117 25.4146 156.129 25.4227 156.141 25.4347C156.297 25.5471 156.646 25.5913 156.951 25.5431C157.108 25.519 157.232 25.4708 157.301 25.4106C157.345 25.3705 157.353 25.3304 157.341 25.2862H157.353V10.6947Z" fill="url(#paint0_linear_146_1705)"/>
<path d="M151.434 3.48128L149.415 13.2397C149.415 13.2397 149.07 17.7918 156.703 18.2173V3.48128H151.434Z" fill="url(#paint1_linear_146_1705)"/>
<path d="M161.972 3.48128L163.99 13.2397C163.99 13.2397 164.335 17.7918 156.703 18.2173L156.699 3.48128H161.972Z" fill="url(#paint2_linear_146_1705)"/>
<path d="M160.426 5.94196C162.485 4.58116 162.485 2.3814 160.426 1.0206C158.368 -0.3402 155.033 -0.3402 152.975 1.0206C150.916 2.3814 150.916 4.58116 152.975 5.94196C155.033 7.29875 158.368 7.29875 160.426 5.94196Z" fill="#ECF4FF"/>
<path d="M159.865 5.56849C161.61 4.41643 161.61 2.54583 159.865 1.39377C158.119 0.241708 155.286 0.241708 153.541 1.39377C151.795 2.54583 151.795 4.41643 153.541 5.56849C155.286 6.72055 158.119 6.72055 159.865 5.56849Z" fill="#A9C2E0"/>
<path d="M25.7128 131.918C31.2909 131.918 35.813 129.307 35.813 126.086C35.813 122.864 31.2909 120.253 25.7128 120.253C20.1346 120.253 15.6125 122.864 15.6125 126.086C15.6125 129.307 20.1346 131.918 25.7128 131.918Z" fill="#D7E9FF"/>
<path d="M15.1029 109.054H35.7126L32.4582 126.158H32.4382C32.3218 127.137 31.6396 128.097 30.3917 128.843C27.6389 130.497 23.1726 130.497 20.4158 128.843C19.1679 128.097 18.4857 127.137 18.3693 126.158H18.3493L15.1029 109.054Z" fill="url(#paint3_linear_146_1705)"/>
<path d="M18.1208 115.594C22.1456 118.01 28.6704 118.01 32.6953 115.594C34.7057 114.385 35.7129 112.804 35.7129 111.218C35.7129 109.637 34.7057 108.051 32.6953 106.843C28.6704 104.426 22.1456 104.426 18.1208 106.843C14.096 109.259 14.096 113.177 18.1208 115.594Z" fill="#97B3CE"/>
<path d="M25.4089 115.239C31.1001 115.239 35.7137 112.47 35.7137 109.054C35.7137 105.637 31.1001 102.868 25.4089 102.868C19.7176 102.868 15.104 105.637 15.104 109.054C15.104 112.47 19.7176 115.239 25.4089 115.239Z" fill="#D4E5FF"/>
<path d="M31.5437 107.26C28.1529 105.225 22.6594 105.225 19.2686 107.26C17.9765 108.034 17.1779 108.994 16.8689 109.997C16.3714 108.368 17.1699 106.625 19.2686 105.369C22.6594 103.334 28.1529 103.334 31.5437 105.369C33.6424 106.629 34.441 108.372 33.9434 109.997C33.6384 108.994 32.8359 108.034 31.5437 107.26Z" fill="#97B3CE"/>
<path d="M31.5434 112.739C28.1526 114.774 22.6591 114.774 19.2683 112.739C17.9762 111.964 17.1776 111.004 16.8687 110.001C17.1736 108.997 17.9762 108.038 19.2683 107.263C22.6591 105.228 28.1526 105.228 31.5434 107.263C32.8356 108.038 33.6341 108.997 33.9431 110.001C33.6381 111 32.8356 111.96 31.5434 112.739Z" fill="#92AFCC"/>
<path d="M47.4943 83.1421C49.3603 81.3839 51.3506 80.3563 52.8554 79.8264C54.1756 81.135 43.63 84.7799 44.7135 92.4951C45.8772 100.792 37.984 99.5841 37.984 99.5841C35.2072 110.671 31.6438 106.629 29.6856 106.938C27.7273 107.251 26.8244 110.972 26.8244 110.972L25.4601 111.354C26.4232 107.548 28.8148 103.976 29.6494 101.9C30.6406 99.4396 44.1236 86.3173 47.4943 83.1421Z" fill="#D4E5FF"/>
<path d="M32.1457 95.1847C32.6554 83.6239 38.7428 87.0079 39.9907 87.0159C41.2347 87.0239 46.9048 78.5822 51.8606 79.4613C52.3823 79.5536 52.6993 79.674 52.8558 79.8305C51.351 80.3604 49.3646 81.388 47.4947 83.1462C44.1239 86.3214 30.6409 99.4437 29.6498 101.904C28.8151 103.98 26.4235 107.552 25.4604 111.358L24.3609 111.667C24.3609 111.667 25.328 107.408 24.3609 100.897C23.3979 94.3819 32.1457 95.1847 32.1457 95.1847Z" fill="#A9C2E0"/>
<path d="M24.9586 68.9602C22.9923 61.2731 25.4602 43.8035 27.1817 33.6758C29.3205 34.6833 25.8976 45.9149 33.6904 53.3893C42.6149 61.9515 27.4505 75.6919 30.7731 77.0046C34.0957 78.3172 34.8661 88.0635 31.5877 93.1936C28.3092 98.3197 27.0292 111.863 27.0292 111.863H26.5035L26.8967 102.189C26.9007 102.189 27.8157 80.1195 24.9586 68.9602Z" fill="#D4E5FF"/>
<path d="M20.4722 94.2735C11.8808 87.7866 23.4496 79.7985 21.3991 74.9293C15.392 60.667 21.2988 54.9147 21.2988 54.9147C21.7924 52.9759 21.1383 36.5218 25.8493 33.9287C26.4472 33.5995 26.8766 33.5313 27.1855 33.6758C25.46 43.8035 22.9962 61.2731 24.9625 68.9602C27.8156 80.1196 26.9006 102.189 26.9006 102.189L26.5074 111.864H24.0435C24.0435 111.86 29.0635 100.76 20.4722 94.2735Z" fill="#A9C2E0"/>
<path d="M3.69088 61.3092C2.7238 57.6122 2.80005 54.2805 3.18126 51.9362C5.83372 51.1454 3.07292 67.5272 13.9275 71.6136C25.6007 76.0091 18.3898 85.4664 18.3898 85.4664C30.8936 96.9991 23.0727 98.7774 22.0855 101.559C21.0984 104.341 25.3198 108.179 25.3198 108.179L24.8463 110.234C20.5607 106.26 17.5992 100.592 15.4805 98.0147C12.9725 94.9639 5.43244 67.9808 3.69088 61.3092Z" fill="#D4E5FF"/>
<path d="M8.48201 89.9628C-6.26099 81.0554 2.50294 75.5078 3.3978 73.8821C4.29265 72.2604 -2.69362 58.829 1.98932 52.9724C2.48289 52.3582 2.86812 52.029 3.18112 51.9367C2.7999 54.281 2.72365 57.6127 3.69074 61.3098C5.43229 67.9773 12.9723 94.9644 15.4803 98.0152C17.5991 100.588 20.5605 106.26 24.8462 110.234L24.0396 111.86C24.0396 111.86 19.5894 107.589 10.3921 104.209C1.19478 100.829 8.48201 89.9628 8.48201 89.9628Z" fill="#A9C2E0"/>
<path d="M32.0371 109.315C32.005 109.066 28.0404 106.621 23.8149 108.464C19.5895 110.306 18.7628 110.647 18.7628 110.647C18.7628 110.647 27.1897 113.983 31.2787 111.217C31.7001 110.932 32.0371 109.315 32.0371 109.315Z" fill="#92AFCC"/>
<path d="M181.582 154.911L205.743 140.994C209.443 138.863 209.507 135.27 205.888 133.01L197.023 127.471C193.404 125.211 187.417 125.102 183.717 127.234L159.556 141.151C155.856 143.282 155.792 146.875 159.411 149.135L168.276 154.674C171.895 156.934 177.882 157.043 181.582 154.911Z" fill="#C3D7F4"/>
<path d="M158.609 145.213C158.609 145.213 145.154 145.683 141.269 137.646C137.389 129.61 141.891 122.971 134.387 119.607C126.883 116.243 101.041 108.066 95.2144 101.346C92.5339 98.2555 89.3838 92.3627 96.1093 88.1519C102.835 83.941 118.228 91.4676 118.228 91.4676C118.228 91.4676 177.489 125.672 185.767 127.487C194.046 129.297 181.108 133.44 181.108 133.44C181.108 133.44 169.961 119.017 160.129 123.677C150.298 128.338 161.446 140.918 161.446 140.918L158.609 145.213Z" fill="#C3D7F4"/>
<path d="M109.99 68.6358C109.5 69.6113 113.481 66.7291 115.544 59.7605C116.358 57.0148 114.701 52.1858 116.892 53.1934C119.079 54.2049 117.951 62.0847 119.416 64.3045C122.277 68.6358 118.806 70.9801 114.191 72.4533C108.545 74.2556 109.99 68.6358 109.99 68.6358Z" fill="#0863EF"/>
<path d="M119.416 64.3039C117.947 62.084 119.079 54.2043 116.892 53.1927C116.398 52.9639 116.101 53.0361 115.929 53.3091C117.851 54.698 116.836 62.1523 118.256 64.3039C121.117 68.6351 117.646 70.9794 113.032 72.4526C112.53 72.6132 112.085 72.7135 111.687 72.7657C112.305 72.8701 113.12 72.7978 114.195 72.4526C118.806 70.9794 122.277 68.6351 119.416 64.3039Z" fill="#99BCE6"/>
<path d="M141.273 96.7542C141.273 96.7542 140.286 91.0702 132.373 89.051C124.464 87.0319 115.022 87.5377 114.187 86.3575C113.352 85.1774 104.934 67.0374 104.428 66.7002C103.922 66.363 105.443 71.3727 99.7209 70.6983C99.7209 70.6983 106.286 91.4073 107.63 93.0893C108.974 94.7712 129.913 100.451 129.913 100.451C129.913 100.451 137.064 96.421 141.273 96.7542Z" fill="#F2F4F7"/>
<path d="M128.308 91.0301C121.471 89.2839 112.634 90.6527 109.826 90.2955C109.504 90.2553 109.268 90.1911 109.115 90.0988C109.175 87.2287 112.221 80.3002 111.483 81.6931C111.483 81.6931 111.483 81.6931 110.612 82.1748C110.054 82.4839 108.662 85.049 107.727 86.8634C106.07 82.3555 103.257 74.2469 101.483 70.7184C101.058 70.7746 99.645 70.2327 99.5889 70.3532C100.496 73.1952 106.403 91.5479 107.639 93.0933C108.987 94.7753 129.922 100.455 129.922 100.455C129.922 100.455 133.304 98.5446 136.787 97.4607C135.997 95.6664 133.858 92.4471 128.308 91.0301Z" fill="#B6D1FE"/>
<path d="M109.99 68.6351L95.5799 91.1344C95.5799 91.1344 94.0229 95.2369 96.7155 97.26C99.4081 99.2791 121.033 114.477 125.748 114.308C125.748 114.308 128.336 100.166 134.901 98.3117C134.901 98.3117 133.22 90.8574 118.24 91.4716C118.24 91.4716 109.003 92.9007 107.321 91.8289C105.64 90.7571 111.675 84.507 112.181 78.6143C112.686 72.7215 115.905 72.2599 115.905 72.2599C115.905 72.2599 111.675 71.2844 109.99 68.6351Z" fill="#F2F4F7"/>
<path d="M99.0389 96.0999C96.3463 94.0808 97.9033 89.9744 97.9033 89.9744L110.885 69.7069C110.544 69.3857 110.239 69.0325 109.99 68.6391L95.5799 91.1384C95.5799 91.1384 94.0229 95.2409 96.7155 97.264C99.4081 99.2832 121.033 114.481 125.748 114.312C125.748 114.312 125.86 113.706 126.093 112.735C119.067 110.294 101.455 97.9103 99.0389 96.0999Z" fill="#B6D1FE"/>
<path d="M123.918 112.494C123.918 112.494 129.52 94.5023 141.013 95.8832C141.013 95.8832 127.008 111.719 127.201 112.727C127.389 113.738 124.299 113.421 124.299 113.421L123.918 112.494Z" fill="#B6D1FE"/>
<path d="M96.3584 65.324C96.3584 65.324 98.2164 71.8671 102.073 70.6588C105.929 69.4506 104.42 64.0876 102.073 62.9356C99.7252 61.7835 98.3769 55.3849 97.7067 54.7106C97.0326 54.0362 92.9195 53.0808 92.0768 53.2173C91.2341 53.3538 90.6442 59.9892 96.3584 65.324Z" fill="#0863EF"/>
<path d="M92.0763 54.3773C92.919 54.2409 97.0321 55.1962 97.7063 55.8706C98.3804 56.545 99.7247 62.9435 102.072 64.0956C103.24 64.6696 104.199 66.2833 104.396 67.909C104.648 65.9582 103.521 63.642 102.072 62.9315C99.7247 61.7794 98.3764 55.3809 97.7063 54.7065C97.0321 54.0321 92.919 53.0767 92.0763 53.2132C91.7513 53.2654 91.4664 54.289 91.5627 55.8264C91.6269 54.9554 91.8436 54.4175 92.0763 54.3773Z" fill="#99BCE6"/>
<path d="M142.537 96.2926C142.469 95.1646 127.883 94.9639 125.447 115.147C125.447 115.147 130.419 113.128 135.636 117.503C140.852 121.879 141.358 121.879 142.537 121.546C143.717 121.208 143.38 114.308 143.886 114.308C144.391 114.308 149.785 108.476 153.83 115.211L152.654 122.806L162.738 115.316L165.768 117.841C165.768 117.841 172.501 118.852 173.677 115.484C174.857 112.116 166.273 105.216 166.273 105.216C166.273 105.216 151.125 104.71 148.938 103.028C146.751 101.346 142.702 99.1547 142.537 96.2926Z" fill="#4E87EE"/>
<path d="M137.959 115.179C132.742 110.804 128.525 111.446 128.525 111.446C129.905 104.602 130.588 101.965 132.995 99.0423C129.653 101.764 126.474 106.649 125.451 115.147C125.451 115.147 130.423 113.128 135.64 117.503C140.856 121.879 141.362 121.879 142.542 121.546C142.975 121.421 143.204 120.402 143.344 119.169C142.433 118.788 140.993 117.724 137.959 115.179Z" fill="#0552DE"/>
<path d="M168.087 115.516L164.628 110.455L156.614 114.091L156.153 112.887C156.153 112.887 153.424 114.312 153.83 115.211L152.654 122.806L162.738 115.316L165.768 117.841C165.768 117.841 172.501 118.852 173.677 115.484C173.713 115.38 173.741 115.268 173.761 115.155C171.373 116.01 168.087 115.516 168.087 115.516Z" fill="#0552DE"/>
<path d="M164.182 111.277C163.099 111.868 158.46 113.622 157.617 116.147C156.775 118.672 152.906 109.596 154.756 107.071C156.606 104.546 163.677 103.703 163.677 103.703L164.182 111.277Z" fill="#DB895D"/>
<path d="M163.175 114.308C163.175 114.308 167.549 123.938 174.619 127.202C181.69 130.469 190.438 132.657 190.438 132.657L192.625 129.626C192.625 129.626 181.349 125.925 179.162 123.481C176.975 121.036 171.59 108.58 171.59 108.58C171.59 108.58 163.175 107.576 163.175 114.308Z" fill="#FCB892"/>
<path d="M175.78 126.042C168.709 122.774 164.335 113.148 164.335 113.148C164.335 111.763 164.696 110.712 165.258 109.905C164.058 110.76 163.171 112.125 163.171 114.312C163.171 114.312 167.545 123.942 174.616 127.206C181.686 130.473 190.434 132.661 190.434 132.661L191.325 131.429C189.808 131.031 182.12 128.972 175.78 126.042Z" fill="#DB895D"/>
<path d="M157.638 139.995L161.081 139.597L183.472 127.141C184.19 126.744 185.43 126.812 186.245 127.302L201.818 136.631L203.901 136.39L203.869 138.461C203.877 138.734 203.72 138.995 203.379 139.184L178.002 153.302C177.284 153.699 176.044 153.631 175.23 153.141L158.268 142.981C157.81 142.708 157.585 142.359 157.605 142.038L157.638 139.995Z" fill="#B5CBE5"/>
<path d="M201.822 136.631L203.873 138.461C203.881 138.734 203.724 138.995 203.383 139.184L178.006 153.302C177.625 153.514 177.1 153.591 176.57 153.547L201.822 136.631Z" fill="#A9C2E0"/>
<path d="M177.75 153.41C177.071 153.655 176.108 153.583 175.394 153.225L175.45 149.705L177.81 149.741L177.75 153.41Z" fill="#B5CBE5"/>
<path d="M178.035 151.23L203.411 137.113C204.13 136.715 204.054 135.993 203.239 135.507L186.277 125.347C185.462 124.861 184.222 124.789 183.504 125.187L158.127 139.304C157.409 139.702 157.485 140.424 158.3 140.91L175.262 151.07C176.076 151.556 177.32 151.628 178.035 151.23Z" fill="#E0EBFC"/>
<path d="M178.496 149.035L199.599 137.297C200.197 136.964 200.133 136.366 199.455 135.961L190.362 130.65C189.683 130.244 188.652 130.184 188.054 130.517L166.951 142.255C166.353 142.588 166.417 143.186 167.095 143.592L176.188 148.902C176.867 149.308 177.902 149.368 178.496 149.035Z" fill="#A9C2E0"/>
<path d="M178.865 152.639L181.016 149.922L206.293 115.195L205.105 114.481C204.876 114.328 204.571 114.328 204.234 114.517L178.873 128.663C178.155 129.064 177.561 130.156 177.549 131.103L177.252 150.877C177.244 151.411 177.421 151.784 177.705 151.941L178.865 152.639Z" fill="#B5CBE5"/>
<path d="M203.788 129.755L204.992 116.833L206.292 115.187L205.105 114.473C204.876 114.32 204.571 114.32 204.234 114.509L178.873 128.655C178.496 128.868 178.151 129.273 177.91 129.747H203.788V129.755Z" fill="#C3D7F4"/>
<path d="M205.719 115.923L206.296 115.192L205.109 114.477C204.88 114.324 204.575 114.324 204.238 114.513L203.792 114.762L205.719 115.923Z" fill="#C3D7F4"/>
<path d="M178.644 128.819C178.078 129.269 177.633 130.124 177.561 130.919L179.993 132.376L181.2 130.349L178.644 128.819Z" fill="#C3D7F4"/>
<path d="M180.061 129.373L205.422 115.227C206.14 114.826 206.71 115.271 206.694 116.219L206.397 135.992C206.381 136.94 205.791 138.036 205.072 138.433L179.712 152.579C178.993 152.98 178.423 152.535 178.44 151.587L178.736 131.814C178.753 130.87 179.346 129.775 180.061 129.373Z" fill="#E0EBFC"/>
<path d="M143.312 114.308C143.312 114.308 141.045 138.381 146.639 141.243C152.233 144.105 168.22 137.875 169.231 137.707C170.242 137.538 175.471 139.967 177.421 141.36C177.421 141.36 177.65 133.905 170.748 133.327C164.708 132.826 154.592 136.527 152.401 134.339C150.214 132.151 153.384 119.302 153.914 116.998C154.841 112.959 147.586 108.331 143.312 114.308Z" fill="#FCB892"/>
<path d="M170.394 136.547C169.383 136.716 153.396 142.946 147.802 140.084C142.209 137.222 144.476 113.149 144.476 113.149C144.58 113 144.688 112.864 144.797 112.731C144.275 113.145 143.778 113.662 143.312 114.313C143.312 114.313 141.045 138.386 146.639 141.248C152.233 144.11 168.22 137.88 169.231 137.711C170.242 137.543 175.37 139.915 177.421 141.364L177.417 140.517C177.417 140.333 177.325 140.168 177.164 140.076C174.969 138.795 171.169 136.419 170.394 136.547Z" fill="#DB895D"/>
<path d="M177.646 98.3118C177.646 98.3118 175.439 118.928 167.842 115.826C160.824 112.959 160.162 106.392 160.824 104.879C161.49 103.366 177.646 98.3118 177.646 98.3118Z" fill="#FCB892"/>
<path d="M167.842 114.665C162.557 112.506 160.876 108.251 160.651 105.634C160.414 107.926 161.666 113.305 167.842 115.83C175.438 118.933 177.645 98.3158 177.645 98.3158C177.645 98.3158 177.589 98.3319 177.489 98.364C176.875 102.731 174.315 117.311 167.842 114.665Z" fill="#DB895D"/>
<path d="M144.026 97.6976C144.002 97.6855 144.227 99.227 144.227 99.227C144.841 107.231 152.594 108.062 154.416 108.11C154.492 107.733 154.6 107.384 154.757 107.067C154.757 107.067 144.717 107.38 144.026 97.6976Z" fill="#0552DE"/>
<path d="M161.322 107.589C159.054 109.768 158.039 117.026 157.955 120.594C157.955 120.594 154.572 114.445 154.311 109.941C154.01 114.469 156.879 119.474 156.879 119.474C156.964 115.906 158.842 110.298 161.109 108.114L161.322 107.589Z" fill="#0552DE"/>
<path d="M161.322 107.589C162.321 109.76 165.11 112.494 165.11 112.494C165.11 110.447 167.614 106.119 169.139 105.019C173.469 101.884 178.693 101.66 177.654 99.3755C176.867 100.785 172.702 101.391 169.139 103.972C167.618 105.076 165.11 109.399 165.11 111.446C165.11 111.446 162.726 109.527 161.727 107.356L161.322 107.589Z" fill="#DB895D"/>
<path d="M177.646 98.3118C171.859 85.8639 161.992 93.0532 156.105 99.5762C153.637 102.306 143.987 96.6298 143.987 96.6298C143.987 96.9991 144.003 97.3564 144.027 97.6976C144.717 107.376 154.757 107.067 154.757 107.067C154.6 107.384 154.488 107.733 154.416 108.11C154.303 108.668 154.275 109.286 154.311 109.937C154.576 114.441 157.955 120.59 157.955 120.59C158.039 117.022 159.46 109.535 161.727 107.356C162.726 109.527 165.11 111.446 165.11 111.446C165.11 109.399 167.614 105.072 169.139 103.972C172.702 101.391 176.867 100.78 177.654 99.3755C177.826 99.0664 177.838 98.7252 177.646 98.3118Z" fill="#F9339C"/>
<path d="M154.416 106.95C154.492 106.573 154.6 106.224 154.757 105.907C154.757 105.907 144.809 106.212 144.039 96.6619C144.007 96.6459 143.987 96.6298 143.987 96.6298C143.987 96.9991 144.003 97.3564 144.027 97.6976C144.641 106.284 152.606 107.01 154.396 107.063C154.404 107.027 154.408 106.986 154.416 106.95Z" fill="#E23096"/>
<path d="M177.622 98.2563C176.772 99.6291 172.662 100.255 169.139 102.808C167.618 103.912 165.11 108.235 165.11 110.283C165.11 110.283 162.727 108.364 161.728 106.192C159.46 108.372 158.04 115.858 157.956 119.427C157.956 119.427 154.617 113.354 154.32 108.858C154.296 109.203 154.292 109.56 154.312 109.933C154.577 114.437 157.956 120.587 157.956 120.587C158.04 117.018 159.46 109.532 161.728 107.352C162.727 109.524 165.11 111.443 165.11 111.443C165.11 109.396 167.614 105.068 169.139 103.968C172.703 101.387 176.868 100.777 177.654 99.3722C177.827 99.0671 177.839 98.7219 177.646 98.3084C177.638 98.2964 177.63 98.2764 177.622 98.2563Z" fill="#E23096"/>
<path d="M198.616 38.5891L207.296 53.4134C207.296 53.4134 219.699 50.7681 222.296 49.2307C224.892 47.6932 221.614 43.0047 221.614 43.0047C221.614 43.0047 209.334 45.4172 207.806 41.957C206.277 38.4968 198.616 38.5891 198.616 38.5891Z" fill="#B6D1FE"/>
<path d="M232.989 85.4785L221.525 78.5983C217.428 76.1376 217.428 72.1114 221.525 69.6507C225.622 67.19 232.331 67.19 236.428 69.6507L247.893 76.531C251.99 78.9916 251.99 83.0179 247.893 85.4785C243.796 87.9352 237.086 87.9352 232.989 85.4785Z" fill="#D7E9FF"/>
<path d="M243.768 68.3177C244.085 68.3177 244.386 68.2294 244.663 68.0488C245.349 67.6032 245.746 66.6518 245.746 65.4476V14.1748C245.746 12.1436 244.667 9.85152 243.286 8.95235L239.334 6.37927C238.604 5.90159 237.869 5.86145 237.255 6.25484C236.569 6.70041 236.176 7.65177 236.176 8.85601V60.1329C236.176 62.164 237.255 64.4601 238.636 65.3553L242.588 67.9283C242.985 68.1893 243.387 68.3177 243.768 68.3177ZM238.15 7.56747C238.327 7.56747 238.515 7.66782 238.632 7.74409L242.584 10.3172C243.519 10.9273 244.342 12.7297 244.342 14.1748V65.4516C244.342 66.1782 244.145 66.5676 243.961 66.688C243.748 66.8245 243.447 66.6719 243.282 66.5676L239.326 63.9945C238.391 63.3883 237.568 61.586 237.568 60.1409V8.86003C237.568 8.13347 237.765 7.74409 237.949 7.62367C238.014 7.58352 238.082 7.56747 238.15 7.56747Z" fill="#97BCE6"/>
<path d="M244.294 75.3267C244.916 74.7125 245.582 74.5198 246.023 74.7567L247.376 75.5354L244.972 79.5937C244.972 79.5937 243.664 78.8391 243.628 78.811H243.624C243.491 78.7106 243.371 78.5701 243.299 78.3694C242.978 77.5545 243.427 76.1897 244.294 75.3267Z" fill="#30397A"/>
<path d="M244.595 79.1239C244.912 79.9428 245.867 79.9066 246.734 79.0436C247.6 78.1805 248.046 76.8157 247.733 76.0009C247.416 75.182 246.461 75.2181 245.594 76.0811C244.731 76.9442 244.286 78.309 244.595 79.1239Z" fill="#222949"/>
<path d="M245.421 78.4674C245.618 78.7726 246.055 78.7204 246.457 78.3188C246.898 77.881 247.123 77.1863 246.966 76.7727C246.894 76.5799 246.75 76.4755 246.573 76.4675C246.593 76.4996 246.605 76.5357 246.621 76.5679C246.782 76.9935 246.553 77.6843 246.116 78.126C245.879 78.363 245.626 78.4794 245.421 78.4674Z" fill="#30397A"/>
<path d="M245.365 78.363C245.377 78.4031 245.397 78.4353 245.421 78.4674C245.626 78.4794 245.879 78.363 246.12 78.126C246.561 77.6843 246.79 76.9936 246.625 76.5679C246.609 76.5358 246.593 76.4996 246.577 76.4675C246.372 76.4554 246.116 76.5679 245.879 76.8088C245.433 77.2466 245.205 77.9453 245.365 78.363Z" fill="#99BCE6"/>
<path d="M234.952 80.9345C235.574 80.3203 236.24 80.1277 236.681 80.3645L238.034 81.1432L235.63 85.2016C235.63 85.2016 234.322 84.4469 234.286 84.4188H234.282C234.149 84.3184 234.029 84.178 233.957 83.9772C233.636 83.1624 234.085 81.7975 234.952 80.9345Z" fill="#30397A"/>
<path d="M235.252 84.7316C235.569 85.5505 236.524 85.5144 237.391 84.6513C238.258 83.7883 238.703 82.4235 238.39 81.6086C238.073 80.7897 237.118 80.8259 236.252 81.6889C235.389 82.5519 234.939 83.9127 235.252 84.7316Z" fill="#222949"/>
<path d="M236.08 84.0712C236.276 84.3764 236.714 84.3242 237.115 83.9226C237.556 83.4848 237.781 82.7901 237.625 82.3765C237.552 82.1837 237.408 82.0793 237.231 82.0713C237.251 82.1034 237.263 82.1395 237.279 82.1717C237.44 82.5973 237.211 83.2881 236.774 83.7298C236.537 83.9708 236.284 84.0872 236.08 84.0712Z" fill="#30397A"/>
<path d="M236.023 83.9708C236.035 84.0109 236.056 84.043 236.08 84.0752C236.284 84.0872 236.537 83.9707 236.778 83.7338C237.219 83.2921 237.448 82.6014 237.283 82.1757C237.267 82.1435 237.251 82.1074 237.235 82.0753C237.031 82.0632 236.774 82.1757 236.537 82.4166C236.092 82.8543 235.863 83.5491 236.023 83.9708Z" fill="#99BCE6"/>
<path d="M219.912 71.8866C220.534 71.2724 221.2 71.0797 221.641 71.3166L222.994 72.0953L220.59 76.1536C220.59 76.1536 219.282 75.399 219.246 75.3709H219.242C219.109 75.2705 218.989 75.13 218.917 74.9293C218.6 74.1144 219.045 72.7496 219.912 71.8866Z" fill="#30397A"/>
<path d="M220.217 75.6837C220.534 76.5026 221.489 76.4665 222.356 75.6034C223.222 74.7404 223.668 73.3756 223.355 72.5607C223.038 71.7418 222.083 71.7779 221.216 72.641C220.349 73.504 219.904 74.8648 220.217 75.6837Z" fill="#222949"/>
<path d="M221.039 75.0232C221.236 75.3284 221.673 75.2762 222.075 74.8747C222.516 74.4369 222.741 73.7422 222.584 73.3285C222.512 73.1358 222.368 73.0313 222.191 73.0233C222.211 73.0554 222.223 73.0916 222.239 73.1237C222.4 73.5494 222.171 74.2401 221.734 74.6819C221.497 74.9228 221.248 75.0393 221.039 75.0232Z" fill="#30397A"/>
<path d="M220.983 74.9229C220.995 74.963 221.016 74.9951 221.04 75.0273C221.244 75.0393 221.497 74.9229 221.738 74.6859C222.179 74.2442 222.408 73.5534 222.243 73.1278C222.227 73.0956 222.211 73.0595 222.195 73.0274C221.991 73.0153 221.734 73.1278 221.497 73.3687C221.052 73.8065 220.823 74.5012 220.983 74.9229Z" fill="#99BCE6"/>
<path d="M247.636 38.8461L233.716 30.1474C232.648 29.481 231.464 29.5011 230.485 29.9948V29.9667L220.008 36.4536L228.435 43.3981V64.7173C228.435 66.0901 229.109 67.3586 230.204 68.041L237.094 72.3402L237.211 82.6806L247.15 76.9765C248.426 76.4346 249.402 75.1059 249.402 73.4079V42.1658C249.406 40.7969 248.731 39.5285 247.636 38.8461Z" fill="#C12B9E"/>
<path d="M217.958 39.9017V70.8067C217.958 72.1635 218.632 73.42 219.727 74.0943L233.648 82.6886C235.995 84.1377 238.924 82.3153 238.924 79.401V48.5041C238.924 47.1473 238.25 45.8949 237.155 45.2165L223.234 36.6142C220.887 35.161 217.958 36.9875 217.958 39.9017Z" fill="#F63598"/>
<path d="M245.574 75.4872V44.3655C245.574 42.9967 244.9 41.7362 243.804 41.0538L229.884 32.3872C229.005 31.8373 228.042 31.753 227.183 32.0179C228.251 30.9823 229.868 30.6531 231.284 31.5322L245.205 40.1988C246.3 40.8812 246.974 42.1416 246.974 43.5105V74.6322C246.974 76.4667 245.754 78.1807 244.326 78.6183C245.028 77.9399 245.574 76.6513 245.574 75.4872Z" fill="#0D1884"/>
<path d="M244.342 9.98424C244.342 9.98424 243.013 10.6426 243.218 10.9316C243.423 11.2206 243.768 11.8468 243.768 11.8468C243.768 11.8468 243.025 12.5051 241.898 11.3129C240.497 9.83572 238.017 9.34198 237.648 8.06548C237.307 6.89334 237.841 5.26761 239.097 5.26761C240.357 5.26761 243.736 6.74482 244.96 8.68366C245.574 9.6591 244.719 10.5542 244.719 10.5542L244.342 9.98424Z" fill="#0D1884"/>
<path d="M228.864 37.967L233.96 41.1341C234.695 41.5917 235.995 41.5315 236.846 41.0057C237.696 40.4758 237.789 39.673 237.054 39.2154L231.958 36.0482C231.224 35.5906 229.923 35.6508 229.073 36.1767C228.222 36.7025 228.13 37.5094 228.864 37.967Z" fill="#0D1884"/>
<path d="M235.333 44.0925V83.1904C235.834 83.1985 236.324 83.0981 236.773 82.8934V44.9837L235.333 44.0925Z" fill="#C12B9E"/>
<path d="M232.813 81.1673V42.535L231.372 41.6439V81.1673C231.372 81.2155 231.392 81.2556 231.4 81.2997L232.287 81.8457C232.588 81.7614 232.813 81.4965 232.813 81.1673Z" fill="#C12B9E"/>
<path d="M219.494 36.7787V73.9057C219.575 73.9659 219.643 74.0421 219.727 74.0983L220.935 74.845V36.1606C220.413 36.2449 219.924 36.4616 219.494 36.7787Z" fill="#C12B9E"/>
<path d="M227.412 39.1953V78.8391L228.852 79.7302V40.0864L227.412 39.1953Z" fill="#C12B9E"/>
<path d="M223.455 36.7504V76.3942L224.892 77.2854V37.6376L223.455 36.7504Z" fill="#C12B9E"/>
<path d="M205.327 83.1151C206.747 79.112 202.279 73.8717 195.347 71.4104C188.415 68.9491 181.644 70.1989 180.224 74.202C178.804 78.205 183.272 83.4453 190.203 85.9066C197.135 88.3679 203.906 87.1181 205.327 83.1151Z" fill="#C3D7F4"/>
<path d="M219.478 89.1915C219.53 80.529 218.343 62.6259 217.998 61.5701C217.372 59.6674 216.581 58.8325 215.53 58.142C214.049 57.1666 212.047 57.8731 210.305 58.2103C208.202 58.6157 206.553 59.0131 206.188 61.1206C205.827 63.232 207.636 81.8095 208.547 82.6926C209.434 83.5517 219.478 89.1915 219.478 89.1915Z" fill="#4E87EE"/>
<path d="M212.781 85.0409C211.874 84.1578 210.06 65.5802 210.421 63.4688C210.787 61.3574 212.436 60.96 214.538 60.5585C215.437 60.3859 216.4 60.117 217.327 60.0287C216.826 59.1455 216.236 58.6037 215.53 58.138C214.049 57.1626 212.047 57.8691 210.305 58.2062C208.202 58.6117 206.553 59.0091 206.188 61.1165C205.827 63.228 207.636 81.8055 208.547 82.6886C209.434 83.5476 219.478 89.1875 219.478 89.1875C219.478 89.1714 219.478 89.1514 219.478 89.1313C216.617 87.4895 213.274 85.5226 212.781 85.0409Z" fill="#0552DE"/>
<path d="M230.726 71.18C230.49 68.7233 229.446 66.4874 225.562 64.6771C219.844 62.0157 205.454 67.8964 195.63 69.482C193.387 53.1283 184.242 67.7238 184.242 67.7238C184.242 67.7238 180.037 78.5379 187.645 81.4201C187.645 81.4201 188.644 81.685 189.948 81.5847C191.939 83.5235 195.173 84.6354 200.378 83.7844L219.069 77.418C219.515 82.8491 220.293 89.3641 220.779 89.9703C221.637 91.042 231.95 96.6739 231.95 96.6739C231.998 88.7058 231.264 74.2027 230.726 71.18Z" fill="#4E87EE"/>
<path d="M222.982 90.1148C222.982 90.1148 221.87 80.4969 221.425 75.0697L202.733 81.4362C197.528 82.2832 194.294 81.1712 192.304 79.2364C191 79.3328 190 79.0718 190 79.0718C182.392 76.1897 186.598 65.3755 186.598 65.3755C186.598 65.3755 187.288 64.2716 188.335 63.0152C186.096 64.7774 184.242 67.7278 184.242 67.7278C184.242 67.7278 180.037 78.542 187.645 81.4241C187.645 81.4241 188.644 81.6891 189.948 81.5887C191.939 83.5275 195.173 84.6395 200.378 83.7885L219.069 77.422C219.515 82.8532 220.293 89.3682 220.779 89.9743C221.637 91.0461 231.95 96.6779 231.95 96.6779C231.958 95.566 222.982 90.1148 222.982 90.1148Z" fill="#0552DE"/>
<path d="M211.1 13.0911C209.395 8.45077 202.011 6.62834 197.513 10.2692C195.827 11.634 193.877 15.7887 194.852 19.297C195.266 20.7783 195.984 22.2434 196.899 23.5801C196.879 23.6444 196.847 23.7046 196.831 23.7728C196.157 26.7714 195.571 28.8668 195.743 30.0148C196.169 32.8047 204.84 35.0004 205.113 33.3145C205.057 32.4193 205.029 32.1263 204.949 31.1749C204.896 30.5808 204.788 30.0028 204.648 29.4288C205.627 29.6415 206.586 29.6535 207.477 29.4007C209.644 28.7865 212.806 17.7315 211.1 13.0911Z" fill="#FCB892"/>
<path d="M196.606 29.1558C196.453 28.8628 195.996 28.1723 195.96 27.6465C195.747 28.8828 195.502 29.9667 195.743 30.4323C196.566 32.034 204.84 35.0044 205.117 33.3185C205.097 32.9612 205.025 32.054 205.005 31.8092C201.116 33.0616 197.4 30.7013 196.606 29.1558Z" fill="#DB895D"/>
<path d="M207.3 29.1759C206.377 29.2522 205.618 28.6378 204.639 28.4209C204.639 28.7783 204.591 29.0795 204.647 29.4329C205.558 29.6056 206.826 29.6457 207.476 29.4048C207.894 29.2482 208.002 29.1156 207.3 29.1759Z" fill="#DB895D"/>
<path d="M212.087 15.9258C210.073 17.3829 209.354 16.3593 208.151 17.3227C208.014 17.4351 206.06 21.947 205.924 21.8467C204.96 21.1522 205.924 19.2776 204.166 18.5992C202.408 17.9168 201.875 22.3525 201.778 24.1428C201.682 25.9291 200.253 26.4068 198.849 25.9411C197.444 25.4755 194.363 22.7539 193.769 18.6153C193.175 14.4767 195.326 8.08213 203.123 6.8257C207.356 6.14329 214.374 9.48307 214.475 11.2493C214.559 12.6703 213.504 14.9022 212.087 15.9258Z" fill="#412424"/>
<path d="M226.634 50.7158C226.634 50.7158 229.832 48.7569 232.388 47.1914C235.229 45.4493 231.473 50.0375 231.473 50.0375C231.473 50.0375 236.011 49.1303 236.469 46.798C236.926 44.4658 237.468 53.6743 232.881 54.995C228.295 56.3156 227.183 56.416 227.183 56.416L226.634 50.7158Z" fill="#FCB892"/>
<path d="M232.881 54.0516C228.295 55.3723 227.183 55.4726 227.183 55.4726L226.718 50.6637C226.666 50.6958 226.634 50.7158 226.634 50.7158L227.183 56.4159C227.183 56.4159 228.295 56.3116 232.881 54.9949C236.288 54.0155 236.862 48.6847 236.75 46.9626C236.637 49.1824 235.795 53.2126 232.881 54.0516Z" fill="#DB895D"/>
<path d="M195.747 28.8788C195.35 28.08 191.614 27.0002 189.041 28.8989C182.986 33.3667 184.656 45.8587 184.242 68.0971C184.242 68.0971 189.997 74.6041 206.987 66.6962C206.987 66.6962 209.418 57.9895 209.435 53.2769C209.435 53.2769 212.071 59.9845 215.02 60.3859C217.97 60.7874 226.657 57.7446 227.404 56.1028C228.15 54.4651 228.407 49.9572 226.85 50.0977C225.293 50.2382 218.889 51.2818 218.889 51.2818C218.889 51.2818 214.483 37.0717 213.552 36.7064C212.621 36.3412 205.117 32.2146 205.117 32.2146C205.117 32.2146 199.049 35.5263 195.747 28.8788Z" fill="#F8FBFF"/>
<path d="M196.726 30.4765C196.381 30.0229 196.08 29.3244 195.771 28.7103C195.683 28.5336 192.922 27.0283 190.598 28.1161C192.007 28.4212 196.096 30.0108 196.726 30.4765Z" fill="#B6D1FE"/>
<path d="M226.846 50.1017C226.75 50.1097 226.629 50.1217 226.497 50.1378C226.722 51.5668 226.449 53.6783 225.987 54.6939C225.241 56.3317 216.557 59.3744 213.604 58.977C213.146 58.9168 212.697 58.688 212.264 58.3708C213.09 59.4185 214.033 60.2535 215.012 60.386C217.962 60.7874 226.65 57.7446 227.396 56.1029C228.146 54.4691 228.403 49.9572 226.846 50.1017Z" fill="#B6D1FE"/>
<path d="M207.549 46.8984C206.918 53.7185 205.574 65.2832 205.574 65.2832C193.247 71.0235 186.834 69.173 184.246 67.7239C184.242 67.8483 184.242 67.9727 184.242 68.0972C184.242 68.0972 189.997 74.6041 206.987 66.6962C206.987 66.6962 208.989 59.5269 209.37 54.6818C208.857 53.7586 208.383 49.8006 208.098 46.8984C208.062 46.5652 207.577 46.5652 207.549 46.8984Z" fill="#B6D1FE"/>
<path d="M234.804 131.103L252.087 121.124C253.15 120.51 253.178 119.523 252.151 118.896L233.861 107.821C233.512 107.609 232.954 107.572 232.525 107.729L211.449 119.896C211.18 120.145 211.253 120.47 211.622 120.667L230.943 131.14C232.027 131.734 233.74 131.718 234.804 131.103Z" fill="#C3D7F4"/>
<path d="M250.855 120.261C250.855 120.257 250.855 120.253 250.855 120.253V118.872H250.076V119.197L227.934 118.31C224.214 118.162 222.432 122.822 225.301 125.194L231.317 130.164C232.284 130.694 233.805 130.678 234.752 130.132L250.129 121.249C250.582 120.988 250.819 120.65 250.847 120.305H250.855V120.261Z" fill="#A9C2E0"/>
<path d="M232.914 129.622L231.321 130.16L214.126 120.839C214.126 120.839 213.656 120.622 213.833 119.482L232.914 129.622Z" fill="#B3CCE5"/>
<path d="M233.21 130.546C233.21 130.546 232.011 130.602 231.316 130.16C230.622 129.715 233.359 129.442 233.359 129.442C233.359 129.442 232.998 129.968 233.21 130.546Z" fill="#B3CCE5"/>
<path d="M234.752 129.2L250.129 120.317C251.076 119.771 251.1 118.892 250.185 118.334L233.909 108.479C233.6 108.291 233.102 108.259 232.721 108.395L213.969 119.221C213.729 119.442 213.793 119.731 214.122 119.908L231.317 129.229C232.284 129.762 233.809 129.746 234.752 129.2Z" fill="#E0EBFC"/>
<path d="M216.418 116.918C216.418 116.918 219.84 115.18 222.613 113.578C225.386 111.977 228.448 109.97 228.448 109.97L229.551 109.564C231.734 111.021 237.28 115.369 231.61 118.64C225.952 121.908 218.324 118.793 215.743 117.552L216.418 116.918Z" fill="#F8FBFF"/>
<path d="M230.615 118.082C224.632 121.538 216.417 116.922 216.417 116.922L228.448 109.974C228.448 109.969 236.594 114.626 230.615 118.082Z" fill="#B5CBE5"/>
<path d="M250.855 118.611C250.855 118.607 250.855 118.603 250.855 118.603V117.222H250.077V117.548L227.934 116.66C224.214 116.512 222.433 121.172 225.302 123.545L231.317 128.514C232.284 129.044 233.805 129.028 234.752 128.482L250.129 119.599C250.583 119.338 250.819 119.001 250.847 118.655H250.855V118.611Z" fill="#A9C2E0"/>
<path d="M232.914 127.972L231.321 128.51L214.126 119.189C214.126 119.189 213.657 118.973 213.833 117.833L232.914 127.972Z" fill="#B3CCE5"/>
<path d="M233.211 128.896C233.211 128.896 232.011 128.952 231.317 128.511C230.622 128.065 233.359 127.792 233.359 127.792C233.359 127.792 232.998 128.322 233.211 128.896Z" fill="#B3CCE5"/>
<path d="M234.753 127.556L250.13 118.672C251.077 118.126 251.101 117.247 250.187 116.689L233.911 106.834C233.602 106.646 233.104 106.614 232.723 106.75L213.971 117.576C213.73 117.797 213.794 118.086 214.124 118.263L231.318 127.584C232.285 128.114 233.81 128.101 234.753 127.556Z" fill="#E0EBFC"/>
<path d="M216.418 115.272C216.418 115.272 219.84 113.533 222.613 111.932C225.386 110.33 228.448 108.323 228.448 108.323L229.551 107.918C231.734 109.375 237.28 113.722 231.61 116.994C225.952 120.261 218.324 117.146 215.743 115.906L216.418 115.272Z" fill="#F8FBFF"/>
<path d="M230.615 116.431C224.632 119.888 216.417 115.271 216.417 115.271L228.448 108.323C228.448 108.323 236.594 112.979 230.615 116.431Z" fill="#B5CBE5"/>
<path d="M250.855 116.966C250.855 116.961 250.855 116.957 250.855 116.957V115.577H250.077V115.902L227.934 115.015C224.214 114.866 222.433 119.527 225.302 121.899L231.317 126.868C232.284 127.398 233.805 127.382 234.752 126.836L250.129 117.953C250.583 117.692 250.819 117.355 250.847 117.01H250.855V116.966Z" fill="#A9C2E0"/>
<path d="M232.914 126.327L231.321 126.864L214.126 117.544C214.126 117.544 213.657 117.327 213.833 116.187L232.914 126.327Z" fill="#B3CCE5"/>
<path d="M233.211 127.25C233.211 127.25 232.011 127.307 231.317 126.865C230.622 126.419 233.359 126.146 233.359 126.146C233.359 126.146 232.998 126.676 233.211 127.25Z" fill="#B3CCE5"/>
<path d="M234.753 125.905L250.13 117.022C251.077 116.476 251.101 115.597 250.186 115.039L233.91 105.184C233.601 104.995 233.104 104.963 232.722 105.1L213.971 115.926C213.73 116.147 213.794 116.436 214.123 116.612L231.318 125.933C232.285 126.467 233.81 126.455 234.753 125.905Z" fill="#E0EBFC"/>
<path d="M216.418 113.626C216.418 113.626 219.84 111.888 222.613 110.286C225.386 108.685 228.448 106.678 228.448 106.678L229.551 106.272C231.734 107.729 237.28 112.077 231.61 115.348C225.952 118.616 218.324 115.501 215.743 114.261L216.418 113.626Z" fill="#F8FBFF"/>
<path d="M230.615 114.786C224.632 118.242 216.417 113.626 216.417 113.626L228.448 106.678C228.448 106.678 236.594 111.33 230.615 114.786Z" fill="#B5CBE5"/>
<path d="M108.517 185.09L95.2829 177.146C90.5518 174.308 90.5518 169.659 95.2829 166.821C100.014 163.983 107.755 163.983 112.486 166.821L125.72 174.765C130.451 177.603 130.451 182.252 125.72 185.09C120.993 187.932 113.248 187.932 108.517 185.09Z" fill="#D7E9FF"/>
<path d="M106.771 162.185C105.684 162.751 107.449 166.252 109.937 167.131C111.31 167.617 112.112 165.943 113.922 165.437C114.596 165.248 115.05 165.549 115.218 165.686C115.242 165.71 115.27 165.73 115.29 165.754C116.298 166.762 117.586 169.652 119.997 171.611C121.225 172.606 124.789 174.593 125.13 176.869C125.017 177.459 124.592 178.025 123.709 178.531C119.769 180.783 115.531 178.567 112.285 176.034C110.656 174.493 109.255 173.208 108.818 172.927C108.818 172.927 104.123 171.767 103.116 170.009C102.791 169.447 102.698 163.619 106.771 162.185Z" fill="#C3D7F4"/>
<path d="M124.179 177.351C120.239 179.602 116.001 177.387 112.755 174.854C111.126 173.312 109.725 172.028 109.288 171.747C109.288 171.747 104.593 170.587 103.586 168.828C103.413 168.527 103.313 166.701 103.883 164.858C102.799 167.026 102.904 169.635 103.116 170.005C104.123 171.763 108.818 172.923 108.818 172.923C109.256 173.204 110.656 174.488 112.285 176.03C115.536 178.563 119.769 180.779 123.71 178.527C124.593 178.021 125.018 177.455 125.13 176.865C125.118 176.793 125.098 176.72 125.078 176.648C124.854 176.893 124.569 177.13 124.179 177.351Z" fill="#88A6BF"/>
<path d="M113.922 165.432C114.163 165.364 114.364 165.372 114.544 165.4C114.508 165.42 118.453 170.92 118.336 171.076C118.22 171.229 113.83 165.557 113.545 165.577C113.666 165.525 113.786 165.469 113.922 165.432Z" fill="#91ADC9"/>
<path d="M113.922 165.432C112.113 165.942 111.31 167.612 109.938 167.126C107.45 166.247 105.684 162.751 106.772 162.181C109.508 161.559 113.922 165.432 113.922 165.432Z" fill="#B5CBE5"/>
<path d="M113.71 165.501C112.149 165.938 111.154 167.211 109.97 166.793C107.823 166.034 106.302 163.02 107.241 162.53C109.601 161.984 113.71 165.501 113.71 165.501Z" fill="#88A6BF"/>
<path d="M99.6729 167.32C98.5855 167.886 100.351 171.386 102.839 172.265C104.211 172.751 105.014 171.077 106.824 170.571C107.498 170.382 107.951 170.683 108.12 170.82C108.144 170.844 108.172 170.864 108.192 170.888C109.199 171.896 110.487 174.786 112.899 176.745C114.127 177.74 117.69 179.727 118.031 182.003C117.919 182.593 117.494 183.159 116.611 183.665C112.67 185.917 108.433 183.701 105.187 181.168C103.557 179.627 102.157 178.342 101.719 178.061C101.719 178.061 97.0245 176.901 96.0173 175.143C95.6963 174.577 95.604 168.753 99.6729 167.32Z" fill="#C3D7F4"/>
<path d="M117.081 182.485C113.14 184.737 108.902 182.521 105.656 179.988C104.027 178.446 102.626 177.162 102.189 176.881C102.189 176.881 97.4941 175.721 96.4869 173.963C96.3143 173.662 96.214 171.835 96.7838 169.993C95.7004 172.16 95.8047 174.769 96.0174 175.139C97.0246 176.897 101.72 178.057 101.72 178.057C102.157 178.338 103.557 179.623 105.187 181.164C108.437 183.697 112.67 185.913 116.611 183.661C117.494 183.155 117.919 182.589 118.032 181.999C118.02 181.927 117.999 181.854 117.979 181.782C117.759 182.027 117.47 182.26 117.081 182.485Z" fill="#88A6BF"/>
<path d="M106.824 170.567C107.065 170.498 107.265 170.506 107.446 170.534C107.41 170.555 111.354 176.054 111.238 176.21C111.121 176.363 106.731 170.691 106.447 170.711C106.571 170.659 106.691 170.603 106.824 170.567Z" fill="#91ADC9"/>
<path d="M106.823 170.567C105.014 171.076 104.211 172.746 102.839 172.261C100.351 171.382 98.5852 167.885 99.6727 167.315C102.409 166.689 106.823 170.567 106.823 170.567Z" fill="#B5CBE5"/>
<path d="M106.611 170.631C105.05 171.068 104.055 172.341 102.871 171.923C100.724 171.165 99.2033 168.15 100.142 167.66C102.502 167.118 106.611 170.631 106.611 170.631Z" fill="#88A6BF"/>
<path d="M280 182.064C280 183.549 279.225 184.89 277.933 185.637L272.853 188.559L247.131 203.351C245.257 204.427 243.118 205.001 240.959 205.001C238.792 205.001 236.654 204.427 234.772 203.343L219.045 194.371C217.753 193.621 216.987 192.288 216.987 190.791C216.987 189.297 217.761 187.965 219.053 187.218L249.864 169.504C250.63 169.062 251.445 168.705 252.279 168.452C253.487 168.059 254.751 167.854 256.027 167.854C256.834 167.854 257.628 167.93 258.419 168.087C259.743 168.352 261.027 168.829 262.215 169.512L277.941 178.483C279.233 179.238 280 180.567 280 182.064Z" fill="#D7E9FF"/>
<path d="M277.492 181.265C277.492 182.67 276.761 183.935 275.542 184.633L270.75 187.387L246.481 201.344C244.711 202.36 242.697 202.901 240.658 202.901C238.612 202.901 236.597 202.36 234.82 201.336L219.984 192.87C218.765 192.16 218.042 190.903 218.042 189.494C218.042 188.085 218.773 186.829 219.992 186.126L249.061 169.411C249.783 168.994 250.55 168.657 251.34 168.416C252.48 168.042 253.672 167.854 254.876 167.854C255.634 167.854 256.388 167.926 257.135 168.075C258.383 168.323 259.595 168.777 260.714 169.419L275.55 177.885C276.769 178.6 277.492 179.856 277.492 181.265Z" fill="#A9C2E0"/>
<path d="M277.492 180.45C277.492 181.855 276.761 183.119 275.542 183.818L270.75 186.571L246.481 200.529C244.711 201.544 242.697 202.086 240.658 202.086C238.612 202.086 236.597 201.544 234.82 200.521L219.984 192.055C218.765 191.344 218.042 190.088 218.042 188.679C218.042 187.266 218.773 186.01 219.992 185.311L249.061 168.596C249.783 168.179 250.55 167.845 251.34 167.601C252.48 167.227 253.672 167.039 254.876 167.039C255.634 167.039 256.388 167.111 257.135 167.259C258.383 167.508 259.595 167.962 260.714 168.604L275.55 177.07C276.769 177.784 277.492 179.041 277.492 180.45Z" fill="#C4DCFF"/>
<path d="M240.658 200.259C238.933 200.259 237.231 199.802 235.734 198.939L220.883 190.461C220.249 190.095 219.872 189.437 219.872 188.678C219.872 187.92 220.249 187.274 220.907 186.892L249.976 170.177C250.586 169.824 251.228 169.547 251.878 169.346C252.869 169.021 253.868 168.865 254.879 168.865C255.517 168.865 256.16 168.925 256.786 169.049C257.845 169.262 258.864 169.643 259.807 170.185L274.658 178.659C275.293 179.028 275.67 179.683 275.67 180.441C275.67 181.188 275.285 181.854 274.634 182.224L245.574 198.939C244.073 199.806 242.376 200.259 240.658 200.259Z" fill="#ECF4FF"/>
<path d="M262.937 170.587C262.937 170.587 263.957 168.247 263.303 168.653C262.648 169.058 262.612 170.15 262.612 170.15C262.612 170.15 263.086 168.62 262.612 168.604C262.139 168.588 262.067 169.897 262.067 169.897C262.067 169.897 262.067 168.331 261.814 168.408C261.561 168.48 261.457 169.243 261.457 169.243C261.457 169.243 261.087 167.798 260.686 167.573C260.285 167.352 260.718 168.608 260.718 168.608C260.718 168.608 260.056 167.416 259.88 167.549C259.707 167.681 259.707 168.653 259.707 168.653L262.937 170.587Z" fill="#C4DCFF"/>
<path d="M235.723 176.909C235.723 176.909 234.266 174.81 234.27 175.58C234.274 176.351 235.181 176.957 235.181 176.957C235.181 176.957 234.129 175.753 233.865 176.142C233.6 176.536 234.675 177.286 234.675 177.286C234.675 177.286 233.347 176.463 233.275 176.72C233.202 176.973 233.8 177.463 233.8 177.463C233.8 177.463 232.376 177.017 231.975 177.242C231.573 177.467 232.869 177.76 232.869 177.76C232.869 177.76 231.505 177.696 231.525 177.917C231.545 178.133 232.372 178.647 232.372 178.647L235.723 176.909Z" fill="#C4DCFF"/>
<path d="M264.603 189.73C264.603 189.73 265.738 192.018 265.064 191.645C264.39 191.272 264.298 190.184 264.298 190.184C264.298 190.184 264.847 191.685 264.378 191.729C263.908 191.769 263.768 190.469 263.768 190.469C263.768 190.469 263.848 192.03 263.591 191.97C263.335 191.91 263.194 191.151 263.194 191.151C263.194 191.151 262.897 192.612 262.508 192.857C262.119 193.098 262.484 191.822 262.484 191.822C262.484 191.822 261.882 193.046 261.701 192.925C261.521 192.805 261.473 191.83 261.473 191.83L264.603 189.73Z" fill="#C4DCFF"/>
<path d="M272.459 175.588C272.459 175.588 273.639 173.248 272.881 173.654C272.122 174.059 272.078 175.151 272.078 175.151C272.078 175.151 272.628 173.621 272.078 173.605C271.528 173.589 271.444 174.898 271.444 174.898C271.444 174.898 271.444 173.332 271.147 173.409C270.85 173.481 270.734 174.244 270.734 174.244C270.734 174.244 270.304 172.798 269.839 172.574C269.373 172.353 269.875 173.609 269.875 173.609C269.875 173.609 269.105 172.417 268.904 172.55C268.703 172.682 268.703 173.654 268.703 173.654L272.459 175.588Z" fill="#C4DCFF"/>
<path d="M272.375 185.624C272.375 185.624 273.856 187.787 273.868 186.924C273.88 186.061 272.941 185.499 272.941 185.499C272.941 185.499 274.017 186.716 274.294 186.246C274.574 185.772 273.467 185.07 273.467 185.07C273.467 185.07 274.835 185.824 274.916 185.531C274.996 185.238 274.382 184.765 274.382 184.765C274.382 184.765 275.855 185.086 276.276 184.785C276.693 184.484 275.353 184.319 275.353 184.319C275.353 184.319 276.769 184.219 276.749 183.978C276.733 183.737 275.879 183.267 275.879 183.267L272.375 185.624Z" fill="#C4DCFF"/>
<path d="M256.805 194.391C256.805 194.391 258.126 196.659 258.198 195.8C258.27 194.941 257.379 194.31 257.379 194.31C257.379 194.31 258.362 195.603 258.675 195.153C258.988 194.704 257.937 193.917 257.937 193.917C257.937 193.917 259.249 194.768 259.346 194.483C259.446 194.194 258.868 193.68 258.868 193.68C258.868 193.68 260.313 194.11 260.754 193.841C261.195 193.572 259.867 193.307 259.867 193.307C259.867 193.307 261.288 193.311 261.288 193.07C261.288 192.829 260.473 192.299 260.473 192.299L256.805 194.391Z" fill="#C4DCFF"/>
<path d="M231.649 179.133C231.649 179.133 230.281 176.893 230.229 177.756C230.177 178.615 231.08 179.225 231.08 179.225C231.08 179.225 230.068 177.953 229.767 178.41C229.462 178.868 230.53 179.631 230.53 179.631C230.53 179.631 229.202 178.808 229.109 179.097C229.017 179.386 229.603 179.887 229.603 179.887C229.603 179.887 228.146 179.49 227.713 179.767C227.279 180.044 228.612 180.281 228.612 180.281C228.612 180.281 227.191 180.309 227.199 180.55C227.203 180.791 228.034 181.304 228.034 181.304L231.649 179.133Z" fill="#C4DCFF"/>
<path d="M263.519 170.807C263.519 170.807 264.426 169.463 264.791 169.716C265.157 169.968 264.157 170.807 264.157 170.807C264.157 170.807 265.157 170.406 265.265 170.591C265.373 170.771 264.864 171.273 264.864 171.273C264.864 171.273 265.955 170.555 266.063 170.811C266.172 171.064 265.883 171.903 265.883 171.903C265.883 171.903 267.484 171.233 267.845 171.381C268.21 171.526 267.01 172.377 267.01 172.377L268.355 172.305C268.355 172.305 268.282 172.959 268.174 173.067C268.066 173.176 263.519 170.807 263.519 170.807Z" fill="#C4DCFF"/>
<path d="M251.862 197.237C251.862 197.237 252.524 198.718 252.115 198.894C251.705 199.067 251.525 197.779 251.525 197.779C251.525 197.779 251.336 198.838 251.124 198.834C250.911 198.83 250.758 198.136 250.758 198.136C250.758 198.136 250.79 199.44 250.518 199.4C250.245 199.36 249.687 198.67 249.687 198.67C249.687 198.67 249.406 200.38 249.093 200.613C248.776 200.845 248.692 199.376 248.692 199.376L248.042 200.556C248.042 200.556 247.524 200.147 247.492 199.998C247.452 199.842 251.862 197.237 251.862 197.237Z" fill="#C4DCFF"/>
<path d="M258.262 167.998C258.426 166.043 257.756 167.411 257.756 167.411C257.756 167.411 257.443 165.581 257.118 165.922C256.789 166.263 256.681 167.54 256.681 167.54C256.681 167.54 256.572 166.143 256.243 166.231C255.914 166.32 255.698 167.259 255.698 167.259L254.871 167.861C254.871 167.861 254.879 166.091 254.333 166.231C253.788 166.372 253.952 167.54 253.952 167.54C253.952 167.54 252.102 165.806 251.528 166.388C250.955 166.97 252.808 167.54 252.808 167.54C252.808 167.54 250.244 166.741 249.919 167.046C249.59 167.351 251.336 168.423 251.336 168.423L258.262 167.998Z" fill="#C4DCFF"/>
<path d="M236.674 201.134C236.473 203.085 237.203 202.335 237.203 202.335C237.203 202.335 237.48 204.173 237.813 203.836C238.146 203.503 238.283 202.226 238.283 202.226C238.283 202.226 238.363 203.623 238.692 203.543C239.021 203.463 239.258 202.523 239.258 202.523L240.096 201.937C240.096 201.937 240.052 203.707 240.602 203.579C241.152 203.451 241.011 202.278 241.011 202.278C241.011 202.278 242.825 204.049 243.411 203.479C243.997 202.905 242.155 202.302 242.155 202.302C242.155 202.302 244.703 203.153 245.036 202.852C245.369 202.551 243.644 201.447 243.644 201.447L236.674 201.134Z" fill="#C4DCFF"/>
<path d="M243.555 172.413C242.829 170.591 242.841 172.112 242.841 172.112C242.841 172.112 241.746 170.615 241.605 171.064C241.465 171.514 241.938 172.706 241.938 172.706C241.938 172.706 241.22 171.506 240.963 171.731C240.71 171.955 240.935 172.895 240.935 172.895L240.466 173.802C240.466 173.802 239.683 172.212 239.258 172.582C238.832 172.951 239.498 173.922 239.498 173.922C239.498 173.922 237.071 173.196 236.814 173.975C236.561 174.753 238.471 174.436 238.471 174.436C238.471 174.436 235.823 174.866 235.666 175.287C235.51 175.709 237.548 175.885 237.548 175.885L243.555 172.413Z" fill="#C4DCFF"/>
<path d="M223.804 194.146C222.657 195.735 223.933 194.908 223.933 194.908C223.933 194.908 223.259 196.639 223.712 196.514C224.17 196.39 224.92 195.354 224.92 195.354C224.92 195.354 224.294 196.606 224.619 196.699C224.944 196.795 225.618 196.097 225.618 196.097L226.637 196.008C226.637 196.008 225.719 197.522 226.256 197.682C226.798 197.843 227.259 196.759 227.259 196.759C227.259 196.759 227.95 199.2 228.744 198.995C229.539 198.79 228.243 197.349 228.243 197.349C228.243 197.349 230.028 199.356 230.466 199.26C230.903 199.167 229.96 197.349 229.96 197.349L223.804 194.146Z" fill="#C4DCFF"/>
<path d="M272.158 185.688C273.334 187.257 272.042 186.455 272.042 186.455C272.042 186.455 272.748 188.173 272.291 188.056C271.833 187.94 271.063 186.916 271.063 186.916C271.063 186.916 271.713 188.157 271.388 188.257C271.067 188.357 270.381 187.675 270.381 187.675L269.362 187.607C269.362 187.607 270.309 189.104 269.775 189.273C269.237 189.441 268.756 188.365 268.756 188.365C268.756 188.365 268.114 190.818 267.315 190.629C266.516 190.441 267.785 188.976 267.785 188.976C267.785 188.976 266.039 191.015 265.598 190.93C265.156 190.846 266.067 189.012 266.067 189.012L272.158 185.688Z" fill="#C4DCFF"/>
<path d="M249.061 169.415C248.503 167.842 247.849 167.067 247.765 167.537C247.684 168.006 248.411 169.415 248.411 169.415C248.411 169.415 247.428 168.135 247.147 168.588C246.866 169.042 247.147 170.021 247.147 170.021C247.147 170.021 246.22 169.15 245.971 169.315C245.722 169.479 245.971 170.587 245.971 170.587C245.971 170.587 243.776 170.423 243.282 170.587C242.793 170.752 244.611 171.422 244.611 171.422L249.061 169.415Z" fill="#C4DCFF"/>
<path d="M231.983 197.991C230.943 199.296 230.634 200.263 231.076 200.087C231.517 199.906 232.324 198.541 232.324 198.541C232.324 198.541 231.758 200.055 232.292 200.051C232.825 200.051 233.507 199.292 233.507 199.292C233.507 199.292 233.263 200.54 233.531 200.665C233.804 200.789 234.611 199.99 234.611 199.99C234.611 199.99 235.638 201.941 236.035 202.27C236.433 202.6 236.039 200.701 236.039 200.701L231.983 197.991Z" fill="#C4DCFF"/>
<path d="M226.955 181.754C226.955 181.754 225.711 180.365 225.438 180.787C225.165 181.208 226.196 182.027 226.196 182.027C226.196 182.027 224.563 181.373 224.403 181.81C224.238 182.248 225.221 182.738 225.221 182.738C225.221 182.738 222.332 182.027 222.003 182.738C221.674 183.448 224.479 183.227 224.479 183.227C224.479 183.227 220.474 183.556 220.422 183.882C220.366 184.211 222.22 184.504 222.22 184.504L226.955 181.754Z" fill="#C4DCFF"/>
<path d="M219.992 185.315C220.474 185.038 218.813 184.11 218.772 184.568C218.732 185.026 219.426 186.085 219.426 186.085C219.426 186.085 218.391 186.109 218.042 186.085C217.693 186.061 218.772 187.225 218.772 187.225C218.772 187.225 216.878 187.482 216.822 188.626C216.766 189.77 218.455 187.759 218.455 187.759C218.455 187.759 217.095 189.409 217.316 190.437C217.532 191.464 218.776 188.972 218.776 188.972C218.776 188.972 217.91 191.846 218.455 191.958C219.001 192.066 218.776 190.75 218.776 190.75L219.992 185.315Z" fill="#C4DCFF"/>
<path d="M273.551 176.395C273.551 176.395 273.66 174.954 274.025 175.026C274.39 175.099 274.025 176.395 274.025 176.395C274.025 176.395 275.152 175.303 275.477 175.709C275.806 176.118 274.514 176.805 274.514 176.805C274.514 176.805 276.497 176.054 277.115 176.391C277.733 176.728 276.127 176.503 275.55 177.069C274.972 177.639 277.187 176.692 277.877 177.459C278.567 178.222 276.444 177.106 275.55 177.884C274.655 178.667 273.551 176.395 273.551 176.395Z" fill="#C4DCFF"/>
<path d="M222.773 192.954C222.773 192.954 223.355 194.278 222.998 194.383C222.641 194.491 222.356 193.174 222.356 193.174C222.356 193.174 221.874 194.668 221.393 194.463C220.911 194.258 221.726 193.042 221.726 193.042C221.726 193.042 220.33 194.635 219.623 194.627C218.917 194.619 220.442 194.065 220.687 193.291C220.931 192.516 219.342 193.752 218.279 193.664C217.252 193.58 219.555 193.166 219.98 192.058C220.406 190.95 222.773 192.954 222.773 192.954Z" fill="#C4DCFF"/>
<path d="M277.042 179.097C278.896 178.623 279.113 179.277 279.113 179.277L277.384 179.53C277.384 179.53 278.13 179.498 278.222 180.008C278.314 180.518 277.295 179.972 277.295 179.972C277.295 179.972 278.928 180.803 278.531 181.244C278.134 181.69 277.042 181.027 277.042 181.027C277.042 181.027 278.162 182.228 277.492 183.099C276.822 183.97 276.677 181.172 276.677 181.172L277.042 179.097Z" fill="#C4DCFF"/>
<path d="M255.991 194.776C257.608 195.8 257.279 196.41 257.279 196.41L255.911 195.322C255.911 195.322 256.445 195.844 256.14 196.257C255.835 196.675 255.53 195.559 255.53 195.559C255.53 195.559 256.047 197.317 255.449 197.333C254.856 197.349 254.587 196.097 254.587 196.097C254.587 196.097 254.482 197.734 253.387 197.847C252.295 197.959 254.23 195.932 254.23 195.932L255.991 194.776Z" fill="#C4DCFF"/>
<path d="M245.193 194.057C252.832 194.057 259.025 190.341 259.025 185.756C259.025 181.171 252.832 177.455 245.193 177.455C237.553 177.455 231.361 181.171 231.361 185.756C231.361 190.341 237.553 194.057 245.193 194.057Z" fill="#D7E9FF"/>
<path d="M258.989 185.567C258.399 185.567 257.913 185.086 257.909 184.496C257.897 182.946 255.995 181.316 252.689 180.02C252.135 179.803 251.862 179.173 252.079 178.619C252.295 178.061 252.925 177.796 253.479 178.005C255.57 178.828 257.191 179.791 258.303 180.871C259.446 181.975 260.056 183.227 260.068 184.484C260.072 185.078 259.591 185.567 258.997 185.571C258.993 185.567 258.989 185.567 258.989 185.567Z" fill="#A9C2E0"/>
<path d="M254.338 189.289C249.542 192.054 241.757 192.054 236.966 189.289C232.167 186.515 232.167 182.023 236.966 179.249C241.761 176.483 249.542 176.483 254.338 179.249C259.137 182.027 259.137 186.515 254.338 189.289Z" fill="#C3D7F4"/>
<path d="M233.367 184.275C233.367 184.275 233.367 178.021 243.315 175.974C242.323 172.782 250.498 174.48 252.564 175.954C258.134 179.908 257.881 183.625 257.881 183.625L233.367 184.275Z" fill="#C3D7F4"/>
<path d="M246.782 184.58C246.782 184.58 244.739 184.488 241.637 182.071C244.55 184.917 246.368 185.15 246.368 185.15L252.733 189.232C252.733 189.232 253.676 185.885 251.16 185.375C249.9 185.122 248.908 184.62 247.684 184.48C247.191 184.407 246.782 184.58 246.782 184.58Z" fill="#A9C2E0"/>
<path d="M254.057 185.889C254.33 185.27 257.652 186.699 255.529 188.731C253.82 190.461 251.902 190.312 251.348 190.111C250.802 189.903 250.241 188.466 251.573 188.024C252.973 187.49 253.511 186.712 254.057 185.889Z" fill="#C3D7F4"/>
<path d="M252.368 187.201C252.962 186.88 254.715 190.043 251.794 190.352C249.382 190.678 247.958 189.381 247.641 188.883C247.336 188.385 247.773 186.904 249.093 187.37C250.53 187.803 251.433 187.518 252.368 187.201Z" fill="#A9C2E0"/>
<path d="M243.315 175.978C243.832 182.991 254.057 185.151 254.057 185.151C254.057 185.151 253.84 187.262 250.975 188.169C254.105 187.611 255.277 183.698 255.277 183.698C255.277 183.698 244.482 182.694 243.315 175.978Z" fill="#A9C2E0"/>
<path d="M238.704 190.128C243.286 192.058 247.861 191.914 247.861 191.914C247.861 191.914 248.25 191.838 248.808 191.649C251.32 189.558 252.873 189.501 252.724 187.635L252.588 186.872C252.187 185.471 249.94 185.307 247.861 184.604C246.95 184.604 246.368 184.761 246.368 184.761L240.63 185.869C240.634 185.873 238.495 189.863 238.704 190.128Z" fill="#C3D7F4"/>
<path d="M246.368 184.761C246.782 183.773 250.213 182.846 250.919 182.762C250.04 184.295 247.861 186.872 247.861 186.872C247.861 186.872 245.927 185.844 246.368 184.761Z" fill="#96B1CC"/>
<path d="M258.989 183.404C258.985 183.404 258.981 183.404 258.981 183.404C258.387 183.408 257.901 183.89 257.909 184.492C257.917 185.395 257.38 186.398 256.404 187.334C255.943 187.775 255.429 188.157 254.912 188.478C253.7 189.216 252.432 189.598 251.633 189.558C251.039 189.517 250.526 189.979 250.498 190.573C250.466 191.171 250.927 191.677 251.517 191.713C251.597 191.717 251.681 191.721 251.762 191.721C253.014 191.721 254.523 191.219 255.915 190.393C256.621 189.975 257.303 189.469 257.897 188.899C259.33 187.526 260.08 185.997 260.072 184.48C260.064 183.882 259.579 183.404 258.989 183.404Z" fill="#A9C2E0"/>
<path d="M248.218 189.357C248.218 189.357 251.344 190.16 253.074 190.75C252.295 191.083 248.708 192.6 247.865 191.914C247.01 191.227 248.218 189.357 248.218 189.357Z" fill="#96B1CC"/>
<path d="M252.588 186.872C252.508 186.856 252.183 187.125 252.267 187.519C252.348 187.884 252.717 188.165 252.717 188.165C252.845 187.735 252.588 186.872 252.588 186.872Z" fill="#96B1CC"/>
<path d="M249.194 186.053C249.194 186.053 249.94 185.905 249.675 186.933C249.595 187.246 250.1 187.037 249.928 186.463C249.759 185.901 249.194 186.053 249.194 186.053Z" fill="#A9C2E0"/>
<path d="M249.302 189.189C249.302 189.189 250.044 189.361 249.811 188.325C249.739 188.008 250.241 188.233 250.048 188.803C249.86 189.361 249.302 189.189 249.302 189.189Z" fill="#A9C2E0"/>
<defs>
<linearGradient id="paint0_linear_146_1705" x1="156.059" y1="18.1262" x2="157.351" y2="18.1262" gradientUnits="userSpaceOnUse">
<stop offset="0.1654" stop-color="#B5CBE5"/>
<stop offset="0.8806" stop-color="#ECF4FF"/>
</linearGradient>
<linearGradient id="paint1_linear_146_1705" x1="149.41" y1="10.8486" x2="156.702" y2="10.8486" gradientUnits="userSpaceOnUse">
<stop offset="0.1189" stop-color="#B5CBE5"/>
<stop offset="0.3265" stop-color="#CADBEF"/>
<stop offset="0.6202" stop-color="#E3EDFB"/>
<stop offset="0.7998" stop-color="#ECF4FF"/>
</linearGradient>
<linearGradient id="paint2_linear_146_1705" x1="163.995" y1="10.8486" x2="156.702" y2="10.8486" gradientUnits="userSpaceOnUse">
<stop offset="0.1178" stop-color="#B5CBE5"/>
<stop offset="0.3291" stop-color="#CADBEF"/>
<stop offset="0.628" stop-color="#E3EDFB"/>
<stop offset="0.8108" stop-color="#ECF4FF"/>
</linearGradient>
<linearGradient id="paint3_linear_146_1705" x1="35.7126" y1="119.569" x2="15.1017" y2="119.569" gradientUnits="userSpaceOnUse">
<stop offset="0.0058103" stop-color="#C3D7F4"/>
<stop offset="0.6323" stop-color="#97B3CE"/>
<stop offset="0.7277" stop-color="#9BB6D1"/>
<stop offset="0.8203" stop-color="#A7C0DA"/>
<stop offset="0.9113" stop-color="#BAD0EA"/>
<stop offset="0.9982" stop-color="#D4E5FF"/>
</linearGradient>
</defs>
</svg>
