<svg width="24" height="24" viewBox="0 0 24 24" fill="none" xmlns="http://www.w3.org/2000/svg"><path d="M16 0c-4.411 0-8 3.589-8 8 0 .525.057 1.064.17 1.606l-.894.447a.5.5 0 00-.13.8l.647.647-.5.5H6.5a.5.5 0 00-.5.5v.793L5.293 14H4.5a.5.5 0 00-.5.5v.793L3.293 16H2.5a.5.5 0 00-.5.5v.793L.146 19.147A.5.5 0 000 19.5v4a.5.5 0 00.5.5h4a.5.5 0 00.354-.146l7.646-7.647.646.646a.501.501 0 00.8-.13l.448-.893C19.481 16.89 24 12.937 24 8c0-4.411-3.589-8-8-8zm-1.752 14.77a.502.502 0 00-.572.26l-.313.626-.51-.51a.5.5 0 00-.707 0L4.293 23H1v-3.293l1.854-1.854A.5.5 0 003 17.5V17h.5a.5.5 0 00.354-.146l1-1A.5.5 0 005 15.5V15h.5a.5.5 0 00.354-.146l1-1A.5.5 0 007 13.5V13h.5a.5.5 0 00.354-.146l1-1a.5.5 0 000-.707l-.51-.51.626-.313a.5.5 0 00.26-.572A7.047 7.047 0 019 8c0-3.86 3.14-7 7-7s7 3.14 7 7c0 4.43-4.133 7.959-8.752 6.77z" fill="#B5BDDB"/><path d="M18.5 3A2.503 2.503 0 0016 5.5C16 6.878 17.122 8 18.5 8S21 6.878 21 5.5 19.878 3 18.5 3zm0 4c-.827 0-1.5-.673-1.5-1.5S17.673 4 18.5 4s1.5.673 1.5 1.5S19.327 7 18.5 7zm-8.354 6.146l-7 7a.5.5 0 10.708.707l7-7a.5.5 0 10-.707-.707z" fill="#B5BDDB"/></svg>