<svg width="24" height="24" viewBox="0 0 24 24" fill="none" xmlns="http://www.w3.org/2000/svg"><path d="M12.004 5.837a6.157 6.157 0 00-6.158 6.158 6.157 6.157 0 006.158 6.158 6.157 6.157 0 006.158-6.158 6.157 6.157 0 00-6.158-6.158zm0 10.155a3.996 3.996 0 113.997-3.997 3.995 3.995 0 01-3.997 3.997z" fill="#4C98D1"/><path d="M16.948.075c-2.208-.103-7.677-.098-9.887 0-1.942.091-3.655.56-5.036 1.941C-.283 4.324.012 7.434.012 11.996c0 4.667-.26 7.705 2.013 9.978 2.317 2.316 5.472 2.013 9.98 2.013 4.623 0 6.22.003 7.854-.63 2.223-.863 3.901-2.85 4.065-6.419.104-2.209.098-7.677 0-9.887-.198-4.213-2.459-6.768-6.976-6.976zm3.495 20.372c-1.513 1.513-3.612 1.378-8.468 1.378-5 0-7.005.074-8.468-1.393-1.685-1.677-1.38-4.37-1.38-8.453 0-5.525-.567-9.504 4.978-9.788 1.274-.045 1.65-.06 4.856-.06l.045.03c5.33 0 9.51-.558 9.761 4.986.057 1.265.07 1.645.07 4.847 0 4.942.093 6.96-1.394 8.453z" fill="#4C98D1"/><path d="M18.407 7.033a1.439 1.439 0 100-2.878 1.439 1.439 0 000 2.878z" fill="#4C98D1"/></svg>