<svg width="138" height="205" viewBox="0 0 138 205" fill="none" xmlns="http://www.w3.org/2000/svg">
<path d="M98.018 166.68C105.378 166.68 111.345 163.23 111.345 158.975C111.345 154.72 105.378 151.27 98.018 151.27C90.6574 151.27 84.6906 154.72 84.6906 158.975C84.6906 163.23 90.6574 166.68 98.018 166.68Z" fill="#D7E9FF"/>
<path d="M102.479 93.2651H93.1454V158.978H102.479V93.2651Z" fill="#ECF4FF"/>
<path d="M97.6982 93.2651H93.1454V158.978H97.6982V93.2651Z" fill="#C9E0FF"/>
<path d="M97.2432 134.967C119.753 134.967 138 117.532 138 96.0247C138 74.5176 119.753 57.0826 97.2432 57.0826C74.7338 57.0826 56.4863 74.5176 56.4863 96.0247C56.4863 117.532 74.7338 134.967 97.2432 134.967Z" fill="#ECF4FF"/>
<path d="M112.788 123.571C90.2774 123.571 72.0314 106.137 72.0314 84.629C72.0314 75.4334 75.3747 66.9904 80.9528 60.3294C66.5541 66.3358 56.4866 80.0557 56.4866 96.0247C56.4866 117.53 74.7354 134.967 97.2434 134.967C110.13 134.967 121.612 129.246 129.082 120.327C124.088 122.409 118.582 123.571 112.788 123.571Z" fill="#C4DCFF"/>
<path d="M99.2047 95.8891C118.603 95.8891 134.329 80.8644 134.329 62.3305C134.329 43.7966 118.603 28.7719 99.2047 28.7719C79.8062 28.7719 64.0806 43.7966 64.0806 62.3305C64.0806 80.8644 79.8062 95.8891 99.2047 95.8891Z" fill="#ECF4FF"/>
<path d="M112.601 86.0678C93.2033 86.0678 77.477 71.0446 77.477 52.5092C77.477 44.5853 80.3568 37.3101 85.1659 31.569C72.7571 36.7449 64.0834 48.5674 64.0834 62.3305C64.0834 80.863 79.8096 95.8891 99.2075 95.8891C110.312 95.8891 120.207 90.9612 126.643 83.2737C122.34 85.0643 117.595 86.0678 112.601 86.0678Z" fill="#C4DCFF"/>
<path d="M98.3402 55.6927C113.144 55.6927 125.145 44.226 125.145 30.0811C125.145 15.9362 113.144 4.46951 98.3402 4.46951C83.5365 4.46951 71.5356 15.9362 71.5356 30.0811C71.5356 44.226 83.5365 55.6927 98.3402 55.6927Z" fill="#ECF4FF"/>
<path d="M108.563 48.1984C93.7584 48.1984 81.7586 36.7335 81.7586 22.5868C81.7586 16.54 83.9558 10.9864 87.6246 6.60626C78.156 10.5567 71.5355 19.5793 71.5355 30.0811C71.5355 44.2249 83.5354 55.6927 98.3401 55.6927C106.815 55.6927 114.366 51.9297 119.279 46.0646C115.996 47.4343 112.373 48.1984 108.563 48.1984Z" fill="#C4DCFF"/>
<path d="M23.2424 111.795C27.0436 111.795 30.125 110.013 30.125 107.815C30.125 105.618 27.0436 103.836 23.2424 103.836C19.4413 103.836 16.3599 105.618 16.3599 107.815C16.3599 110.013 19.4413 111.795 23.2424 111.795Z" fill="#D7E9FF"/>
<path d="M25.7135 64.0405H20.8928V107.815H25.7135V64.0405Z" fill="#ECF4FF"/>
<path d="M23.2433 64.0405H20.8928V107.815H23.2433V64.0405Z" fill="#C9E0FF"/>
<path d="M41.7332 65.4649C41.7332 76.5723 33.454 85.5747 23.2425 85.5747C13.031 85.5747 4.75171 76.5723 4.75171 65.4649C4.75171 54.3576 13.0885 0 23.3029 0C33.5174 0 41.7332 54.3604 41.7332 65.4649Z" fill="#ECF4FF"/>
<path d="M29.9724 79.9605C19.7609 79.9605 11.4816 70.9581 11.4816 59.8507C11.4816 50.9665 16.8178 14.4148 24.1784 0.138413C23.8875 0.0519068 23.5967 0 23.3029 0C13.0914 0 4.75171 54.3576 4.75171 65.4649C4.75171 76.5723 13.031 85.5747 23.2425 85.5747C29.0164 85.5747 34.1711 82.6941 37.5634 78.1871C35.2452 79.3232 32.6794 79.9605 29.9724 79.9605Z" fill="#C4DCFF"/>
<path d="M62.2342 184.169L44.3885 173.448C38.007 169.615 38.007 163.341 44.3885 159.509C50.77 155.676 61.2091 155.676 67.5906 159.509L85.4363 170.23C91.8177 174.062 91.8177 180.336 85.4363 184.169C79.0548 188.004 68.6157 188.004 62.2342 184.169Z" fill="#D7E9FF"/>
<path d="M74.7091 183.468L74.7466 180.192L69.6178 180.134L69.5803 183.456H69.5947C69.6264 184.293 70.738 184.979 72.126 184.996C73.514 185.013 74.64 184.353 74.6918 183.517H74.7062L74.7091 183.468Z" fill="#88A3BC"/>
<path d="M74.7465 180.192C74.7379 181.051 73.5802 181.735 72.1662 181.718C70.7494 181.7 69.6091 180.994 69.6206 180.134C69.6292 179.275 70.7869 178.592 72.2008 178.609C73.6176 178.624 74.7551 179.333 74.7465 180.192Z" fill="#C4DCFF"/>
<path d="M86.5192 176.193L86.5566 172.914L81.4278 172.856L81.3904 176.181H81.4048C81.4365 177.02 82.5451 177.707 83.9361 177.721C85.327 177.738 86.4501 177.075 86.5019 176.239H86.5163L86.5192 176.193Z" fill="#88A3BC"/>
<path d="M86.5566 172.911C86.548 173.77 85.3903 174.454 83.9764 174.437C82.5596 174.419 81.4221 173.71 81.4307 172.851C81.4394 171.991 82.597 171.308 84.0109 171.325C85.4278 171.343 86.5682 172.055 86.5566 172.911Z" fill="#C4DCFF"/>
<path d="M86.9997 173.223L47.4811 149.445V55.8973L86.9997 79.675V173.223Z" fill="#A9C2E0"/>
<path d="M69.5805 184.145L30.0619 160.368V66.8201L69.5805 90.5978V184.145Z" fill="#A9C2E0"/>
<path d="M30.062 66.8202L47.4815 55.8973L87.0001 79.675L69.5806 90.5978L30.062 66.8202Z" fill="#D9E9F4"/>
<path d="M69.5809 184.145L87.0004 173.223V79.675L69.5809 90.5978V184.145Z" fill="#BED6ED"/>
<path opacity="0.82" d="M61.5465 108.159C61.5465 108.159 56.674 110.817 56.5127 121.772C56.4523 125.872 55.6834 148.468 54.3443 155.5C54.2608 155.933 52.6136 165.048 50.5661 165.694C48.5186 166.34 29.5066 152.424 29.5066 151.983C29.5066 151.541 39.3466 107.461 39.3466 107.461L53.2471 104.436L61.5465 108.159Z" fill="#9DB8D1"/>
<path d="M32.2201 94.2945L64.1708 113.274C64.2745 113.334 64.3609 113.271 64.3637 113.133L64.4357 107.051C64.4386 106.91 64.3551 106.748 64.2485 106.685L32.2979 87.7056C32.1942 87.645 32.1078 87.7085 32.105 87.8469L32.033 93.9283C32.033 94.0667 32.1136 94.2311 32.2201 94.2945Z" fill="#BED4EA"/>
<path opacity="0.6" d="M36.672 93.1152L61.5471 108.159C60.7638 108.816 60.0238 109.572 59.3413 110.402L34.2789 95.5143C35.0133 94.6204 35.8196 93.8073 36.672 93.1152Z" fill="#9DB8D1"/>
<path d="M33.1593 92.4779L63.2871 110.373C63.359 110.416 63.4166 110.373 63.4195 110.275L63.4368 108.747C63.4368 108.652 63.3821 108.539 63.3101 108.496L33.1823 90.6036C33.1103 90.5603 33.0527 90.6036 33.0499 90.7016L33.0326 92.2299C33.0297 92.325 33.0873 92.4346 33.1593 92.4779Z" fill="#7D9DB5"/>
<path d="M33.1824 90.6036L33.7957 90.9669L33.7871 91.7916C33.7871 91.8867 33.8418 91.9992 33.9138 92.0425L63.4311 109.574L63.4224 110.278C63.4224 110.373 63.362 110.416 63.29 110.376L33.1622 92.4808C33.0902 92.4375 33.0326 92.325 33.0355 92.2299L33.0528 90.7016C33.0499 90.6036 33.1104 90.5603 33.1824 90.6036Z" fill="#9DB8D1"/>
<path d="M64.4351 106.849L67.1572 105.393L67.0938 111.982L64.2853 113.288L64.4351 106.849Z" fill="#A9C2E0"/>
<path d="M32.2976 87.7056L64.4354 107.048L67.1568 105.393L34.8951 86.2466L32.2976 87.7056Z" fill="#D9E9F4"/>
<path d="M45.0681 160.071L20.0029 145.183C23.951 142.963 27.1965 137.487 27.2483 132.951L27.3606 106.584C27.424 101.255 31.2368 94.8164 35.8789 92.2068L60.9441 107.094C56.302 109.704 52.4892 116.143 52.4258 121.472L52.3135 147.839C52.2588 152.375 49.0162 157.85 45.0681 160.071Z" fill="url(#paint0_linear_162_4019)"/>
<path opacity="0.41" d="M45.0681 160.071L20.0029 145.183C23.951 142.963 27.1965 137.487 27.2483 132.951L27.3606 106.584C27.424 101.255 31.2368 94.8164 35.8789 92.2068L60.9441 107.094C56.302 109.704 52.4892 116.143 52.4258 121.472L52.3135 147.839C52.2588 152.375 49.0162 157.85 45.0681 160.071Z" fill="url(#paint1_linear_162_4019)"/>
<path d="M35.8796 92.2067L60.9449 107.094C60.7404 107.21 60.5388 107.334 60.3401 107.463L60.3372 107.461L35.2749 92.5729C35.4765 92.446 35.6781 92.322 35.8796 92.2067Z" fill="#A9C2E0"/>
<path opacity="0.55" d="M48.7921 122.559L30.0939 111.307V110.102L48.7921 121.353V122.559ZM47.0095 122.833L30.0911 112.654V113.859L47.0095 124.038V122.833ZM44.3141 123.758L30.0911 115.2V116.405L44.3141 124.964V123.758ZM47.7726 128.389L30.0911 117.752V118.957L47.7726 129.595V128.389ZM46.0045 129.874L30.0911 120.301V121.506L46.0045 131.08V129.874ZM43.8504 131.126L30.0911 122.847V124.052L43.8504 132.331V131.126Z" fill="#9DB8D1"/>
<path d="M9.84004 186.519C15.2746 186.519 19.6801 183.972 19.6801 180.829C19.6801 177.687 15.2746 175.14 9.84004 175.14C4.40554 175.14 0 177.687 0 180.829C0 183.972 4.40554 186.519 9.84004 186.519Z" fill="#D7E9FF"/>
<path d="M3.83369 177.989C3.83369 177.989 3.64075 179.486 3.64075 180.025C3.64075 180.567 3.88265 181.331 5.26204 181.184C6.72782 181.029 7.6407 179.76 8.41822 179.44C9.21879 179.108 10.7595 177.906 10.9639 177.15C11.1684 176.395 9.76883 176.372 9.07769 176.591C8.40384 176.804 7.73862 176.922 6.62992 177.439L3.83369 177.989Z" fill="#0863EF"/>
<path d="M3.83369 178.148L6.62992 177.591C7.73862 177.075 8.40384 176.96 9.07769 176.744C9.69396 176.547 10.8689 176.547 10.9725 177.084C11.082 176.392 9.74579 176.374 9.07769 176.588C8.40384 176.801 7.73862 176.919 6.62992 177.436L3.83369 177.992C3.83369 177.992 3.64075 179.489 3.64075 180.028C3.64075 180.051 3.64075 180.074 3.64363 180.097C3.66091 179.5 3.83369 178.148 3.83369 178.148Z" fill="#99BCE6"/>
<path d="M5.25289 151.724C5.25289 151.724 5.10891 158.979 5.25289 162.199C5.39688 165.423 4.84397 165.371 4.21619 168.636C3.59128 171.9 3.24572 177.612 3.24572 177.612C3.24572 177.612 3.0643 178.875 5.06859 179.111C7.07577 179.348 7.84177 177.612 7.84177 177.612C7.84177 177.612 7.89938 174.204 8.84393 170.25C9.78848 166.297 10.0534 164.469 10.3644 162.488C10.6726 160.507 11.3666 159.8 11.7265 154.512L5.25289 151.724Z" fill="#4E87EE"/>
<path d="M5.93669 179.031C3.92896 178.794 4.11332 177.531 4.11332 177.531C4.11332 177.531 4.45898 171.822 5.08405 168.555C5.70913 165.291 6.26507 165.34 6.12104 162.119C6.00006 159.376 6.08359 153.719 6.11239 152.093L5.25112 151.721C5.25112 151.721 5.10709 158.976 5.25112 162.197C5.39515 165.42 4.84209 165.368 4.21414 168.633C3.58906 171.897 3.2434 177.609 3.2434 177.609C3.2434 177.609 3.06192 178.872 5.06677 179.109C5.46716 179.155 5.81859 179.123 6.12393 179.042C6.06344 179.039 6.00294 179.039 5.93669 179.031Z" fill="#0552DE"/>
<path d="M10.3614 181.62C10.3614 181.62 10.3038 183.157 10.3614 183.699C10.419 184.241 10.7847 184.97 12.3024 184.691C13.82 184.408 14.6349 183.171 15.3664 182.834C16.0978 182.496 17.4168 181.372 17.5579 180.694C17.699 180.019 16.6911 179.685 16.0719 179.884C15.4528 180.08 14.2174 180.192 13.1202 180.7L10.3614 181.62Z" fill="#0863EF"/>
<path d="M16.0718 179.884C15.4527 180.08 14.2173 180.192 13.1201 180.7L10.3584 181.62C10.3584 181.62 10.3555 181.703 10.3527 181.833L13.0423 180.936C14.1395 180.429 15.3749 180.316 15.9941 180.12C16.6046 179.927 17.5894 180.247 17.4829 180.905C17.5174 180.832 17.5462 180.76 17.5577 180.694C17.6989 180.019 16.691 179.688 16.0718 179.884Z" fill="#99BCE6"/>
<path d="M15.5124 152.799C15.5124 152.799 15.4289 158.208 14.9854 165.057C14.5333 172.038 13.9545 180.7 13.9545 180.7C13.9545 180.7 13.7068 181.905 12.0164 181.905C10.326 181.905 9.99769 181.749 9.80763 181.199C9.0877 179.122 9.60029 175.068 9.66076 172.41C9.71836 169.751 10.1849 168.471 10.3375 166.23C10.4901 163.99 9.2 160.469 8.90339 156.824C8.90339 156.824 4.58091 154.993 5.34116 150.656L15.5124 152.799Z" fill="#4E87EE"/>
<path d="M12.8057 181.513C11.1153 181.513 10.787 181.357 10.5969 180.806C9.87699 178.73 10.3896 174.676 10.4501 172.017C10.5076 169.359 10.9742 168.079 11.1268 165.838C11.2794 163.597 9.98929 160.077 9.69268 156.432C9.69268 156.432 5.73881 154.754 6.06422 150.812L5.34141 150.659C4.58116 154.993 8.90363 156.827 8.90363 156.827C9.19737 160.472 10.4875 163.993 10.3378 166.233C10.1851 168.474 9.72148 169.754 9.66101 172.412C9.60341 175.071 9.09082 179.125 9.80788 181.201C9.99794 181.749 10.3262 181.908 12.0166 181.908C12.7423 181.908 13.2002 181.686 13.4882 181.432C13.2923 181.481 13.0677 181.513 12.8057 181.513Z" fill="#0552DE"/>
<path d="M6.83706 130.448C6.83706 130.448 2.82271 131.78 2.48578 140.901C2.48578 140.901 2.27268 141.587 5.59877 145.03C8.41227 147.946 6.83706 130.448 6.83706 130.448Z" fill="#F8FBFF"/>
<path d="M15.5138 149.287C15.7989 150.541 15.7096 152.51 15.6146 153.71C15.5656 154.339 15.1164 154.869 14.5001 155.008C11.583 155.662 9.3483 155.426 7.42752 154.921C5.99341 154.543 5.4837 153.88 5.30516 153.413C5.20149 153.136 5.20149 152.828 5.28788 152.542C6.27275 149.261 15.0934 147.444 15.5138 149.287Z" fill="#0552DE"/>
<path d="M5.23847 140.858C4.78059 136.146 5.01673 131.974 6.1139 130.913C7.21108 129.852 8.59049 130.474 8.59049 130.474L14.0591 132.017C14.6898 132.196 15.1217 132.773 15.1131 133.427C15.0843 135.699 15.0181 140.832 15.0181 142.822C15.0181 145.414 15.0814 146.746 15.5134 148.649C15.7898 149.86 15.8474 151.703 15.856 152.885C15.8589 153.563 15.3924 154.157 14.7329 154.304C11.8043 154.947 9.33057 154.783 7.42994 154.284C6.08799 153.932 5.43141 153.344 5.11176 152.897C4.90442 152.606 4.82379 152.242 4.86987 151.888C5.31047 148.554 5.67619 145.391 5.23847 140.858Z" fill="#F8FBFF"/>
<path d="M8.12966 154.174C6.78771 153.822 6.46231 153.087 6.14266 152.637C5.93532 152.346 5.85468 151.983 5.90075 151.628C6.34135 148.289 6.37879 145.276 5.93819 140.743C5.48031 136.031 5.71644 131.858 6.81362 130.797C7.07568 130.544 7.35213 130.391 7.62283 130.296C7.16495 130.299 6.60916 130.431 6.11097 130.913C5.01379 131.974 4.78054 136.146 5.23553 140.858C5.67613 145.391 5.30753 148.554 4.86693 151.89C4.82085 152.245 4.89861 152.608 5.10883 152.9C5.42848 153.347 6.08505 153.935 7.42701 154.287C9.18941 154.748 11.4414 154.924 14.0936 154.434C11.7437 154.777 9.73368 154.595 8.12966 154.174Z" fill="#B6D1FE"/>
<path d="M21.175 136.639C21.175 136.639 21.3796 135.89 21.4084 135.417C21.4314 135.013 22.0075 134.076 22.1458 134.26C22.2841 134.445 21.9182 135.448 22.117 135.385C22.9091 135.131 23.8079 134.122 24.6864 133.591C25.3518 133.191 24.4502 136.163 23.7791 136.68C22.6672 137.533 22.1343 137.934 22.1343 137.934L21.175 136.639Z" fill="#FCB892"/>
<path d="M22.0075 135.386C22.0277 135.38 22.045 135.368 22.0652 135.36C22.0565 135.068 22.244 134.393 22.1431 134.261C22.1229 134.235 22.0911 134.232 22.0565 134.249C22.0796 134.566 21.8315 135.443 22.0075 135.386Z" fill="#DB895D"/>
<path d="M24.7869 133.557C24.9137 134.073 24.2137 136.14 23.6635 136.561C22.6582 137.331 21.9208 137.6 21.8286 137.669L22.1368 137.931C22.1368 137.931 22.6697 137.53 23.7816 136.677C24.4096 136.195 25.2449 133.534 24.7869 133.557Z" fill="#DB895D"/>
<path d="M13.7391 134.035C13.5519 135.362 13.6411 137.106 13.9003 138.335C14.3985 140.682 15.0205 144.511 17.4885 143.439C19.9564 142.366 22.6173 138.39 22.6173 137.931C22.6173 137.473 21.5431 135.993 20.9672 136.158C20.3912 136.322 17.6526 139.235 17.6526 139.235C17.6526 139.235 17.5518 132.775 15.9046 132.363C14.2603 131.954 13.8197 133.467 13.7391 134.035Z" fill="#F8FBFF"/>
<path d="M17.7247 142.735C15.2539 143.808 14.6347 139.979 14.1365 137.632C13.8745 136.403 13.7852 134.656 13.9752 133.332C13.981 133.298 13.9868 133.26 13.9954 133.22C13.8428 133.525 13.7708 133.84 13.742 134.036C13.5548 135.362 13.6441 137.107 13.9033 138.335C14.4014 140.682 15.0235 144.512 17.4914 143.439C19.9622 142.366 22.6202 138.39 22.6202 137.932C22.6202 137.894 22.6116 137.851 22.5972 137.802C21.8744 139.059 19.7376 141.865 17.7247 142.735Z" fill="#B6D1FE"/>
<path d="M14.0764 123.528C13.0656 121.838 10.0447 121.677 8.55591 123.433C7.99724 124.09 7.54511 125.864 8.18729 127.164C8.45799 127.715 8.84675 128.231 9.30463 128.687C9.30175 128.713 9.29312 128.739 9.29312 128.768C9.2528 129.99 9.36222 131.037 9.64444 131.403C10.085 131.968 13.2556 132.568 13.2383 131.888C13.1519 131.541 13.1174 131.429 13.0137 131.063C12.9504 130.835 12.864 130.616 12.7661 130.402C13.1635 130.414 13.5407 130.348 13.869 130.18C14.6724 129.777 15.0871 125.218 14.0764 123.528Z" fill="#FCB892"/>
<path d="M9.5644 131.005C9.48376 130.901 9.41751 130.74 9.36279 130.538C9.42327 130.933 9.51543 131.236 9.64215 131.4C10.0828 131.965 13.2538 132.565 13.2365 131.884C13.2019 131.746 13.176 131.645 13.1501 131.55C12.9773 132.132 9.99065 131.553 9.5644 131.005Z" fill="#DB895D"/>
<path d="M9.21375 128.372C9.21375 128.343 9.22239 128.32 9.22527 128.291C8.76694 127.836 8.37781 127.317 8.10684 126.769C8.02325 126.602 7.95982 126.429 7.9137 126.25C7.95982 126.567 8.0463 126.879 8.18755 127.164C8.43833 127.672 8.79577 128.153 9.20798 128.583C9.21086 128.513 9.21086 128.441 9.21375 128.372Z" fill="#DB895D"/>
<path d="M13.784 130.102C13.4294 130.2 13.0864 130.016 12.6886 130.004C12.7145 130.143 12.7203 130.267 12.7664 130.399C13.1354 130.399 13.6341 130.322 13.8705 130.177C14.0232 130.088 14.0549 130.027 13.784 130.102Z" fill="#DB895D"/>
<path d="M14.6725 124.958C13.9929 125.679 13.6358 125.33 13.2384 125.797C13.1923 125.852 12.7632 127.761 12.7028 127.732C12.2737 127.533 12.5127 126.729 11.7755 126.59C11.0383 126.455 11.1592 128.228 11.2543 128.935C11.3493 129.641 10.8252 129.932 10.2435 129.855C9.66176 129.777 8.25356 128.94 7.71505 127.366C7.17654 125.792 7.54228 123.13 10.4969 122.057C12.1009 121.475 15.0929 122.262 15.2628 122.946C15.3953 123.499 15.1477 124.454 14.6725 124.958Z" fill="#DB895D"/>
<path d="M14.6725 124.563C13.9929 125.284 13.6358 124.935 13.2384 125.402C13.1923 125.457 12.7632 127.366 12.7028 127.337C12.2737 127.138 12.5127 126.334 11.7755 126.195C11.0383 126.06 11.1592 127.833 11.2543 128.539C11.3493 129.246 10.8252 129.537 10.2435 129.459C9.66176 129.381 8.25356 128.545 7.71505 126.971C7.17654 125.396 7.54228 122.735 10.4969 121.662C12.1009 121.08 15.0929 121.867 15.2628 122.55C15.3953 123.104 15.1477 124.058 14.6725 124.563Z" fill="#412424"/>
<path d="M47.1411 203.912L53.8855 199.861C56.2958 198.413 56.2958 196.043 53.8855 194.593C51.4751 193.145 47.5299 193.145 45.1167 194.593L38.3723 198.644C35.962 200.092 35.962 202.462 38.3723 203.912C40.7855 205.363 44.7308 205.363 47.1411 203.912Z" fill="#D7E9FF"/>
<path d="M31.2919 200.094C35.3061 200.094 38.5603 198.213 38.5603 195.893C38.5603 193.573 35.3061 191.692 31.2919 191.692C27.2776 191.692 24.0234 193.573 24.0234 195.893C24.0234 198.213 27.2776 200.094 31.2919 200.094Z" fill="#D7E9FF"/>
<path d="M28.1496 193.589C28.1496 193.589 27.3404 194.921 27.686 195.962C28.0315 197.003 28.4952 197.525 29.5923 197.237C30.6895 196.949 33.5606 196.02 33.5606 196.02L32.6564 193.589H29.4195H28.1496Z" fill="#0863EF"/>
<path d="M30.5844 193.416L30.1549 193.999C30.1549 193.999 29.5755 194.76 29.6476 195.515C29.7196 196.271 29.9589 197.136 29.9589 197.136L30.6075 196.946L30.9274 193.474L30.5844 193.416Z" fill="#1158BF"/>
<path d="M30.7499 193.647C30.7499 193.647 30.1653 194.244 29.9349 195.276C29.9349 195.276 29.6498 197.64 31.6743 197.352C33.6987 197.064 35.752 196.444 36.0687 196.135C36.4633 195.749 36.8203 194.745 35.6627 194.601C34.505 194.457 33.1717 194.63 33.1746 194.166C33.1775 193.702 30.7499 193.647 30.7499 193.647Z" fill="#0863EF"/>
<path d="M33.1781 194.327C33.1752 194.792 34.5089 194.616 35.6669 194.763C36.1623 194.823 36.4245 195.04 36.4504 195.296C36.4821 194.97 36.2603 194.676 35.6669 194.601C34.5089 194.457 33.1752 194.63 33.1781 194.166C33.1781 193.705 33.1781 193.866 33.1781 194.327Z" fill="#99BCE6"/>
<path d="M26.6665 145.27C26.6665 145.27 25.2612 146.1 22.4218 155.408C22.1021 156.458 22.6579 157.13 23.6428 157.905C24.6276 158.681 30.7788 160.209 31.0869 160.639C31.3921 161.069 30.8479 163.11 31.6715 163.22C32.4979 163.329 34.3151 163.889 33.8169 163.263C33.3187 162.637 32.6678 161.507 32.711 161.002C32.7542 160.498 33.9868 159.506 32.7946 159.512C31.5995 159.517 25.2525 156.409 25.4196 155.956C25.5837 155.503 28.6132 150.636 28.809 150.25C29.0048 149.863 26.6665 145.27 26.6665 145.27Z" fill="#FCB892"/>
<path d="M33.8145 163.266C33.3163 162.64 32.6655 161.51 32.7087 161.005C32.7519 160.501 33.9844 159.509 32.7922 159.514C31.5971 159.52 25.2502 156.412 25.4172 155.959C25.5814 155.506 28.6108 150.639 28.8067 150.253C29.0025 149.866 26.667 145.273 26.667 145.273C26.667 145.273 26.5317 145.353 26.261 145.74C26.8484 146.916 28.3257 149.944 28.1674 150.255C27.9715 150.642 24.9421 155.509 24.7779 155.962C24.6138 156.415 30.9578 159.523 32.1529 159.517C33.348 159.512 32.1126 160.503 32.0694 161.008C32.0262 161.513 32.677 162.643 33.1752 163.269C33.2789 163.399 33.2789 163.476 33.2098 163.52C33.7224 163.595 34.0679 163.583 33.8145 163.266Z" fill="#DB895D"/>
<path d="M26.742 159.278C26.742 159.278 25.1034 160.881 25.3683 164.892C25.6333 168.903 26.6354 172.551 26.742 174.2C26.742 174.2 27.5195 178.531 27.1048 180.181C26.6901 181.83 26.742 183.857 27.0472 186.839C27.3208 189.495 27.5944 194.607 27.5944 194.607L30.9234 193.48C30.9234 193.48 30.5778 180.714 30.9234 179.846C30.9234 179.846 32.1242 175.071 31.7412 172.554C31.3582 170.036 32.0551 163.003 32.0551 163.003L26.742 159.278Z" fill="#F2F4F7"/>
<path d="M28.3949 193.803C28.3949 193.803 28.1213 188.69 27.8477 186.034C27.5425 183.053 27.4906 181.026 27.9053 179.376C28.32 177.727 27.5425 173.396 27.5425 173.396C27.4359 171.746 26.4338 168.099 26.1688 164.088C26.0162 161.778 26.4943 160.27 26.9291 159.405L26.7448 159.275C26.7448 159.275 25.1062 160.878 25.3711 164.889C25.6361 168.9 26.6382 172.548 26.7448 174.197C26.7448 174.197 27.5223 178.528 27.1076 180.178C26.693 181.827 26.7448 183.854 27.05 186.836C27.3236 189.492 27.5972 194.604 27.5972 194.604L30.9262 193.477C30.9262 193.477 30.9204 193.286 30.9118 192.952L28.3949 193.803Z" fill="#B6D1FE"/>
<path d="M29.1904 166.21C29.1904 166.21 29.0177 168.295 30.0572 170.553C31.0968 172.81 32.3121 176.129 32.6548 178.906C32.9975 181.686 31.4424 187.917 31.2696 189.569C31.0968 191.219 30.4892 193.826 30.4892 193.826L33.3517 194.172C33.3517 194.172 37.222 183.828 36.839 178.543C36.4934 173.779 39.7072 162.409 37.6482 160.596C36.1018 159.232 29.968 163.609 29.968 163.609L29.1904 166.21Z" fill="#F2F4F7"/>
<path d="M32.069 189.486C32.2418 187.836 33.7969 181.602 33.4542 178.823C33.1115 176.043 31.8703 170.991 31.7523 170.27C31.5565 169.091 31.5219 166.965 31.5219 166.965C31.5219 166.965 28.7861 166.732 28.1324 166.054C28.3455 166.637 29.7364 168.119 30.3729 169.439C31.1533 171.06 32.3225 176.193 32.6565 178.903C32.9992 181.683 31.4441 187.914 31.2713 189.567C31.0986 191.216 30.4909 193.823 30.4909 193.823L33.3534 194.169C33.3534 194.169 33.3764 194.108 33.4168 193.999L31.2915 193.742C31.2886 193.742 31.8963 191.135 32.069 189.486Z" fill="#B6D1FE"/>
<path d="M28.3233 157.043C28.0641 158.433 26.3565 159.252 26.2384 160.555C26.1606 161.415 28.4212 162.969 30.5465 163.053C33.0893 163.156 38.5896 162.508 37.6508 160.59C36.7494 158.756 28.5825 155.653 28.3233 157.043Z" fill="#B6D1FE"/>
<path d="M28.845 145.457C28.845 145.457 26.9386 144.676 26.5038 145.457C26.069 146.239 25.8962 149.973 26.5038 151.363C27.1114 152.753 28.5859 155.097 28.3238 156.487C28.0646 157.877 26.3569 158.695 26.2389 159.999C26.1611 160.858 28.4217 162.412 30.547 162.496C33.0898 162.6 38.4806 162.15 37.5534 160.036C36.7298 158.165 37.1704 150.671 37.5159 149.976C37.9882 149.033 35.9637 150.019 36.3986 145.33C36.3986 145.325 31.313 144.713 28.845 145.457Z" fill="#4E87EE"/>
<path d="M37.6503 160.377C37.6503 160.377 35.7261 158.701 35.3661 157.577C35.0002 156.438 34.283 147.597 35.006 146.478C35.729 145.359 36.0718 145.302 36.0718 145.302L37.0396 157.536L37.6503 160.377Z" fill="#0552DE"/>
<path d="M31.5048 162.173C29.3796 162.087 27.119 160.535 27.1967 159.676C27.3148 158.373 29.0196 157.554 29.2817 156.164C29.5408 154.774 28.0664 152.43 27.4617 151.04C26.854 149.65 27.0268 145.916 27.4617 145.134C27.4645 145.126 27.4732 145.123 27.4761 145.114C27.0614 145.082 26.6697 145.152 26.5027 145.454C26.0679 146.236 25.8951 149.97 26.5027 151.36C27.1103 152.75 28.5848 155.094 28.3227 156.484C28.0635 157.874 26.3558 158.693 26.2378 159.996C26.16 160.855 28.4206 162.409 30.5459 162.493C32.1729 162.559 34.9576 162.398 36.5155 161.723C34.9403 162.13 32.8324 162.228 31.5048 162.173Z" fill="#0552DE"/>
<path d="M35.6916 142.464C35.3806 140.333 35.4468 137.701 33.8745 137.104C30.3756 135.78 28.1524 137.017 27.804 140.665C27.7435 141.296 27.6945 141.859 27.66 142.378C27.6485 142.533 26.9861 144.295 26.7442 145.477C26.5023 146.66 28.2647 151.567 28.2647 151.567L28.4634 148.471C28.475 148.502 28.4865 148.534 28.498 148.569C29.5376 151.348 30.7067 152.617 31.7435 155.186C32.0487 155.945 32.4634 148.845 33.4367 147.704C33.7967 148.145 34.1682 148.897 34.2776 150.178C34.2747 150.175 36.4777 145.258 35.6916 142.464Z" fill="#0552DE"/>
<path d="M36.181 141.452C35.87 139.321 35.4466 136.501 33.8714 135.907C30.3725 134.583 28.1494 135.82 27.8009 139.468C27.7405 140.1 27.6915 140.662 27.6569 141.181C27.6454 141.337 26.9831 143.098 26.7412 144.281C26.4993 145.463 28.2617 150.371 28.2617 150.371L28.4604 147.274C28.4719 147.306 28.4834 147.337 28.495 147.372C29.5345 150.152 30.7037 151.42 31.7404 153.99C32.0457 154.748 32.4603 147.649 33.4337 146.507C33.7937 146.948 34.1651 147.701 34.2746 148.981C34.2746 148.975 36.97 144.246 36.181 141.452Z" fill="#F9339C"/>
<path d="M27.061 143.877C27.303 142.698 27.9656 140.933 27.9771 140.778C28.0116 140.258 28.0606 139.696 28.1211 139.065C28.2277 137.931 28.5186 137.032 28.9708 136.369C28.3342 137.049 27.9339 138.084 27.8013 139.463C27.7409 140.094 27.6919 140.656 27.6573 141.175C27.6458 141.331 26.9833 143.093 26.7413 144.275C26.4994 145.457 28.2622 150.365 28.2622 150.365L28.3343 149.249C27.859 147.842 26.8767 144.777 27.061 143.877Z" fill="#E23096"/>
<path d="M33.7535 146.1C33.6613 146.21 33.5748 146.371 33.4912 146.576C33.8342 147.026 34.1715 147.761 34.2782 148.975C34.2782 148.975 34.3992 148.765 34.578 148.41C34.4482 147.231 34.0966 146.521 33.7535 146.1Z" fill="#E23096"/>
<path d="M28.8154 146.965C28.8039 146.931 28.7924 146.902 28.7808 146.867L28.7146 147.917C29.6997 150.322 30.777 151.59 31.742 153.981C31.814 154.16 31.8918 153.9 31.9811 153.39C30.9643 150.953 29.8294 149.673 28.8154 146.965Z" fill="#E23096"/>
<path d="M41.5722 195.706L43.444 194.486C44.0977 194.062 44.6074 192.975 44.6074 192.012V167.71C44.6074 167.139 44.4202 166.689 44.0948 166.475C43.8068 166.288 43.4555 166.308 43.11 166.533L41.2381 167.753C40.5844 168.177 40.0747 169.264 40.0747 170.227V194.529C40.0747 195.1 40.2619 195.55 40.5873 195.763C40.7169 195.847 40.8609 195.89 41.0106 195.89C41.192 195.893 41.385 195.83 41.5722 195.706ZM43.7665 167.124C43.8529 167.182 43.948 167.366 43.948 167.71V192.012C43.948 192.698 43.5592 193.552 43.1157 193.84L41.2439 195.06C41.1661 195.109 41.025 195.181 40.9242 195.118C40.8378 195.06 40.7428 194.878 40.7428 194.532V170.23C40.7428 169.546 41.1316 168.69 41.5751 168.402L43.4469 167.182C43.5016 167.147 43.5909 167.098 43.6744 167.098C43.7061 167.098 43.7377 167.107 43.7665 167.124Z" fill="#CCDFF2"/>
<path d="M40.7639 199.215C40.4701 198.924 40.1532 198.831 39.943 198.947L39.3035 199.316L40.4413 201.239C40.4413 201.239 41.0606 200.882 41.0779 200.867H41.0808C41.1441 200.818 41.1989 200.752 41.2363 200.66C41.3861 200.27 41.1758 199.624 40.7639 199.215Z" fill="#30397A"/>
<path d="M40.6225 201.014C40.4727 201.404 40.0204 201.386 39.6114 200.977C39.1995 200.567 38.9892 199.922 39.1361 199.535C39.2859 199.146 39.7381 199.163 40.1472 199.573C40.5591 199.982 40.7694 200.628 40.6225 201.014Z" fill="#222949"/>
<path d="M40.2308 200.701C40.1385 200.845 39.931 200.822 39.7407 200.631C39.5332 200.424 39.4236 200.095 39.4986 199.899C39.5332 199.806 39.6024 199.757 39.686 199.754C39.6773 199.769 39.6715 199.786 39.6629 199.804C39.5851 200.005 39.6946 200.331 39.9022 200.542C40.0146 200.652 40.1328 200.709 40.2308 200.701Z" fill="#30397A"/>
<path d="M40.2583 200.652C40.2525 200.669 40.241 200.686 40.2323 200.701C40.1342 200.707 40.0159 200.652 39.9006 200.539C39.6929 200.332 39.5832 200.003 39.6611 199.801C39.6698 199.786 39.6755 199.769 39.6842 199.752C39.7823 199.746 39.9034 199.801 40.016 199.913C40.2265 200.124 40.3361 200.456 40.2583 200.652Z" fill="#99BCE6"/>
<path d="M45.1894 201.871C44.8956 201.579 44.5788 201.487 44.3685 201.602L43.729 201.972L44.8668 203.895C44.8668 203.895 45.4861 203.537 45.5034 203.523H45.5063C45.5697 203.474 45.6244 203.408 45.6618 203.315C45.8088 202.926 45.5985 202.28 45.1894 201.871Z" fill="#30397A"/>
<path d="M45.0451 203.67C44.8953 204.059 44.443 204.042 44.034 203.633C43.6221 203.223 43.4118 202.577 43.5587 202.191C43.7085 201.802 44.1608 201.819 44.5698 202.228C44.9817 202.638 45.192 203.284 45.0451 203.67Z" fill="#222949"/>
<path d="M44.6543 203.359C44.5621 203.504 44.3546 203.48 44.1643 203.29C43.9568 203.082 43.8472 202.753 43.9222 202.557C43.9568 202.465 44.0259 202.416 44.1095 202.413C44.1009 202.428 44.0951 202.445 44.0865 202.462C44.0086 202.664 44.1182 202.99 44.3257 203.201C44.4382 203.31 44.5563 203.365 44.6543 203.359Z" fill="#30397A"/>
<path d="M44.6811 203.31C44.6753 203.328 44.6638 203.345 44.6551 203.359C44.5571 203.365 44.4388 203.31 44.3234 203.198C44.1157 202.99 44.0061 202.661 44.084 202.459C44.0926 202.445 44.0984 202.427 44.107 202.41C44.2051 202.404 44.3263 202.459 44.4388 202.572C44.6494 202.782 44.759 203.111 44.6811 203.31Z" fill="#99BCE6"/>
<path d="M52.3082 197.583C52.0144 197.292 51.6975 197.199 51.4872 197.315L50.8478 197.684L51.9856 199.607C51.9856 199.607 52.6049 199.25 52.6222 199.235H52.6251C52.6884 199.186 52.7432 199.12 52.7806 199.027C52.9304 198.638 52.7201 197.992 52.3082 197.583Z" fill="#30397A"/>
<path d="M52.164 199.382C52.0142 199.772 51.562 199.754 51.1529 199.345C50.741 198.935 50.5307 198.289 50.6776 197.903C50.8274 197.514 51.2797 197.531 51.6887 197.941C52.1006 198.35 52.3138 198.996 52.164 199.382Z" fill="#222949"/>
<path d="M51.7761 199.072C51.6838 199.216 51.4763 199.193 51.286 199.002C51.0785 198.795 50.9689 198.466 51.0439 198.27C51.0785 198.177 51.1477 198.128 51.2313 198.125C51.2226 198.14 51.2168 198.157 51.2082 198.174C51.1304 198.376 51.2399 198.702 51.4475 198.913C51.5599 199.022 51.678 199.077 51.7761 199.072Z" fill="#30397A"/>
<path d="M51.8028 199.022C51.797 199.04 51.7855 199.057 51.7768 199.071C51.6788 199.077 51.5605 199.022 51.4451 198.91C51.2374 198.702 51.1278 198.373 51.2057 198.171C51.2143 198.157 51.2201 198.14 51.2288 198.122C51.3268 198.117 51.448 198.171 51.5605 198.284C51.7711 198.492 51.8778 198.823 51.8028 199.022Z" fill="#99BCE6"/>
<path d="M39.1816 181.922L45.7733 177.799C46.2773 177.482 46.8388 177.493 47.3025 177.727V177.715L52.2614 180.789L48.2701 184.082V194.186C48.2701 194.838 47.9504 195.437 47.4321 195.76L44.1693 197.799L44.1146 202.701L39.4091 199.996C38.8044 199.74 38.3436 199.111 38.3436 198.304V183.497C38.3436 182.848 38.6633 182.245 39.1816 181.922Z" fill="#C12B9E"/>
<path d="M53.2347 182.421V197.07C53.2347 197.713 52.915 198.307 52.3967 198.627L45.805 202.698C44.6934 203.384 43.3082 202.519 43.3082 201.141V186.498C43.3082 185.855 43.6279 185.261 44.1462 184.941L50.7379 180.864C51.8466 180.178 53.2347 181.04 53.2347 182.421Z" fill="#F63598"/>
<path d="M40.1578 199.29V184.538C40.1578 183.889 40.4775 183.292 40.9958 182.969L47.5875 178.863C48.0051 178.603 48.4601 178.563 48.8661 178.687C48.3593 178.197 47.5933 178.038 46.9252 178.456L40.3335 182.562C39.8151 182.885 39.4955 183.485 39.4955 184.131V198.883C39.4955 199.754 40.0714 200.564 40.751 200.775C40.417 200.452 40.1578 199.841 40.1578 199.29Z" fill="#0D1884"/>
<path d="M40.7401 168.243C40.7401 168.243 41.368 168.554 41.273 168.693C41.1779 168.828 41.0108 169.125 41.0108 169.125C41.0108 169.125 41.3623 169.437 41.8952 168.871C42.5577 168.171 43.7329 167.937 43.9087 167.332C44.07 166.775 43.8194 166.005 43.2231 166.005C42.6268 166.005 41.0253 166.706 40.4463 167.626C40.1553 168.087 40.5615 168.511 40.5615 168.511L40.7401 168.243Z" fill="#0D1884"/>
<path d="M48.0684 181.507L45.6552 183.009C45.3067 183.226 44.6934 183.2 44.2902 182.949C43.887 182.698 43.8438 182.317 44.1923 182.101L46.6055 180.599C46.9539 180.383 47.5673 180.408 47.9705 180.659C48.3737 180.907 48.4168 181.288 48.0684 181.507Z" fill="#0D1884"/>
<path d="M45.0078 184.408V202.94C44.7714 202.946 44.5379 202.897 44.3246 202.799V184.832L45.0078 184.408Z" fill="#C12B9E"/>
<path d="M46.1997 201.983V183.673L46.8829 183.252V201.986C46.8829 202.009 46.8742 202.029 46.8714 202.049L46.4505 202.309C46.3064 202.263 46.1997 202.136 46.1997 201.983Z" fill="#C12B9E"/>
<path d="M52.5066 180.942V198.537C52.4691 198.566 52.4374 198.604 52.3971 198.63L51.8263 198.981V180.645C52.0713 180.688 52.3019 180.792 52.5066 180.942Z" fill="#C12B9E"/>
<path d="M48.7585 182.09V200.879L48.0753 201.3V182.511L48.7585 182.09Z" fill="#C12B9E"/>
<path d="M50.6321 180.928V199.72L49.949 200.141V181.352L50.6321 180.928Z" fill="#C12B9E"/>
<path d="M36.0713 145.299C36.0713 145.299 34.5594 146.504 35.9619 157.43C35.9619 157.43 39.8322 163.996 40.0194 164.665C40.2411 165.461 41.6695 167.635 41.419 166.334C41.1655 165.037 42.8588 168.203 42.9539 168.14C43.2562 167.938 43.2476 165.57 41.6637 164.581C40.627 163.932 39.2073 158.661 39.0633 157.868C39.0605 157.868 39.2361 145.034 36.0713 145.299Z" fill="#FCB892"/>
<path d="M40.3707 164.664C40.1836 163.998 36.3132 157.43 36.3132 157.43C35.0144 147.32 36.2095 145.535 36.3967 145.322C36.2902 145.299 36.1836 145.287 36.0713 145.296C36.0713 145.296 34.5594 146.501 35.9619 157.427C35.9619 157.427 39.8322 163.992 40.0194 164.661C40.2296 165.411 41.5025 167.375 41.4449 166.524C41.0647 166.106 40.5032 165.14 40.3707 164.664Z" fill="#DB895D"/>
<path d="M41.7677 166.337C41.7706 166.346 41.7706 166.351 41.7706 166.36C42.2145 166.968 42.8919 168.179 42.9525 168.142C43.0072 168.104 43.0505 167.998 43.0764 167.842C42.6008 167.101 41.5688 165.302 41.7677 166.337Z" fill="#DB895D"/>
<defs>
<linearGradient id="paint0_linear_162_4019" x1="26.0176" y1="150.791" x2="55.6182" y2="99.8252" gradientUnits="userSpaceOnUse">
<stop offset="0.00435773" stop-color="#B5CBE6"/>
<stop offset="0.0919" stop-color="#C5D6EA"/>
<stop offset="0.2353" stop-color="#E8EFF4"/>
<stop offset="0.3418" stop-color="#CEDDED"/>
<stop offset="0.4446" stop-color="#BCD0E8"/>
<stop offset="0.5178" stop-color="#B5CBE6"/>
<stop offset="0.5871" stop-color="#BBCFE8"/>
<stop offset="0.6824" stop-color="#CDDCED"/>
<stop offset="0.7861" stop-color="#E8EFF4"/>
<stop offset="0.9985" stop-color="#B5CBE6"/>
</linearGradient>
<linearGradient id="paint1_linear_162_4019" x1="26.0176" y1="150.791" x2="55.6182" y2="99.8252" gradientUnits="userSpaceOnUse">
<stop offset="0.00435773" stop-color="#B5CBE6"/>
<stop offset="0.0919" stop-color="#C5D6EA"/>
<stop offset="0.2353" stop-color="#E8EFF4"/>
<stop offset="0.3418" stop-color="#CEDDED"/>
<stop offset="0.4446" stop-color="#BCD0E8"/>
<stop offset="0.5178" stop-color="#B5CBE6"/>
<stop offset="0.5871" stop-color="#BBCFE8"/>
<stop offset="0.6824" stop-color="#CDDCED"/>
<stop offset="0.7861" stop-color="#E8EFF4"/>
<stop offset="0.9985" stop-color="#B5CBE6"/>
</linearGradient>
</defs>
</svg>
