<svg width="33" height="10" viewBox="0 0 33 10" fill="none" xmlns="http://www.w3.org/2000/svg">
<path d="M32 7.95626C32.5523 7.95626 33 8.41377 33 8.97813C33 9.54249 32.5523 10 32 10L1 10C0.447715 10 -4.17116e-07 9.54249 -3.92447e-07 8.97813C-3.67778e-07 8.41377 0.447715 7.95626 1 7.95626L32 7.95626Z" fill="#283256"/>
<path d="M8.07847 0.299332C8.469 -0.0997325 9.10216 -0.0997324 9.49269 0.299332C9.88321 0.698397 9.88321 1.34541 9.49269 1.74447L1.71451 9.69274C1.32399 10.0918 0.690822 10.0918 0.300296 9.69274C-0.0902294 9.29368 -0.0902294 8.64667 0.300296 8.2476L8.07847 0.299332Z" fill="#283256"/>
</svg>
