<svg width="652" height="674" viewBox="0 0 652 674" fill="none" xmlns="http://www.w3.org/2000/svg">
<path d="M331.722 606.201C338.681 595.641 329.486 577.311 311.184 565.259C292.882 553.208 272.404 551.999 265.446 562.559C258.487 573.119 267.682 591.449 285.984 603.501C304.286 615.552 324.763 616.761 331.722 606.201Z" fill="#D7E9FF"/>
<path d="M171.455 581.373C175.639 572.446 166.495 559.337 151.03 552.093C135.566 544.85 119.637 546.214 115.452 555.141C111.267 564.068 120.412 577.178 135.876 584.422C151.341 591.665 167.27 590.301 171.455 581.373Z" fill="#D7E9FF"/>
<path d="M627.742 421.642C696.897 284.804 613.126 112.093 440.65 35.8853C519.559 70.7486 511.526 242.607 424.428 424.826C483.488 418.018 598.012 415.971 627.742 421.642Z" fill="#7E9DB7"/>
<path d="M622.381 429.331C622.054 429.331 621.713 429.26 621.4 429.118C620.248 428.606 619.751 427.327 620.291 426.247C620.575 425.664 622.011 422.68 623.177 420.221C623.931 418.643 624.57 417.293 624.755 416.923C690.072 283.098 606.613 113.855 438.73 39.6799C437.578 39.1683 437.081 37.8892 437.635 36.809C438.176 35.7289 439.54 35.2741 440.706 35.7857C523.383 72.312 588.457 132.161 623.931 204.29C659.432 276.475 661.224 352.64 628.964 418.728C628.779 419.098 628.139 420.434 627.4 421.997C626.22 424.484 624.77 427.512 624.471 428.095C624.073 428.876 623.248 429.331 622.381 429.331Z" fill="#5E8199"/>
<path d="M440.65 35.8852C268.16 -40.3225 72.2822 8.82456 3.12695 145.649C35.1169 174.458 90.7937 226.205 129.58 294.553C224.839 115.93 361.742 1.02181 440.65 35.8852Z" fill="#7E9DB7"/>
<path d="M2.30285 155.498C1.97584 155.498 1.63461 155.427 1.32182 155.285C0.170182 154.773 -0.327425 153.494 0.227068 152.414C0.795779 151.305 4.66301 143.645 5.24594 142.55C39.4539 77.5137 103.476 30.6266 185.527 10.5585C267.507 -9.50966 358.103 -0.470502 440.622 35.9847C441.774 36.4963 442.272 37.7755 441.717 38.8556C441.177 39.9358 439.798 40.3905 438.646 39.8789C271.204 -34.1116 78.6381 12.804 9.38331 144.455C8.80039 145.549 4.96157 153.153 4.39286 154.262C3.99477 155.029 3.17013 155.498 2.30285 155.498Z" fill="#5E8199"/>
<path d="M440.653 35.8852C361.744 1.02184 224.841 115.93 129.582 294.553C179.302 300.892 382.161 392.165 424.43 424.826C511.528 242.607 519.561 70.7486 440.653 35.8852Z" fill="#7E9DB7"/>
<path d="M419.51 433.936C419.197 433.936 418.87 433.879 418.571 433.751C417.406 433.268 416.88 431.989 417.406 430.894C504.418 248.86 513.845 73.6622 438.405 40.3196C362.937 6.97693 224.115 125.012 128.956 303.451C128.387 304.516 127.008 304.957 125.856 304.417C124.719 303.891 124.249 302.584 124.818 301.518C171.04 214.85 228.864 139.509 287.668 89.3812C347.653 38.2303 401.88 19.4271 440.367 36.4253C478.841 53.4235 497.722 104.532 493.527 180.342C489.419 254.63 463.869 344.226 421.614 432.657C421.23 433.467 420.391 433.936 419.51 433.936Z" fill="#5E8199"/>
<path d="M417.678 68.0461L188.902 539.969L202.311 546.465L431.087 74.5418L417.678 68.0461Z" fill="#344099"/>
<path d="M394.005 142.025C392.925 142.025 391.83 141.783 390.778 141.286C387.067 139.509 385.503 135.046 387.28 131.337L443.938 13.4579C445.715 9.74841 450.165 8.18504 453.89 9.96161C457.601 11.7382 459.165 16.2009 457.388 19.9104L400.73 137.789C399.436 140.475 396.778 142.025 394.005 142.025Z" fill="#344099"/>
<path opacity="0.15" d="M419.546 69.3171L190.875 541.292L195.661 543.61L424.332 71.6341L419.546 69.3171Z" fill="white"/>
<path opacity="0.15" d="M392.4 135.913C392.016 135.913 391.618 135.828 391.249 135.643C389.926 135.003 389.358 133.412 389.998 132.09L446.655 14.2111C447.295 12.8893 448.888 12.335 450.21 12.9604C451.532 13.6 452.101 15.1918 451.461 16.5135L394.803 134.392C394.348 135.359 393.396 135.913 392.4 135.913Z" fill="white"/>
<path d="M627.744 421.642C696.899 284.804 613.128 112.093 440.652 35.8853C495.177 59.9755 510.504 147.639 490.415 265.915C587.877 326.034 645.033 387.432 627.744 421.642Z" fill="#AFCBE2"/>
<path d="M440.65 35.8852C268.16 -40.3225 72.2822 8.82456 3.12695 145.649C20.4158 111.453 125.03 94.4835 218.995 145.99C303.961 56.3797 386.125 11.7949 440.65 35.8852Z" fill="#AFCBE2"/>
<path d="M440.649 35.8851C386.124 11.7948 303.96 56.3796 218.994 145.99C293.78 143.133 450.914 208.255 490.411 265.915C510.501 147.638 495.174 59.9754 440.649 35.8851Z" fill="#AFCBE2"/>
<path d="M486.887 271.472C486.759 271.472 486.631 271.458 486.503 271.444C485.238 271.259 484.399 270.08 484.598 268.914C484.683 268.459 484.925 267.834 485.877 265.631C486.247 264.75 486.816 263.428 486.915 263.115C506.905 143.631 489.346 62.1785 438.689 39.7937C388.187 17.48 309.975 56.2519 224.1 146.175C223.887 146.445 223.005 147.852 222.436 148.79C221.199 150.794 220.659 151.646 220.233 152.101C219.38 152.997 217.929 153.082 216.977 152.286C216.024 151.49 215.939 150.14 216.778 149.245C216.991 148.974 217.858 147.567 218.427 146.644C219.664 144.625 220.218 143.758 220.645 143.304C307.97 51.846 388.159 12.7046 440.651 35.8853C493.285 59.137 511.796 142.252 491.437 263.911C491.351 264.38 491.109 265.006 490.157 267.223C489.787 268.09 489.219 269.412 489.133 269.724C488.934 270.776 487.982 271.472 486.887 271.472Z" fill="#99B8CE"/>
<path d="M251.842 453.62C251.856 453.606 251.87 453.592 251.884 453.578C252.808 451.659 248.941 447.879 243.24 445.107C237.539 442.35 232.164 441.654 231.24 443.572C231.226 443.586 231.24 443.615 231.226 443.629L230.97 443.501L185.089 538.157C181.89 544.751 176.317 549.711 169.393 552.113C162.469 554.515 155.019 554.075 148.422 550.891C141.825 547.693 136.862 542.122 134.46 535.2C132.057 528.279 132.498 520.832 135.682 514.237L145.919 493.103C145.919 493.103 145.635 488.882 137.403 484.192C130.848 480.454 124.848 482.898 124.848 482.898L114.612 504.032C102.384 529.26 112.962 559.731 138.199 571.954C145.223 575.351 152.758 577.071 160.336 577.071C165.952 577.071 171.597 576.133 177.056 574.228C189.895 569.78 200.217 560.584 206.146 548.361L252.026 453.706L251.842 453.62Z" fill="#7E9DB7"/>
<path d="M156.624 570.22C150.169 570.22 143.885 568.856 137.942 566.169C126.951 561.209 118.577 552.071 114.354 540.445C110.018 528.478 110.7 515.09 116.217 503.705L124.534 486.551C125.601 484.362 130.819 482.685 135.596 486.679C136.904 487.773 136.776 490.587 136.022 492.122L127.549 509.618C123.88 517.179 122.97 525.465 124.961 532.983C128.032 544.51 136.819 553.264 148.477 556.405C151.107 557.116 153.837 557.471 156.567 557.471C158.003 557.471 159.439 557.372 160.861 557.173C172.079 555.581 181.292 548.944 186.14 538.938L230.627 447.154C231.694 444.965 243.665 449.556 242.13 452.725L197.642 544.509C192.339 555.453 183.083 563.668 171.595 567.662C166.747 569.367 161.714 570.22 156.624 570.22Z" fill="#ABC7DB"/>
<path d="M494.112 630.95C504.846 630.95 513.547 625.561 513.547 618.912C513.547 612.264 504.846 606.874 494.112 606.874C483.377 606.874 474.676 612.264 474.676 618.912C474.676 625.561 483.377 630.95 494.112 630.95Z" fill="#D7E9FF"/>
<path d="M501.077 486.508H487.471V618.898H501.077V486.508Z" fill="#ECF4FF"/>
<path d="M494.11 486.508H487.471V618.898H494.11V486.508Z" fill="#C9E0FF"/>
<path d="M546.333 490.828C546.333 524.426 522.959 551.657 494.126 551.657C465.292 551.657 441.918 524.426 441.918 490.828C441.918 457.229 465.463 292.833 494.296 292.833C523.116 292.819 546.333 457.229 546.333 490.828Z" fill="#ECF4FF"/>
<path d="M513.121 534.66C484.287 534.66 460.913 507.429 460.913 473.831C460.913 446.955 475.984 336.41 496.77 293.232C495.946 292.962 495.121 292.82 494.296 292.82C465.463 292.82 441.918 457.23 441.918 490.815C441.918 524.399 465.292 551.644 494.14 551.644C510.448 551.644 525.007 542.932 534.575 529.302C528.007 532.742 520.756 534.66 513.121 534.66Z" fill="#C4DCFF"/>
<path d="M148.162 474.726C159.344 474.726 168.408 469.495 168.408 463.043C168.408 456.591 159.344 451.361 148.162 451.361C136.98 451.361 127.916 456.591 127.916 463.043C127.916 469.495 136.98 474.726 148.162 474.726Z" fill="#D7E9FF"/>
<path d="M154.944 363.385H140.77V463.043H154.944V363.385Z" fill="#ECF4FF"/>
<path d="M147.679 363.385H140.77V463.043H147.679V363.385Z" fill="#C9E0FF"/>
<path d="M146.981 426.616C181.177 426.616 208.899 400.177 208.899 367.563C208.899 334.949 181.177 308.51 146.981 308.51C112.784 308.51 85.0625 334.949 85.0625 367.563C85.0625 400.177 112.784 426.616 146.981 426.616Z" fill="#ECF4FF"/>
<path d="M170.597 409.348C136.403 409.348 108.678 382.913 108.678 350.295C108.678 336.353 113.754 323.547 122.228 313.442C100.361 322.552 85.0625 343.359 85.0625 367.578C85.0625 400.195 112.787 426.631 146.981 426.631C166.559 426.631 184.004 417.961 195.35 404.431C187.772 407.586 179.397 409.348 170.597 409.348Z" fill="#C4DCFF"/>
<path d="M149.965 367.364C179.434 367.364 203.324 344.578 203.324 316.469C203.324 288.361 179.434 265.574 149.965 265.574C120.495 265.574 96.6055 288.361 96.6055 316.469C96.6055 344.578 120.495 367.364 149.965 367.364Z" fill="#ECF4FF"/>
<path d="M170.309 352.47C140.835 352.47 116.95 329.687 116.95 301.574C116.95 289.551 121.329 278.522 128.623 269.809C109.77 277.655 96.5898 295.591 96.5898 316.469C96.5898 344.582 120.476 367.364 149.949 367.364C166.826 367.364 181.854 359.889 191.636 348.234C185.11 350.949 177.901 352.47 170.309 352.47Z" fill="#C4DCFF"/>
<path d="M148.647 306.392C171.136 306.392 189.367 289.002 189.367 267.55C189.367 246.097 171.136 228.707 148.647 228.707C126.158 228.707 107.928 246.097 107.928 267.55C107.928 289.002 126.158 306.392 148.647 306.392Z" fill="#ECF4FF"/>
<path d="M164.187 295.037C141.694 295.037 123.467 277.641 123.467 256.194C123.467 247.027 126.808 238.599 132.382 231.961C117.993 237.959 107.941 251.632 107.941 267.564C107.941 289.011 126.169 306.407 148.661 306.407C161.542 306.407 173.002 300.707 180.466 291.81C175.476 293.871 169.974 295.037 164.187 295.037Z" fill="#C4DCFF"/>
<path d="M472.824 459.376C472.824 407.628 435.971 344.07 390.503 317.421C364.115 301.958 340.641 304.232 325.57 317.379C310.5 286.58 287.026 256.776 260.638 241.299C215.169 214.651 178.317 235.003 178.317 286.751C178.317 286.751 166.587 363.569 325.57 573.105C484.553 549.953 472.824 459.376 472.824 459.376Z" fill="#0D1883"/>
<path d="M416.524 545.092L391.217 559.887L402.534 540.885L422.083 537.758L416.524 545.092Z" fill="#0D1883"/>
<path d="M200.864 235.557L173.396 251.802L196.144 253.081L202.158 238.229L200.864 235.557Z" fill="#0D1883"/>
<path d="M441.673 477.625C441.673 425.877 404.821 362.319 359.353 335.67C332.964 320.207 309.491 322.481 294.42 335.628C279.349 304.829 255.876 275.025 229.488 259.548C184.019 232.9 147.167 253.252 147.167 305C147.167 305 135.437 381.819 294.42 591.354C453.403 568.188 441.673 477.625 441.673 477.625Z" fill="#6E79BA"/>
<path d="M420.729 674C431.84 674 440.848 668.801 440.848 662.388C440.848 655.975 431.84 650.777 420.729 650.777C409.618 650.777 400.611 655.975 400.611 662.388C400.611 668.801 409.618 674 420.729 674Z" fill="#D7E9FF"/>
<path d="M427.953 534.66H413.863V662.388H427.953V534.66Z" fill="#ECF4FF"/>
<path d="M420.73 534.66H413.863V662.388H420.73V534.66Z" fill="#C9E0FF"/>
<path d="M420.731 597.508C450.578 597.508 474.773 571.234 474.773 538.824C474.773 506.414 450.578 480.141 420.731 480.141C390.885 480.141 366.689 506.414 366.689 538.824C366.689 571.234 390.885 597.508 420.731 597.508Z" fill="#ECF4FF"/>
<path d="M441.347 580.325C411.504 580.325 387.305 554.06 387.305 521.642C387.305 507.784 391.741 495.064 399.134 485.03C380.04 494.084 366.689 514.749 366.689 538.825C366.689 571.229 390.888 597.508 420.731 597.508C437.821 597.508 453.048 588.895 462.944 575.45C456.332 578.577 449.024 580.325 441.347 580.325Z" fill="#C4DCFF"/>
<path d="M299.908 672.707C321.282 672.707 338.609 662.71 338.609 650.379C338.609 638.047 321.282 628.051 299.908 628.051C278.534 628.051 261.207 638.047 261.207 650.379C261.207 662.71 278.534 672.707 299.908 672.707Z" fill="#D7E9FF"/>
<path d="M291.516 486.92C293.692 474.342 305.748 446.997 299.151 443.742C296.592 442.478 291.715 442.705 289.568 449.939C287.422 457.173 284.706 476.602 284.066 482.77C282.275 500.45 282.588 499.697 280.924 506.661C279.261 513.625 277.413 520.86 279.446 526.019C281.479 531.178 282.773 533.438 282.773 533.438C282.773 533.438 284.052 535.612 285.175 533.765C286.299 531.917 284.209 526.602 284.763 524.015C285.317 521.428 285.488 527.739 286.355 527.824C288.559 528.051 287.962 522.864 286.938 518.984C285.915 515.104 287.18 504.97 288.047 502.17C288.616 500.28 290.095 495.178 291.516 486.92Z" fill="#FCB892"/>
<path d="M283.738 524.015C283.184 526.602 285.274 531.917 284.15 533.765C283.98 534.049 283.809 534.22 283.639 534.348C284.094 534.618 284.648 534.646 285.174 533.765C285.956 532.472 285.174 529.473 284.819 526.914C284.364 525.237 284.165 522.04 283.738 524.015Z" fill="#DB895D"/>
<path d="M299.151 443.743C298.312 443.33 297.218 443.075 296.066 443.188C296.834 443.259 297.545 443.458 298.128 443.743C304.724 447.011 292.668 474.356 290.493 486.92C289.071 495.164 287.592 500.28 287.01 502.17C286.157 504.97 284.891 515.104 285.901 518.984C286.782 522.309 287.337 526.587 286.1 527.611C286.171 527.739 286.256 527.824 286.341 527.838C288.545 528.066 287.948 522.878 286.924 518.998C285.901 515.118 287.166 504.984 288.033 502.184C288.616 500.294 290.095 495.192 291.516 486.934C293.692 474.342 305.748 447.011 299.151 443.743Z" fill="#DB895D"/>
<path d="M319.37 635.953C319.37 635.953 322.327 643.272 320.934 645.76C319.527 648.247 311.906 658.366 310.029 661.791C308.167 665.217 302.395 665.998 301.47 664.591C300.546 663.184 298.357 661.166 304.741 648.403C304.741 648.403 308.793 640.458 309.105 637.346C309.404 634.248 319.37 635.953 319.37 635.953Z" fill="#0863EF"/>
<path d="M304.727 648.418C304.727 648.418 308.779 640.473 309.091 637.36C309.248 635.726 312.063 635.427 314.707 635.498C312.575 635.569 310.655 636.024 310.527 637.36C310.215 640.473 306.163 648.418 306.163 648.418C299.779 661.18 301.954 663.213 302.893 664.606C303.106 664.932 303.603 665.131 304.243 665.217C302.935 665.359 301.826 665.16 301.457 664.606C300.518 663.199 298.343 661.18 304.727 648.418Z" fill="#99BCE6"/>
<path d="M306.676 630.055C306.676 630.055 309.093 638.298 307.387 639.392C305.681 640.473 298.516 640.942 296.952 642.505C295.388 644.068 285.421 648.574 280.289 647.025C275.156 645.475 281.696 639.577 284.81 638.71C287.924 637.843 297.79 633.508 299.013 630.069C300.236 626.63 306.676 630.055 306.676 630.055Z" fill="#0863EF"/>
<path d="M298.997 631.49C297.774 634.93 287.907 639.265 284.793 640.132C282.732 640.7 279.206 643.457 278.509 645.717C277.5 643.4 282.263 639.393 284.793 638.696C287.907 637.829 297.774 633.494 298.997 630.055C300.205 626.615 300.205 628.051 298.997 631.49Z" fill="#99BCE6"/>
<path d="M290.866 499.954C290.582 499.457 289.075 503.99 288.976 504.559C287.838 510.684 284.326 531.349 287.753 547.538C291.35 564.564 297.406 582.102 298.032 596.116C298.658 610.13 296.951 630.212 296.951 630.212C296.951 630.212 302.397 633.168 307.686 629.444C307.686 629.444 310.373 610.556 310.998 607.131C311.624 603.705 307.074 575.195 306.022 567.634C305.084 560.84 302.07 529.189 303.008 528.251C303.818 527.427 293.795 505.184 290.866 499.954Z" fill="#F2F4F7"/>
<path d="M301.228 629.415C301.228 629.415 303.915 610.527 304.541 607.102C305.167 603.676 300.617 575.166 299.565 567.605C298.627 560.811 297.162 533.85 295.584 529.714C291.788 519.822 295.286 519.353 301.499 527.597C302.295 528.648 305.067 560.811 306.02 567.605C307.072 575.18 311.607 603.676 310.996 607.102C310.37 610.527 307.683 629.415 307.683 629.415C304.115 631.931 300.475 631.405 298.484 630.794C299.394 630.51 300.318 630.069 301.228 629.415Z" fill="#B6D1FE"/>
<path d="M290.864 501.446C290.721 499.584 297.091 513.896 322.015 507.045C322.015 507.045 334.484 515.09 328.868 546.215C323.252 577.341 321.858 580.041 324.972 586.422C328.086 592.804 326.991 600.45 320.138 636.564C320.138 636.564 312.588 641.752 308.096 638.014C308.096 638.014 311.138 614.762 307.882 592.974C304.626 571.187 302.067 556.86 301.442 534.433C301.456 534.447 292.74 526.36 290.864 501.446Z" fill="#F2F4F7"/>
<path d="M289.727 502.185C289.67 501.503 290.182 499.03 290.552 498.347C291.589 496.372 294.731 508.481 308.522 508.865C299.068 509.177 292.414 504.544 289.727 502.185Z" fill="#B6D1FE"/>
<path d="M317.992 634.731C324.844 598.617 325.939 590.97 322.826 584.589C319.712 578.208 321.987 576.189 327.603 545.05C332.564 517.52 322.712 507.529 320.366 505.582C320.92 505.439 321.432 505.354 322.015 505.198C322.015 505.198 334.27 513.739 329.749 545.05C325.285 576.019 321.859 578.193 324.972 584.589C328.086 590.97 326.991 600.464 320.138 636.579C320.138 636.579 315.219 639.89 310.982 639.293C314.565 638.867 317.992 634.731 317.992 634.731Z" fill="#B6D1FE"/>
<path d="M302.026 443.174L299.354 454.814L309.263 459.163L318.504 450.664L320.225 440.672L313.002 436.181L302.026 443.174Z" fill="#DB895D"/>
<path d="M295.489 442.407L294.963 442.193C294.963 442.193 295.475 441.582 295.489 442.407Z" fill="#4E87EE"/>
<path d="M322.33 504.046C325.784 515.303 292.615 509.461 290.554 501.204C290.099 499.385 290.682 497.594 290.81 498.219C292.487 505.709 319.5 511.266 322.33 504.046Z" fill="#B6D1FE"/>
<path d="M291.335 459.249C289.8 463.555 289.06 466.526 288.819 468.686C288.463 466.497 288.975 463.015 291.335 456.406C294.776 446.77 295.515 443.459 295.487 442.421L302.78 445.42C302.78 445.42 302.425 446.514 302.084 447.992L295.487 445.278C295.515 446.301 294.776 449.598 291.335 459.249Z" fill="#4E87EE"/>
<path d="M303.124 458.623C301.545 458.14 301.361 455.88 301.617 453.592C301.801 454.672 302.242 455.496 303.124 455.766C309.265 457.628 309.536 458.453 320.682 446.471L335.681 456.335C335.681 456.335 333.364 455.084 330.89 456.122L320.682 449.314C309.521 461.309 309.251 460.485 303.124 458.623Z" fill="#4E87EE"/>
<path d="M321.949 499.371C322.02 499.996 322.148 500.607 322.332 501.204C322.674 502.327 322.645 503.265 322.332 504.061C321.878 502.554 321.806 500.977 321.949 499.371Z" fill="#4E87EE"/>
<path d="M307.655 488.171C305.253 485.357 293.125 480.738 293.125 480.738L293.111 480.681C293.523 485.826 290.637 490.559 290.168 496.031C289.571 489.294 293.594 483.851 293.111 477.839L293.125 477.895C293.125 477.895 305.253 482.529 307.655 485.329C307.854 485.57 308.011 485.542 308.125 485.414C308.58 487.119 308.38 489.01 307.655 488.171Z" fill="#4E87EE"/>
<path d="M307.274 480.766C305.853 479.217 292.204 474.314 292.204 474.314L292.218 474.357C291.08 472.125 289.275 471.429 288.834 468.672C289.076 466.511 289.801 463.555 291.35 459.234C294.791 449.598 295.531 446.287 295.502 445.249L302.099 447.964C301.701 449.684 301.346 451.915 301.616 453.578C301.36 455.866 301.545 458.126 303.123 458.609C309.265 460.471 309.535 461.295 320.682 449.314L330.89 456.122C329.966 456.506 329.013 457.216 328.118 458.453C326.767 460.315 326.426 462.787 326.667 465.346C326.255 469.013 326.426 474.456 327.648 477.782C327.975 478.691 328.004 479.672 327.606 480.539C325.43 485.272 321.08 492.35 321.947 499.356C321.805 500.962 321.876 502.554 322.331 504.032C319.502 511.238 292.403 505.78 290.554 498.333C290.355 497.537 290.242 496.755 290.17 496.002C290.64 490.53 293.526 485.798 293.114 480.653L293.128 480.71C293.128 480.71 305.255 485.343 307.658 488.143C308.383 488.981 308.582 487.091 308.128 485.371C308.611 484.888 308.398 482.003 307.274 480.766Z" fill="#4E87EE"/>
<path d="M307.274 480.766C308.696 482.315 308.667 486.494 307.658 485.314C305.255 482.5 293.128 477.881 293.128 477.881L293.114 477.824C293.085 477.469 293.057 477.114 292.986 476.744C292.815 475.763 292.531 474.996 292.204 474.356L292.189 474.314C292.204 474.314 305.852 479.217 307.274 480.766Z" fill="#0552DE"/>
<path d="M301.968 454.487C300.759 454.416 299.48 453.975 297.703 453.435C294.518 452.469 297.006 444.254 297.333 443.188L302.949 445.505C302.935 445.505 300.916 451.616 301.968 454.487Z" fill="#0552DE"/>
<path d="M317.209 498.973C314.195 489.152 326.152 475.906 324.859 472.921C323.607 470.036 322.356 462.645 325.669 458.097C328.982 453.549 330.432 454.16 330.432 454.16L320.38 447.466C320.636 447.196 320.863 446.955 321.119 446.67L335.65 456.321C335.664 456.335 335.863 456.463 335.849 456.449C335.053 456.065 331.456 454.672 328.555 458.652C325.243 463.2 327.93 475.039 328.1 479.516C328.228 482.841 319.826 491.539 322.769 501.389C326.124 512.631 304.641 508.438 295.271 503.009C305.48 506.377 319.527 506.491 317.209 498.973Z" fill="#0552DE"/>
<path d="M330.886 456.136C332.45 454.842 336.645 455.681 338.55 459.163C340.455 462.645 345.246 496.03 339.744 504.203C334.356 512.218 324.389 513.711 318.588 515.942C313.598 517.875 314.209 518.984 308.209 518.984C305.821 518.984 299.223 515.999 299.351 514.535C299.536 512.503 314.806 514.464 306.475 509.39C305.351 508.708 308.522 508.893 315.787 509.845C322.199 510.698 330.886 498.105 330.886 498.105L327.346 474.328C327.346 474.314 323.28 462.375 330.886 456.136Z" fill="#FCB892"/>
<path d="M338.55 459.163C337.626 457.486 336.19 456.448 334.754 455.937C335.693 456.534 336.56 457.358 337.186 458.481C339.091 461.963 343.882 495.348 338.38 503.52C332.991 511.536 323.025 513.029 317.224 515.26C312.233 517.193 312.845 518.301 306.845 518.301C305.736 518.301 303.717 517.648 301.883 516.809C303.973 517.946 306.802 518.984 308.21 518.984C314.224 518.984 313.598 517.861 318.589 515.942C324.39 513.711 334.356 512.218 339.745 504.203C345.233 496.016 340.456 462.631 338.55 459.163Z" fill="#DB895D"/>
<path d="M293.836 421.67C293.125 431.207 290.793 434.362 290.964 438.512C291.12 442.676 294.888 446.144 294.888 446.144C294.888 446.144 295.897 441.895 297.191 441.383C298.627 440.815 301.57 426.9 301.57 426.9L296.822 421.67C296.836 421.67 293.637 419.396 293.836 421.67Z" fill="#F9339C"/>
<path d="M309.832 447.637C309.22 448.461 308.68 449.115 308.367 449.328C308.495 447.807 308.424 445.86 308.211 443.728C308.694 443.43 309.163 443.117 309.604 442.818C309.789 444.595 309.874 446.258 309.832 447.637Z" fill="#C6724E"/>
<path d="M294.463 423.035C294.378 421.514 294.463 419.567 294.463 419.567L297.719 417.065L307.444 413.441L313.799 424.357L313.5 439.521C313.5 439.521 311.951 441.184 309.605 442.833C308.737 434.291 305.652 422.722 304.06 421.372C302.069 419.666 299.709 418.231 297.207 418.629C296.909 418.671 296.61 418.942 296.311 419.297C298.615 419.169 300.776 420.491 302.624 422.083C304.23 423.447 307.358 435.201 308.211 443.757C305.453 445.448 301.97 446.798 298.657 445.832C294.819 444.695 293.909 432.642 294.463 423.035Z" fill="#FCB892"/>
<path d="M296.309 419.297C296.593 418.942 296.906 418.671 297.204 418.629C299.706 418.231 302.052 419.666 304.057 421.372C305.649 422.722 308.735 434.305 309.602 442.833C309.161 443.145 308.692 443.444 308.209 443.742C307.355 435.186 304.228 423.433 302.621 422.068C300.773 420.491 298.612 419.169 296.309 419.297Z" fill="#DB895D"/>
<path d="M310.215 462.162C309.106 463.171 308.367 463.797 308.367 463.797C308.367 463.797 309.647 461.181 310.983 457.571C312.647 453.109 314.381 447.139 313.869 442.79C314.41 441.781 314.822 440.843 314.921 440.246C316.997 446.599 311.765 458.779 310.215 462.162Z" fill="#C6724E"/>
<path d="M324.063 451.716C323.48 452.895 323.068 453.62 323.068 453.62C323.068 453.62 322.3 451.304 321.547 450.138C321.803 449.669 322.016 449.2 322.172 448.76C322.769 448.632 323.566 450.437 324.063 451.716Z" fill="#0552DE"/>
<path d="M294.46 423.035C294.46 423.035 295.881 418.828 297.204 418.629C299.706 418.231 302.052 419.666 304.057 421.372C306.061 423.063 310.455 440.999 309.786 448.632C310.867 447.878 314.592 442.264 314.919 440.275C317.336 447.679 309.786 463.1 309.786 463.1C309.786 463.1 320.165 454.416 322.156 448.759C323.066 448.589 324.488 452.909 324.488 452.909C324.488 452.909 330.004 443.074 330.132 436.196C330.274 427.924 328.298 402.157 308.023 406.676C303.516 407.685 296.166 413.683 294.204 418.643C293.251 421.073 294.46 423.035 294.46 423.035Z" fill="#F9339C"/>
<path d="M330.118 436.338C329.891 426.588 326.877 404.615 308.024 408.808C303.503 409.817 296.166 415.815 294.204 420.775C294.091 421.073 294.005 421.343 293.948 421.628C293.792 420.846 293.749 419.794 294.204 418.643C296.166 413.669 303.503 407.671 308.024 406.676C328.299 402.157 330.275 427.924 330.133 436.196C330.133 436.238 330.118 436.281 330.118 436.338Z" fill="#F969C2"/>
<path d="M311.339 461.736C310.4 462.574 309.789 463.086 309.789 463.086C309.789 463.086 314.836 452.767 315.348 444.951C315.675 450.238 313.102 457.486 311.339 461.736Z" fill="#F969C2"/>
<path d="M312.732 455.979L310.983 457.571L308.367 463.796C308.367 463.796 310.116 462.347 310.215 462.162C311.012 460.741 312.732 455.979 312.732 455.979Z" fill="#0552DE"/>
<path d="M253.013 619.159C257.176 607.768 244.556 592.693 224.826 585.489C205.096 578.285 185.728 581.679 181.566 593.07C177.404 604.461 190.023 619.536 209.753 626.74C229.483 633.944 248.851 630.55 253.013 619.159Z" fill="#D7E9FF"/>
<path d="M170.169 427.924C170.169 427.924 164.383 419.539 160.985 419.581C160.985 419.581 159.094 419.794 161.042 423.817C162.989 427.839 152.113 420.079 149.312 421.628C146.512 423.177 150.137 430.539 151.473 431.463C152.81 432.387 166.359 436.579 167.852 436.693C169.345 436.807 172.757 436.565 172.757 436.565L174.946 431.633L170.169 427.924Z" fill="#FCB892"/>
<path d="M161.285 424.655C162.081 424.798 162.224 423.817 161.74 422.794C160.973 421.216 160.802 420.235 160.873 419.61C160.489 419.738 159.423 420.434 161.058 423.817C161.072 423.859 161.257 424.613 161.285 424.655Z" fill="#E4A178"/>
<path d="M168.535 435.671C167.042 435.557 153.493 431.364 152.157 430.441C151.033 429.673 148.332 424.4 149.114 421.785C146.725 423.604 150.18 430.554 151.474 431.45C152.81 432.373 166.36 436.566 167.853 436.68C169.345 436.794 172.758 436.552 172.758 436.552L173.198 435.543C172.416 435.614 169.8 435.77 168.535 435.671Z" fill="#E4A178"/>
<path d="M203.552 385.272C203.552 385.272 191.04 377.199 188.95 430.894C188.95 430.894 172.785 426.602 171.107 425.38C169.443 424.172 168.576 433.211 165.918 437.02C163.742 440.132 196.059 448.134 197.552 448.148C204.689 448.219 202.543 401.375 203.708 396.415C204.888 391.44 203.552 385.272 203.552 385.272Z" fill="#F8FBFF"/>
<path d="M203.736 386.253C203.921 388.413 203.964 391.213 203.381 393.7C202.215 398.675 204.348 445.505 197.225 445.434C195.945 445.42 172.016 439.536 166.585 435.897C166.372 436.31 166.159 436.693 165.931 437.02C163.756 440.133 196.073 448.134 197.566 448.149C204.703 448.22 202.556 401.375 203.722 396.415C204.603 392.634 204.049 388.186 203.736 386.253Z" fill="#B6D1FE"/>
<path d="M199.559 393.345C199.559 393.345 191.597 403.748 194.825 444.95L197.569 448.148L205.502 393.345H199.559Z" fill="#B6D1FE"/>
<path d="M241.001 595.177C241.328 596.144 241.328 611.536 241.001 613.781C240.674 616.027 234.901 623.076 230.096 622.124C225.29 621.158 221.11 620.205 224.963 607.045C228.816 593.884 229.769 591.013 229.769 591.013L241.001 595.177Z" fill="#0863EF"/>
<path d="M241.002 595.177L229.77 591.013C229.77 591.013 229.713 591.198 229.557 591.695L238.954 595.191C239.281 596.158 239.281 611.55 238.954 613.796C238.67 615.743 234.291 621.3 229.997 622.11C230.026 622.11 230.054 622.124 230.083 622.124C234.888 623.091 240.675 616.027 240.987 613.781C241.314 611.536 241.314 596.144 241.002 595.177Z" fill="#99BCE6"/>
<path d="M217.586 583.31C217.586 584.276 220.799 595.49 210.207 595.177C199.615 594.85 196.089 603.52 190.317 602.553C184.545 601.587 183.905 596.783 185.184 595.177C186.464 593.571 195.634 590.615 197.553 587.73C199.473 584.845 203.781 580.737 203.781 580.737L217.586 583.31Z" fill="#0863EF"/>
<path d="M204.59 582.356C204.59 582.356 200.282 586.464 198.362 589.349C196.443 592.234 187.273 595.19 185.993 596.796C185.453 597.464 185.297 598.701 185.666 599.994C184.373 598.246 184.415 596.157 185.183 595.19C186.462 593.584 195.633 590.628 197.552 587.743C199.471 584.858 203.779 580.75 203.779 580.75L217.57 583.323C217.57 583.508 217.684 584.062 217.798 584.829L204.59 582.356Z" fill="#99BCE6"/>
<path d="M210.521 481.662C209.554 481.335 197.995 471.826 197.043 469.908C196.076 467.989 201.223 582.997 201.223 582.997C201.223 582.997 214.701 589.734 218.539 582.997C222.392 576.26 217.9 513.086 218.539 505.382C219.179 497.679 220.118 486.778 220.118 486.778L210.521 481.662Z" fill="#4E87EE"/>
<path d="M213.718 582.997C217.571 576.26 213.775 513.086 212.268 505.51C210.676 497.494 208.045 489.933 208.045 489.933L204.406 482.372C203.837 482.188 200.411 477.682 196.97 474.655C196.799 471.386 197.169 461.977 197.297 462.219C198.264 464.138 209.581 481.335 210.533 481.662L220.13 486.792C220.13 486.792 219.192 497.693 218.552 505.397C217.912 513.1 222.405 576.275 218.552 583.011C216.832 586.01 213.206 586.337 209.709 585.769C211.358 585.399 212.808 584.575 213.718 582.997Z" fill="#0552DE"/>
<path d="M242.398 477.91C243.678 478.336 244.531 507.841 242.398 528.364C240.265 548.887 245.839 582.244 243.052 592.079C240.265 601.914 227.427 598.489 226.147 595.078C224.867 591.652 222.152 528.378 222.152 528.378C222.152 528.378 220.801 498.56 215.669 493.856C210.536 489.152 205.83 481.775 204.437 475.366C203.043 468.941 242.398 477.91 242.398 477.91Z" fill="#4E87EE"/>
<path d="M239.823 592.079C242.61 582.244 237.037 548.887 239.169 528.364C241.302 507.841 240.449 478.336 239.169 477.91C239.169 477.91 219.933 473.518 208.844 473.077C218.867 472.551 242.397 477.91 242.397 477.91C243.676 478.336 244.529 507.841 242.397 528.364C240.264 548.887 245.837 582.244 243.051 592.079C241.458 597.665 236.639 598.972 232.53 598.432C235.658 598.02 238.643 596.243 239.823 592.079Z" fill="#0552DE"/>
<path d="M208.416 392.99C213.392 396.031 213.122 392.421 213.122 392.421C213.122 392.421 210.235 400.124 209.439 400.778C208.643 401.418 213.932 405.824 217.401 405.653C224.339 405.326 232.77 399.783 233.41 397.538C234.049 395.292 231.846 395.392 231.035 393.473C230.239 391.554 230.552 386.821 230.552 386.821L232.798 372.623C232.798 372.623 203.44 389.934 208.416 392.99Z" fill="#E4A178"/>
<path d="M243.676 481.605C244.53 484.177 229.132 495.718 214.16 487.162C199.189 478.606 197.113 472.352 197.113 472.352C197.113 472.352 242.823 479.046 243.676 481.605Z" fill="#0552DE"/>
<path d="M241.53 435.585C241.53 437.29 242.81 476.63 243.663 479.203C244.516 481.775 229.118 493.316 214.147 484.76C199.175 476.204 196.488 470.874 196.488 470.874C196.488 470.874 196.673 399.812 197.043 397.097C197.398 394.453 197.398 381.151 207.592 384.761C214.09 387.063 213.123 392.407 213.123 392.407C213.123 392.407 207.735 400.934 214.161 402.64C220.573 404.345 229.985 402.64 231.706 399.215C233.426 395.789 234.706 396.131 234.706 396.131L247.104 403.493L241.53 435.585Z" fill="#F8FBFF"/>
<path d="M213.604 402.455C211.045 402.64 211.045 402.64 208.855 401.816C206.396 400.892 208.088 392.194 208.088 392.194C208.088 392.194 206.467 387.56 201.576 384.903C203.026 384.064 204.974 383.851 207.604 384.789C214.102 387.091 214.699 392.165 214.699 392.165C214.699 392.165 208.329 400.409 213.604 402.455Z" fill="#B6D1FE"/>
<path d="M235.628 478.393C234.775 475.82 233.495 436.494 233.495 434.774L239.054 402.711L232.074 398.575C233.595 395.917 234.704 396.159 234.704 396.159L247.101 403.521L241.543 435.584C241.543 437.29 242.822 476.63 243.675 479.203C244.429 481.462 232.543 490.686 219.463 486.977C228.96 486.281 236.225 480.169 235.628 478.393Z" fill="#B6D1FE"/>
<path d="M208.229 366.824C214.016 372.111 221.935 371.699 223.627 371.543C223.74 371.017 223.854 370.477 223.996 369.894C223.996 369.894 214.869 371.116 208.357 365.247L208.471 363.797L234.787 369.809L225.418 385.158C224.636 386.082 219.305 392.592 214.101 394.169C208.912 395.733 206.452 390.246 206.196 389.323C205.94 388.399 204.049 380.411 207.789 372.296L208.229 366.824Z" fill="#F0B38C"/>
<path d="M223.997 369.895C223.855 370.477 223.742 371.018 223.628 371.543C221.922 371.7 214.017 372.112 208.23 366.825L208.358 365.261C214.87 371.117 223.997 369.895 223.997 369.895Z" fill="#E4A178"/>
<path d="M224.426 382.202C225.393 382.202 226.942 376.802 229.672 376.958C230.724 377.015 230.881 378.806 230.781 380.852C230.71 379.559 230.426 378.606 229.672 378.564C226.942 378.408 225.393 383.808 224.426 383.808C223.758 383.808 222.492 383.51 222.706 379.374C222.862 381.975 223.857 382.202 224.426 382.202Z" fill="#D8936C"/>
<path d="M223.999 369.894C223.999 369.894 210.208 371.813 204.436 360.116C204.436 360.116 214.061 347.936 228.008 353.535C241.969 359.149 240.036 367.961 239.396 371.656C238.756 375.338 232.657 384.647 230.894 386.807C229.131 388.967 232.401 377.114 229.671 376.958C226.942 376.801 225.392 382.202 224.425 382.202C223.458 382.202 221.269 381.605 223.999 369.894Z" fill="#42250E"/>
<path d="M228.008 355.952C216.449 351.304 207.876 358.851 205.274 361.58C204.99 361.111 204.691 360.642 204.436 360.116C204.436 360.116 214.061 347.936 228.008 353.535C239.069 357.984 240.15 364.451 239.808 368.771C239.467 364.678 237.164 359.633 228.008 355.952Z" fill="#5E3F2A"/>
<path d="M237.774 492.449C237.589 492.705 237.304 492.861 237.105 493.103C236.11 494.282 232.769 501.218 234.148 501.659C235.655 502.142 237.646 497.167 237.859 498.759C238.484 503.663 233.651 505.624 232.812 507.386C232.399 508.267 235.584 511.437 237.859 510.286C242.366 507.997 245.053 505.539 245.181 497.75C245.394 482.216 242.892 485.343 237.774 492.449Z" fill="#F0B38C"/>
<path d="M233.805 500.991C233.819 501.346 233.904 501.588 234.117 501.659C235.155 502 236.833 499.371 237.586 498.461C237.586 498.219 237.444 498.077 237.146 498.077C235.681 498.091 235.255 500.721 233.805 500.991Z" fill="#E4A178"/>
<path d="M243.56 486.636C244.256 487.958 244.555 491.156 244.47 497.068C244.356 504.856 241.655 507.329 237.148 509.603C235.882 510.243 234.347 509.547 233.295 508.651C234.247 509.802 236.252 511.067 237.83 510.271C242.337 507.983 245.024 505.524 245.152 497.736C245.266 490.189 244.74 487.048 243.56 486.636Z" fill="#E4A178"/>
<path d="M233.04 394.866C234.32 396.145 250.798 403.564 252.504 406.989C254.21 410.414 257.139 431.093 257.352 454.615C257.565 479.274 247.158 498.759 247.158 498.759C247.158 498.759 239.893 496.187 238.599 488.071C238.599 488.071 241.642 461.437 241.642 455.88C241.642 450.323 238.045 435.997 238.045 435.997L232.813 413.811L222.121 404.829C222.121 404.829 230.253 405.255 231.96 398.845C233.04 394.866 233.04 394.866 233.04 394.866Z" fill="#F8FBFF"/>
<path d="M252.519 406.975C252.221 406.364 251.439 405.639 250.372 404.829C252.107 409.561 254.78 429.416 254.979 451.886C255.192 476.545 244.785 496.03 244.785 496.03C244.785 496.03 242.794 495.32 240.719 493.486C243.306 497.381 247.173 498.759 247.173 498.759C247.173 498.759 257.581 479.274 257.367 454.615C257.154 431.079 254.225 410.4 252.519 406.975Z" fill="#B6D1FE"/>
</svg>
