<svg width="33" height="10" viewBox="0 0 33 10" fill="none" xmlns="http://www.w3.org/2000/svg">
<path d="M0.999999 2.04374C0.447714 2.04374 -3.67777e-07 1.58623 -3.92447e-07 1.02187C-4.17116e-07 0.457507 0.447715 5.5698e-07 1 5.32839e-07L32 -8.22214e-07C32.5523 -8.46355e-07 33 0.457505 33 1.02187C33 1.58623 32.5523 2.04374 32 2.04374L0.999999 2.04374Z" fill="white"/>
<path d="M24.9215 9.70067C24.531 10.0997 23.8978 10.0997 23.5073 9.70067C23.1168 9.3016 23.1168 8.65459 23.5073 8.25553L31.2855 0.307253C31.676 -0.0918116 32.3092 -0.0918117 32.6997 0.307253C33.0902 0.706317 33.0902 1.35333 32.6997 1.75239L24.9215 9.70067Z" fill="white"/>
</svg>
