<svg width="43" height="44" viewBox="0 0 43 44" fill="none" xmlns="http://www.w3.org/2000/svg">
<path fill-rule="evenodd" clip-rule="evenodd" d="M16.011 30.02C23.7482 30.02 30.0206 23.7478 30.0206 16.0107C30.0206 8.27353 23.7482 2.00133 16.011 2.00133C8.27368 2.00133 2.00137 8.27353 2.00137 16.0107C2.00137 23.7478 8.27368 30.02 16.011 30.02ZM16.011 32.0214C24.8536 32.0214 32.0219 24.8531 32.0219 16.0107C32.0219 7.16822 24.8536 0 16.011 0C7.16835 0 0 7.16822 0 16.0107C0 24.8531 7.16835 32.0214 16.011 32.0214Z" fill="white"/>
<path d="M25.7247 28.1402C25.3339 27.7494 25.3339 27.1158 25.7247 26.725C26.1155 26.3342 26.7491 26.3342 27.1399 26.725L42.7069 42.2918C43.0977 42.6825 43.0977 43.3161 42.7069 43.7069C42.3161 44.0977 41.6825 44.0977 41.2917 43.7069L25.7247 28.1402Z" fill="white"/>
<path d="M15.0103 9.00601C15.0103 8.45335 15.4583 8.00534 16.011 8.00534C16.5636 8.00534 17.0116 8.45335 17.0116 9.00601V23.0153C17.0116 23.568 16.5636 24.016 16.011 24.016C15.4583 24.016 15.0103 23.568 15.0103 23.0153V9.00601Z" fill="white"/>
<path d="M23.0158 15.01C23.5684 15.01 24.0164 15.458 24.0164 16.0107C24.0164 16.5633 23.5684 17.0113 23.0158 17.0113H9.00617C8.4535 17.0113 8.00548 16.5633 8.00548 16.0107C8.00548 15.458 8.4535 15.01 9.00617 15.01L23.0158 15.01Z" fill="white"/>
</svg>
